<?xml version="1.0" encoding="utf-8"?>
<!-- Generator: Adobe Illustrator 26.1.0, SVG Export Plug-In . SVG Version: 6.00 Build 0)  -->
<svg version="1.1" xmlns="http://www.w3.org/2000/svg" xmlns:xlink="http://www.w3.org/1999/xlink" x="0px" y="0px"
	 viewBox="0 0 354.3 297.6" style="enable-background:new 0 0 354.3 297.6;" xml:space="preserve">
<style type="text/css">
	.st0{fill:#F0858C;}
	.st1{fill:#FFFFFF;}
	.st2{font-family:'Lato-Medium';}
	.st3{font-size:16px;}
	.st4{fill:none;}
	.st5{fill:#834F45;}
	.st6{fill:#263239;}
	.st7{fill:#F8BC9E;}
	.st8{fill:#EC9A6E;}
	.st9{fill:#455A64;}
	.st10{fill:#F5F4F5;}
	.st11{fill:#E0E0E0;}
	.st12{fill:none;stroke:#444C52;stroke-miterlimit:10;}
	.st13{fill:#E9505B;}
	.st14{opacity:0.4;}
	.st15{fill:#010202;}
	.st16{fill:#FBFBFB;}
	.st17{opacity:0.3;}
	.st18{fill:#EE7160;}
	.st19{fill:#8E3039;}
	.st20{fill:#EBEBEB;}
	.st21{fill:#C27461;}
	.st22{fill:#7E4436;}
	.st23{opacity:0.3;fill:#8E3039;}
	.st24{opacity:0.3;fill:#010202;}
	.st25{fill:#5B342F;}
	.st26{fill:#A56A5F;}
	.st27{fill:#83544C;}
</style>
<g id="Ebene_2">
	<g>
		<path class="st0" d="M190,296.6H30c-6.4,0-11.7-5.2-11.7-11.7v-21.5c0-6.4,5.2-11.7,11.7-11.7h160c6.4,0,11.7,5.2,11.7,11.7V285
			C201.6,291.4,196.4,296.6,190,296.6z"/>
		<text transform="matrix(1 0 0 1 32.529 284.9937)" class="st1 st2 st3">Anna möchte wissen</text>
		<rect y="264.2" class="st4" width="18.4" height="20.8"/>
	</g>
</g>
<g id="Ebene_1">
	<g>
		<g>
			<g>
				<g>
					<g>
						<g>
							<path class="st6" d="M163.8,27.4c-1.2,3.2,0.9,6.7,3.3,9.2c2.4,2.5,5.3,4.8,6,8.2c0.6,2.8-0.4,5.8-0.2,8.6
								c0.3,3,1.8,5.6,2.8,8.4c1.6,5.1,1,10.7-0.5,15.8c-1.2,4.2-3,8.4-5.9,11.7c-2.9,3.3-7.1,5.6-11.5,5.5c-1.2,0-2.6-0.3-3.4-1.2
								c-0.7-0.8-0.9-2-1-3c-2.5-22.1-2.5-44.5,0-66.7"/>
						</g>
					</g>
					<g>
						<g>
							<path class="st6" d="M161.4,98.7c9.6-0.4,18.4,8.7,17.7,18.3c9.7,2.4,16.5,13,14.6,22.8c-0.6,3.2-2.1,6.3-2.3,9.6
								c-0.2,3.6,1.1,7.1,1.7,10.6c1.3,6.4,0.6,13.1-1.9,19.1c-1.5,3.6-4.3,7.4-8.3,7.5c-2.7,0.1-5.2-1.7-6.6-3.9
								c-1.5-2.2-2.1-4.9-2.7-7.5c-1.7-8.6-2.2-17.4-4.6-25.9c-2.4-8.4-6.9-16.8-14.6-21.1c-4.2-2.4-9.3-3.5-12.6-7
								c-3.5-3.7-4.3-9.5-2.5-14.2c1.8-4.7,6-8.3,10.8-10.1"/>
						</g>
					</g>
					<g>
						<g>
							<g>
								<g>
									<path class="st6" d="M95.2,35.2c-0.1-4.1,3.7-7.2,7.5-8.7c3.8-1.5,8-2.1,11.4-4.3c3-2,5-5.2,7.6-7.8
										c6.2-6.3,16-8.9,24.6-6.6c8.6,2.3,15.6,9.5,17.8,18.2c1.5,5.8,0.5,12.7-4.1,16.6c-5.3,4.5-13.2,3.5-20.1,2.1
										c-6.8-1.4-14.6-2.8-20.3,1.2c-3.4,2.4-5.4,6.3-7.5,10c-2.1,3.6-4.7,7.4-8.7,8.7c-4,1.4-9.4-1-9.5-5.2"/>
								</g>
							</g>
						</g>
						<g>
							<g>
								<g>
									<g>
										<g>
											<g>
												<g>
													<g>
														<g>
															<g>
																<g>
																	<g>
																		<g>
																			<g>
																				<g>
																					<g>
																						<path class="st7" d="M111.3,36.1c-3.5,0.4-6.2,3.4-6.1,7l0,0l4.1,92.4c0.2,10.9,16.1,17,27.8,16.8l0,0
																							c11.8-0.3,12.2-6.1,12.3-16.4c0.2-17.3,0.2-23.9,0.2-23.8c0,0,14.9-2.5,18-22c1.5-9.7,1-25.5,0.1-38.5
																							c-0.8-11.7-8.5-26-20.2-24.7L111.3,36.1z"/>
																					</g>
																				</g>
																			</g>
																		</g>
																	</g>
																</g>
															</g>
														</g>
													</g>
													<g>
														<g>
															<g>
																<g>
																	<g>
																		<g>
																			<g>
																				<g>
																					<g>
																						<g>
																							<path class="st6" d="M164.4,63.8c0,1.3-1,2.4-2.4,2.5c-1.4,0.1-2.5-0.9-2.6-2.2c0-1.3,1-2.4,2.4-2.5
																								C163.2,61.4,164.4,62.4,164.4,63.8z"/>
																						</g>
																					</g>
																				</g>
																			</g>
																		</g>
																	</g>
																</g>
															</g>
														</g>
														<g>
															<g>
																<g>
																	<g>
																		<g>
																			<g>
																				<g>
																					<g>
																						<g>
																							<g>
																								<path class="st6" d="M164.3,59.8c-0.3,0.3-2.2-1.1-4.9-1.1c-2.7,0-4.6,1.4-4.9,1c-0.1-0.1,0.2-0.7,1-1.4
																									c0.8-0.6,2.3-1.2,4-1.2c1.7,0,3.1,0.6,3.9,1.2C164.2,59.1,164.5,59.7,164.3,59.8z"/>
																							</g>
																						</g>
																					</g>
																				</g>
																			</g>
																		</g>
																	</g>
																</g>
															</g>
														</g>
													</g>
													<g>
														<g>
															<g>
																<g>
																	<g>
																		<g>
																			<g>
																				<g>
																					<g>
																						<g>
																							<path class="st6" d="M138.6,63.8c0,1.3-1,2.4-2.4,2.5c-1.4,0.1-2.5-0.9-2.6-2.2c0-1.3,1-2.4,2.4-2.5
																								C137.4,61.4,138.6,62.4,138.6,63.8z"/>
																						</g>
																					</g>
																				</g>
																			</g>
																		</g>
																	</g>
																</g>
															</g>
														</g>
														<g>
															<g>
																<g>
																	<g>
																		<g>
																			<g>
																				<g>
																					<g>
																						<g>
																							<g>
																								<path class="st6" d="M138,60.4c-0.3,0.3-2.2-1.1-4.9-1.1c-2.7,0-4.6,1.4-4.9,1c-0.1-0.1,0.2-0.7,1-1.4
																									c0.8-0.6,2.3-1.2,4-1.2c1.7,0,3.1,0.6,3.9,1.2C137.8,59.6,138.1,60.2,138,60.4z"/>
																							</g>
																						</g>
																					</g>
																				</g>
																			</g>
																		</g>
																	</g>
																</g>
															</g>
														</g>
													</g>
													<g>
														<g>
															<g>
																<g>
																	<g>
																		<g>
																			<g>
																				<g>
																					<g>
																						<g>
																							<path class="st6" d="M147.7,80.3c0-0.2,1.7-0.4,4.4-0.8c0.7-0.1,1.3-0.2,1.4-0.7c0.2-0.5-0.1-1.2-0.5-2
																								c-0.6-1.7-1.3-3.4-2-5.2c-2.8-7.4-4.9-13.5-4.6-13.6c0.3-0.1,2.8,5.8,5.7,13.2c0.7,1.8,1.3,3.6,2,5.2
																								c0.3,0.8,0.7,1.7,0.4,2.7c-0.2,0.5-0.7,0.9-1.1,1c-0.4,0.1-0.8,0.1-1.2,0.2
																								C149.4,80.4,147.8,80.4,147.7,80.3z"/>
																						</g>
																					</g>
																				</g>
																			</g>
																		</g>
																	</g>
																</g>
															</g>
														</g>
													</g>
													<g>
														<g>
															<g>
																<g>
																	<g>
																		<g>
																			<g>
																				<g>
																					<g>
																						<path class="st8" d="M149.7,112c0,0-13.1,0.9-26.1-6.9c0,0,6.3,13.3,25.8,11.5L149.7,112z"/>
																					</g>
																				</g>
																			</g>
																		</g>
																	</g>
																</g>
															</g>
														</g>
													</g>
													<g>
														<g>
															<g>
																<g>
																	<g>
																		<g>
																			<g>
																				<g>
																					<g>
																						<path class="st8" d="M146.6,86.7c-1-1.3-2.7-2-4.3-1.8c-1.2,0.1-2.3,0.7-3,1.6c-0.7,0.9-0.9,2.3-0.2,3.2
																							c0.7,1,2.2,1.2,3.5,0.9c1.3-0.4,2.4-1.2,3.4-2.1c0.3-0.2,0.6-0.5,0.8-0.8c0.2-0.3,0.2-0.7,0-1"/>
																					</g>
																				</g>
																			</g>
																		</g>
																	</g>
																</g>
															</g>
														</g>
													</g>
													<g>
														<g>
															<g>
																<g>
																	<g>
																		<g>
																			<g>
																				<g>
																					<g>
																						<g>
																							<path class="st6" d="M139.8,82.1c0.4,0,0.4,2.9,2.9,5c2.5,2.1,5.6,1.7,5.6,2.1c0,0.2-0.7,0.6-2,0.6
																								c-1.3,0-3.2-0.4-4.7-1.6c-1.5-1.3-2.2-3-2.3-4.2C139.3,82.8,139.6,82.1,139.8,82.1z"/>
																						</g>
																					</g>
																				</g>
																			</g>
																		</g>
																	</g>
																</g>
															</g>
														</g>
													</g>
												</g>
											</g>
										</g>
										<g>
											<g>
												<g>
													<g>
														<g>
															<g>
																<g>
																	<g>
																		<g>
																			<path class="st6" d="M139.2,55.7c-0.3,0.7-2.9,0.4-6.1,0.8c-3.2,0.3-5.7,1.3-6.1,0.6c-0.2-0.3,0.3-1,1.3-1.7
																				c1-0.7,2.6-1.4,4.5-1.6c1.9-0.2,3.6,0.1,4.8,0.5C138.7,54.7,139.3,55.3,139.2,55.7z"/>
																		</g>
																	</g>
																</g>
															</g>
														</g>
													</g>
												</g>
											</g>
										</g>
										<g>
											<g>
												<g>
													<g>
														<g>
															<g>
																<g>
																	<g>
																		<g>
																			<path class="st6" d="M163.3,52c-0.5,0.6-2.3,0-4.5,0c-2.2-0.1-4.1,0.4-4.5-0.2c-0.2-0.3,0.1-0.9,0.9-1.5
																				c0.8-0.6,2.2-1.1,3.7-1c1.5,0,2.9,0.6,3.6,1.2C163.3,51.1,163.5,51.7,163.3,52z"/>
																		</g>
																	</g>
																</g>
															</g>
														</g>
													</g>
												</g>
											</g>
										</g>
									</g>
								</g>
							</g>
						</g>
						<g>
							<g>
								<g>
									<path class="st6" d="M97.7,100.1c5.3,1.1,11.2-0.6,15.2-4.3c4-3.7,6.1-9.4,5.4-14.8c-0.6-4.8-3.2-9.6-1.5-14.2
										c2.2-6,10.6-7.8,12.8-13.8c1.3-3.5,0.1-7.5,1.6-10.9c1.4-3.2,4.7-5,8-6.2c3.3-1.2,6.8-2,9.5-4.1s4.5-6.2,2.7-9.2
										c-14.5,1.7-28.8,5.2-42.5,10.3c-3.2,1.2-6.5,2.6-8.4,5.4c-2,3-1.9,6.8-1.7,10.4C99.6,66.3,96.9,82.6,97.7,100.1"/>
								</g>
							</g>
						</g>
					</g>
					<g>
						<g>
							<g>
								<path class="st9" d="M93.1,94.6c0,0-0.1,0-0.3-0.1c-0.2-0.1-0.5-0.2-0.9-0.4c-0.7-0.4-1.7-1.4-2.4-2.9
									c-0.7-1.5-1.1-3.6-0.6-5.9c0.5-2.3,1.8-4.7,3.5-7.1c1.7-2.4,3.9-4.8,5.3-7.9c0.7-1.5,1.3-3.2,1.3-5c0-1.8-0.5-3.6-1.1-5.4
									c-0.6-1.8-1.2-3.8-1.1-5.9c0.1-2.1,0.7-4.2,1.8-6c1.1-1.8,2.6-3.5,4.5-4.6c1.9-1.2,4.2-1.6,6.4-1.8c2.2-0.2,4.4-0.4,6.4-1.1
									c2-0.7,3.6-2.2,4.5-4.1c1-1.8,1.5-3.8,2.1-5.7c0.6-1.9,1.3-3.8,2.2-5.6c1.8-3.5,4.3-6.4,7.3-8.2c3-1.8,6.3-2.6,9.2-2.4
									c3,0.2,5.5,1.4,7.3,3c1.7,1.6,2.8,3.4,3.3,5c0.5,1.6,0.5,2.9,0.5,3.7c-0.1,0.9-0.2,1.3-0.2,1.3c0,0,0.1-0.4,0.1-1.3
									c0-0.8,0-2.1-0.5-3.7c-0.5-1.5-1.5-3.3-3.3-4.8c-1.7-1.5-4.2-2.7-7.1-2.8c-2.9-0.2-6.1,0.6-9,2.4c-2.9,1.8-5.3,4.6-7.1,8
									c-0.9,1.7-1.6,3.5-2.1,5.5c-0.6,1.9-1.1,3.9-2.2,5.8c-0.5,0.9-1.2,1.8-2,2.6c-0.8,0.8-1.8,1.3-2.8,1.7
									c-2.1,0.8-4.4,0.9-6.6,1.2c-2.2,0.2-4.4,0.6-6.2,1.7c-1.8,1.1-3.3,2.6-4.4,4.4c-1,1.8-1.6,3.8-1.7,5.7
									c-0.1,2,0.5,3.9,1.1,5.7c0.6,1.8,1.2,3.7,1.1,5.6c0,1.9-0.6,3.7-1.4,5.2c-1.5,3.1-3.7,5.5-5.4,7.9c-1.7,2.3-3.1,4.6-3.5,6.9
									c-0.5,2.2-0.1,4.3,0.5,5.7c0.6,1.5,1.6,2.4,2.3,2.9C92.7,94.5,93.1,94.6,93.1,94.6z"/>
							</g>
						</g>
					</g>
					<g>
						<g>
							<g>
								<path class="st9" d="M149.6,9.8c0,0,0.3,0,0.8,0.2c0.5,0.2,1.1,0.6,1.8,1.1c1.4,1.1,3.1,3.2,3.5,6.1
									c0.4,2.8-0.6,5.4-1.6,6.8c-0.5,0.7-1,1.3-1.4,1.6c-0.4,0.3-0.6,0.5-0.7,0.4c-0.1-0.1,0.8-0.8,1.8-2.3
									c0.9-1.5,1.8-3.9,1.4-6.5c-0.4-2.6-1.9-4.7-3.2-5.8C150.7,10.3,149.6,9.9,149.6,9.8z"/>
							</g>
						</g>
					</g>
					<g>
						<g>
							<g>
								<path class="st9" d="M192.7,143.3c-0.1,0,0.3-0.7,0.6-2.1c0.2-1.3,0.1-3.4-1-5.6c-1-2.2-3.2-4.3-6.1-5.7
									c-1.5-0.7-3.1-1.3-4.8-1.7c-1.7-0.4-3.5-0.8-5.4-1.4c-1.8-0.6-3.6-1.4-4.9-2.7c-1.4-1.3-2-3.1-2.3-4.7
									c-0.3-1.6-0.4-3.2-0.8-4.6c-0.3-1.4-1-2.6-1.8-3.5c-1.6-1.9-3.4-2.8-4.7-3.2c-1.3-0.4-2.1-0.4-2.1-0.5c0,0,0.2,0,0.6,0
									c0.4,0,0.9,0.1,1.6,0.3c1.3,0.4,3.3,1.2,5,3.2c0.8,1,1.5,2.2,1.9,3.6c0.4,1.4,0.5,3,0.8,4.6c0.3,1.6,0.9,3.2,2.2,4.4
									c1.2,1.2,2.9,2,4.7,2.5c1.8,0.6,3.6,0.9,5.3,1.4c1.7,0.4,3.4,1,4.9,1.8c3,1.5,5.2,3.7,6.3,6c1.1,2.3,1.1,4.5,0.8,5.8
									c-0.1,0.7-0.3,1.2-0.5,1.5C192.8,143.1,192.8,143.3,192.7,143.3z"/>
							</g>
						</g>
					</g>
				</g>
				<g>
					<g>
						<path class="st6" d="M108.1,108.8c-9.9-2.6-18.4-12.3-21.8-21.9c-3.5-9.6-3.5-20.1-2.6-30.2c0.6-7.4,1.9-15.2,6.8-20.7
							c7.4-8.4,15.4-12.6,26.5-12.3"/>
					</g>
				</g>
			</g>
			<g>
				<g>
					<g>
						<path class="st10" d="M165.7,130.3l-9.2-2.3c2.2-1.7,2.8-3.9,1.8-6.4c-1.1-2.9-3.9-4.9-7-5.2l-41.9-4.7
							c-1.5-0.2-3,0.7-3.5,2.1c-1.9,4.7-1.9,8.6-0.2,11.7l-0.2,0l-8.1,1.6L83.8,247.7l89.6-4.2L165.7,130.3z"/>
					</g>
				</g>
				<g>
					<g>
						<g>
							<g>
								<path class="st6" d="M152.5,128.4c0,0-0.6,0.2-1.7,0.3c-1.1,0.2-2.7,0.4-4.6,0.6c-3.9,0.4-9.4,0.6-15.4,0.3
									c-6-0.3-11.4-1.1-15.3-1.9c-1.9-0.4-3.5-0.7-4.6-1c-1.1-0.3-1.7-0.4-1.6-0.5c0,0,0.6,0.1,1.7,0.3c1.1,0.2,2.6,0.5,4.6,0.8
									c3.9,0.7,9.3,1.4,15.2,1.7c6,0.3,11.4,0.1,15.3-0.2c2-0.1,3.5-0.3,4.6-0.4C151.9,128.4,152.5,128.4,152.5,128.4z"/>
							</g>
						</g>
					</g>
					<g>
						<g>
							<g>
								<path class="st11" d="M112,147.6c-0.1-0.1,1.3-2.4,3.1-5.2c1.9-2.8,3.5-5,3.6-4.9c0.1,0.1-1.3,2.4-3.1,5.2
									C113.7,145.5,112.1,147.7,112,147.6z"/>
							</g>
						</g>
					</g>
					<g>
						<g>
							<g>
								<path class="st11" d="M140.8,149.7c-0.1,0.1-1.9-1.9-4-4.5c-2.1-2.6-3.7-4.8-3.5-4.9c0.1-0.1,1.9,1.9,4,4.5
									C139.4,147.4,141,149.6,140.8,149.7z"/>
							</g>
						</g>
					</g>
					<g>
						<g>
							<g>
								<path class="st11" d="M127.4,165c-0.2,0-0.8-2.7-1.4-6c-0.6-3.3-0.9-6.1-0.8-6.1c0.2,0,0.8,2.7,1.4,6
									C127.2,162.3,127.6,165,127.4,165z"/>
							</g>
						</g>
					</g>
					<g>
						<g>
							<g>
								<path class="st11" d="M149.5,166c0.1,0.1-2.2,2.5-5.1,5.4c-2.9,2.9-5.4,5.1-5.5,5c-0.1-0.1,2.2-2.5,5.1-5.4
									C146.9,168.1,149.4,165.9,149.5,166z"/>
							</g>
						</g>
					</g>
					<g>
						<g>
							<g>
								<path class="st11" d="M119.9,186.5c-0.1,0.1-2.8-1.5-5.5-4.4c-2.7-2.8-4.2-5.7-4.1-5.7c0.1-0.1,1.8,2.5,4.5,5.3
									C117.5,184.6,120,186.4,119.9,186.5z"/>
							</g>
						</g>
					</g>
					<g>
						<g>
							<g>
								<path class="st11" d="M129.4,202.4c0,0.2-2.5,1-5.4,2.5c-2.9,1.5-5,3.2-5.1,3c-0.1-0.1,1.9-2,4.9-3.6
									C126.7,202.9,129.4,202.3,129.4,202.4z"/>
							</g>
						</g>
					</g>
					<g>
						<g>
							<g>
								<path class="st11" d="M144.9,203.4c-0.1,0-0.7-0.7-1.8-1.9c-1-1.2-2.4-2.9-3.8-4.9c-1.4-2-2.6-3.8-3.4-5.2
									c-0.8-1.4-1.3-2.2-1.2-2.3c0.1,0,0.6,0.8,1.6,2c1,1.5,2.2,3.2,3.5,5.1c1.3,1.9,2.6,3.5,3.6,5
									C144.4,202.6,144.9,203.4,144.9,203.4z"/>
							</g>
						</g>
					</g>
					<g>
						<g>
							<g>
								<path class="st11" d="M146.4,217c0,0.2-2.9,0.9-6.6,1.5c-3.7,0.6-6.7,0.8-6.8,0.7c0-0.2,3-0.6,6.7-1.2
									C143.4,217.4,146.4,216.8,146.4,217z"/>
							</g>
						</g>
					</g>
					<g>
						<g>
							<g>
								<path class="st11" d="M121.4,126.7c-0.1-0.1,0.5-0.7,0.9-1.8c0.5-1.2,0.7-2.9,0.5-4.8c-0.3-1.9-0.9-3.5-1.4-4.7
									c-0.5-1.2-0.8-1.9-0.7-1.9c0.1,0,0.5,0.6,1.1,1.8c0.6,1.1,1.3,2.8,1.6,4.8c0.3,2-0.1,3.8-0.7,5
									C122.1,126.3,121.4,126.8,121.4,126.7z"/>
							</g>
						</g>
					</g>
					<g>
						<g>
							<g>
								<path class="st11" d="M138.1,117.7c0.1-0.1,1.2,1.4,1.7,3.6c0.5,2.2,0.3,4,0.1,4c-0.2,0-0.2-1.8-0.7-3.8
									C138.7,119.4,138,117.8,138.1,117.7z"/>
							</g>
						</g>
					</g>
				</g>
			</g>
			<g>
				<g>
					<g>
						<g>
							<g>
								<g>
									<g>
										<g>
											<path class="st7" d="M213.6,203.7l41.7-73.2l5-12.7c0,0,13-27.9,13.9-30.8c1-3.3,2.9-3.6,4.1-3.1
												c1.8,0.7,2.4,3.5,1.6,6.3c-0.3,1-5.3,16.3-5.3,16.3s1.1-1,4.3-3.2c3.2-2.2,9.1-2.1,14.5-0.2c5.4,1.9,6.8,3,6.1,5.1
												c-0.3,0.9-1,1.4-1.7,1.7c-1.3,0.5-2.7,0.5-4,0.1c-8.7-3-12.6,1-12.6,1l-0.7,1.7c0,0,6.6-2.1,10.3,0.9
												c0.6,0.5,1,1,1.4,1.6c2.3,0.8,4.2,2.8,4.8,5.2c0.6,2.5-0.2,5.3-2.1,7c-0.9,0.8-2.2,1.4-3.3,0.8c-0.6-0.3-0.9-0.9-1.3-1.4
												c-0.2-0.3-0.4-0.6-0.6-0.8l-2.5,4.4c0,0-6.1,9.6-8.3,14l-28.7,76.5c-4,10.6-15.9,15.9-26.4,11.7h0
												C212.3,228,207.5,214.4,213.6,203.7z"/>
										</g>
									</g>
								</g>
							</g>
						</g>
					</g>
					<g>
						<g>
							<g>
								<g>
									<g>
										<g>
											<g>
												<path class="st7" d="M258.2,130.2c1.5,1,3.5,0.3,4.8-0.8c1.3-1.1,2.2-2.7,3.5-4c3.7-3.7,9.9-4.1,13.5-7.9
													c0.5-0.5,0.9-1.4,0.5-2c-0.4-0.6-1.2-0.5-1.9-0.3c-5.7,1.1-11.4,2.3-17.1,3.4"/>
											</g>
										</g>
									</g>
								</g>
							</g>
						</g>
						<g>
							<g>
								<g>
									<g>
										<g>
											<g>
												<g>
													<path class="st8" d="M261.5,118.6c0-0.1,0.6-0.3,1.8-0.6c1.2-0.3,2.9-0.7,5-1.2c2.2-0.5,4.7-1,7.4-1.6
														c0.7-0.1,1.4-0.3,2.2-0.4c0.7-0.1,1.6-0.5,2.6,0.1c0.5,0.3,0.7,1,0.6,1.5c-0.1,0.5-0.4,0.9-0.7,1.3
														c-0.6,0.6-1.2,1.2-1.9,1.7c-2.8,2-6,2.8-8.4,4.1c-1.3,0.6-2.4,1.4-3.2,2.2c-0.9,0.8-1.6,1.8-2.3,2.6
														c-1.4,1.7-3.2,2.6-4.5,2.5c-1.3,0-1.8-0.6-1.8-0.7c0-0.1,0.6,0.4,1.8,0.3c1.2-0.1,2.7-0.9,4-2.6
														c0.7-0.8,1.3-1.8,2.3-2.8c0.9-1,2.1-1.8,3.4-2.4c2.6-1.4,5.7-2.2,8.3-4.1c0.7-0.4,1.2-1,1.7-1.5
														c0.5-0.5,0.6-1.2,0.3-1.4c-0.3-0.3-1.1-0.1-1.9,0.1c-0.7,0.1-1.5,0.3-2.2,0.4c-2.7,0.5-5.3,1-7.5,1.4
														c-2.1,0.4-3.9,0.7-5.1,0.8C262.2,118.6,261.5,118.6,261.5,118.6z"/>
												</g>
											</g>
										</g>
									</g>
								</g>
							</g>
						</g>
					</g>
					<g>
						<g>
							<g>
								<g>
									<g>
										<g>
											<g>
												<path class="st8" d="M280.3,112.7c0.1,0.1,0.3-1.4,2-2.6c0.8-0.6,2-1.1,3.3-1.1c1.3,0,2.8,0.3,4.3,0.7
													c1.5,0.4,3,0.9,4.5,1c1.4,0.1,2.7-0.1,3.7-0.6c1-0.5,1.5-1.4,1.6-2c0.1-0.6,0-0.9,0-0.9c-0.1,0-0.1,0.3-0.2,0.9
													c-0.2,0.5-0.6,1.3-1.5,1.6c-0.9,0.4-2.2,0.5-3.5,0.4c-1.3-0.1-2.8-0.6-4.3-1c-1.5-0.5-3.1-0.8-4.6-0.7
													c-1.4,0.1-2.7,0.6-3.6,1.3c-0.8,0.7-1.3,1.5-1.5,2.1C280.3,112.4,280.3,112.7,280.3,112.7z"/>
											</g>
										</g>
									</g>
								</g>
							</g>
						</g>
					</g>
					<g>
						<g>
							<g>
								<g>
									<g>
										<g>
											<g>
												<path class="st8" d="M280.3,89.1c-0.1,0-0.4,1.2-1,3c-0.6,2.1-1.4,4.6-2.3,7.4c-0.9,2.8-1.7,5.3-2.4,7.4
													c-0.6,1.9-1,3-0.9,3.1c0.1,0,0.6-1.1,1.3-2.9c0.7-1.8,1.7-4.4,2.6-7.3c0.9-2.9,1.6-5.5,2.1-7.5
													C280.1,90.3,280.3,89.1,280.3,89.1z"/>
											</g>
										</g>
									</g>
								</g>
							</g>
						</g>
					</g>
					<g>
						<g>
							<g>
								<g>
									<g>
										<g>
											<g>
												<path class="st8" d="M282.7,117.3c0,0,0.4,0,1-0.1c0.6,0,1.6-0.1,2.4,0.6c0.4,0.4,0.5,0.9,0.4,1.5
													c-0.1,0.6-0.4,1.2-0.8,1.9c-0.3,0.7-0.7,1.6-0.4,2.5c0.3,0.9,1,1.6,2,2c0.9,0.3,2,0.1,2.7-0.3c0.8-0.4,1.4-1,1.8-1.8
													c0.7-1.4,1-2.8,1.2-4c0.2-1.2,0.2-2.1,0-2.8c-0.1-0.7-0.4-1-0.4-0.9c-0.1,0,0.1,0.4,0.1,1c0.1,0.6,0,1.6-0.2,2.7
													c-0.2,1.1-0.6,2.5-1.3,3.8c-0.7,1.2-2.3,2.2-3.8,1.7c-0.7-0.3-1.4-0.9-1.6-1.5c-0.2-0.7,0-1.4,0.3-2.1
													c0.3-0.7,0.7-1.4,0.8-2.1c0.1-0.7-0.1-1.5-0.6-1.9c-1-0.9-2.1-0.7-2.7-0.6C283,117.2,282.7,117.3,282.7,117.3z"/>
											</g>
										</g>
									</g>
								</g>
							</g>
						</g>
					</g>
					<g>
						<g>
							<g>
								<g>
									<g>
										<g>
											<g>
												<path class="st8" d="M289.9,125.1c0,0-0.2,0.3-0.2,0.9c0,0.6,0.3,1.5,1.3,2.2c0.9,0.6,2.4,0.7,3.7,0
													c1.3-0.7,2.3-2,2.8-3.6c0.5-1.6,0.4-3.2,0-4.5c-0.4-1.4-1.3-2.4-2-3.1c-0.8-0.7-1.6-1.1-2.1-1.3
													c-0.6-0.2-0.9-0.2-0.9-0.2c-0.1,0.1,1.3,0.4,2.7,1.8c0.7,0.7,1.4,1.7,1.8,2.9c0.4,1.2,0.4,2.7,0,4.2
													c-0.5,1.4-1.4,2.6-2.5,3.2c-1.1,0.6-2.4,0.6-3.2,0.1c-0.8-0.5-1.2-1.3-1.3-1.8C289.8,125.4,289.9,125.1,289.9,125.1z"/>
											</g>
										</g>
									</g>
								</g>
							</g>
						</g>
					</g>
					<g>
						<g>
							<g>
								<g>
									<g>
										<g>
											<g>
												<path class="st8" d="M276,132c0-0.1-0.5-0.3-1.5-0.5c-1-0.1-2.4,0-3.8,0.9l0.5,0.3c0.1-0.7,0.3-1.4,0.3-2.2
													c0.4-4.2-1-7.5-1.1-7.4c-0.2,0,0.8,3.3,0.5,7.4c-0.1,0.7-0.2,1.4-0.3,2.1l-0.1,0.7l0.6-0.4c1.2-0.8,2.6-1,3.5-1
													C275.4,131.9,276,132,276,132z"/>
											</g>
										</g>
									</g>
								</g>
							</g>
						</g>
					</g>
					<g>
						<g>
							<g>
								<g>
									<g>
										<g>
											<g>
												<path class="st8" d="M284.7,105.9c-0.2,0,0.1,1.3,1.2,2.3c1.2,1,2.5,1.1,2.5,0.9c0-0.2-1.1-0.5-2.1-1.4
													C285.3,106.8,284.8,105.8,284.7,105.9z"/>
											</g>
										</g>
									</g>
								</g>
							</g>
						</g>
					</g>
				</g>
			</g>
			<g>
				<g>
					<g>
						<g>
							<g>
								<g>
									<g>
										<path class="st13" d="M154.5,264.5l43.6,0.4l-7.3-31.6l2.5,6c4.6,11.3,15.6,18.6,27.8,18.6h0c13.8,0,23.3-10.3,29.2-22.8
											c13.6-29.2,26.8-76.3,26.8-76.3l-26.6-23.4c-19.2,36.4-37.3,68-37.3,68s-5.2-15.9-9.3-30c-4-14.2-4-21.6-10.2-28.7
											c-9.5-10.9-23.1-13.6-35.7-16.8l-0.5,58.8L154.5,264.5"/>
									</g>
								</g>
							</g>
						</g>
						<g>
							<g>
								<g>
									<g>
										<path class="st13" d="M104.6,220.7l79.4,15.5l3.9,30.5l-121.8,0c-14.1,0.2-25.3-11.8-24.2-25.9
											c1.8-22.2,3.7-49.6,5.1-61.2c1.1-9,4.7-18.4,9-26.4c6.1-11.6,26.6-26.4,44.6-27.2l3.4,75.7"/>
									</g>
								</g>
							</g>
						</g>
					</g>
				</g>
				<g class="st14">
					<g>
						<g>
							<g>
								<g>
									<g>
										<path class="st15" d="M154.5,264.5l43.6,0.4l-7.3-31.6l2.5,6c4.6,11.3,15.6,18.6,27.8,18.6h0c13.8,0,23.3-10.3,29.2-22.8
											c13.6-29.2,26.8-76.3,26.8-76.3l-26.6-23.4c-19.2,36.4-37.3,68-37.3,68s-5.2-15.9-9.3-30c-4-14.2-4-21.6-10.2-28.7
											c-9.5-10.9-23.1-13.6-35.7-16.8l-0.5,58.8L154.5,264.5"/>
									</g>
								</g>
							</g>
						</g>
						<g>
							<g>
								<g>
									<g>
										<path class="st15" d="M104.6,220.7l71.6,13.1c3,0.5,5.3,2.8,6,5.8l5.7,27l-121.8,0c-14.1,0.2-25.3-11.8-24.2-25.9
											c1.8-22.2,3.7-49.6,5.1-61.2c1.1-9,4.7-18.4,9-26.4c6.1-11.6,26.6-26.4,44.6-27.2l3.4,75.7"/>
									</g>
								</g>
							</g>
						</g>
					</g>
				</g>
				<g>
					<g>
						<g>
							<path class="st6" d="M89.5,218.5c0,0,0-0.3,0-0.7c0-0.5,0-1.2,0-2.1c0-1.9,0-4.5,0-7.7c0-6.5-0.1-15.4-0.6-25.2
								c-0.2-4.9-0.6-9.6-0.9-13.9c-0.3-4.3-0.7-8.1-1.6-11.2c-0.9-3.1-2.3-5.4-3.5-6.6c-1.2-1.3-2.1-1.8-2.1-1.8
								c0,0,0.9,0.4,2.3,1.7c1.3,1.3,2.8,3.5,3.7,6.7c1,3.1,1.4,7,1.7,11.2c0.4,4.3,0.7,8.9,1,13.9c0.5,9.9,0.6,18.8,0.4,25.3
								c-0.1,3.2-0.1,5.8-0.2,7.7c0,0.9-0.1,1.5-0.1,2.1C89.5,218.2,89.5,218.5,89.5,218.5z"/>
						</g>
					</g>
				</g>
				<g>
					<g>
						<g>
							<path class="st6" d="M182.5,238.3c-0.1,0.1-0.8-1.1-2.9-2.3c-1-0.6-2.4-1.2-4.1-1.6c-1.6-0.5-3.6-0.8-5.7-1.3
								c-8.5-1.7-20.2-4.1-33.2-6.6c-13-2.4-24.8-4.4-33.3-5.8c-4.2-0.7-7.7-1.2-10.1-1.6c-1.2-0.2-2.1-0.3-2.8-0.5
								c-0.6-0.1-1-0.2-1-0.2c0,0,0.3,0,1,0.1c0.7,0.1,1.6,0.2,2.8,0.4c2.4,0.3,5.9,0.8,10.2,1.4c8.6,1.3,20.4,3.2,33.4,5.6
								c13,2.4,24.7,4.9,33.2,6.7c2.1,0.5,4,0.9,5.7,1.4c1.7,0.5,3,1.1,4.1,1.7c1,0.6,1.8,1.3,2.2,1.8c0.2,0.2,0.4,0.4,0.5,0.6
								C182.4,238.2,182.5,238.3,182.5,238.3z"/>
						</g>
					</g>
				</g>
				<g>
					<g>
						<g>
							<path class="st6" d="M89.7,218.5c0,0.1-1.5,0.4-3.7,1.4c-1.1,0.5-2.4,1.1-3.8,1.9c-1.4,0.8-2.9,1.8-4.3,3
								c-1.4,1.2-2.7,2.5-3.7,3.7c-1,1.2-1.9,2.4-2.5,3.5c-1.3,2.1-1.9,3.5-2,3.4c0,0,0.1-0.4,0.3-1c0.2-0.6,0.7-1.6,1.3-2.6
								c0.6-1.1,1.4-2.3,2.5-3.6c1-1.3,2.3-2.6,3.7-3.8c1.5-1.2,3-2.2,4.4-3c1.4-0.8,2.8-1.4,4-1.8c1.2-0.4,2.1-0.7,2.8-0.8
								C89.3,218.5,89.7,218.4,89.7,218.5z"/>
						</g>
					</g>
				</g>
				<g>
					<g>
						<g>
							<path class="st6" d="M192.3,237.5c0,0-0.1-0.3-0.2-0.8c-0.1-0.6-0.2-1.3-0.4-2.2c-0.3-1.9-0.7-4.7-1.2-8.1
								c-0.9-6.8-2.1-16.2-3-26.7c-0.9-10.5-1.5-19.9-1.8-26.8c-0.2-3.4-0.2-6.2-0.3-8.1c0-0.9,0-1.6,0-2.2c0-0.5,0-0.8,0-0.8
								c0,0,0,0.3,0.1,0.8c0,0.6,0.1,1.3,0.1,2.2c0.1,2,0.3,4.7,0.5,8.1c0.4,6.9,1,16.3,2,26.8c0.9,10.4,2,19.9,2.8,26.7
								c0.4,3.4,0.7,6.1,1,8.1c0.1,0.9,0.2,1.6,0.3,2.2C192.3,237.2,192.3,237.5,192.3,237.5z"/>
						</g>
					</g>
				</g>
				<g>
					<g>
						<g>
							<path class="st6" d="M218.6,225.7c0,0-0.3-0.2-0.6-0.7c-0.4-0.5-0.9-1.2-1.5-2.2c-1.1-1.9-2.4-4.7-3.2-8
								c-0.8-3.3-0.9-6.4-0.7-8.6c0.1-1.1,0.2-2,0.3-2.6c0.1-0.6,0.2-0.9,0.3-0.9c0.1,0-0.1,1.4-0.2,3.6c-0.1,2.2,0.1,5.2,0.8,8.5
								c0.8,3.3,2,6,3,8C217.9,224.5,218.7,225.6,218.6,225.7z"/>
						</g>
					</g>
				</g>
				<g>
					<g>
						<g>
							<path class="st16" d="M89.2,177.6c0,0-0.1,0-0.4,0.1c-0.3,0-0.7,0.1-1.2,0.1c-1,0.1-2.6,0-4.4-0.3c-1.8-0.3-4-1-6.3-2
								c-2.3-0.9-4.7-2.2-7.2-3.4c-2.5-1.3-5-2.3-7.3-3.1c-2.3-0.7-4.5-1.2-6.3-1.2c-3.7-0.2-5.9,0.8-5.9,0.7c0,0,0.1-0.1,0.4-0.2
								c0.3-0.1,0.6-0.3,1.1-0.4c1-0.3,2.5-0.5,4.4-0.5c1.9,0,4.1,0.4,6.5,1.1c2.4,0.7,4.9,1.8,7.4,3.1c2.5,1.3,4.9,2.5,7.2,3.4
								c2.2,1,4.3,1.7,6.1,2C86.8,177.9,89.2,177.5,89.2,177.6z"/>
						</g>
					</g>
				</g>
				<g>
					<g>
						<g>
							<path class="st16" d="M102.8,174.9c0,0.2-2.9,0.8-6.5,1.4c-3.6,0.6-6.5,1-6.6,0.8c0-0.2,2.9-0.8,6.5-1.4
								C99.8,175.1,102.7,174.8,102.8,174.9z"/>
						</g>
					</g>
				</g>
				<g>
					<g>
						<g>
							<path class="st16" d="M88.7,198.5c0,0-0.6,0.3-1.6,0.7c-1,0.4-2.6,1-4.5,1.6c-3.8,1.2-9.2,2.7-15.2,3.8
								c-3,0.5-5.9,0.9-8.5,1.2c-2.6,0.3-5,0.4-7.1,0.2c-2-0.2-3.6-0.8-4.6-1.3c-0.5-0.3-0.9-0.5-1.1-0.7c-0.2-0.2-0.3-0.3-0.3-0.3
								c0,0,0.5,0.3,1.5,0.8c1,0.5,2.5,1,4.5,1.1c2,0.2,4.3,0,7-0.3c2.6-0.3,5.5-0.7,8.5-1.2c6-1.1,11.3-2.4,15.2-3.6
								c1.9-0.6,3.5-1.1,4.5-1.4C88.1,198.7,88.7,198.5,88.7,198.5z"/>
						</g>
					</g>
				</g>
				<g>
					<g>
						<g>
							<path class="st16" d="M102.4,204.3c0,0.2-2.7,0.3-6,0.4c-3.3,0.1-6,0-6-0.2c0-0.2,2.7-0.3,6-0.4
								C99.8,204.1,102.4,204.2,102.4,204.3z"/>
						</g>
					</g>
				</g>
				<g>
					<g>
						<g>
							<path class="st16" d="M45.8,254.4c0,0,0-0.2,0.1-0.6c0.1-0.4,0.3-1,0.4-1.7c0.1-0.4,0.2-0.8,0.3-1.2c0.1-0.4,0.3-0.9,0.5-1.4
								c0.4-1,0.8-2.1,1.4-3.3c0.3-0.6,0.6-1.2,0.9-1.9c0.3-0.7,0.7-1.3,1.1-2c0.7-1.4,1.7-2.7,2.7-4.2c2.1-2.8,4.7-5.7,7.7-8.4
								c3.1-2.6,6.3-4.8,9.4-6.5c1.6-0.8,3.1-1.6,4.5-2.1c0.7-0.3,1.4-0.6,2.1-0.8c0.7-0.2,1.4-0.4,2-0.6c1.3-0.4,2.4-0.6,3.5-0.9
								c0.5-0.1,1-0.2,1.4-0.3c0.4-0.1,0.8-0.1,1.2-0.2c0.7-0.1,1.2-0.2,1.7-0.2c0.4,0,0.6-0.1,0.6,0c0,0-0.2,0.1-0.6,0.1
								c-0.4,0.1-1,0.2-1.7,0.3c-0.4,0.1-0.8,0.1-1.2,0.2c-0.4,0.1-0.9,0.2-1.4,0.4c-1,0.3-2.2,0.5-3.4,1c-0.6,0.2-1.3,0.4-2,0.7
								c-0.7,0.2-1.4,0.6-2.1,0.8c-1.5,0.6-2.9,1.3-4.5,2.1c-3,1.7-6.2,3.8-9.3,6.4c-3,2.7-5.6,5.5-7.7,8.3c-1,1.4-2,2.8-2.7,4.1
								c-0.4,0.7-0.8,1.3-1.1,1.9c-0.3,0.6-0.6,1.3-0.9,1.9c-0.6,1.2-1,2.3-1.4,3.3c-0.2,0.5-0.4,0.9-0.5,1.4
								c-0.1,0.4-0.3,0.8-0.4,1.2c-0.2,0.7-0.4,1.2-0.5,1.6C45.9,254.3,45.9,254.4,45.8,254.4z"/>
						</g>
					</g>
				</g>
				<g>
					<g>
						<g>
							<path class="st16" d="M101,220.7c0.1,0.1-2.4,1.6-4.5,5.7c-1,2-2,4.5-2.5,7.5c-0.6,2.9-0.8,6.2-1,9.7
								c-0.2,3.5-0.5,6.8-1.1,9.7c-0.6,3-1.6,5.5-2.8,7.5c-1.1,2-2.4,3.4-3.4,4.2c-0.5,0.4-0.9,0.7-1.2,0.9
								c-0.3,0.2-0.4,0.3-0.4,0.3c-0.1-0.1,2.4-1.6,4.6-5.6c1.1-2,2-4.5,2.6-7.4c0.6-2.9,0.8-6.2,1.1-9.7c0.2-3.5,0.5-6.8,1.1-9.7
								c0.6-3,1.6-5.5,2.7-7.6c1.1-2,2.4-3.4,3.3-4.3c0.5-0.4,0.9-0.7,1.1-0.9C100.8,220.7,101,220.6,101,220.7z"/>
						</g>
					</g>
				</g>
				<g>
					<g>
						<g>
							<path class="st16" d="M119.8,266.8c-0.2,0,0-9.5,0.4-21.2c0.4-11.7,0.8-21.2,1-21.2c0.2,0,0,9.5-0.4,21.2
								C120.4,257.4,119.9,266.9,119.8,266.8z"/>
						</g>
					</g>
				</g>
				<g>
					<g>
						<g>
							<path class="st16" d="M149.6,265.2c0,0-0.2-0.5-0.5-1.4c-0.1-0.4-0.3-1-0.4-1.7c-0.1-0.7-0.3-1.4-0.5-2.2
								c-0.3-1.7-0.5-3.6-0.6-5.9c0-2.2,0.1-4.7,0.5-7.2c0.4-2.5,1-4.9,1.7-7c0.7-2.1,1.5-3.9,2.3-5.4c0.4-0.8,0.8-1.4,1.1-2
								c0.3-0.6,0.6-1.1,0.9-1.4c0.5-0.8,0.8-1.2,0.9-1.2c0.1,0.1-1.1,1.8-2.5,4.8c-0.7,1.5-1.5,3.3-2.2,5.4
								c-0.7,2.1-1.3,4.4-1.7,6.9c-0.4,2.5-0.5,4.9-0.5,7.1c0,2.2,0.2,4.2,0.5,5.8C149.1,263.2,149.7,265.2,149.6,265.2z"/>
						</g>
					</g>
				</g>
				<g>
					<g>
						<g>
							<path class="st16" d="M98.9,143.6c0,0.1-1.7-0.7-4.6-1.6c-2.8-0.9-6.9-1.9-11.4-2.3c-4.6-0.4-8.7-0.1-11.7,0.3
								c-3,0.4-4.8,0.9-4.8,0.8c0,0,0.4-0.2,1.2-0.4c0.8-0.2,2-0.5,3.5-0.8c3-0.5,7.2-0.9,11.8-0.5c4.6,0.4,8.7,1.5,11.5,2.5
								c1.4,0.5,2.6,1,3.3,1.4C98.5,143.4,99,143.6,98.9,143.6z"/>
						</g>
					</g>
				</g>
				<g>
					<g>
						<g>
							<path class="st16" d="M185.8,189.9c0,0.1-1.6,0-4.1-0.1c-2.5-0.1-6-0.2-9.8-0.3c-3.8-0.1-7.3-0.1-9.8-0.2
								c-2.5,0-4.1-0.1-4.1-0.1c0,0,0.4-0.1,1.1-0.1c0.7,0,1.7-0.1,3-0.1c2.5-0.1,6-0.1,9.9,0c3.8,0.1,7.3,0.3,9.8,0.5
								c1.3,0.1,2.3,0.2,3,0.3C185.4,189.8,185.8,189.9,185.8,189.9z"/>
						</g>
					</g>
				</g>
				<g>
					<g>
						<g>
							<path class="st16" d="M207.6,185.8c0,0.1-1.4,0.6-3.5,1.6c-2.1,1.1-5,2.8-7.7,5.2c-2.7,2.4-4.8,5.1-6,7.1
								c-1.3,2-1.9,3.4-2,3.3c0,0,0.1-0.4,0.4-1c0.3-0.6,0.7-1.5,1.3-2.5c1.2-2.1,3.2-4.8,6-7.3c2.8-2.5,5.7-4.2,7.9-5.1
								c1.1-0.5,2-0.8,2.7-1C207.2,185.8,207.5,185.7,207.6,185.8z"/>
						</g>
					</g>
				</g>
				<g>
					<g>
						<g>
							<path class="st16" d="M196.8,150.5c0,0.1-2.2-0.3-5.6,0.8c-1.7,0.5-3.6,1.4-5.6,2.5c-2.1,1.1-4.4,2.3-7,3.1
								c-5.2,1.7-10.3,1.6-13.8,0.9c-1.8-0.3-3.1-0.8-4.1-1.1c-0.9-0.4-1.4-0.6-1.4-0.6c0-0.1,2.1,0.8,5.5,1.3
								c3.5,0.6,8.4,0.6,13.5-1c2.5-0.8,4.8-2,6.9-3.1c2.1-1,4-1.9,5.8-2.4c1.7-0.5,3.2-0.6,4.2-0.6c0.5,0,0.9,0.1,1.1,0.1
								C196.7,150.5,196.8,150.5,196.8,150.5z"/>
						</g>
					</g>
				</g>
				<g>
					<g>
						<g>
							<path class="st16" d="M191.4,224.2c0,0-0.4,0.2-1.3,0.6c-0.4,0.2-0.9,0.4-1.6,0.6c-0.6,0.2-1.3,0.5-2.1,0.7
								c-1.6,0.5-3.5,0.9-5.6,1.2c-2.1,0.3-4.5,0.4-7,0.4c-2.5-0.1-4.8-0.4-7-0.8c-2.1-0.4-4-0.9-5.5-1.5c-0.8-0.2-1.5-0.5-2.1-0.8
								c-0.6-0.2-1.1-0.5-1.5-0.7c-0.8-0.4-1.3-0.6-1.2-0.7c0-0.1,1.9,0.8,4.9,1.7c1.5,0.5,3.4,1,5.5,1.4c2.1,0.4,4.4,0.6,6.9,0.7
								c2.5,0.1,4.8-0.1,6.9-0.3c2.1-0.3,4-0.6,5.6-1C189.5,224.9,191.3,224.1,191.4,224.2z"/>
						</g>
					</g>
				</g>
				<g>
					<g>
						<g>
							<path class="st16" d="M216.6,256.8c0,0-0.2-0.1-0.4-0.4c-0.3-0.3-0.7-0.6-1.1-1.1c-1-1-2.2-2.6-3.5-4.7
								c-2.6-4.2-4.8-10.9-4.9-18.4c-0.1-7.5,1.3-14.2,2.5-19c0.6-2.4,1.1-4.3,1.5-5.6c0.2-0.6,0.3-1.1,0.5-1.5
								c0.1-0.3,0.2-0.5,0.2-0.5c0,0,0,0.2-0.1,0.5c-0.1,0.4-0.2,0.9-0.4,1.5c-0.3,1.4-0.8,3.3-1.3,5.6c-1.1,4.8-2.5,11.4-2.3,18.9
								c0.1,7.4,2.2,14,4.7,18.2c1.2,2.1,2.4,3.7,3.3,4.7C216.1,256.2,216.7,256.8,216.6,256.8z"/>
						</g>
					</g>
				</g>
				<g>
					<g>
						<g>
							<path class="st16" d="M256.7,219.4c-0.1,0.1-1.9-1.9-5.8-3.3c-1.9-0.7-4.3-1.3-7-1.8c-2.7-0.5-5.7-1-8.8-2
								c-6.1-2-11-5.5-13.9-8.4c-1.5-1.5-2.6-2.8-3.3-3.7c-0.4-0.5-0.6-0.8-0.8-1.1c-0.2-0.3-0.3-0.4-0.2-0.4c0,0,0.4,0.5,1.2,1.4
								c0.8,0.9,1.9,2.1,3.4,3.5c3,2.8,7.8,6.2,13.8,8.1c3,1,6,1.5,8.7,2c2.7,0.6,5.1,1.2,7.1,2c2,0.8,3.4,1.7,4.3,2.4
								c0.5,0.3,0.8,0.7,1,0.9C256.6,219.3,256.7,219.4,256.7,219.4z"/>
						</g>
					</g>
				</g>
				<g>
					<g>
						<g>
							<path class="st16" d="M269.2,182.7c0,0-0.4-0.3-1.2-1c-0.4-0.3-0.8-0.8-1.4-1.2c-0.5-0.5-1.1-1-1.8-1.5
								c-1.4-1.1-3.1-2.4-5.1-3.6c-2-1.2-4.3-2.5-6.8-3.5c-2.5-1.1-5-1.9-7.2-2.5c-2.3-0.6-4.4-1-6.1-1.2c-0.9-0.1-1.7-0.2-2.4-0.3
								c-0.7-0.1-1.3-0.1-1.8-0.1c-1-0.1-1.6-0.1-1.6-0.1c0,0,0.6-0.1,1.6-0.1c0.5,0,1.1,0,1.8,0c0.7,0,1.5,0.1,2.4,0.2
								c1.8,0.2,3.9,0.5,6.2,1.1c2.3,0.6,4.8,1.4,7.3,2.5c2.5,1.1,4.8,2.4,6.8,3.6c2,1.3,3.7,2.6,5.1,3.7c0.7,0.6,1.3,1.1,1.8,1.6
								c0.5,0.5,1,0.9,1.3,1.3C268.9,182.3,269.3,182.7,269.2,182.7z"/>
						</g>
					</g>
				</g>
				<g>
					<g>
						<g>
							<path class="st16" d="M173,132.2c0,0.1-0.8,0.5-2.1,1c-1.3,0.5-3.2,1.2-5.3,1.6c-2.1,0.5-4.1,0.8-5.5,0.9
								c-1.4,0.1-2.3,0.1-2.3,0c0-0.2,3.5-0.5,7.7-1.5C169.6,133.4,172.9,132.1,173,132.2z"/>
						</g>
					</g>
				</g>
			</g>
			<g>
				<g>
					<g>
						<path class="st7" d="M212,287.2c0.6,2.1-1.2,4.2-3.4,3.9v0c-1.2-0.2-2.2-1-2.5-2.2l-0.9-3.5l0.1,0c0.6,2.1-1.4,4-3.6,3.8l0,0
							c-1.4,0-2.7-2.1-3.1-3.2l0,0c-2.4,0.3-4.7-1.1-5.6-2.7l-6.5-10.1l-12-8.7l7.2-25.8l25.7,16.7c1,0.8,1.2,1.1,2.8,2.6l16.6,15.3
							c-1.9,1.1-3.5,1-6.1,0c-2.6-1-14.1-8.8-14.1-8.8L212,287.2"/>
					</g>
				</g>
				<g>
					<g>
						<g>
							<path class="st8" d="M190,265.9c0,0,0.3,0.1,0.8,0.5c0.3,0.2,0.5,0.4,0.8,0.6c0.3,0.2,0.7,0.5,1.1,0.9
								c0.3,0.4,0.7,0.9,0.9,1.5c0.2,0.6,0.4,1.2,0.6,1.8c0.4,1.3,0.9,2.7,1.4,4.1c1,2.9,1.8,5.6,2.4,7.6c0.6,1.9,0.9,3.2,0.8,3.2
								c-0.1,0-0.5-1.1-1.2-3.1c-0.7-1.9-1.6-4.6-2.6-7.5c-0.5-1.5-0.9-2.9-1.4-4.1c-0.2-0.6-0.4-1.2-0.6-1.8
								c-0.2-0.5-0.4-1-0.7-1.4c-0.3-0.4-0.6-0.7-0.9-0.9c-0.3-0.2-0.5-0.5-0.8-0.7C190.2,266.2,190,266,190,265.9z"/>
						</g>
					</g>
				</g>
				<g>
					<g>
						<g>
							<path class="st8" d="M205.5,286c0,0-0.2-0.4-0.4-1.1c-0.2-0.8-0.5-1.8-0.8-2.9c-0.7-2.5-1.6-5.9-2.8-9.7
								c-1.2-3.7-2.5-7.1-4-9.2c-0.7-1-1.5-1.7-2.1-2.1c-0.6-0.4-1-0.5-1-0.5c0,0,0.1,0,0.3,0c0.2,0,0.5,0.1,0.8,0.3
								c0.7,0.3,1.5,1,2.3,2.1c1.6,2.1,3,5.5,4.2,9.2c1.2,3.8,2.1,7.2,2.7,9.7c0.3,1.3,0.5,2.3,0.7,3
								C205.5,285.6,205.5,286,205.5,286z"/>
						</g>
					</g>
				</g>
				<g>
					<g>
						<g>
							<path class="st8" d="M212.1,287.6c0,0-0.2-0.4-0.4-1.2c-0.3-0.9-0.6-1.9-1-3.2c-0.8-2.7-2-6.5-3.2-10.6
								c-1.2-4.1-2.2-7.8-3-10.7c-0.4-1.3-1.1-2.2-1.8-2.7c-0.6-0.5-1.1-0.5-1.1-0.6c0,0,0.1,0,0.3,0c0.2,0,0.5,0.1,0.9,0.4
								c0.7,0.4,1.5,1.4,2,2.7c0.9,2.7,2,6.5,3.2,10.6c1.2,4.2,2.3,7.9,3,10.7c0.3,1.3,0.6,2.4,0.8,3.3
								C212.1,287.1,212.2,287.5,212.1,287.6z"/>
						</g>
					</g>
				</g>
			</g>
		</g>
	</g>
</g>
</svg>
