<?xml version="1.0" encoding="utf-8"?>
<!-- Generator: Adobe Illustrator 26.1.0, SVG Export Plug-In . SVG Version: 6.00 Build 0)  -->
<svg version="1.1" xmlns="http://www.w3.org/2000/svg" xmlns:xlink="http://www.w3.org/1999/xlink" x="0px" y="0px"
	 viewBox="0 0 354.3 297.6" style="enable-background:new 0 0 354.3 297.6;" xml:space="preserve">
<style type="text/css">
	.st0{fill:#F0858C;}
	.st1{fill:none;}
	.st2{fill:#FFFFFF;}
	.st3{font-family:'Lato-Medium';}
	.st4{font-size:16px;}
	.st5{fill:#834F45;}
	.st6{fill:#263239;}
	.st7{fill:#F8BC9E;}
	.st8{fill:#EC9A6E;}
	.st9{fill:#455A64;}
	.st10{fill:#F5F4F5;}
	.st11{fill:#E0E0E0;}
	.st12{fill:none;stroke:#444C52;stroke-miterlimit:10;}
	.st13{fill:#E9505B;}
	.st14{opacity:0.4;}
	.st15{fill:#010202;}
	.st16{fill:#FBFBFB;}
	.st17{opacity:0.3;}
	.st18{fill:#EE7160;}
	.st19{fill:#8E3039;}
	.st20{fill:#EBEBEB;}
	.st21{fill:#C27461;}
	.st22{fill:#7E4436;}
	.st23{opacity:0.3;fill:#8E3039;}
	.st24{opacity:0.3;fill:#010202;}
	.st25{fill:#5B342F;}
	.st26{fill:#A56A5F;}
	.st27{fill:#83544C;}
</style>
<g id="Ebene_2">
	<g>
		<path class="st0" d="M216.6,296.6h-160c-6.4,0-11.7-5.2-11.7-11.7v-21.5c0-6.4,5.2-11.7,11.7-11.7h160c6.4,0,11.7,5.2,11.7,11.7
			V285C228.3,291.4,223,296.6,216.6,296.6z"/>
		<text transform="matrix(1 0 0 1 65.1346 284.9937)" class="st2 st3 st4">Felix möchte wissen</text>
		<rect x="26.6" y="264.2" class="st1" width="18.4" height="20.8"/>
	</g>
</g>
<g id="Ebene_1">
	<g>
		<g>
			<g>
				<g>
					<g>
						<g>
							<g>
								<g>
									<g>
										<g>
											<g>
												<g>
													<g>
														<g>
															<g>
																<g>
																	<g>
																		<g>
																			<g>
																				<g>
																					<path class="st7" d="M132.6,46l-0.9,68.8c-0.1,11.7,2,28.9,20.5,28.3l0,0c16-1.7,20.3-16.9,20.4-27.8
																						c0.1-5.2,0.1-9.5,0.2-10c0,0,17.5-1.4,19-18.8c0.7-8.4,0.8-25.7,0.7-41.4c-0.1-16.9-13.2-30.8-30-32l-1.7-0.1
																						C142.7,12.7,132.3,27.9,132.6,46z"/>
																				</g>
																			</g>
																		</g>
																	</g>
																</g>
															</g>
														</g>
													</g>
												</g>
											</g>
										</g>
									</g>
								</g>
							</g>
						</g>
					</g>
					<g>
						<g>
							<g>
								<g>
									<g>
										<g>
											<g>
												<g>
													<g>
														<g>
															<g>
																<g>
																	<g>
																		<g>
																			<g>
																				<g>
																					<path class="st8" d="M172.8,105.3c0,0-11-0.2-22.1-8.3c0,0,4.6,13.1,22,12.8L172.8,105.3z"/>
																				</g>
																			</g>
																		</g>
																	</g>
																</g>
															</g>
														</g>
													</g>
												</g>
											</g>
										</g>
									</g>
								</g>
							</g>
						</g>
					</g>
				</g>
			</g>
		</g>
		<g>
			<g>
				<g>
					<g>
						<g>
							<g>
								<g>
									<g>
										<g>
											<g>
												<g>
													<g>
														<g>
															<g>
																<g>
																	<g>
																		<g>
																			<g>
																				<g>
																					<g>
																						<g>
																							<g>
																								<g>
																									<path class="st6" d="M162.9,52.2c-0.3,0.4-2.3-1.3-5.2-1.3c-2.9-0.1-5.1,1.3-5.4,1
																										c-0.2-0.2,0.2-0.8,1.2-1.5c0.9-0.7,2.5-1.3,4.3-1.2c1.8,0.1,3.3,0.8,4.2,1.5
																										C162.8,51.4,163.1,52,162.9,52.2z"/>
																								</g>
																							</g>
																						</g>
																					</g>
																				</g>
																			</g>
																		</g>
																	</g>
																</g>
															</g>
														</g>
													</g>
												</g>
											</g>
										</g>
									</g>
								</g>
							</g>
							<g>
								<g>
									<g>
										<g>
											<g>
												<g>
													<g>
														<g>
															<g>
																<g>
																	<g>
																		<g>
																			<g>
																				<g>
																					<g>
																						<g>
																							<g>
																								<path class="st6" d="M162.3,58.2c0,1.2-1.1,2.2-2.4,2.2c-1.3,0-2.3-1-2.3-2.3c0-1.2,1.1-2.2,2.4-2.2
																									C161.3,55.9,162.3,56.9,162.3,58.2z"/>
																							</g>
																						</g>
																					</g>
																				</g>
																			</g>
																		</g>
																	</g>
																</g>
															</g>
														</g>
													</g>
												</g>
											</g>
										</g>
									</g>
								</g>
							</g>
							<g>
								<g>
									<g>
										<g>
											<g>
												<g>
													<g>
														<g>
															<g>
																<g>
																	<g>
																		<g>
																			<g>
																				<g>
																					<g>
																						<g>
																							<g>
																								<path class="st6" d="M170.2,72.4c0-0.2,1.7-0.3,4.4-0.5c0.7,0,1.3-0.1,1.5-0.6c0.2-0.5,0-1.2-0.3-2
																									c-0.5-1.7-1.1-3.5-1.6-5.3c-2.3-7.6-3.8-13.8-3.5-13.9c0.3-0.1,2.4,6,4.6,13.6c0.5,1.9,1.1,3.6,1.5,5.4
																									c0.2,0.8,0.6,1.7,0.2,2.7c-0.2,0.5-0.7,0.8-1.2,0.9c-0.4,0.1-0.8,0.1-1.2,0.1
																									C171.8,72.6,170.2,72.5,170.2,72.4z"/>
																							</g>
																						</g>
																					</g>
																				</g>
																			</g>
																		</g>
																	</g>
																</g>
															</g>
														</g>
													</g>
												</g>
											</g>
										</g>
									</g>
								</g>
							</g>
						</g>
					</g>
				</g>
				<g>
					<g>
						<g>
							<g>
								<g>
									<g>
										<g>
											<g>
												<g>
													<g>
														<g>
															<g>
																<g>
																	<g>
																		<g>
																			<g>
																				<path class="st6" d="M161.7,41.3c-0.3,0.6-2.6,0.2-5.4,0.3c-2.8,0.1-5.1,0.8-5.4,0.1c-0.1-0.3,0.3-0.9,1.2-1.5
																					c0.9-0.6,2.4-1.1,4.1-1.1c1.7-0.1,3.2,0.3,4.1,0.8C161.3,40.4,161.8,41,161.7,41.3z"/>
																			</g>
																		</g>
																	</g>
																</g>
															</g>
														</g>
													</g>
												</g>
											</g>
										</g>
									</g>
								</g>
							</g>
						</g>
					</g>
				</g>
				<g>
					<g>
						<g>
							<g>
								<g>
									<g>
										<g>
											<g>
												<g>
													<g>
														<g>
															<g>
																<g>
																	<g>
																		<g>
																			<g>
																				<path class="st6" d="M189.2,46.7c-0.3,0.5-2.6-0.1-5.3-0.1c-2.7-0.1-5,0.3-5.3-0.3c-0.1-0.3,0.3-0.7,1.3-1.1
																					c0.9-0.4,2.4-0.7,4.1-0.7c1.6,0.1,3.1,0.5,4,1C188.9,45.9,189.4,46.4,189.2,46.7z"/>
																			</g>
																		</g>
																	</g>
																</g>
															</g>
														</g>
													</g>
												</g>
											</g>
										</g>
									</g>
								</g>
							</g>
						</g>
					</g>
				</g>
			</g>
		</g>
		<g>
			<g>
				<g>
					<g>
						<g>
							<g>
								<g>
									<g>
										<g>
											<g>
												<g>
													<g>
														<g>
															<g>
																<path class="st7" d="M133.1,59c-0.3-0.1-11.7-4.4-12.1,7.5c-0.5,11.9,11.5,9.9,11.6,9.6
																	C132.5,75.7,133.1,59,133.1,59z"/>
															</g>
														</g>
													</g>
												</g>
											</g>
										</g>
									</g>
								</g>
							</g>
						</g>
					</g>
				</g>
			</g>
		</g>
		<g>
			<g>
				<g>
					<g>
						<g>
							<g>
								<g>
									<g>
										<g>
											<g>
												<g>
													<g>
														<g>
															<g>
																<g>
																	<path class="st8" d="M129,71.4c-0.1,0-0.2,0.1-0.6,0.3c-0.3,0.1-0.9,0.2-1.5,0c-1.2-0.5-2.2-2.5-2.2-4.7
																		c0-1.1,0.3-2.1,0.7-2.9c0.4-0.9,1-1.4,1.6-1.5c0.6-0.1,1.1,0.3,1.2,0.6c0.1,0.3,0.1,0.6,0.1,0.6
																		c0,0,0.3-0.2,0.2-0.7c0-0.2-0.2-0.5-0.4-0.8c-0.3-0.2-0.7-0.4-1.1-0.3c-0.9,0-1.8,0.8-2.2,1.8
																		c-0.5,0.9-0.8,2.1-0.9,3.3c0,2.4,1.1,4.7,2.8,5.3c0.8,0.3,1.5,0,1.9-0.2C129,71.7,129.1,71.4,129,71.4z"/>
																</g>
															</g>
														</g>
													</g>
												</g>
											</g>
										</g>
									</g>
								</g>
							</g>
						</g>
					</g>
				</g>
			</g>
		</g>
		<g>
			<g>
				<path class="st6" d="M167.4,80.6c0.1-0.3-2.2-1-3.8-3.2c-0.8-1.1-1.3-2.2-1.6-3.1c-0.3-0.9-0.6-1.4-0.7-1.4
					c-0.1,0-0.1,0.6,0.1,1.6c0.2,0.9,0.6,2.3,1.5,3.5c0.9,1.2,2.1,2,3,2.3C166.7,80.7,167.3,80.7,167.4,80.6z"/>
			</g>
		</g>
		<g>
			<g>
				<path class="st6" d="M215.5,29.5c-0.2-0.7-0.7-1.3-1.3-1.6c-1.4-0.8-2.9-0.7-4.4-0.7c-4.6-0.1-9.2-1.5-13-4
					c-1.8-2.6-3.9-5.1-6.1-7.3c-5.3-5.4-9.6-9.1-14-10.9c-5.8-2.3-15.4-3.3-21.5-1.7c-6,1.6-11.4,6.5-12.3,12.6
					c-3.4-2.9-8.5-2.8-12.6-1.2l-0.1,0c-4.6,1.6-7.2,6.5-8.5,11.2c-1.4,4.7-1.9,9.7-4.4,13.9c-0.5,0.9-1.1,1.9-0.7,2.8
					c0.3,0.7,1.2,1,2,0.9c0.8-0.1,1.5-0.5,2.1-1c-0.5,1.2-1,2.4-1.5,3.7c1.7,0.3,3.4,0.2,5-0.3c1,4.4,2.1,9.4,3.3,12.3
					c1.9,0,3.7,0.1,4.9,1.2c1.6,1.4,2.3,4.2,5,3.1c1.4-0.5,2.6-3.4,3.1-4.8c3-9.2,4-19,2.9-28.6c1.9-2,4.2-3.7,6.7-4.8l-0.2,0.2
					c4.8-1.7,10.3-3.3,14.9-1.1c3.6,1.8,5.7,5.5,8.3,8.4c5,5.6,11.9,8.6,19.4,9c0.3,4.9-0.2,11.8,0.1,16.7l4.1-7.8l0,0
					c0.3-0.6,0.6-1.1,0.9-1.7l0.1-0.2l0,0c0.4-0.9,0.8-1.9,1.4-2.8c0,0,0,0,0,0c2.6,2.3,6.5-1.2,4.5-4.1c-0.4-0.6-0.9-1.1-1.5-1.5
					c1.2,1.1,3,1.7,4.6,1.2c1.6-0.5,2.8-2.1,2.7-3.7c-0.1-1.1-0.9-2.1-1.9-2.6c2.1,0.2,4.3-0.3,6.2-1.4
					C214.7,32.2,215.9,31.1,215.5,29.5z"/>
			</g>
		</g>
		<g>
			<g>
				<path class="st9" d="M148.3,17.9c0,0-0.7,0.5-1.7,1.6c-1,1.1-2.1,3.1-2.7,5.8c-0.3,1.3-0.4,2.8-0.4,4.4c0,1.6,0.1,3.3,0.2,5.1
					c0.1,1.8,0.2,3.7,0.1,5.7c-0.1,1-0.2,2-0.4,3c-0.2,1-0.5,2.1-1.2,2.9c-0.6,0.7-1.6,1-2.4,0.8c-0.9-0.2-1.6-0.6-2.2-1.2
					c-1.1-1.3-1.4-3-1.7-4.4l0.4,0c-0.6,1.3-1.2,2.6-2.1,3.6c-0.9,1-2.1,1.7-3.4,1.8c-0.6,0.1-1.3,0-1.8-0.3
					c-0.5-0.3-0.9-0.7-1.2-1.2c-0.3-0.5-0.4-1-0.4-1.5c0-0.5,0.2-1,0.6-1.3l0.2,0.2c-1.3,1.5-2.7,2.3-3.7,2.8
					c-0.5,0.2-0.9,0.4-1.2,0.4c-0.3,0.1-0.4,0.1-0.4,0.1c0,0,0.1-0.1,0.4-0.2c0.3-0.1,0.6-0.3,1.1-0.5c0.9-0.5,2.3-1.3,3.6-2.8
					l0.2,0.2c-0.6,0.6-0.6,1.7-0.1,2.6c0.3,0.4,0.6,0.8,1.1,1.1c0.5,0.2,1.1,0.3,1.6,0.3c1.1-0.1,2.3-0.8,3.1-1.7
					c0.9-1,1.4-2.2,2-3.6l0.2-0.6l0.1,0.6c0.3,1.5,0.6,3,1.6,4.2c0.5,0.6,1.2,1,2,1.1c0.8,0.1,1.6-0.1,2.1-0.7
					c0.7-0.7,0.9-1.7,1.1-2.7c0.2-1,0.3-2,0.4-2.9c0.1-1.9,0-3.8-0.1-5.6c-0.1-1.8-0.2-3.5-0.2-5.1c0-1.6,0.2-3.1,0.5-4.5
					c0.6-2.7,1.8-4.7,2.8-5.8C147.6,18.3,148.3,17.9,148.3,17.9z"/>
			</g>
		</g>
		<g>
			<g>
				<path class="st9" d="M201.9,34.8c0,0,0,0-0.1,0.1c-0.1,0.1-0.3,0.2-0.4,0.3c-0.2,0.1-0.4,0.3-0.7,0.5c-0.3,0.2-0.6,0.4-1.1,0.6
					c-1.6,0.8-4.2,1.5-7.4,1.3c-3.2-0.2-7-1.3-10.5-3.9c-3.5-2.5-6.5-6.2-9-10.4c-1.3-2.1-2.3-4.2-3.4-6.2c-1.1-2-2.4-3.8-3.9-5.3
					c-1.5-1.5-3.2-2.5-5-3c-0.9-0.3-1.8-0.3-2.6-0.3c-0.9,0-1.7,0.2-2.4,0.5c-1.5,0.5-2.7,1.3-3.6,2.2c-0.9,0.9-1.5,1.8-2,2.5
					c-0.8,1.6-0.8,2.6-0.9,2.6c0,0,0-0.1,0-0.2c0-0.1,0-0.3,0.1-0.5c0.1-0.5,0.3-1.1,0.7-2c0.4-0.8,1-1.7,1.9-2.6
					c0.9-0.9,2.1-1.7,3.7-2.3c0.8-0.3,1.6-0.4,2.5-0.5c0.9,0,1.8,0,2.7,0.3c1.8,0.5,3.6,1.6,5.2,3.1c1.5,1.5,2.8,3.3,4,5.3
					c1.1,2,2.2,4.1,3.4,6.2c2.5,4.2,5.5,7.8,8.9,10.3c3.4,2.5,7.1,3.7,10.3,3.9c3.2,0.2,5.7-0.5,7.3-1.2
					C201.1,35.4,201.9,34.7,201.9,34.8z"/>
			</g>
		</g>
		<g>
			<g>
				<path class="st9" d="M203.5,27.2c0,0-0.2,0.2-0.6,0.4c-0.4,0.3-1,0.6-1.8,0.9c-0.8,0.4-1.8,0.7-2.9,1c-1.1,0.3-2.4,0.4-3.7,0.5
					c-1.3,0-2.6-0.1-3.8-0.3c-1.1-0.2-2.1-0.5-3-0.8c-0.8-0.3-1.5-0.6-1.9-0.8c-0.4-0.2-0.7-0.4-0.6-0.4c0-0.1,1,0.4,2.6,0.9
					c0.8,0.3,1.8,0.5,2.9,0.7c1.1,0.2,2.4,0.3,3.7,0.2c1.3,0,2.5-0.2,3.7-0.5c1.1-0.3,2.1-0.5,2.9-0.9
					C202.6,27.7,203.5,27.1,203.5,27.2z"/>
			</g>
		</g>
		<g>
			<g>
				<g>
					<g>
						<g>
							<g>
								<g>
									<g>
										<g>
											<g>
												<path class="st6" d="M189.4,53.3c-0.3,0.4-2.3-1.3-5.2-1.3c-2.9-0.1-5.1,1.3-5.4,1c-0.2-0.2,0.2-0.8,1.2-1.5
													c0.9-0.7,2.5-1.3,4.3-1.2c1.8,0.1,3.3,0.8,4.2,1.5C189.2,52.5,189.5,53.1,189.4,53.3z"/>
											</g>
										</g>
									</g>
								</g>
							</g>
						</g>
					</g>
				</g>
			</g>
		</g>
		<g>
			<g>
				<g>
					<g>
						<g>
							<g>
								<g>
									<g>
										<g>
											<path class="st6" d="M186.4,59c0,1.2-1.1,2.2-2.4,2.2c-1.3,0-2.3-1-2.3-2.3c0-1.2,1.1-2.2,2.4-2.2
												C185.4,56.8,186.4,57.8,186.4,59z"/>
										</g>
									</g>
								</g>
							</g>
						</g>
					</g>
				</g>
			</g>
		</g>
	</g>
	<g>
		<path class="st7" d="M294.7,122.4c0-5-4.8-5-4.8-5c-1.8-2.4-3.9-1.5-3.9-1.5l-7.8,5.3c-1.1,2-8.7,9.4-8.7,9.4
			c-2.1-1.5-2.1-4.6-4.5-8.3s-8.1-3.3-8.1-3.3s4.4,9.8,4.8,16c0.5,6.1-3.3,23.2-3.3,23.2l22,6.2c0,0,1.4-9.4,3.9-10.1
			c3-0.9,4.6-5.3,4.6-5.3c3.2-6.5,9.7-16,10.6-20.8C300.4,123.3,294.7,122.4,294.7,122.4z"/>
	</g>
	<g>
		<g>
			<g>
				<path class="st9" d="M130.9,111.5c14,8.8,28.2,12.1,42.5,6.4l21.5,5.5l21.2,141.4L92,265.9l6.1-32.9l15.4-118L130.9,111.5z"/>
			</g>
			<g>
				<path class="st9" d="M194.9,123.4c0,0,16.7,6.9,23.1,19.1c6.4,12.2,16.7,46.3,16.7,46.3l18.9-34.7l35.1,9
					c0,0-26.1,72.1-32.7,78.6c-7.2,7.2-26.7,14.4-36.3,8.8c-9.6-5.6-11.5-26.8-11.5-26.8L194.9,123.4z"/>
			</g>
			<g>
				<g>
					<path class="st6" d="M196.1,182.6c-0.1,0-0.2-6.3-0.2-14c0-7.8,0.1-14,0.2-14c0.1,0,0.2,6.3,0.2,14
						C196.2,176.3,196.2,182.6,196.1,182.6z"/>
				</g>
			</g>
			<g>
				<g>
					<path class="st6" d="M202.6,131.5c0,0-0.3,0.9-0.8,2.3c-0.5,1.4-1.2,3.4-1.9,5.6c-0.7,2.2-1.2,4.2-1.6,5.7
						c-0.4,1.5-0.6,2.4-0.6,2.4c0,0,0-0.2,0.1-0.7c0.1-0.4,0.2-1,0.3-1.8c0.3-1.5,0.8-3.5,1.5-5.7c0.7-2.2,1.4-4.2,2-5.6
						c0.3-0.7,0.5-1.3,0.7-1.6C202.5,131.7,202.6,131.5,202.6,131.5z"/>
				</g>
			</g>
		</g>
		<g>
			<g>
				<path class="st9" d="M111.2,168l3.9-53.3c0,0-29.2,2.7-38.9,23.3c-8.1,17.4-30.6,69.6-33,76.8c-7.1,21,4,49.8,49.5,48.1
					l5.2-28.5L111.2,168z"/>
			</g>
			<g>
				<g>
					<path class="st6" d="M78.5,240.4c0,0,0.1-0.2,0.2-0.5c0.2-0.4,0.4-0.8,0.7-1.4c0.7-1.3,1.6-3.1,2.8-5.2
						c0.3-0.6,0.6-1.1,0.9-1.7c0.3-0.6,0.7-1.2,1.3-1.7c0.6-0.5,1.4-0.7,2.2-0.6c0.8,0,1.6,0.2,2.4,0.4c1.6,0.4,3.3,1,4.9,1.8
						c0.8,0.4,1.6,0.9,2.3,1.5l0.3,0.2c0.1,0.1,0.2,0.2,0.2,0.4c0.1,0.2,0.1,0.5,0.1,0.7c0,0.5,0,1,0,1.4c-0.1,1.9-0.3,3.8-0.6,5.6
						c-0.2,1.8-0.5,3.5-0.8,5.1c-0.5,3.3-1.1,6.2-1.6,8.7c-0.5,2.4-0.9,4.4-1.1,5.8c-0.1,0.7-0.2,1.2-0.3,1.6
						c-0.1,0.4-0.1,0.6-0.1,0.6c0,0,0-0.2,0-0.6c0-0.4,0.1-0.9,0.2-1.6c0.2-1.4,0.6-3.4,1-5.8c0.4-2.5,1-5.4,1.5-8.7
						c0.3-1.6,0.5-3.4,0.8-5.1c0.2-1.8,0.5-3.6,0.5-5.5c0-0.5,0-0.9,0-1.4c0-0.2-0.1-0.5-0.1-0.6c0-0.1-0.1-0.2-0.1-0.2l-0.3-0.2
						c-0.7-0.6-1.5-1.1-2.3-1.5c-1.6-0.8-3.2-1.4-4.8-1.8c-0.8-0.2-1.6-0.4-2.3-0.4c-0.8,0-1.5,0.2-2.1,0.6c-0.6,0.4-0.9,1-1.3,1.6
						c-0.3,0.6-0.6,1.2-0.9,1.7c-1.2,2.2-2.2,3.9-2.9,5.2c-0.3,0.6-0.6,1.1-0.8,1.4C78.6,240.2,78.5,240.4,78.5,240.4z"/>
				</g>
			</g>
			<g>
				<g>
					<path class="st6" d="M57.3,215.1c0,0,0.1,0,0.3,0c0.3,0,0.6,0,1,0c0.9,0,2.1,0.1,3.6,0.3c1.5,0.1,3.3,0.4,5.3,0.8
						c2,0.4,4.1,1.1,6.2,2.1c2.1,1,4,2.3,5.5,3.6c1.5,1.4,2.7,2.8,3.3,4.2c0.7,1.4,1,2.6,1,3.5c0.1,0.4,0,0.8,0,1c0,0.2,0,0.3,0,0.3
						c0,0,0-0.5-0.1-1.3c-0.1-0.8-0.4-2-1.1-3.4c-0.7-1.3-1.8-2.8-3.3-4.1c-1.5-1.3-3.4-2.5-5.4-3.5c-2.1-1-4.2-1.6-6.2-2.1
						c-2-0.4-3.8-0.7-5.3-0.8c-1.5-0.2-2.7-0.3-3.6-0.4c-0.4,0-0.7-0.1-1-0.1C57.5,215.1,57.3,215.1,57.3,215.1z"/>
				</g>
			</g>
			<g>
				<g>
					<path class="st6" d="M88.6,212.4c0,0-0.2,0.8-0.7,2.1c-0.5,1.3-1.2,3-2.1,4.9c-0.8,1.9-1.6,3.5-2.2,4.9c-0.6,1.2-0.9,2-1,2
						c0,0,0.2-0.8,0.7-2.1c0.5-1.3,1.2-3,2.1-4.9c0.8-1.9,1.6-3.5,2.2-4.9C88.2,213.1,88.6,212.4,88.6,212.4z"/>
				</g>
			</g>
			<g>
				<g>
					<path class="st6" d="M104.8,170.5c-0.1,0-0.2-3.4-0.2-7.5c0-4.2,0.1-7.5,0.2-7.5c0.1,0,0.2,3.4,0.2,7.5
						C104.9,167.1,104.9,170.5,104.8,170.5z"/>
				</g>
			</g>
			<g class="st17">
				<g>
					<path class="st15" d="M83.6,230.8c-7.7,2.7-12.9,9.7-15,17.5c-0.2,0.8-0.4,1.8,0.2,2.4c0.6,0.7,1.7,0.7,2.4,0.2
						c0.8-0.5,1.2-1.2,1.7-2C76.7,243.1,80.3,237.6,83.6,230.8L83.6,230.8z"/>
				</g>
			</g>
			<g>
				<g class="st17">
					<g>
						<path class="st15" d="M74.1,215.6c-4-2.2-8.6-3.2-13.2-3.5c-1.8-0.1-3.6,0.1-5.3,0.5c-2.4,0.5-5.2,1.7-5.7,3.4
							c5.5-1.7,13.6-0.6,19.3,0.6c5.7,1.2,10.3,4.5,13.5,9.6C81.3,222,78,217.8,74.1,215.6z"/>
					</g>
				</g>
			</g>
			<g>
				<g>
					<path class="st6" d="M100.5,147.8c0,0-0.1-0.3-0.3-0.8c-0.1-0.5-0.4-1.3-0.7-2.3c-0.6-1.9-1.7-4.5-3.2-7.2
						c-1.6-2.7-3.3-4.8-4.7-6.3c-0.7-0.7-1.3-1.3-1.7-1.7c-0.4-0.4-0.6-0.6-0.6-0.6c0,0,0.3,0.2,0.7,0.5c0.4,0.4,1,0.9,1.8,1.7
						c1.4,1.4,3.2,3.6,4.8,6.3c1.6,2.7,2.6,5.3,3.2,7.3c0.3,1,0.5,1.8,0.6,2.3C100.5,147.4,100.5,147.8,100.5,147.8z"/>
				</g>
			</g>
		</g>
	</g>
	<g>
		<g>
			<path class="st18" d="M111.2,265.9l-32.6-78.5c-1.5-3.6,0.4-6.5,4.2-6.5h6.6c2.7,0,4.5-1.5,4.7-3.8l0.2-2.9
				c0.2-2.3,2-3.8,4.7-3.8H130c2.4,0,5.2,1.2,7.2,3.2l2.5,2.4c2,2,4.8,3.2,7.2,3.2h39.6c3.8,0,8,2.9,9.5,6.5l32.3,80.2H111.2z"/>
		</g>
	</g>
	<g>
		<g>
			<path class="st19" d="M111.2,265.9l-32.6-78.5c-1.5-3.6,0.4-6.5,4.2-6.5h6.6c2.7,0,4.5-1.5,4.7-3.8l0.2-2.9
				c0.2-2.3,2-3.8,4.7-3.8H130c2.4,0,5.2,1.2,7.2,3.2l2.5,2.4c2,2,4.8,3.2,7.2,3.2h39.6c3.8,0,8,2.9,9.5,6.5l32.3,80.2H111.2z"/>
		</g>
	</g>
	<g>
		<path class="st11" d="M105.8,239.2l-12.3-47.5c-0.8-3.1,1.2-6.3,4.1-6.3h96.2c1.9,0,3.6,1.4,4.1,3.5l17.9,71.5
			c0.8,3.1-0.5,5-3.3,5l-96.8,0c-1.9,0-3.5-1.4-4-3.5L105.8,239.2z"/>
	</g>
	<g>
		<g>
			<path class="st20" d="M112.5,263.8l-5.2-74.8c-0.2-2.7,1.9-4.9,4.6-4.9h99.7v79.7H112.5z"/>
		</g>
		<g>
			<g>
				<g>
					<g>
						<path class="st16" d="M111.4,265.5l11.9-77.1c0.5-2.5,2.8-4.3,5.4-4.3h100.9c4,0,6.7,4,5.1,7.6l-21.8,70.5L111.4,265.5z"/>
					</g>
				</g>
			</g>
		</g>
	</g>
	<g>
		<g>
			<g>
				<g>
					<g>
						<path class="st19" d="M111.2,265.9l24.5-72.2c1-3,3.7-5,6.8-5h104c3.4,0,5.7,3.4,4.6,6.7l-22.8,70.5L111.2,265.9z"/>
					</g>
				</g>
			</g>
		</g>
	</g>
	<g class="st17">
		<g>
			<path class="st15" d="M161.5,253.8c0,0-3.9,0.2-5.7,0.3c-8.6,0.6-17.4-1-25.3-4.5c-2.4-1.1-5-2.6-5.8-5.2c-0.8-2.9,1-5.9,3.3-7.8
				c2.3-2,5-3.3,7-5.6s2.9-5.9,1-8.2l-0.5,0.4c-1.4,3.6-5.3,5.3-8.6,7.3c-6,3.8-10.6,9.8-12.7,16.6c-1.1,3.7-1.4,8.1,0.8,11.3
				c1.6,2.3,4.2,3.5,6.8,4.5c7.9,2.9,16.3,3,24.7,3c2.7,0,10.8-0.1,10.8-0.1c2.6-0.7,3.4-2,4.9-4.2
				C163.7,259.6,163.4,255.3,161.5,253.8z"/>
		</g>
	</g>
	<g>
		<g>
			<g>
				<path class="st7" d="M161.5,253.8l-27.1-4.1l-10.5-6.1c-1.4-0.8-2.3-2.2-2.4-3.8c0,0,0-0.1,0-0.1c-0.1-2,1.1-3.8,3-4.6
					c3.3-1.4,8.6-3.3,10.9-7.2c3.2-5.7,0-6.9,0-6.9l-22.6,9.1l-16,10.9l-3.2,18.2l22.4,7.3c0,0,24.9,1.4,31.8,0.6
					c6.9-0.8,6.9-4,6.9-4c1.3-0.4,3.9-2.7,3.9-4.8C161.6,255.3,161.5,253.8,161.5,253.8"/>
			</g>
		</g>
		<g>
			<g>
				<g>
					<path class="st8" d="M126.8,261.6c0,0,0.4,0,1.1,0.2c0.7,0.2,1.7,0.4,3,0.7c2.6,0.5,6.1,1,10.1,1.2c4,0.2,7.6-0.1,10.2-0.4
						c1.3-0.2,2.3-0.3,3.1-0.4c0.7-0.1,1.1-0.2,1.1-0.1c0,0-0.4,0.1-1.1,0.3c-0.7,0.2-1.8,0.4-3,0.6c-2.6,0.4-6.2,0.7-10.2,0.6
						c-4-0.2-7.6-0.7-10.1-1.3c-1.3-0.3-2.3-0.6-3-0.8C127.2,261.8,126.8,261.7,126.8,261.6z"/>
				</g>
			</g>
		</g>
		<g>
			<g>
				<g>
					<path class="st8" d="M129.3,257.4c0,0,0.4,0,1.1,0.2c0.7,0.2,1.8,0.4,3.1,0.7c2.6,0.5,6.2,1,10.3,1.1c4,0.1,7.7-0.2,10.3-0.5
						c1.3-0.2,2.4-0.3,3.1-0.4c0.7-0.1,1.1-0.2,1.1-0.1c0,0-0.4,0.1-1.1,0.3c-0.7,0.2-1.8,0.4-3.1,0.6c-2.6,0.4-6.3,0.7-10.4,0.6
						c-4.1-0.1-7.7-0.7-10.3-1.3c-1.3-0.3-2.3-0.6-3-0.8C129.7,257.6,129.3,257.5,129.3,257.4z"/>
				</g>
			</g>
		</g>
	</g>
</g>
</svg>
