<?xml version="1.0" encoding="UTF-8"?><svg xmlns="http://www.w3.org/2000/svg" viewBox="0 0 354.33 297.64"><defs><style>.c{fill:#f8bc9e;}.d{fill:#ebebeb;}.e{fill:#e9505b;}.f{fill:#ec9a6e;}.g{fill:#8e3039;}.h{fill:#455a64;}.i{fill:#263239;}.j{opacity:.3;}.k{opacity:.4;}</style></defs><g id="a"><g><rect class="e" x="41.99" y="35.66" width="252.82" height="220.25" rx="38.79" ry="38.79"/><g class="k"><rect class="e" x="41.99" y="35.66" width="252.82" height="220.25" rx="38.79" ry="38.79"/></g><g><polygon class="e" points="294.75 112.45 332.61 112.45 293.89 151.17 294.75 112.45"/><g class="k"><polygon class="e" points="294.75 112.45 332.61 112.45 293.89 151.17 294.75 112.45"/></g></g></g><path class="g" d="M216.92,52.39c-1.06-7.07-2.81-14.81-7.48-20.22-3.37-3.91-6.67-6.91-11.09-9.58-4.72-2.85-8.88-3.79-13.95-4.33l-3.32,2.94c10.62,2.57,19.86,9.95,25.29,19.44,5.43,9.49,7.14,20.92,5.37,31.71-1.16,7.06-3.72,13.81-5.67,20.69-1.95,6.89-3.3,14.16-1.94,21.19,5.84-2.27,4.19,1.57,6.65-4.19,2.46-5.76,3.74-18.44,5.18-24.54,2.36-10.06,2.42-23.41,.96-33.11Z"/><g><g><path class="i" d="M211.2,36.64c-8.95-13.92-29.85-18.2-29.85-18.2-30.6-2.19-36.06,21.32-39.15,42.74-1.92,13.32,5.14,54.91,5.14,54.91l7.5,2.71,49.23-.02c-.03-.9,3.48-8.44,4.34-10.89,4.53-22.26,8.05-63.06,2.79-71.24Z"/><polygon class="i" points="212.57 110.04 212.57 110.04 212.57 110.04 212.57 110.04"/></g><path class="c" d="M185.7,26.41l-1.91-1.82-20.69,8.34c-2.99,.17-5.36,2.59-5.45,5.59l.18,67.4c-.03,4.57,.89,8.53,3.65,12.17l2.91,3.84c6.62,8.75,20.25,8.03,25.5-1.61,.37-.67,.62-1.26,.73-1.74,.11-.6,.27-1,.31-1.51,.62-5.42,.65-10.12,.65-10.12,.37-5.95,.49-8.4,.49-8.34,0,0,12.67-1.46,16.1-17.72,1.7-8.09,1.38-19.22,.9-30.17-.66-15.16-11.18-24.31-23.36-24.3Z"/><g><path class="i" d="M181.96,60.82c-.02,1.11-.97,2.02-2.13,2.02-1.16,0-2.09-.89-2.07-2,.02-1.11,.97-2.02,2.13-2.02,1.16,0,2.09,.89,2.07,2.01Z"/><path class="i" d="M202.8,61.52c-.02,1.11-.97,2.02-2.13,2.02-1.16,0-2.09-.89-2.07-2,.02-1.11,.97-2.02,2.13-2.02,1.16,0,2.09,.89,2.07,2.01Z"/><path class="i" d="M206.9,55.04c-.27,.26-1.81-1-4.07-1.11-2.26-.14-3.98,.94-4.21,.65-.11-.13,.18-.61,.93-1.1,.74-.49,1.98-.94,3.39-.86,1.41,.08,2.57,.66,3.22,1.22,.67,.57,.88,1.08,.75,1.19Z"/></g><path class="i" d="M183.94,55.28c-.3,.23-1.7-1.18-3.94-1.52-2.23-.37-4.05,.53-4.25,.22-.1-.14,.24-.59,1.03-1,.78-.41,2.06-.73,3.46-.51,1.39,.22,2.49,.92,3.08,1.55,.61,.63,.76,1.16,.62,1.26Z"/><path class="i" d="M191.84,71.75c0-.13,1.41-.3,3.71-.48,.58-.03,1.13-.12,1.25-.51,.16-.41-.05-1.05-.3-1.73-.47-1.43-.97-2.92-1.49-4.48-2.06-6.38-3.52-11.62-3.26-11.7,.26-.08,2.14,5.03,4.19,11.41,.49,1.57,.97,3.07,1.41,4.51,.19,.67,.52,1.43,.19,2.28-.18,.42-.62,.72-.99,.8-.38,.09-.7,.08-.99,.09-2.3,0-3.72-.05-3.72-.18Z"/><path class="f" d="M192.06,98.6s-11.06,.16-21.66-6.96c0,0,4.95,11.63,21.44,10.91l.23-3.96Z"/><path class="f" d="M190.61,77.15c-.76-1.12-2.16-1.78-3.58-1.7-.99,.06-2,.48-2.64,1.25-.64,.77-.82,1.9-.31,2.69,.57,.89,1.83,1.15,2.93,.9,1.1-.25,2.06-.92,2.98-1.58,.25-.18,.51-.38,.68-.64,.17-.26,.22-.61,.04-.84"/><path class="i" d="M185.1,72.98c.37,0,.25,2.45,2.27,4.3,2.01,1.85,4.64,1.71,4.64,2.05,.03,.16-.61,.45-1.71,.42-1.09-.02-2.65-.44-3.88-1.58-1.23-1.13-1.71-2.59-1.74-3.6-.04-1.03,.26-1.63,.43-1.6Z"/><path class="i" d="M186.1,46.46c-.31,.57-2.51-.06-5.18-.14-2.67-.14-4.91,.3-5.18-.3-.12-.29,.34-.8,1.29-1.26,.94-.46,2.38-.81,3.98-.74,1.6,.07,3.01,.54,3.91,1.08,.9,.54,1.32,1.09,1.18,1.36Z"/><path class="i" d="M206.57,45.32c-.42,.49-1.96-.12-3.83-.24-1.87-.18-3.48,.17-3.82-.38-.15-.27,.13-.77,.85-1.22,.71-.45,1.87-.79,3.16-.69,1.29,.11,2.38,.63,3,1.19,.64,.56,.83,1.1,.64,1.34Z"/><path class="i" d="M158.06,67.28s11.59,3.61,18.15-24.99c2.24-9.78,11.31-17.7,11.31-17.7l-3.68-1.11s-22.85,6.44-23.24,6.73c-.38,.29-5.77,11.82-5.77,11.82l3.22,25.25Z"/><path class="c" d="M160.92,66.21c.06-1.22-1.21-4.17-2.41-4.42-3.19-.66-9.01-.7-9.47,7.48-.63,11.17,10.72,9.51,10.75,9.19,.03-.25,.93-8.03,1.13-12.25Z"/><path class="f" d="M156.62,74.03s-.2,.12-.54,.26c-.33,.13-.89,.2-1.46-.05-1.16-.5-2.04-2.43-1.98-4.45,.03-1.02,.3-1.98,.7-2.76,.39-.8,.95-1.34,1.55-1.41,.6-.1,1,.28,1.12,.6,.13,.32,.05,.54,.11,.56,.03,.03,.25-.17,.19-.64-.03-.22-.15-.5-.4-.73-.26-.23-.64-.37-1.06-.35-.87,.01-1.69,.76-2.13,1.62-.49,.86-.82,1.93-.85,3.08-.06,2.26,.98,4.43,2.57,4.99,.77,.25,1.44,.05,1.8-.19,.36-.26,.43-.5,.4-.53Z"/><path class="i" d="M165.92,61.81s.62-.04,1.67-.34c1.05-.29,2.53-.98,3.98-2.31,.72-.66,1.43-1.48,2.08-2.43,.63-.96,1.2-2.06,1.69-3.27,.99-2.41,1.62-5.21,2.41-8.13,.78-2.91,1.64-5.67,2.57-8.11,.92-2.45,1.94-4.59,2.91-6.31,.97-1.73,1.89-3.05,2.56-3.93,.33-.44,.62-.77,.8-.99,.19-.22,.29-.34,.3-.33,0,0-.08,.13-.25,.37-.17,.24-.44,.57-.75,1.02-.64,.9-1.53,2.23-2.47,3.96-.94,1.73-1.94,3.86-2.84,6.31-.92,2.44-1.76,5.19-2.54,8.09-.78,2.9-1.43,5.72-2.44,8.15-.5,1.22-1.08,2.33-1.74,3.3-.67,.97-1.4,1.78-2.14,2.45-1.49,1.33-3.01,2-4.09,2.26-1.08,.27-1.7,.23-1.7,.23Z"/><path class="h" d="M148.62,108.41s.23-1.38,.25-3.91c.02-2.52-.29-6.18-1.08-10.61-.4-2.22-.83-4.65-1.3-7.25-.45-2.61-.85-5.41-1-8.37-.14-2.96-.05-6.1,.68-9.25,.36-1.57,.87-3.13,1.57-4.64,.69-1.51,1.6-2.94,2.64-4.29,2.1-2.71,4.61-4.95,7.04-7.09,2.45-2.12,4.79-4.2,6.88-6.34,4.2-4.24,7.52-8.49,10.05-12.22,2.54-3.73,4.3-6.94,5.44-9.18,.57-1.12,1-2,1.27-2.61,.13-.29,.24-.52,.31-.69,.07-.16,.1-.24,.1-.24,0,0-.05,.07-.13,.23-.08,.16-.2,.39-.34,.67-.29,.6-.73,1.47-1.32,2.58-1.18,2.22-2.96,5.41-5.52,9.11-2.55,3.7-5.88,7.93-10.07,12.15-2.08,2.12-4.42,4.19-6.88,6.31-2.44,2.13-4.96,4.39-7.08,7.13-1.05,1.37-1.98,2.82-2.68,4.35-.71,1.53-1.23,3.11-1.59,4.7-.73,3.18-.81,6.35-.67,9.33,.16,2.98,.57,5.79,1.03,8.4,.48,2.6,.93,5.03,1.34,7.24,.82,4.43,1.16,8.06,1.18,10.58,.02,1.26-.03,2.23-.07,2.9l-.05,.75c0,.17-.01,.26,0,.26Z"/><path class="h" d="M145.03,109.46s.23-1.38,.25-3.91c.02-2.52-.29-6.18-1.08-10.61-.4-2.22-.83-4.65-1.3-7.25-.45-2.61-.85-5.41-1-8.37-.14-2.96-.05-6.1,.68-9.25,.36-1.57,.87-3.13,1.57-4.64,.69-1.51,1.6-2.94,2.64-4.29,2.1-2.71,4.61-4.95,7.04-7.09,2.45-2.12,4.79-4.2,6.88-6.34,4.2-4.24,7.52-8.49,10.05-12.22,2.54-3.73,4.3-6.94,5.44-9.18,.57-1.12,1-2,1.27-2.61,.13-.29,.24-.52,.31-.69,.07-.16,.1-.24,.1-.24,0,0-.05,.07-.13,.23-.08,.16-.2,.39-.34,.67-.29,.6-.73,1.47-1.32,2.58-1.18,2.22-2.96,5.41-5.52,9.11-2.55,3.7-5.88,7.93-10.07,12.15-2.08,2.12-4.42,4.19-6.88,6.31-2.44,2.13-4.96,4.39-7.08,7.13-1.05,1.37-1.98,2.82-2.68,4.35-.71,1.53-1.23,3.11-1.59,4.7-.73,3.18-.81,6.35-.66,9.33,.16,2.98,.57,5.79,1.03,8.4,.48,2.6,.93,5.03,1.34,7.24,.82,4.43,1.16,8.06,1.18,10.58,.02,1.26-.03,2.23-.07,2.9-.02,.32-.04,.57-.05,.75,0,.17-.01,.26,0,.26Z"/></g><path class="i" d="M128.87,255.58s-1.04-9.3,4.91-24.84c4.87-12.74,10.6-19.76,10.6-19.76l77.06-5.08,5.94,49.68h-98.5Z"/><g><path class="d" d="M220.55,177.01c1.13-17.16,0-43.17,0-43.17l-12.73-21.35-16.76-2.63s-.04,11.73-8.81,13.67c-14.99,3.32-24.77-14.72-24.77-14.72-1.41,0-22.75,4.48-29.51,10.92-6.95,6.61-18.45,24.15-21.69,29.18h0s-22.47,32.8-25.76,41.8c-2.49,6.8-.18,12.01,1.1,14.16,.68,2.03,21.48,31.85,37.56,43.76l1.26-2.38,8.36-14.32-21.64-35.55,25.1-26.44,4.93-4.64,1.42,6.24,6.09,29.34s-12.13,24.24-13.83,36.85c0,0,59.63,20.55,96.42,10.4,0,0-7.87-53.96-6.74-71.12Z"/><g><path class="c" d="M157.84,225.48s-10.09-2.72-11.11-2.15c-1.02,.57-8.55,4.55-8.55,4.55,0,0-2.31,2.84-3.56,3.85,0,0-2.59,2.45-4.37,2.54-1.78,.08-2.84-.3-2.84-.3l-6.98,12.28s4.14,3.94,6.33,3.91c2.19-.04,14.35-5.15,14.35-5.15l2.94-.64s11.03,1.6,11.93-1.72l.1-.95-10.84-2.12-4.12,.24,7.31-1.89s10.33,.5,11.3,.33c.97-.17,2.21-1.54,1.9-2.39l-2.13-.5s2.5-1.36,2.58-2.86l-9.55-2.59s6.16-2.3,5.3-4.44Z"/><path class="f" d="M160.64,235.32s-.32-.06-.88-.22c-.56-.16-1.36-.38-2.37-.64-2-.52-4.79-1.18-7.88-1.87-.39-.08-.77-.19-1.12-.22-.36-.03-.72,0-1.06,.07-.69,.19-1.39,.43-2.03,.64-1.29,.44-2.44,.88-3.39,1.29-.95,.41-1.69,.79-2.19,1.07-.51,.28-.77,.46-.79,.43-.01-.02,.21-.25,.7-.58,.48-.33,1.21-.76,2.15-1.21,.94-.45,2.09-.93,3.38-1.39,.66-.23,1.32-.47,2.07-.68,.38-.09,.79-.12,1.2-.09,.42,.04,.8,.15,1.18,.22,3.09,.69,5.88,1.4,7.87,2,1,.3,1.79,.57,2.34,.79,.54,.21,.83,.36,.82,.39Z"/><path class="f" d="M152.78,230.38c-.04,.07-.76-.35-2.03-.74-1.26-.39-3.11-.7-5.11-.4-2,.29-3.68,1.12-4.77,1.86-1.1,.74-1.68,1.35-1.73,1.3-.04-.03,.46-.73,1.55-1.56,1.08-.83,2.8-1.74,4.89-2.05,2.08-.31,4,.06,5.27,.55,1.28,.48,1.96,1,1.93,1.04Z"/></g><polygon class="d" points="242.6 201.54 237.19 133.77 218.32 114.69 207.46 112.48 212.07 158.34 222.27 158.34 218.32 203.2 209.44 239.37 222.27 241.86 242.6 201.54"/><path class="i" d="M221.26,197.11s-.03-.23-.06-.68c-.02-.48-.05-1.13-.08-1.95-.07-1.7-.14-4.15-.19-7.18-.06-3.03-.1-6.65-.1-10.66-.01-4.01,.04-8.42-.04-13.04-.03-9.26-1.76-17.51-3.14-23.4-.69-2.95-1.3-5.33-1.71-6.98-.19-.8-.35-1.43-.46-1.9-.1-.44-.15-.67-.13-.67,.01,0,.09,.22,.22,.65,.13,.46,.31,1.09,.54,1.88,.45,1.63,1.1,4,1.84,6.95,1.45,5.87,3.24,14.16,3.26,23.46,.07,4.63,.01,9.04,0,13.05-.02,4.01,0,7.62,.01,10.65,.02,3,.05,5.45,.06,7.18,0,.82,0,1.47,0,1.95,0,.45-.01,.68-.03,.68Z"/><g class="j"><path d="M221.01,159.21c3.29-11.84-.03-25.29-8.44-34.23,4.46,10.69,7.35,22.03,8.55,33.55"/></g></g><path class="g" d="M188.58,18.8c-24.63,2.21-25.6,32.32-28.88,56.07-4.68,33.93,20.15,41.22,20.15,41.22l-30.85-5.78s-16.87-6.83-16.75-25.56,3.06-41.66,22.7-59.08c16.96-15.05,32.07-7.9,33.62-6.87Z"/><path class="g" d="M212.57,108.8c-1.86-1.68-1.14-2.33-6.46-2.82-6.01-.55-12.73,3.3-18.71,4.09-5.99,.8-12.38,0-17.4-3.35-5.89-3.93-9.1-10.7-12.04-17.14l-14.46,11.9c-2.81,2.31-4.48,5.78-4.34,9.41,.03,.81,.13,1.47,.34,1.78,.84,1.27,7.05-1.73,8.3-.85,6.63,4.63,9.45,11.99,15.52,17.33,7.1,6.25,13.66,11.2,18.66,11.03,4.9-.17,14.22-5.47,17.53-11.6,3.06-5.67,5.73-9.8,8.13-14.12,1.27-2.28,5.68,.93,6.21-1.79,.27-1.4-.2-2.92-1.27-3.88Z"/><path class="i" d="M132.26,144.18s.07,.19,.18,.56c.11,.41,.25,.96,.43,1.64,.36,1.47,.87,3.52,1.49,6.04,1.23,5.11,2.89,12.17,4.65,19.99,1.76,7.82,3.27,14.92,4.28,20.08,.5,2.58,.87,4.67,1.11,6.12,.1,.7,.18,1.25,.24,1.68,.05,.38,.07,.59,.05,.59-.01,0-.06-.2-.14-.58-.08-.42-.18-.97-.31-1.66-.3-1.48-.72-3.55-1.24-6.09-1.08-5.14-2.64-12.22-4.39-20.04-1.77-7.8-3.36-14.85-4.53-20.01-.57-2.53-1.03-4.59-1.37-6.07-.15-.69-.27-1.24-.36-1.65-.08-.38-.11-.58-.1-.58Z"/><path class="i" d="M212.57,111.91s-.05,.04-.16,.11l-.5,.29c-.45,.23-1.07,.65-1.95,1.02-1.71,.85-4.33,1.81-7.66,2.57-3.33,.77-7.4,1.24-11.91,1.35-4.52,.14-9.48-.1-14.67-.43-2.6-.17-5.14-.42-7.57-.8-2.43-.39-4.75-.88-6.94-1.44-4.37-1.16-8.19-2.61-11.26-4.12-3.07-1.51-5.42-2.97-6.98-4.08-.8-.53-1.36-1.01-1.77-1.31l-.45-.35c-.1-.08-.15-.13-.14-.13,0,0,.06,.03,.17,.1,.13,.09,.28,.19,.47,.32,.42,.28,1,.74,1.81,1.24,1.57,1.07,3.94,2.49,7.01,3.95,3.06,1.47,6.88,2.88,11.23,4.02,2.18,.54,4.49,1.02,6.91,1.4,2.42,.37,4.94,.62,7.53,.79,5.19,.34,10.14,.58,14.63,.46,4.5-.09,8.54-.53,11.86-1.26,3.32-.72,5.93-1.63,7.66-2.43,.89-.35,1.52-.74,1.97-.95l.51-.25c.12-.05,.18-.08,.18-.07Z"/><path class="i" d="M165.3,115.14s-.06-.03-.16-.1c-.12-.09-.26-.19-.44-.31-.41-.31-.96-.72-1.66-1.24-.72-.54-1.56-1.26-2.55-2.06-.49-.41-.99-.87-1.54-1.35-.55-.47-1.11-1-1.68-1.56-2.31-2.24-4.95-5.08-7.18-8.73-2.24-3.63-3.86-8.22-4.02-13.17-.18-4.95,.81-9.6,1.88-13.71,1.09-4.12,2.28-7.76,3.23-10.83,.94-3.04,1.71-5.52,2.26-7.27,.25-.83,.45-1.49,.6-1.98,.07-.21,.12-.37,.17-.51,.04-.11,.06-.17,.07-.17,0,0,0,.06-.03,.18-.03,.14-.08,.31-.13,.52-.13,.49-.3,1.16-.52,2-.48,1.73-1.2,4.24-2.13,7.31-.92,3.08-2.08,6.73-3.14,10.84-1.05,4.1-2.02,8.72-1.83,13.6,.16,4.88,1.74,9.39,3.93,12.99,2.19,3.62,4.79,6.47,7.06,8.72,.56,.57,1.11,1.1,1.66,1.58,.54,.48,1.03,.96,1.51,1.37,.98,.82,1.8,1.55,2.5,2.11,.68,.55,1.21,.98,1.61,1.3l.41,.35c.09,.08,.14,.12,.13,.13Z"/><path class="i" d="M188.58,25.81c0,.09-1.28,.15-3.26,.72-1,.26-2.13,.73-3.37,1.29-1.22,.61-2.51,1.36-3.81,2.25-2.58,1.8-4.66,3.77-6.12,5.24-1.45,1.47-2.3,2.44-2.35,2.4-.02-.02,.17-.28,.53-.73,.36-.46,.9-1.1,1.61-1.86,1.41-1.53,3.48-3.55,6.09-5.38,1.31-.9,2.63-1.66,3.88-2.25,1.27-.55,2.43-1,3.45-1.23,.5-.15,.97-.22,1.38-.29,.41-.08,.76-.12,1.05-.13,.58-.04,.9-.05,.9-.02Z"/><path class="g" d="M157.1,44.53c.19-.73,.36-1.5,.47-2.27,.2-1.45-1.88-1.94-2.39-.58-1.63,4.31-3.25,8.63-4.88,12.94-3.22,8.53-6.47,17.27-6.64,26.38-.17,9.11,2.74,19.25,10.44,24.12l-2.24-3.99c-5.81-7.97-5.97-18.82-3.75-28.43,2.22-9.61,6.53-18.62,9-28.17Z"/><path class="i" d="M213.01,114.1s.19-.36,.36-1.05c.17-.68,.22-1.76-.26-2.94-.45-1.18-1.52-2.36-3.05-3.06-1.51-.74-3.4-.97-5.35-.8-1.95,.17-3.8,.57-5.46,.94-1.67,.38-3.15,.79-4.39,1.17-1.24,.38-2.23,.71-2.92,.94-.69,.23-1.07,.36-1.08,.33,0-.02,.35-.2,1.02-.48,.67-.28,1.65-.66,2.88-1.07,1.23-.41,2.72-.85,4.39-1.26,1.67-.39,3.52-.81,5.52-.98,1.99-.17,3.97,.08,5.55,.87,1.59,.76,2.72,2.04,3.16,3.3,.47,1.26,.36,2.39,.14,3.09-.11,.35-.24,.61-.34,.77-.11,.16-.17,.24-.18,.24Z"/><g class="j"><path d="M204.82,115.55c-9.41,4.2-20,5.75-30.22,4.42-10.22-1.33-18.74-4.28-26.77-10.75,0,0,12.8,7.39,32.68,7.55,16.52,.13,24.31-1.22,24.31-1.22Z"/></g></g><g id="b"/></svg>