<?xml version="1.0" encoding="UTF-8"?><svg xmlns="http://www.w3.org/2000/svg" viewBox="0 0 354.33 297.64"><defs><style>.c{fill:#e9505b;}.d{fill:#7e4436;}.e{fill:#c27461;}.f,.g{fill:#8e3039;}.h{fill:#455a64;}.i{fill:#263239;}.j,.g{opacity:.3;}.k{opacity:.4;}</style></defs><g id="a"><g><rect class="c" x="41.52" y="35.66" width="252.82" height="220.25" rx="38.79" ry="38.79"/><g class="k"><rect class="c" x="41.52" y="35.66" width="252.82" height="220.25" rx="38.79" ry="38.79"/></g><g><polygon class="c" points="294.28 112.45 332.14 112.45 293.42 151.17 294.28 112.45"/><g class="k"><polygon class="c" points="294.28 112.45 332.14 112.45 293.42 151.17 294.28 112.45"/></g></g></g><polygon class="i" points="127.48 253.9 131.34 225.52 213.66 221.6 219.45 253.98 127.48 253.9"/><path class="e" d="M204.61,136.19l24.7,27.4c4.08,4.52,7.02,8.64,12.88,10.29,4.1,1.16,12.75,1.64,14.93-1.06,2.99-3.7,4.85-10.09,.66-18.14-2.73-5.24-26.69-26.63-26.69-26.63l-26.47,8.13"/><path class="f" d="M212.74,140.77c.14,1.35,6.6,14.83,6.6,14.83l21.2-13.83s-13.65-32.42-23.61-34.6l-4.19,33.61Z"/><g><g><path class="e" d="M249.05,102.97l.3-10.3-.69-13.12-2.09-10.91s-.55-1.07-1.93-.26c-1.38,.81-.18,6.76-.18,6.76l.21,4.48s-.81,3.46-1.07,3.17c-.26-.29-1.12-6.34-1.12-6.34l-2.5-12.98s-.6-1.4-2.19-.9c-.89,.28-1.46,1.57-1.35,3.49,.11,1.92,.95,5.17,1.04,6.26,.09,1.09,.81,7.41,.81,7.41l-4.38-14.52s-.81-4.72-2.78-4.04c-1.97,.68-.65,4.07-.57,5.53,.09,1.47,2.94,11.35,2.7,14.11-.24,2.76-.68,1.38-.68,1.38,0,0-1.14-4.55-2.04-8.14-.9-3.59-2.26-5.66-3.81-5.93-1.55-.26,.53,8.05,.53,8.05l2.63,11.61-.65,3.7-2.59-3.33s-.08-4.36-2.8-6.18c-2.77-1.85-3.43,.23-3.43,.23l5.08,16.87c1.2,2.76,8.98,8.12,8.98,8.12l1.39,16.92,17.28-.34-4.11-20.79Z"/><path class="d" d="M242.98,96.88c-.09,.08-.9-.75-2.31-1.94-1.38-1.14-3.57-2.74-6.32-2.61-1.21,.04-2.34,.46-3.12,1.14l-.29,.25-.25-.33c-1.11-1.46-2.3-2.74-3-3.66-.74-.92-1.11-1.53-1.03-1.58,.06-.03,.52,.46,1.36,1.29,.82,.87,2,1.96,3.28,3.57l-.54-.08c.9-.83,2.21-1.32,3.56-1.36,1.5-.07,2.92,.36,4.04,.97,1.13,.61,2,1.35,2.68,2,1.35,1.33,2.01,2.28,1.95,2.34Z"/></g><polygon class="e" points="238.51 161.87 234.84 109.23 249.47 104.65 260.1 161.87 238.51 161.87"/></g><g><path class="i" d="M206.8,41.61c2.86,.49,5.93-1.45,6.71-4.24,.78-2.79-.84-6.05-3.55-7.1,1.9-1.73,2.52-4.71,1.47-7.06-1.05-2.34-3.68-3.87-6.23-3.62,.04-2.53-1.33-5.05-3.48-6.38-2.15-1.34-5.01-1.45-7.26-.29-2.66-2.56-7.16-2.91-10.17-.79-2.43-.6-5.19,.56-6.47,2.71-1.28,2.15-.99,5.12,.7,6.98"/><g><g><path class="e" d="M207.55,74.61c.46-6.5,.33-19.95,.07-32.12-.28-13.09-10.57-23.76-23.63-24.53l-1.3-.08c-14.05,0-21.9,11.92-21.52,25.96l-2.16,54.09,8.48,7.66c7.73,6.98,19.97,4.84,24.87-4.36h0l.66-11.89s13.58-1.3,14.54-14.75Z"/><path class="d" d="M193.12,89.34s-8.62,.01-17.33-6.2c0,0,3.58,9.93,17.08,9.51l.25-3.31Z"/><path class="i" d="M201.67,53.84c-.02,1.02-.9,1.84-1.97,1.83-1.06,0-1.9-.83-1.88-1.85,.02-1.02,.9-1.84,1.97-1.83,1.06,0,1.9,.83,1.88,1.85Z"/><path class="i" d="M204.33,48.9c-.25,.24-1.64-.93-3.71-1.04-2.06-.15-3.64,.83-3.85,.56-.1-.12,.17-.56,.85-1,.68-.44,1.82-.84,3.1-.76,1.29,.08,2.34,.62,2.94,1.14,.61,.53,.8,.99,.67,1.1Z"/><path class="i" d="M182.69,53.84c-.02,1.02-.91,1.84-1.97,1.83-1.06,0-1.9-.83-1.88-1.85,.02-1.02,.91-1.84,1.97-1.83,1.06,0,1.9,.83,1.88,1.85Z"/><path class="i" d="M183.98,48.09c-.25,.24-1.65-.93-3.71-1.04-2.06-.15-3.64,.83-3.85,.56-.1-.12,.16-.56,.86-1,.68-.44,1.82-.84,3.1-.76,1.29,.08,2.34,.62,2.94,1.14,.61,.53,.8,.99,.67,1.1Z"/><path class="i" d="M190.58,63.87c0-.12,1.3-.26,3.39-.41,.53-.02,1.04-.1,1.15-.45,.15-.37-.04-.96-.26-1.59-.42-1.31-.86-2.68-1.32-4.11-1.83-5.85-3.12-10.65-2.89-10.72,.24-.07,1.91,4.61,3.74,10.47,.44,1.44,.86,2.82,1.26,4.13,.16,.61,.47,1.31,.15,2.09-.17,.39-.57,.65-.91,.72-.34,.08-.64,.07-.9,.07-2.1-.01-3.4-.08-3.4-.2Z"/><path class="i" d="M184.41,64.94c.34,0,.21,2.25,2.04,3.95,1.82,1.71,4.23,1.6,4.23,1.92,.02,.14-.56,.4-1.57,.37-.99-.02-2.42-.43-3.54-1.47-1.11-1.05-1.54-2.38-1.56-3.3-.03-.94,.25-1.49,.41-1.46Z"/><path class="i" d="M184.99,40.02c-.24,.55-2.29,.16-4.73,.31-2.45,.1-4.45,.7-4.74,.17-.13-.25,.24-.76,1.07-1.26,.82-.5,2.1-.94,3.56-1.02,1.47-.07,2.79,.24,3.65,.65,.87,.41,1.29,.88,1.19,1.14Z"/><path class="i" d="M203.93,42.87c-.39,.45-1.79-.12-3.5-.25-1.71-.18-3.18,.13-3.49-.38-.13-.25,.12-.7,.78-1.11,.65-.41,1.72-.71,2.89-.6,1.17,.11,2.17,.59,2.74,1.11,.58,.52,.75,1.01,.57,1.23Z"/><path class="i" d="M206.68,36.24s-3.05-8.64-7-10.84c-4.78-2.67-7.22,2.6-11.83,1.02-4.61-1.59-9.17-4.15-14.18-.81-5.48,3.66-3.19,6.59-3.86,12.54-2.74,24.13-7.57,30.72-8.15,19.24-.06-1.26-3.47-2.46-3.68-7.76-.26-6.88-.04-15.21,1.78-19.98,1.53-4.02,4.03-6.71,8.4-9.58,6.9-4.53,15.98-4.1,22.11-3.12,6.13,.98,17.59,8.78,16.41,19.3Z"/><path class="e" d="M162.55,57.07c.04-2.08-1.66-3.83-3.74-3.75-2.52,.09-5.4,1.35-5.54,6.55-.25,9.22,9.06,7.57,9.08,7.3,.02-.18,.13-6.24,.2-10.1Z"/><path class="d" d="M160.44,63.64s-.16,.11-.44,.23c-.27,.11-.73,.19-1.2,0-.96-.38-1.74-1.95-1.74-3.61,0-.84,.2-1.63,.51-2.29,.3-.67,.75-1.13,1.24-1.2,.49-.1,.83,.2,.94,.47,.12,.26,.05,.44,.1,.46,.03,.02,.2-.15,.14-.53-.03-.18-.14-.4-.35-.59-.22-.19-.54-.29-.88-.26-.71,.03-1.37,.67-1.72,1.38-.39,.72-.63,1.61-.63,2.55,0,1.86,.91,3.62,2.23,4.04,.64,.19,1.19,0,1.48-.2,.29-.22,.35-.42,.31-.44Z"/></g><path class="i" d="M163.78,39.25c1.15,.89,2.36,1.8,3.79,2.03,1.43,.23,3.13-.5,3.45-1.91,.15-.63,.03-1.39,.48-1.86,.54-.56,1.45-.32,2.22-.19,2.66,.44,5.51-1.29,6.34-3.85,.62,1.06,2.22,1.11,3.29,.51,1.07-.6,1.8-1.65,2.66-2.53s2.05-1.64,3.25-1.39c.67,.14,1.29,.58,1.97,.56,1.21-.04,1.89-1.42,2.14-2.6,.25-1.19,.48-2.58,1.54-3.17,.98-.55,2.19-.13,3.29,.1,1.1,.23,2.55,.05,2.9-1.02,.18-.56-.03-1.18-.31-1.69-1.3-2.34-4.36-3.53-6.9-2.67-.72-3.09-3.42-5.63-6.56-6.15-3.13-.52-6.51,1.01-8.19,3.71-1.84-1.88-4.62-2.79-7.22-2.35-2.59,.43-4.93,2.19-6.06,4.57-2.2-.72-4.81,0-6.33,1.74-1.53,1.75-1.89,4.42-.88,6.51-1.71,.85-3.22,2.41-3.37,4.31-.15,1.9,1.6,3.91,3.46,3.52-.83,1.44-.34,3.49,1.04,4.4,1.39,.91,3.46,.55,4.45-.78"/><path class="h" d="M194.44,22.3s0,.06-.01,.17c-.02,.11-.04,.28-.09,.49-.11,.42-.32,1.04-.77,1.73-.46,.68-1.15,1.46-2.17,2.05-1,.6-2.35,1.02-3.83,.85l.17-.19c.24,.8,.11,1.74-.33,2.53-.42,.8-1.05,1.5-1.71,2.17-.34,.32-.64,.71-1.09,1-.44,.28-.96,.42-1.49,.46-1.05,.07-2.2-.32-2.9-1.24l.35-.08c-.34,1.82-1.49,3.58-3.21,4.6-.91,.58-2.02,.9-3.08,.81-1.06-.07-2.04-.44-2.94-.83l.25-.09c-.56,1.11-1.38,2.05-2.34,2.71-.95,.67-2.18,1.02-3.26,.68-2.14-.59-3.48-2.48-3.67-4.2l.2,.11c-1.11,.52-2.27,.51-3.19,.28-.93-.23-1.64-.68-2.15-1.11-.5-.44-.79-.88-.96-1.18-.15-.31-.22-.49-.21-.49,.05-.04,.26,.72,1.27,1.56,.5,.4,1.2,.82,2.1,1.01,.88,.21,1.98,.19,3.01-.31l.18-.09,.02,.2c.2,1.6,1.49,3.37,3.48,3.89,.98,.29,2.06-.02,2.96-.65,.9-.63,1.68-1.53,2.2-2.57l.08-.17,.17,.07c.89,.38,1.83,.73,2.81,.79,.98,.08,1.97-.21,2.84-.76,1.62-.96,2.7-2.62,3.03-4.34l.08-.43,.27,.35c.59,.78,1.62,1.15,2.56,1.09,.47-.03,.93-.15,1.32-.39,.38-.23,.69-.61,1.03-.93,.66-.66,1.27-1.33,1.67-2.07,.42-.73,.54-1.56,.34-2.29l-.06-.22,.23,.03c1.4,.18,2.69-.2,3.67-.76,.99-.55,1.68-1.29,2.15-1.94,.92-1.34,.95-2.32,1.01-2.29Z"/></g></g><g><path class="f" d="M214.32,154.19l.97-9.8,3.38-35.94c-1.74-1.83-8.73-4.7-8.73-4.7l-17.36-6.24s-1.66,4.77-14.71,4.96c-13.34,.2-18.87-8.15-18.87-8.15-6.67,2.15-21.22,7.67-21.22,7.67l-4.97,46.75-.25,15.43-3.07,78.6s87.42-3.71,88.73-3.94l-3.54-28.3-.36-56.34Z"/><polygon class="g" points="189.23 131.12 189.23 149.51 199.24 157.68 209.67 149.59 210.25 131.63 189.23 131.12"/></g><path class="j" d="M131.33,195.68l-.26,6.53s55.22-10.01,64.87-13.9c11.91-4.8,18.3-8.87,18.3-8.87l.2-4.98-83.12,21.22Z"/><path class="e" d="M135.16,105.92s-12.45,1.99-15.02,17.86c-1.65,10.24-6.66,55.32,.19,67.44,7.92,14.02,79.41-9.5,79.41-9.5l2.44-18.14-55.09,3.64-6.92-38.24-5.01-23.07Z"/><path class="f" d="M115.19,159.24h34.91l-9.55-58.23s-20.01,4.05-22.63,24.96c-2.64,21.09-2.73,33.27-2.73,33.27Z"/><path class="i" d="M119.58,159.24s.05-.01,.16-.02l.46-.02c.43,0,1.02-.02,1.76-.03,1.57-.01,3.78-.03,6.51-.06,5.53-.01,13.15-.03,21.64-.06l-.18,.19c-.04-.45-.08-.94-.12-1.43-.73-8.78-1.4-16.73-1.88-22.52-.22-2.86-.4-5.18-.53-6.83-.05-.78-.09-1.4-.13-1.86,0-.19-.02-.35-.02-.48,0-.11,0-.17,0-.17s.02,.05,.03,.16l.06,.48c.05,.45,.11,1.07,.19,1.85,.15,1.64,.37,3.96,.64,6.82,.51,5.79,1.21,13.73,1.98,22.51,.04,.49,.08,.98,.12,1.43l.02,.19h-.2c-8.48-.02-16.1-.04-21.64-.06-2.73-.02-4.94-.04-6.51-.06-.74-.01-1.33-.02-1.76-.03l-.46-.02c-.1,0-.16-.01-.16-.02Z"/><path class="i" d="M216.93,123.86s.03,.42,.02,1.19c0,.77-.06,1.87-.12,3.24-.14,2.73-.43,6.5-.82,10.65-.39,4.16-.81,7.91-1.14,10.63-.16,1.36-.31,2.45-.42,3.21-.11,.76-.18,1.17-.21,1.17-.02,0,0-.43,.07-1.19,.08-.82,.18-1.91,.3-3.22,.27-2.78,.63-6.51,1.03-10.63,.39-4.15,.72-7.91,.92-10.64,.1-1.32,.18-2.41,.24-3.23,.06-.76,.1-1.18,.12-1.18Z"/><path class="i" d="M150.65,117.52s-.16-.22-.39-.65c-.27-.5-.59-1.1-.97-1.81-.83-1.52-1.99-3.64-3.75-5.59-1.76-1.95-3.87-3.19-5.51-3.69-1.64-.52-2.74-.44-2.74-.52,0-.02,.27-.06,.76-.05,.49,0,1.2,.09,2.05,.32,1.7,.45,3.9,1.69,5.7,3.7,1.8,2,2.93,4.17,3.71,5.72,.38,.78,.68,1.42,.87,1.87,.19,.45,.29,.7,.27,.71Z"/><path class="j" d="M146.12,161.87c-.06-.34,6.04-1.83,6.04-1.83l-4.46-28.92,2.41,28.12h-4.46l.48,2.63Z"/><g><path class="e" d="M201.68,163.62s28.49,4.78,29.13,5.57,7.96,9.07,7.96,9.07c0,0,10.98,3.78,9.55,6.21-1.43,2.43-4.62,.96-4.62,.96,0,0,4.46,7,2.39,8.44-2.07,1.43-4.3,.48-5.89-1.59-1.59-2.07-6.21-9.71-6.21-9.71,0,0,3.82,15.6,1.91,16.08-1.91,.48-4.93,.64-6.21-3.34-1.27-3.98-1.59-6.21-1.59-6.21l-6.05-10.03s2.39,18.31,.96,19.82c0,0-3.66,1.19-4.93-1.99s-3.02-10.46-3.02-10.46l-3.02-8-.32,5.09s2.55,9.39,.96,10.03c-1.59,.64-3.66,0-4.78-2.14-1.11-2.15-2.34-4.68-2.87-6.77-.31-1.24-2-5.48-2-5.48l-6.05-.8,4.71-14.73Z"/><path class="d" d="M236.76,175.83c.1-.07,1.79,2.16,3.78,4.98,1.99,2.82,3.52,5.17,3.42,5.24-.1,.07-1.79-2.16-3.78-4.99-1.99-2.82-3.52-5.17-3.42-5.24Z"/><path class="d" d="M227.27,170.56s.58,.56,1.33,1.59c.76,1.03,1.73,2.52,2.68,4.23,.95,1.71,1.7,3.32,2.2,4.5,.5,1.18,.76,1.93,.7,1.95-.06,.02-.41-.68-.98-1.82-.57-1.14-1.36-2.72-2.3-4.42-.94-1.7-1.86-3.2-2.55-4.27-.69-1.07-1.13-1.73-1.08-1.77Z"/><path class="d" d="M218.88,171.4s.47,.2,1.01,.8c.54,.59,1.13,1.55,1.51,2.7,.38,1.15,.54,2.24,.62,3.01,.08,.78,.09,1.26,.03,1.27-.06,0-.18-.46-.33-1.22-.16-.76-.36-1.81-.73-2.92-.37-1.11-.88-2.03-1.34-2.65-.45-.62-.81-.94-.77-.99Z"/><path class="d" d="M208.77,172.27s.45,.08,1.03,.49c.58,.4,1.29,1.12,1.78,2.1,.49,.98,.62,1.99,.59,2.69-.03,.71-.18,1.13-.23,1.11-.13,0,.17-1.76-.75-3.61-.91-1.86-2.49-2.69-2.41-2.79Z"/></g></g><g id="b"/></svg>