<?xml version="1.0" encoding="utf-8"?>
<!-- Generator: Adobe Illustrator 26.1.0, SVG Export Plug-In . SVG Version: 6.00 Build 0)  -->
<svg version="1.1" xmlns="http://www.w3.org/2000/svg" xmlns:xlink="http://www.w3.org/1999/xlink" x="0px" y="0px"
	 viewBox="0 0 354.3 297.6" style="enable-background:new 0 0 354.3 297.6;" xml:space="preserve">
<style type="text/css">
	.st0{fill:#F0858C;}
	.st1{fill:none;}
	.st2{fill:#FFFFFF;}
	.st3{font-family:'Lato-Medium';}
	.st4{font-size:16px;}
	.st5{fill:#834F45;}
	.st6{fill:#263239;}
	.st7{fill:#F8BC9E;}
	.st8{fill:#EC9A6E;}
	.st9{fill:#455A64;}
	.st10{fill:#F5F4F5;}
	.st11{fill:#E0E0E0;}
	.st12{fill:none;stroke:#444C52;stroke-miterlimit:10;}
	.st13{fill:#E9505B;}
	.st14{opacity:0.4;}
	.st15{fill:#010202;}
	.st16{fill:#FBFBFB;}
	.st17{opacity:0.3;}
	.st18{fill:#EE7160;}
	.st19{fill:#8E3039;}
	.st20{fill:#EBEBEB;}
	.st21{fill:#C27461;}
	.st22{fill:#7E4436;}
	.st23{opacity:0.3;fill:#8E3039;}
	.st24{opacity:0.3;fill:#010202;}
	.st25{fill:#5B342F;}
	.st26{fill:#A56A5F;}
	.st27{fill:#83544C;}
</style>
<g id="Ebene_2">
	<g>
		<path class="st0" d="M193.1,296.7H47.3c-6.4,0-11.7-5.2-11.7-11.7v-21.5c0-6.4,5.2-11.7,11.7-11.7h145.8c6.4,0,11.7,5.2,11.7,11.7
			v21.5C204.8,291.5,199.5,296.7,193.1,296.7z"/>
		<text transform="matrix(1 0 0 1 51.8374 286.2067)" class="st2 st3 st4">Ella möchte wissen</text>
		<rect x="3.1" y="265.3" class="st1" width="18.4" height="20.8"/>
	</g>
</g>
<g id="Ebene_1">
	<g>
		<path class="st19" d="M193.3,42.5c-1.2-7.8-3.1-16.3-8.2-22.2c-3.7-4.3-7.3-7.6-12.2-10.5c-5.2-3.1-9.8-4.2-15.3-4.8l-3.7,3.2
			c11.7,2.8,21.8,10.9,27.8,21.4c6,10.4,7.9,23,5.9,34.9c-1.3,7.8-4.1,15.2-6.2,22.8c-2.1,7.6-3.6,15.6-2.1,23.3
			c6.4-2.5,4.6,1.7,7.3-4.6c2.7-6.3,4.1-20.3,5.7-27C194.9,67.8,194.9,53.1,193.3,42.5z"/>
		<g>
			<g>
				<path class="st6" d="M187,25.2c-9.8-15.3-32.8-20-32.8-20c-33.7-2.4-39.7,23.5-43.1,47c-2.1,14.6,5.7,60.4,5.7,60.4l8.2,3
					l54.2,0c0-1,3.8-9.3,4.8-12C188.9,79,192.8,34.2,187,25.2z"/>
				<polygon class="st6" points="188.5,105.9 188.5,105.9 188.5,105.9 				"/>
			</g>
			<path class="st7" d="M159,13.9l-2.1-2l-22.8,9.2c-3.3,0.2-5.9,2.9-6,6.1l0.2,74.1c0,5,1,9.4,4,13.4l3.2,4.2
				c7.3,9.6,22.3,8.8,28-1.8c0.4-0.7,0.7-1.4,0.8-1.9c0.1-0.7,0.3-1.1,0.3-1.7c0.7-6,0.7-11.1,0.7-11.1c0.4-6.5,0.5-9.2,0.5-9.2
				c0,0,13.9-1.6,17.7-19.5c1.9-8.9,1.5-21.1,1-33.2C183.9,24,172.4,13.9,159,13.9z"/>
			<g>
				<g>
					<g>
						<g>
							<g>
								<g>
									<g>
										<g>
											<g>
												<g>
													<g>
														<g>
															<g>
																<g>
																	<g>
																		<path class="st6" d="M154.9,51.7c0,1.2-1.1,2.2-2.3,2.2c-1.3,0-2.3-1-2.3-2.2c0-1.2,1.1-2.2,2.3-2.2
																			C153.9,49.5,154.9,50.5,154.9,51.7z"/>
																	</g>
																</g>
															</g>
														</g>
													</g>
												</g>
											</g>
										</g>
									</g>
								</g>
							</g>
						</g>
					</g>
				</g>
				<g>
					<g>
						<g>
							<g>
								<g>
									<g>
										<g>
											<g>
												<g>
													<g>
														<g>
															<g>
																<g>
																	<g>
																		<path class="st6" d="M177.8,52.5c0,1.2-1.1,2.2-2.3,2.2c-1.3,0-2.3-1-2.3-2.2c0-1.2,1.1-2.2,2.3-2.2
																			C176.8,50.3,177.8,51.3,177.8,52.5z"/>
																	</g>
																</g>
															</g>
														</g>
													</g>
												</g>
											</g>
										</g>
									</g>
								</g>
							</g>
						</g>
					</g>
				</g>
				<g>
					<g>
						<g>
							<g>
								<g>
									<g>
										<g>
											<g>
												<g>
													<g>
														<g>
															<g>
																<g>
																	<g>
																		<g>
																			<path class="st6" d="M182.3,45.4c-0.3,0.3-2-1.1-4.5-1.2c-2.5-0.2-4.4,1-4.6,0.7c-0.1-0.1,0.2-0.7,1-1.2
																				c0.8-0.5,2.2-1,3.7-0.9c1.5,0.1,2.8,0.7,3.5,1.3C182.2,44.7,182.4,45.3,182.3,45.4z"/>
																		</g>
																	</g>
																</g>
															</g>
														</g>
													</g>
												</g>
											</g>
										</g>
									</g>
								</g>
							</g>
						</g>
					</g>
				</g>
			</g>
			<g>
				<g>
					<g>
						<g>
							<g>
								<g>
									<g>
										<g>
											<g>
												<g>
													<g>
														<g>
															<g>
																<g>
																	<g>
																		<g>
																			<path class="st6" d="M157,45.6c-0.3,0.3-1.9-1.3-4.3-1.7c-2.5-0.4-4.5,0.6-4.7,0.2c-0.1-0.2,0.3-0.6,1.1-1.1
																				c0.9-0.5,2.3-0.8,3.8-0.6c1.5,0.2,2.7,1,3.4,1.7C157,45,157.2,45.5,157,45.6z"/>
																		</g>
																	</g>
																</g>
															</g>
														</g>
													</g>
												</g>
											</g>
										</g>
									</g>
								</g>
							</g>
						</g>
					</g>
				</g>
			</g>
			<g>
				<g>
					<g>
						<g>
							<g>
								<g>
									<g>
										<g>
											<g>
												<g>
													<g>
														<g>
															<g>
																<g>
																	<g>
																		<path class="st6" d="M165.7,63.8c0-0.1,1.6-0.3,4.1-0.5c0.6,0,1.2-0.1,1.4-0.6c0.2-0.5-0.1-1.1-0.3-1.9
																			c-0.5-1.6-1.1-3.2-1.6-4.9c-2.3-7-3.9-12.8-3.6-12.9c0.3-0.1,2.3,5.5,4.6,12.6c0.5,1.7,1.1,3.4,1.6,5
																			c0.2,0.7,0.6,1.6,0.2,2.5c-0.2,0.5-0.7,0.8-1.1,0.9c-0.4,0.1-0.8,0.1-1.1,0.1C167.3,64,165.7,63.9,165.7,63.8z"/>
																	</g>
																</g>
															</g>
														</g>
													</g>
												</g>
											</g>
										</g>
									</g>
								</g>
							</g>
						</g>
					</g>
				</g>
			</g>
			<g>
				<g>
					<g>
						<g>
							<g>
								<g>
									<g>
										<g>
											<g>
												<g>
													<g>
														<g>
															<g>
																<g>
																	<path class="st8" d="M166,93.3c0,0-12.2,0.2-23.8-7.7c0,0,5.4,12.8,23.6,12L166,93.3z"/>
																</g>
															</g>
														</g>
													</g>
												</g>
											</g>
										</g>
									</g>
								</g>
							</g>
						</g>
					</g>
				</g>
			</g>
			<g>
				<g>
					<g>
						<g>
							<g>
								<g>
									<g>
										<g>
											<g>
												<g>
													<g>
														<g>
															<g>
																<g>
																	<path class="st8" d="M164.4,69.7c-0.8-1.2-2.4-2-3.9-1.9c-1.1,0.1-2.2,0.5-2.9,1.4c-0.7,0.8-0.9,2.1-0.3,3
																		c0.6,1,2,1.3,3.2,1c1.2-0.3,2.3-1,3.3-1.7c0.3-0.2,0.6-0.4,0.7-0.7c0.2-0.3,0.2-0.7,0-0.9"/>
																</g>
															</g>
														</g>
													</g>
												</g>
											</g>
										</g>
									</g>
								</g>
							</g>
						</g>
					</g>
				</g>
			</g>
			<g>
				<g>
					<g>
						<g>
							<g>
								<g>
									<g>
										<g>
											<g>
												<g>
													<g>
														<g>
															<g>
																<g>
																	<g>
																		<path class="st6" d="M158.3,65.1c0.4,0,0.3,2.7,2.5,4.7c2.2,2,5.1,1.9,5.1,2.3c0,0.2-0.7,0.5-1.9,0.5
																			c-1.2,0-2.9-0.5-4.3-1.7c-1.4-1.2-1.9-2.8-1.9-4C157.8,65.8,158.1,65.1,158.3,65.1z"/>
																	</g>
																</g>
															</g>
														</g>
													</g>
												</g>
											</g>
										</g>
									</g>
								</g>
							</g>
						</g>
					</g>
				</g>
			</g>
			<g>
				<g>
					<g>
						<g>
							<g>
								<g>
									<g>
										<g>
											<g>
												<g>
													<g>
														<path class="st6" d="M159.4,35.9c-0.3,0.6-2.8-0.1-5.7-0.2c-2.9-0.2-5.4,0.3-5.7-0.3c-0.1-0.3,0.4-0.9,1.4-1.4
															c1-0.5,2.6-0.9,4.4-0.8c1.8,0.1,3.3,0.6,4.3,1.2C159.1,35,159.6,35.6,159.4,35.9z"/>
													</g>
												</g>
											</g>
										</g>
									</g>
								</g>
							</g>
						</g>
					</g>
				</g>
			</g>
			<g>
				<g>
					<g>
						<g>
							<g>
								<g>
									<g>
										<g>
											<g>
												<g>
													<g>
														<path class="st6" d="M181.9,34.7c-0.5,0.5-2.2-0.1-4.2-0.3c-2.1-0.2-3.8,0.2-4.2-0.4c-0.2-0.3,0.1-0.8,0.9-1.3
															c0.8-0.5,2.1-0.9,3.5-0.8c1.4,0.1,2.6,0.7,3.3,1.3C181.9,33.8,182.1,34.4,181.9,34.7z"/>
													</g>
												</g>
											</g>
										</g>
									</g>
								</g>
							</g>
						</g>
					</g>
				</g>
			</g>
			<path class="st6" d="M128.6,58.9c0,0,12.7,4,20-27.5C151,20.6,161,11.9,161,11.9l-4-1.2c0,0-25.1,7.1-25.6,7.4
				c-0.4,0.3-6.3,13-6.3,13L128.6,58.9z"/>
			<g>
				<g>
					<g>
						<path class="st7" d="M131.7,57.7c0.1-1.3-1.3-4.6-2.6-4.9c-3.5-0.7-9.9-0.8-10.4,8.2c-0.7,12.3,11.8,10.5,11.8,10.1
							C130.5,70.9,131.5,62.3,131.7,57.7z"/>
					</g>
				</g>
			</g>
			<g>
				<g>
					<g>
						<g>
							<path class="st8" d="M127,66.3c-0.1,0-0.2,0.1-0.6,0.3c-0.4,0.1-1,0.2-1.6-0.1c-1.3-0.6-2.2-2.7-2.2-4.9c0-1.1,0.3-2.2,0.8-3
								c0.4-0.9,1-1.5,1.7-1.6c0.7-0.1,1.1,0.3,1.2,0.7c0.1,0.4,0.1,0.6,0.1,0.6c0,0,0.3-0.2,0.2-0.7c0-0.2-0.2-0.5-0.4-0.8
								c-0.3-0.3-0.7-0.4-1.2-0.4c-1,0-1.9,0.8-2.3,1.8c-0.5,0.9-0.9,2.1-0.9,3.4c-0.1,2.5,1.1,4.9,2.8,5.5c0.9,0.3,1.6,0.1,2-0.2
								C126.9,66.6,127,66.3,127,66.3z"/>
						</g>
					</g>
				</g>
			</g>
			<path class="st6" d="M137.2,52.8c0,0,0.7,0,1.8-0.4c1.2-0.3,2.8-1.1,4.4-2.5c0.8-0.7,1.6-1.6,2.3-2.7c0.7-1.1,1.3-2.3,1.9-3.6
				c1.1-2.6,1.8-5.7,2.6-8.9c0.9-3.2,1.8-6.2,2.8-8.9c1-2.7,2.1-5,3.2-6.9c1.1-1.9,2.1-3.4,2.8-4.3c0.4-0.5,0.7-0.8,0.9-1.1
				c0.2-0.2,0.3-0.4,0.3-0.4c0,0-0.1,0.1-0.3,0.4c-0.2,0.3-0.5,0.6-0.8,1.1c-0.7,1-1.7,2.5-2.7,4.4c-1,1.9-2.1,4.2-3.1,6.9
				c-1,2.7-1.9,5.7-2.8,8.9c-0.9,3.2-1.6,6.3-2.7,9c-0.5,1.3-1.2,2.6-1.9,3.6c-0.7,1.1-1.5,2-2.4,2.7c-1.6,1.5-3.3,2.2-4.5,2.5
				C137.9,52.9,137.2,52.8,137.2,52.8z"/>
			<path class="st9" d="M118.2,104.1c0,0,0.3-1.5,0.3-4.3c0-2.8-0.3-6.8-1.2-11.7c-0.4-2.4-0.9-5.1-1.4-8c-0.5-2.9-0.9-5.9-1.1-9.2
				c-0.2-3.3,0-6.7,0.7-10.2c0.4-1.7,1-3.4,1.7-5.1c0.8-1.7,1.8-3.2,2.9-4.7c2.3-3,5.1-5.4,7.7-7.8c2.7-2.3,5.3-4.6,7.6-7
				c4.6-4.7,8.3-9.3,11.1-13.4c2.8-4.1,4.7-7.6,6-10.1c0.6-1.2,1.1-2.2,1.4-2.9c0.1-0.3,0.3-0.6,0.3-0.8c0.1-0.2,0.1-0.3,0.1-0.3
				c0,0-0.1,0.1-0.1,0.2c-0.1,0.2-0.2,0.4-0.4,0.7c-0.3,0.7-0.8,1.6-1.4,2.8c-1.3,2.4-3.3,5.9-6.1,10c-2.8,4.1-6.5,8.7-11.1,13.4
				c-2.3,2.3-4.9,4.6-7.6,6.9c-2.7,2.3-5.5,4.8-7.8,7.8c-1.2,1.5-2.2,3.1-2.9,4.8c-0.8,1.7-1.3,3.4-1.7,5.2c-0.8,3.5-0.9,7-0.7,10.3
				c0.2,3.3,0.6,6.4,1.1,9.2c0.5,2.9,1,5.5,1.5,8c0.9,4.9,1.3,8.9,1.3,11.6c0,1.4,0,2.5-0.1,3.2c0,0.4,0,0.6-0.1,0.8
				C118.2,104,118.2,104.1,118.2,104.1z"/>
			<path class="st9" d="M114.2,105.3c0,0,0.3-1.5,0.3-4.3c0-2.8-0.3-6.8-1.2-11.7c-0.4-2.4-0.9-5.1-1.4-8c-0.5-2.9-0.9-5.9-1.1-9.2
				c-0.2-3.3,0-6.7,0.7-10.2c0.4-1.7,1-3.4,1.7-5.1c0.8-1.7,1.8-3.2,2.9-4.7c2.3-3,5.1-5.4,7.7-7.8c2.7-2.3,5.3-4.6,7.6-7
				c4.6-4.7,8.3-9.3,11.1-13.4c2.8-4.1,4.7-7.6,6-10.1c0.6-1.2,1.1-2.2,1.4-2.9c0.1-0.3,0.3-0.6,0.3-0.8c0.1-0.2,0.1-0.3,0.1-0.3
				c0,0-0.1,0.1-0.1,0.2c-0.1,0.2-0.2,0.4-0.4,0.7c-0.3,0.7-0.8,1.6-1.4,2.8c-1.3,2.4-3.3,5.9-6.1,10c-2.8,4.1-6.5,8.7-11.1,13.4
				c-2.3,2.3-4.9,4.6-7.6,6.9c-2.7,2.3-5.5,4.8-7.8,7.8c-1.2,1.5-2.2,3.1-2.9,4.8c-0.8,1.7-1.3,3.4-1.7,5.2c-0.8,3.5-0.9,7-0.7,10.3
				c0.2,3.3,0.6,6.4,1.1,9.2c0.5,2.9,1,5.5,1.5,8c0.9,4.9,1.3,8.9,1.3,11.6c0,1.4,0,2.5-0.1,3.2c0,0.4,0,0.6-0.1,0.8
				C114.2,105.2,114.2,105.3,114.2,105.3z"/>
		</g>
		<path class="st6" d="M96.5,266c0,0-1.1-10.2,5.4-27.3c5.4-14,11.7-21.7,11.7-21.7l84.8-5.6l6.5,54.7H96.5z"/>
		<g>
			<path class="st20" d="M197.3,179.6c1.2-18.9,0-47.5,0-47.5l-14-23.5l-18.4-2.9c0,0,0,12.9-9.7,15c-16.5,3.6-27.2-16.2-27.2-16.2
				c-1.6,0-25,4.9-32.5,12c-7.6,7.3-20.3,26.6-23.9,32.1l0,0c0,0-24.7,36.1-28.3,46c-2.7,7.5-0.2,13.2,1.2,15.6
				c0.8,2.2,23.6,35,41.3,48.1l1.4-2.6l9.2-15.8l-23.8-39.1l27.6-29.1l5.4-5.1l1.6,6.9l6.7,32.3c0,0-13.3,26.7-15.2,40.5
				c0,0,65.6,22.6,106.1,11.4C204.7,257.8,196.1,198.4,197.3,179.6z"/>
			<g>
				<g>
					<g>
						<g>
							<path class="st7" d="M128.3,232.9c0,0-11.1-3-12.2-2.4c-1.1,0.6-9.4,5-9.4,5s-2.5,3.1-3.9,4.2c0,0-2.8,2.7-4.8,2.8
								c-2,0.1-3.1-0.3-3.1-0.3l-7.7,13.5c0,0,4.6,4.3,7,4.3c2.4,0,15.8-5.7,15.8-5.7l3.2-0.7c0,0,12.1,1.8,13.1-1.9l0.1-1
								l-11.9-2.3l-4.5,0.3l8-2.1c0,0,11.4,0.6,12.4,0.4c1.1-0.2,2.4-1.7,2.1-2.6l-2.3-0.6c0,0,2.8-1.5,2.8-3.1l-10.5-2.8
								C122.5,237.8,129.3,235.2,128.3,232.9z"/>
						</g>
					</g>
				</g>
				<g>
					<g>
						<g>
							<g>
								<path class="st8" d="M131.4,243.7c0,0-0.4-0.1-1-0.2c-0.6-0.2-1.5-0.4-2.6-0.7c-2.2-0.6-5.3-1.3-8.7-2.1
									c-0.4-0.1-0.8-0.2-1.2-0.2c-0.4,0-0.8,0-1.2,0.1c-0.8,0.2-1.5,0.5-2.2,0.7c-1.4,0.5-2.7,1-3.7,1.4c-1,0.4-1.9,0.9-2.4,1.2
									c-0.6,0.3-0.8,0.5-0.9,0.5c0,0,0.2-0.3,0.8-0.6c0.5-0.4,1.3-0.8,2.4-1.3c1-0.5,2.3-1,3.7-1.5c0.7-0.3,1.4-0.5,2.3-0.8
									c0.4-0.1,0.9-0.1,1.3-0.1c0.5,0,0.9,0.2,1.3,0.2c3.4,0.8,6.5,1.5,8.7,2.2c1.1,0.3,2,0.6,2.6,0.9
									C131.1,243.5,131.4,243.7,131.4,243.7z"/>
							</g>
						</g>
					</g>
				</g>
				<g>
					<g>
						<g>
							<g>
								<path class="st8" d="M122.8,238.3c0,0.1-0.8-0.4-2.2-0.8c-1.4-0.4-3.4-0.8-5.6-0.4c-2.2,0.3-4,1.2-5.2,2
									c-1.2,0.8-1.8,1.5-1.9,1.4c0,0,0.5-0.8,1.7-1.7c1.2-0.9,3.1-1.9,5.4-2.3c2.3-0.3,4.4,0.1,5.8,0.6
									C122.1,237.6,122.8,238.2,122.8,238.3z"/>
							</g>
						</g>
					</g>
				</g>
			</g>
			<polygon class="st20" points="221.6,206.5 215.6,132 194.9,111 182.9,108.6 188,159 199.2,159 194.9,208.4 185.1,248.2 
				199.2,250.9 			"/>
			<g>
				<path class="st6" d="M198.1,201.7c0,0,0-0.3-0.1-0.7c0-0.5-0.1-1.2-0.1-2.1c-0.1-1.9-0.1-4.6-0.2-7.9c-0.1-3.3-0.1-7.3-0.1-11.7
					c0-4.4,0-9.3,0-14.3c0-10.2-1.9-19.3-3.4-25.7c-0.8-3.2-1.4-5.9-1.9-7.7c-0.2-0.9-0.4-1.6-0.5-2.1c-0.1-0.5-0.2-0.7-0.1-0.7
					c0,0,0.1,0.2,0.2,0.7c0.1,0.5,0.3,1.2,0.6,2.1c0.5,1.8,1.2,4.4,2,7.6c1.6,6.5,3.6,15.6,3.6,25.8c0.1,5.1,0,9.9,0,14.4
					c0,4.4,0,8.4,0,11.7c0,3.3,0,6,0.1,7.9c0,0.9,0,1.6,0,2.1C198.1,201.4,198.1,201.7,198.1,201.7z"/>
			</g>
			<g class="st17">
				<path class="st15" d="M197.8,160c3.6-13,0-27.8-9.3-37.7c4.9,11.8,8.1,24.2,9.4,36.9"/>
			</g>
		</g>
		<path class="st19" d="M162.2,5.5C135.1,8,134,41.1,130.4,67.2c-5.1,37.3,22.2,45.3,22.2,45.3l-33.9-6.4c0,0-18.6-7.5-18.4-28.1
			c0.1-20.6,3.4-45.8,25-65C143.8-3.5,160.4,4.4,162.2,5.5z"/>
		<path class="st19" d="M188.5,104.5c-2-1.8-1.3-2.6-7.1-3.1c-6.6-0.6-14,3.6-20.6,4.5c-6.6,0.9-13.6,0-19.1-3.7
			c-6.5-4.3-10-11.8-13.2-18.9l-15.9,13.1c-3.1,2.5-4.9,6.4-4.8,10.4c0,0.9,0.1,1.6,0.4,2c0.9,1.4,7.8-1.9,9.1-0.9
			c7.3,5.1,10.4,13.2,17.1,19.1c7.8,6.9,15,12.3,20.5,12.1c5.4-0.2,15.6-6,19.3-12.8c3.4-6.2,6.3-10.8,8.9-15.5c1.4-2.5,6.2,1,6.8-2
			C190.2,107.3,189.7,105.6,188.5,104.5z"/>
		<g>
			<path class="st6" d="M100.2,143.4c0,0,0.1,0.2,0.2,0.6c0.1,0.5,0.3,1.1,0.5,1.8c0.4,1.6,1,3.9,1.6,6.6c1.4,5.6,3.2,13.4,5.1,22
				c1.9,8.6,3.6,16.4,4.7,22.1c0.6,2.8,1,5.1,1.2,6.7c0.1,0.8,0.2,1.4,0.3,1.8c0.1,0.4,0.1,0.6,0.1,0.6c0,0-0.1-0.2-0.2-0.6
				c-0.1-0.5-0.2-1.1-0.3-1.8c-0.3-1.6-0.8-3.9-1.4-6.7c-1.2-5.7-2.9-13.4-4.8-22c-1.9-8.6-3.7-16.3-5-22c-0.6-2.8-1.1-5-1.5-6.7
				c-0.2-0.8-0.3-1.4-0.4-1.8C100.2,143.7,100.2,143.4,100.2,143.4z"/>
		</g>
		<g>
			<path class="st6" d="M188.5,108c0,0-0.1,0-0.2,0.1c-0.1,0.1-0.3,0.2-0.5,0.3c-0.5,0.3-1.2,0.7-2.1,1.1c-1.9,0.9-4.8,2-8.4,2.8
				c-3.7,0.8-8.1,1.4-13.1,1.5c-5,0.2-10.4-0.1-16.1-0.5c-2.9-0.2-5.7-0.5-8.3-0.9c-2.7-0.4-5.2-1-7.6-1.6c-4.8-1.3-9-2.9-12.4-4.5
				c-3.4-1.7-6-3.3-7.7-4.5c-0.9-0.6-1.5-1.1-1.9-1.4c-0.2-0.2-0.4-0.3-0.5-0.4c-0.1-0.1-0.2-0.1-0.2-0.1c0,0,0.1,0,0.2,0.1
				c0.1,0.1,0.3,0.2,0.5,0.4c0.5,0.3,1.1,0.8,2,1.4c1.7,1.2,4.3,2.7,7.7,4.3c3.4,1.6,7.6,3.2,12.3,4.4c2.4,0.6,4.9,1.1,7.6,1.5
				c2.7,0.4,5.4,0.7,8.3,0.9c5.7,0.4,11.1,0.6,16.1,0.5c4.9-0.1,9.4-0.6,13-1.4c3.7-0.8,6.5-1.8,8.4-2.7c1-0.4,1.7-0.8,2.2-1
				c0.2-0.1,0.4-0.2,0.6-0.3C188.5,108,188.5,107.9,188.5,108z"/>
		</g>
		<g>
			<path class="st6" d="M136.5,111.5c0,0-0.1,0-0.2-0.1c-0.1-0.1-0.3-0.2-0.5-0.3c-0.4-0.3-1.1-0.8-1.8-1.4
				c-0.8-0.6-1.7-1.4-2.8-2.3c-0.5-0.4-1.1-1-1.7-1.5c-0.6-0.5-1.2-1.1-1.9-1.7c-2.5-2.5-5.4-5.6-7.9-9.6c-2.5-4-4.2-9-4.4-14.5
				c-0.2-5.4,0.9-10.6,2.1-15.1c1.2-4.5,2.5-8.5,3.6-11.9c1-3.3,1.9-6.1,2.5-8c0.3-0.9,0.5-1.6,0.7-2.2c0.1-0.2,0.1-0.4,0.2-0.6
				c0-0.1,0.1-0.2,0.1-0.2c0,0,0,0.1,0,0.2c0,0.2-0.1,0.3-0.1,0.6c-0.1,0.5-0.3,1.3-0.6,2.2c-0.5,1.9-1.3,4.7-2.3,8
				c-1,3.4-2.3,7.4-3.5,11.9c-1.1,4.5-2.2,9.6-2,15c0.2,5.4,1.9,10.3,4.3,14.3c2.4,4,5.3,7.1,7.8,9.6c0.6,0.6,1.2,1.2,1.8,1.7
				c0.6,0.5,1.1,1.1,1.7,1.5c1.1,0.9,2,1.7,2.7,2.3c0.7,0.6,1.3,1.1,1.8,1.4c0.2,0.2,0.3,0.3,0.5,0.4
				C136.5,111.4,136.5,111.5,136.5,111.5z"/>
		</g>
		<g>
			<path class="st6" d="M162.2,13.2c0,0.1-1.4,0.2-3.6,0.8c-1.1,0.3-2.3,0.8-3.7,1.4c-1.3,0.7-2.8,1.5-4.2,2.5
				c-2.8,2-5.1,4.1-6.7,5.8c-1.6,1.6-2.5,2.7-2.6,2.6c0,0,0.2-0.3,0.6-0.8c0.4-0.5,1-1.2,1.8-2c1.5-1.7,3.8-3.9,6.7-5.9
				c1.4-1,2.9-1.8,4.3-2.5c1.4-0.6,2.7-1.1,3.8-1.4c0.6-0.2,1.1-0.2,1.5-0.3c0.4-0.1,0.8-0.1,1.2-0.1
				C161.8,13.2,162.2,13.2,162.2,13.2z"/>
		</g>
		<g>
			<path class="st19" d="M127.5,33.8c0.2-0.8,0.4-1.7,0.5-2.5c0.2-1.6-2.1-2.1-2.6-0.6c-1.8,4.7-3.6,9.5-5.4,14.2
				c-3.5,9.4-7.1,19-7.3,29c-0.2,10,3,21.2,11.5,26.5l-2.5-4.4c-6.4-8.8-6.6-20.7-4.1-31.3C120.1,54.2,124.8,44.3,127.5,33.8z"/>
		</g>
		<g>
			<path class="st6" d="M189,110.4c0,0,0.2-0.4,0.4-1.2c0.2-0.8,0.2-1.9-0.3-3.2c-0.5-1.3-1.7-2.6-3.4-3.4c-1.7-0.8-3.7-1.1-5.9-0.9
				c-2.1,0.2-4.2,0.6-6,1c-1.8,0.4-3.5,0.9-4.8,1.3c-1.4,0.4-2.5,0.8-3.2,1c-0.8,0.3-1.2,0.4-1.2,0.4c0,0,0.4-0.2,1.1-0.5
				c0.7-0.3,1.8-0.7,3.2-1.2c1.4-0.5,3-0.9,4.8-1.4c1.8-0.4,3.9-0.9,6.1-1.1c2.2-0.2,4.4,0.1,6.1,1c1.7,0.8,3,2.2,3.5,3.6
				c0.5,1.4,0.4,2.6,0.2,3.4c-0.1,0.4-0.3,0.7-0.4,0.9C189.1,110.3,189,110.4,189,110.4z"/>
		</g>
		<g class="st17">
			<path class="st15" d="M180,112c-10.4,4.6-22,6.3-33.2,4.9c-11.2-1.5-20.6-4.7-29.5-11.8c0,0,14.1,8.1,35.9,8.3
				C171.4,113.4,180,112,180,112z"/>
		</g>
	</g>
</g>
</svg>
