<?xml version="1.0" encoding="UTF-8"?><svg xmlns="http://www.w3.org/2000/svg" viewBox="0 0 354.33 297.64"><defs><style>.c{fill:#f8bc9e;}.d{fill:#e9505b;}.e{fill:#fff;}.f{fill:#ec9a6e;}.g{fill:#8e3039;}.h{fill:#e0e0e0;}.i{fill:#455a64;}.j{fill:#263239;}.k{opacity:.3;}.l{opacity:.4;}</style></defs><g id="a"><g><rect class="d" x="41.65" y="34.96" width="252.17" height="219.68" rx="38.79" ry="38.79"/><g class="l"><rect class="d" x="41.65" y="34.96" width="252.17" height="219.68" rx="38.79" ry="38.79"/></g><g><polygon class="d" points="293.75 111.55 331.52 111.55 292.9 150.17 293.75 111.55"/><g class="l"><polygon class="d" points="293.75 111.55 331.52 111.55 292.9 150.17 293.75 111.55"/></g></g></g><path class="c" d="M199.67,128.44s6.52,2.08,10.49,9.12c3.94,6.98,2.89,10.42,1.86,14.55-1.03,4.12-2.85,12.31-2.95,11.78-.1-.53-9.4-35.45-9.4-35.45Z"/><g><path class="j" d="M190.43,38.71c-.95-3.43-2.81-6.79-5.88-8.58-1.46-.85-3.11-1.31-4.59-2.11-1.79-.97-3.26-2.43-4.94-3.58-4.12-2.85-9.48-3.82-14.33-2.59-4.85,1.23-9.11,4.63-11.38,9.1-3.46-2.63-9.45-1.52-13.54-.05-4.09,1.47-7.51,6.34-8.49,10.58l19.18,5.8c3.84,4.19,8.1,8.08,13.1,10.79,5,2.71,10.8,4.17,16.42,3.32,5.62-.85,10.98-4.21,13.52-9.3,2.04-4.09,2.14-8.97,.92-13.37Z"/><path class="j" d="M204.04,102.18c4.87-3.41,6.05-11.07,2.41-15.78-1.08-1.4-2.56-2.67-2.8-4.42-.15-1.08,.21-2.15,.47-3.21,1.73-7.03-1.14-14.97-6.96-19.27-.1-3.93-2.3-12.24-7.29-15.42l-22.66,3.18c1.03,23.87,.96,47.78-.21,71.64-.18,3.66-.31,7.59,1.69,10.66,2.84,4.35,8.75,5.25,13.94,5.39,4.96,.13,10.03-.09,14.71-1.73,4.69-1.64,9-4.89,10.96-9.45,3.02-7.02-.1-15.18-4.26-21.59Z"/><path class="c" d="M134.92,53.91l-.69-5.08,29.91-9.33c9.31-2.08,20.59,6.19,22.28,15.59,1.87,10.44,3.74,23.25,3.4,31.24-.69,16.06-12.55,19.46-12.55,19.46l1.21,9.52c1.23,9.64-5.59,18.44-15.22,19.67h0c-9.61,1.23-18.41-5.55-19.67-15.15l-8.68-65.91Z"/><path class="j" d="M184.37,66.89c.16,1.06-.61,2.08-1.72,2.26-1.11,.19-2.13-.52-2.29-1.58-.16-1.06,.61-2.08,1.71-2.27,1.11-.19,2.14,.52,2.3,1.58Z"/><path class="j" d="M183.85,62.16c-.22,.29-1.88-.67-4.06-.41-2.18,.22-3.65,1.53-3.91,1.29-.13-.1,.07-.61,.71-1.2,.63-.58,1.74-1.21,3.09-1.36,1.36-.15,2.55,.22,3.27,.65,.73,.44,1.01,.89,.9,1.02Z"/><path class="j" d="M164.05,69.65c.16,1.06-.61,2.08-1.72,2.26-1.11,.19-2.13-.52-2.29-1.58-.16-1.06,.61-2.08,1.71-2.27,1.11-.19,2.14,.52,2.3,1.58Z"/><path class="j" d="M162.51,65.03c-.22,.29-1.89-.66-4.06-.41-2.18,.22-3.65,1.53-3.91,1.29-.13-.1,.07-.61,.71-1.2,.63-.58,1.74-1.21,3.09-1.36,1.36-.15,2.55,.22,3.27,.65,.73,.44,1.01,.89,.9,1.02Z"/><path class="j" d="M172.26,80.26c-.02-.12,1.3-.51,3.46-1.04,.55-.12,1.06-.29,1.11-.68,.08-.42-.22-.99-.56-1.6-.68-1.29-1.39-2.63-2.13-4.04-2.98-5.76-5.2-10.53-4.96-10.64,.23-.12,2.83,4.46,5.81,10.22,.72,1.42,1.41,2.78,2.06,4.08,.28,.61,.73,1.28,.54,2.15-.1,.43-.48,.78-.82,.92-.34,.15-.66,.19-.93,.24-2.19,.37-3.56,.54-3.58,.42Z"/><path class="f" d="M177.27,105.81s-11.07,1.93-22.31-3.17c0,0,6.6,10.43,22.75,7.11l-.44-3.93Z"/><path class="f" d="M171.95,85.61c-.9-.94-2.34-1.36-3.68-1.05-.93,.21-1.83,.78-2.32,1.61-.49,.83-.48,1.94,.13,2.61,.68,.76,1.93,.81,2.94,.39,1.01-.41,1.82-1.2,2.59-1.98,.21-.22,.43-.44,.55-.72,.12-.27,.11-.62-.1-.81"/><path class="j" d="M166.03,82.5c.35-.06,.63,2.3,2.84,3.74,2.21,1.45,4.7,.9,4.76,1.22,.05,.14-.51,.52-1.57,.67-1.04,.16-2.6,0-3.95-.89-1.35-.89-2.04-2.2-2.23-3.16-.2-.98,0-1.59,.16-1.6Z"/><path class="j" d="M162.09,56.44c-.15,.62-2.35,.59-4.87,1.19-2.53,.55-4.5,1.54-4.9,1.04-.18-.24,.11-.83,.88-1.5,.76-.67,2.01-1.36,3.53-1.71,1.51-.34,2.95-.26,3.92,0,.98,.27,1.51,.68,1.45,.97Z"/><path class="j" d="M182.33,55.96c-.33,.54-1.88,.2-3.69,.38-1.81,.12-3.29,.72-3.7,.24-.18-.23,0-.76,.61-1.3,.6-.54,1.66-1.05,2.9-1.15,1.24-.1,2.37,.22,3.05,.66,.7,.43,.96,.92,.82,1.18Z"/><path class="j" d="M138.31,38.07c-3.1,1.02-6.6,9.48-5.69,12.61s3.83,5.41,6.99,6.21c3.16,.8,6.52,.32,9.65-.63,4.41-1.34,9.07-4.38,9.39-8.99,4.3,4.33,10.97,6.17,16.88,4.64,5.91-1.53,10.3-10.57,11.96-16.45l-49.17,2.61Z"/><path class="i" d="M168.92,69.74c-.07,0-.04-.8-.4-2.15-.36-1.33-1.26-3.28-3.27-4.78-.99-.73-2.24-1.35-3.67-1.6-1.42-.24-3.03-.18-4.55,.4-1.52,.55-2.97,1.59-4,3.02-1.06,1.41-1.66,3.23-1.67,5.1,.02,1.87,.61,3.69,1.67,5.1,1.03,1.43,2.48,2.47,4.01,3.02,1.52,.59,3.13,.64,4.55,.4,1.43-.24,2.68-.86,3.67-1.6,2-1.5,2.91-3.45,3.27-4.78,.36-1.36,.33-2.16,.4-2.15,.02,0,.03,.2,.03,.57,0,.38-.04,.94-.19,1.64-.3,1.38-1.16,3.45-3.24,5.07-1.03,.79-2.33,1.47-3.85,1.76-1.51,.27-3.21,.24-4.84-.37-1.63-.57-3.19-1.67-4.31-3.2-1.14-1.51-1.79-3.46-1.81-5.47,.02-2.01,.67-3.96,1.81-5.47,1.11-1.53,2.67-2.63,4.31-3.2,1.63-.61,3.34-.64,4.84-.37,1.52,.28,2.82,.96,3.85,1.76,2.07,1.62,2.94,3.69,3.24,5.07,.16,.7,.2,1.26,.2,1.64,0,.38-.01,.57-.03,.57Z"/><path class="i" d="M191.32,65.7c-.07,0-.04-.8-.4-2.15-.36-1.33-1.26-3.28-3.27-4.78-.99-.73-2.24-1.35-3.67-1.6-1.42-.24-3.03-.18-4.55,.4-1.52,.55-2.97,1.59-4,3.02-1.06,1.41-1.66,3.23-1.67,5.1,.02,1.87,.61,3.69,1.67,5.1,1.03,1.43,2.48,2.47,4.01,3.02,1.52,.59,3.13,.64,4.55,.4,1.43-.24,2.68-.86,3.67-1.6,2-1.5,2.91-3.45,3.27-4.78,.36-1.36,.33-2.16,.4-2.15,.02,0,.03,.2,.03,.57,0,.38-.04,.94-.19,1.64-.3,1.38-1.16,3.45-3.24,5.07-1.03,.79-2.33,1.47-3.85,1.76-1.51,.27-3.21,.24-4.84-.37-1.63-.57-3.19-1.67-4.31-3.2-1.14-1.51-1.79-3.46-1.81-5.47,.02-2.01,.67-3.96,1.81-5.47,1.11-1.53,2.67-2.63,4.31-3.2,1.63-.61,3.34-.64,4.84-.37,1.52,.28,2.82,.96,3.85,1.76,2.07,1.62,2.94,3.69,3.24,5.07,.16,.7,.2,1.26,.2,1.64,0,.38-.01,.57-.03,.57Z"/><path class="i" d="M167.59,64.81c-.08-.02-.09-.43,.21-1.01,.29-.57,.95-1.3,1.93-1.61,.99-.31,1.94-.08,2.5,.22,.58,.31,.8,.66,.75,.71-.06,.07-.38-.13-.92-.3-.54-.17-1.34-.28-2.14-.03-.8,.25-1.4,.79-1.74,1.24-.35,.45-.5,.8-.59,.77Z"/><path class="i" d="M150.73,71.85c.06,.16-1.48,.83-3.44,1.49-1.96,.66-3.6,1.06-3.64,.89-.05-.17,1.49-.83,3.44-1.49,1.95-.65,3.58-1.05,3.64-.89Z"/></g><g><path class="c" d="M305.75,99.11c2.62-1.01,1.53-3.73,1.53-3.73l-9.72,2.93s5.16-2.09,7.8-4.25c2.64-2.16,1.33-4.05,1.33-4.05l-10.02,3.87-5.66,3.34-14.18,21.65s11.08,5.42,13.04,3.86c3.45-2.75,5.33-8.88,6.1-12,1.39-.4,5.77-1.71,6.95-2.49,1.41-.94,2.08-2.35,2.08-2.35l-7.72,1.47c1.12-.33,8.28-2.78,8.84-3.65,1-1.54,.37-2.22,.37-2.22l-9.7,1.51,1-.73s5.43-2.16,7.95-3.14Z"/><path class="c" d="M270.04,121.64l-32.63,29.87c-4.05-.93-53.73-30.63-53.73-30.63l-7.85,38.21s50.85,23.38,64.84,20.54c2.28-.46,6.04-.75,8.4-3.78,11.19-14.38,34.94-49.97,34.94-49.97l-13.96-4.24Z"/><path class="c" d="M292.21,120.15l-5.89-2.84,4.25-7.71,3.33-7.05,5.17-9.6-7.88,2.96c-.93,.4-1.75,1.02-2.38,1.82l-12.96,17.9-5.75,5.86,5.55,14.92,6.52-10.18,3.81-.89c3.81-.89,6.22-5.19,6.22-5.19Z"/><g><path class="c" d="M282.74,108.02c2.71-1.36,5.54-2.46,8.45-3.3,.95-.27,1.94-.52,2.92-.38,.98,.14,1.95,.77,2.21,1.72,.3,1.08-.41,2.23-1.35,2.85-.94,.61-2.08,.83-3.17,1.11-1.09,.28-2.21,.69-2.94,1.55-.68,.81-.9,1.9-1.25,2.9-1.16,3.25-4.12,5.78-7.51,6.44"/><path class="f" d="M280.11,120.91c-.01-.05,.52-.16,1.42-.52,.89-.36,2.16-1.01,3.39-2.21,.61-.6,1.22-1.32,1.72-2.2,.52-.87,.84-1.87,1.19-3,.19-.55,.44-1.15,.88-1.64,.43-.5,1-.86,1.61-1.12,1.21-.53,2.54-.66,3.72-1.15,.59-.24,1.11-.57,1.49-1.04,.38-.45,.61-1.02,.59-1.56-.06-1.12-1.24-1.84-2.27-1.9-1.09-.09-2.14,.26-3.12,.53-.98,.29-1.89,.58-2.71,.86-1.64,.57-2.95,1.11-3.85,1.49-.9,.38-1.4,.59-1.41,.56-.02-.03,.45-.32,1.32-.76,.87-.44,2.16-1.04,3.8-1.67,.82-.31,1.73-.63,2.71-.94,.98-.29,2.06-.68,3.3-.6,.62,.04,1.25,.25,1.79,.64,.53,.39,.97,1.03,1.01,1.76,.06,1.48-1.14,2.68-2.42,3.16-1.3,.53-2.61,.65-3.72,1.13-.55,.23-1.05,.55-1.41,.97-.37,.41-.6,.93-.79,1.46-.35,1.07-.72,2.17-1.28,3.06-.54,.91-1.19,1.65-1.85,2.25-1.32,1.21-2.66,1.82-3.59,2.13-.47,.15-.84,.24-1.1,.28-.26,.04-.39,.05-.4,.03Z"/></g></g><path class="j" d="M179.99,228.4H113.12s-9.87,12.43-16.38,25.37l95.31,.39c1.87-3.07-12.06-25.77-12.06-25.77Z"/><path class="g" d="M199.76,167.6c-2.26-29.94-9.69-48.74-9.69-48.74l-11.58-3.56h0c-1.75,7.65-14.22,10.18-21.32,6.83l-7.51-3.93c-24.11-3.62-22.86-1.62-28.43,1.73-4.84,2.91-4.4,24.63-4.4,24.63,0,0-12.02,56.58-11.36,65.66,.66,9.08,7.65,18.19,7.65,18.19h66.87c6.73,0,8.66-15.22,8.19-20.75-.47-5.52,12.33-30.21,11.59-40.05Z"/><path class="j" d="M136.26,186.45s.36,.39,1.12,.95c.76,.56,1.92,1.3,3.46,2.02,1.53,.72,3.47,1.38,5.71,1.71,2.23,.31,4.76,.3,7.3-.32,5.13-1.19,8.99-4.22,11.35-6.59,1.19-1.2,2.05-2.27,2.61-3.03,.55-.77,.82-1.21,.78-1.24-.1-.08-1.31,1.62-3.74,3.91-2.41,2.24-6.22,5.11-11.17,6.26-4.94,1.2-9.63,.14-12.64-1.17-3.06-1.3-4.7-2.63-4.78-2.51Z"/><g class="k"><path d="M167.47,181.49c-.51,5.05-2.92,9.95-6.87,13.14-3.95,3.19-9.43,4.51-14.31,3.12-4.88-1.4-8.93-5.62-9.77-10.62,3.44,1.57,6.93,3.15,10.67,3.72,7.97,1.21,16.47-2.81,20.6-9.73-.18,.19-.36,.38-.54,.58"/></g><path class="g" d="M91.14,166.22l33.7,15.8s13.74-30.39,14.92-34.54c1.18-4.15,4.89-10.73,1.09-19.39-3.8-8.66-13.98-11.85-19.62-8.15-12.61,8.26-30.08,46.29-30.08,46.29Z"/><path class="g" d="M197.1,167.83c1.57,0,19.64,9.45,19.64,9.45l10.29-34.07c-15.36-10.24-27.97-21.93-36.96-24.34l4.73,28.16,2.31,20.81Z"/><path class="j" d="M91.14,166.22s.24,.06,.67,.24c.49,.21,1.11,.47,1.87,.79,1.69,.75,4,1.77,6.81,3.02,5.8,2.64,13.67,6.23,22.37,10.2,.93,.43,1.86,.86,2.73,1.26l-.43,.15c3.89-8.01,7.3-15.18,9.71-20.36,1.17-2.53,2.12-4.6,2.82-6.12,.31-.67,.56-1.22,.76-1.66,.18-.38,.28-.57,.3-.56,.02,0-.04,.22-.19,.61-.14,.39-.35,.97-.65,1.7-.59,1.47-1.49,3.59-2.64,6.21-2.31,5.23-5.65,12.43-9.53,20.46l-.14,.28-.29-.13c-.87-.4-1.79-.83-2.73-1.26-8.67-4.03-16.51-7.68-22.29-10.37-2.78-1.33-5.05-2.41-6.72-3.21-.74-.37-1.34-.66-1.81-.9-.41-.21-.62-.33-.61-.35Z"/><path class="j" d="M194,139.85s.28,.74,.7,2.1c.45,1.46,1.05,3.4,1.77,5.75,1.46,4.84,3.59,11.67,3.69,19.54-.06,3.93-.86,7.6-1.8,10.84-.94,3.25-2.02,6.08-2.95,8.45-.93,2.37-1.73,4.26-2.28,5.58-.55,1.31-.86,2.03-.91,2.02-.02,0,.03-.2,.14-.56,.15-.42,.32-.94,.53-1.55,.53-1.43,1.23-3.34,2.09-5.65,.87-2.38,1.91-5.23,2.81-8.45,.9-3.22,1.66-6.84,1.72-10.69-.1-7.72-2.13-14.53-3.48-19.4-.69-2.45-1.24-4.43-1.58-5.81-.18-.69-.29-1.23-.37-1.6-.08-.37-.11-.56-.09-.57Z"/><path class="j" d="M165.51,133.06c-.52-4.96-3.13-9.54-6.65-13.07-1.75-1.75-3.84-3.5-4.18-5.95-.44-3.17,2.31-6.15,1.86-9.32-.56-3.96-5.51-5.68-7.28-9.27-2.38-4.82,1.77-11.09-.79-15.82-1.54-2.85-5.21-4.38-5.94-7.54-.48-2.04,3.41-5.02,4.32-9.45,2.03-9.96,3.07-17.67-6.61-23.47l-5.65-7.74c-6.33,3.09-11.65,10.04-11.76,17.31-.05,3.43,1.71,6.88,.21,9.97-2.09,4.32-6.95,6.97-8.42,11.54-2.1,6.53,3.68,13.83,1.16,20.21-1.49,3.76-5.42,5.91-7.88,9.11-3.86,5.03-3.46,12.84,.89,17.45-6.16,4.15-9.01,12.61-6.61,19.64,1.01,2.95,3.29,5.88,6.4,6.06,4.46,.25,7.01-4.8,10.28-7.86,5.08-4.74,13.98-4.51,18.8,.49,3.44,3.56,4.82,8.93,8.83,11.84,4.03,2.93,10.02,2.4,13.89-.74,3.87-3.14,5.66-8.44,5.14-13.4Z"/><g><path class="c" d="M121.53,179.88c-6.38,10.49-10.83,16.52-10.83,16.52l57.23,34.85-6.67,15.49-74.23-30.55s-7.32-7.53-4.73-15.92l11.83-32.66,27.4,12.27Z"/><path class="f" d="M96.78,201.72c.13,.18,2.84-2.09,6.85-3.56,4-1.51,7.53-1.55,7.51-1.77,.03-.17-3.62-.45-7.76,1.11-4.15,1.52-6.74,4.12-6.6,4.22Z"/></g><path class="c" d="M212.33,241.86l-14.27-6.83-27.86-2.21-2.27-1.58-6.67,15.49s7.3,3.49,11.13,3.8l23.42-.71,12.25,1.29,4.28-9.26Z"/><g><g><path class="h" d="M292.63,186.88l-80.31,.65c-2.61,0-5.09,1.25-5.48,3.83l-8.78,58.53h-41.36c-1.33,0-2.41,1.08-2.41,2.41s1.08,2.41,2.41,2.41h132.11l9.03-61.77c.48-3.19-1.99-6.06-5.21-6.06Z"/><path class="j" d="M292.63,186.88s.44-.06,1.27,.12c.8,.19,2.07,.68,3.07,2.03,.5,.66,.88,1.54,.99,2.56,.13,1.03-.17,2.12-.3,3.3-.34,2.37-.72,5.09-1.16,8.15-1.77,12.27-4.31,29.96-7.45,51.7l-.03,.21h-.21c-34.19,.02-79.11,.05-128.17,.08h-3.45c-.53,.02-1.27,0-1.83-.35-.57-.31-1.01-.84-1.24-1.45-.48-1.23,.09-2.73,1.25-3.34,.55-.33,1.28-.36,1.81-.34h1.7c4.52,0,9,0,13.42,0,8.84,0,17.45,0,25.75,0l-.31,.27c3.16-20.96,6.11-40.52,8.75-58.06,.09-1.11,.59-2.31,1.49-3.06,.87-.77,1.98-1.18,3.07-1.35,1.12-.17,2.18-.08,3.24-.11,1.06,0,2.11-.01,3.15-.02,4.17-.03,8.2-.06,12.09-.08,7.77-.05,14.96-.09,21.49-.14,13.04-.07,23.43-.12,30.59-.16,3.56,0,6.3-.01,8.18-.01,.92,0,1.62,0,2.11,0,.47,0,.72,.02,.72,.02,0,0-.24,.02-.72,.03-.49,.01-1.19,.02-2.11,.04-1.88,.03-4.63,.07-8.18,.12-7.16,.08-17.55,.2-30.59,.34-6.53,.06-13.71,.14-21.49,.21-3.89,.04-7.92,.08-12.09,.12-1.04,0-2.09,.02-3.15,.03-1.06,.04-2.14-.05-3.16,.12-1.02,.16-2.03,.55-2.8,1.24-.79,.69-1.21,1.65-1.31,2.74-2.62,17.55-5.54,37.1-8.66,58.07l-.04,.27h-.27c-8.3,0-16.91,0-25.75,0-4.42,0-8.9,0-13.42,0h-1.7c-.6-.02-1.05,0-1.5,.26-.88,.47-1.32,1.61-.95,2.55,.17,.46,.51,.87,.94,1.11,.45,.26,.9,.28,1.51,.26,1.15,0,2.3,0,3.45,0,49.06,.03,93.98,.06,128.17,.08l-.25,.21c3.22-21.73,5.84-39.4,7.66-51.67,.46-3.06,.87-5.78,1.22-8.14,.14-1.18,.45-2.27,.33-3.25-.1-.99-.46-1.85-.93-2.5-.95-1.33-2.18-1.84-2.97-2.05-.81-.2-1.25-.16-1.25-.19Z"/></g><circle class="e" cx="249.08" cy="220.05" r="5.03"/><path class="j" d="M201.32,254.17c.11,.02,2.67-14.89,5.71-33.28,3.04-18.41,5.41-33.34,5.3-33.36-.11-.02-2.67,14.88-5.71,33.29-3.04,18.4-5.41,33.33-5.3,33.35Z"/></g></g><g id="b"/></svg>