<?xml version="1.0" encoding="utf-8"?>
<!-- Generator: Adobe Illustrator 26.1.0, SVG Export Plug-In . SVG Version: 6.00 Build 0)  -->
<svg version="1.1" xmlns="http://www.w3.org/2000/svg" xmlns:xlink="http://www.w3.org/1999/xlink" x="0px" y="0px"
	 viewBox="0 0 322.7 297.6" style="enable-background:new 0 0 322.7 297.6;" xml:space="preserve">
<style type="text/css">
	.st0{fill:#834F45;}
	.st1{fill:#263239;}
	.st2{fill:#F8BC9E;}
	.st3{fill:#EC9A6E;}
	.st4{fill:#455A64;}
	.st5{fill:#F5F4F5;}
	.st6{fill:#E0E0E0;}
	.st7{fill:none;stroke:#444C52;stroke-miterlimit:10;}
	.st8{fill:#E9505B;}
	.st9{opacity:0.4;}
	.st10{fill:#010202;}
	.st11{fill:#FBFBFB;}
	.st12{opacity:0.3;}
	.st13{fill:#EE7160;}
	.st14{fill:#8E3039;}
	.st15{fill:#EBEBEB;}
	.st16{fill:#C27461;}
	.st17{fill:#7E4436;}
	.st18{opacity:0.3;fill:#8E3039;}
	.st19{opacity:0.3;fill:#010202;}
	.st20{fill:#5B342F;}
	.st21{fill:#A56A5F;}
	.st22{fill:#83544C;}
	.st23{fill:#FFFFFF;}
</style>
<g id="Ebene_1">
	<g>
		<polygon class="st1" points="53.2,268.2 57.4,237 147.9,232.7 154.3,268.3 		"/>
		<path class="st16" d="M138,138.7l27.2,30.1c4.5,5,7.7,9.5,14.2,11.3c4.5,1.3,14,1.8,16.4-1.2c3.3-4.1,5.3-11.1,0.7-19.9
			c-3-5.8-29.4-29.3-29.4-29.3L138,138.7"/>
		<path class="st14" d="M146.9,143.8c0.2,1.5,7.3,16.3,7.3,16.3l23.3-15.2c0,0-15-35.7-26-38.1L146.9,143.8z"/>
		<g>
			<g>
				<g>
					<g>
						<g>
							<g>
								<g>
									<g>
										<g>
											<path class="st16" d="M186.9,102.2l0.3-11.3l-0.8-14.4l-2.3-12c0,0-0.6-1.2-2.1-0.3c-1.5,0.9-0.2,7.4-0.2,7.4l0.2,4.9
												c0,0-0.9,3.8-1.2,3.5c-0.3-0.3-1.2-7-1.2-7l-2.8-14.3c0,0-0.7-1.5-2.4-1c-1,0.3-1.6,1.7-1.5,3.8c0.1,2.1,1,5.7,1.1,6.9
												c0.1,1.2,0.9,8.1,0.9,8.1l-4.8-16c0,0-0.9-5.2-3.1-4.4c-2.2,0.7-0.7,4.5-0.6,6.1c0.1,1.6,3.2,12.5,3,15.5
												c-0.3,3-0.7,1.5-0.7,1.5s-1.3-5-2.2-8.9c-1-3.9-2.5-6.2-4.2-6.5c-1.7-0.3,0.6,8.9,0.6,8.9l2.9,12.8l-0.7,4.1l-2.8-3.7
												c0,0-0.1-4.8-3.1-6.8c-3-2-3.8,0.2-3.8,0.2l5.6,18.6c1.3,3,9.9,8.9,9.9,8.9l1.5,18.6l19-0.4L186.9,102.2z"/>
										</g>
									</g>
								</g>
							</g>
						</g>
					</g>
				</g>
				<g>
					<g>
						<g>
							<g>
								<path class="st17" d="M180.2,95.5c-0.1,0.1-1-0.8-2.5-2.1c-1.5-1.3-3.9-3-7-2.9c-1.3,0-2.6,0.5-3.4,1.2L167,92l-0.3-0.4
									c-1.2-1.6-2.5-3-3.3-4c-0.8-1-1.2-1.7-1.1-1.7c0.1,0,0.6,0.5,1.5,1.4c0.9,1,2.2,2.2,3.6,3.9l-0.6-0.1c1-0.9,2.4-1.4,3.9-1.5
									c1.7-0.1,3.2,0.4,4.4,1.1c1.2,0.7,2.2,1.5,2.9,2.2C179.5,94.4,180.3,95.4,180.2,95.5z"/>
							</g>
						</g>
					</g>
				</g>
			</g>
			<polygon class="st16" points="175.3,167 171.2,109.1 187.3,104 199,167 			"/>
		</g>
		<g>
			<g>
				<g>
					<g>
						<path class="st1" d="M140.4,34.7c3.1,0.5,6.5-1.6,7.4-4.7c0.9-3.1-0.9-6.7-3.9-7.8c2.1-1.9,2.8-5.2,1.6-7.8
							c-1.1-2.6-4-4.3-6.9-4c0-2.8-1.5-5.5-3.8-7c-2.4-1.5-5.5-1.6-8-0.3c-2.9-2.8-7.9-3.2-11.2-0.9c-2.7-0.7-5.7,0.6-7.1,3
							c-1.4,2.4-1.1,5.6,0.8,7.7"/>
					</g>
				</g>
			</g>
			<g>
				<g>
					<g>
						<path class="st16" d="M141.2,71c0.5-7.1,0.4-21.9,0.1-35.3c-0.3-14.4-11.6-26.1-26-27l-1.4-0.1c-15.5,0-24.1,13.1-23.7,28.6
							l-2.4,59.5l9.3,8.4c8.5,7.7,22,5.3,27.4-4.8l0,0l0.7-13.1C125.2,87.2,140.2,85.8,141.2,71z"/>
					</g>
					<g>
						<g>
							<g>
								<g>
									<g>
										<g>
											<path class="st17" d="M125.4,87.2c0,0-9.5,0-19.1-6.8c0,0,3.9,10.9,18.8,10.5L125.4,87.2z"/>
										</g>
									</g>
								</g>
							</g>
						</g>
					</g>
					<g>
						<g>
							<g>
								<g>
									<g>
										<g>
											<g>
												<g>
													<g>
														<path class="st1" d="M134.8,48.1c0,1.1-1,2-2.2,2c-1.2,0-2.1-0.9-2.1-2c0-1.1,1-2,2.2-2
															C133.9,46.1,134.8,47,134.8,48.1z"/>
													</g>
												</g>
											</g>
										</g>
									</g>
								</g>
							</g>
						</g>
					</g>
					<g>
						<g>
							<g>
								<g>
									<g>
										<g>
											<g>
												<g>
													<g>
														<g>
															<path class="st1" d="M137.7,42.7c-0.3,0.3-1.8-1-4.1-1.1c-2.3-0.2-4,0.9-4.2,0.6c-0.1-0.1,0.2-0.6,0.9-1.1
																c0.7-0.5,2-0.9,3.4-0.8c1.4,0.1,2.6,0.7,3.2,1.3C137.6,42.1,137.8,42.6,137.7,42.7z"/>
														</g>
													</g>
												</g>
											</g>
										</g>
									</g>
								</g>
							</g>
						</g>
					</g>
					<g>
						<g>
							<g>
								<g>
									<g>
										<g>
											<g>
												<g>
													<g>
														<path class="st1" d="M113.9,48.1c0,1.1-1,2-2.2,2c-1.2,0-2.1-0.9-2.1-2c0-1.1,1-2,2.2-2C113,46.1,113.9,47,113.9,48.1
															z"/>
													</g>
												</g>
											</g>
										</g>
									</g>
								</g>
							</g>
						</g>
					</g>
					<g>
						<g>
							<g>
								<g>
									<g>
										<g>
											<g>
												<g>
													<g>
														<g>
															<path class="st1" d="M115.3,41.8c-0.3,0.3-1.8-1-4.1-1.1c-2.3-0.2-4,0.9-4.2,0.6c-0.1-0.1,0.2-0.6,0.9-1.1
																c0.7-0.5,2-0.9,3.4-0.8c1.4,0.1,2.6,0.7,3.2,1.3C115.2,41.2,115.4,41.7,115.3,41.8z"/>
														</g>
													</g>
												</g>
											</g>
										</g>
									</g>
								</g>
							</g>
						</g>
					</g>
					<g>
						<g>
							<g>
								<g>
									<g>
										<g>
											<g>
												<g>
													<g>
														<path class="st1" d="M122.6,59.2c0-0.1,1.4-0.3,3.7-0.4c0.6,0,1.1-0.1,1.3-0.5c0.2-0.4,0-1.1-0.3-1.7
															c-0.5-1.4-0.9-2.9-1.5-4.5c-2-6.4-3.4-11.7-3.2-11.8c0.3-0.1,2.1,5.1,4.1,11.5c0.5,1.6,0.9,3.1,1.4,4.5
															c0.2,0.7,0.5,1.4,0.2,2.3c-0.2,0.4-0.6,0.7-1,0.8c-0.4,0.1-0.7,0.1-1,0.1C124,59.4,122.6,59.3,122.6,59.2z"/>
													</g>
												</g>
											</g>
										</g>
									</g>
								</g>
							</g>
						</g>
					</g>
					<g>
						<g>
							<g>
								<g>
									<g>
										<g>
											<g>
												<g>
													<g>
														<path class="st1" d="M115.8,60.3c0.4,0,0.2,2.5,2.2,4.3c2,1.9,4.7,1.8,4.7,2.1c0,0.2-0.6,0.4-1.7,0.4
															c-1.1,0-2.7-0.5-3.9-1.6c-1.2-1.2-1.7-2.6-1.7-3.6C115.3,60.9,115.6,60.3,115.8,60.3z"/>
													</g>
												</g>
											</g>
										</g>
									</g>
								</g>
							</g>
						</g>
					</g>
					<g>
						<g>
							<g>
								<g>
									<g>
										<path class="st1" d="M116.4,32.9c-0.3,0.6-2.5,0.2-5.2,0.3c-2.7,0.1-4.9,0.8-5.2,0.2c-0.1-0.3,0.3-0.8,1.2-1.4
											c0.9-0.5,2.3-1,3.9-1.1c1.6-0.1,3.1,0.3,4,0.7C116.1,32.1,116.5,32.6,116.4,32.9z"/>
									</g>
								</g>
							</g>
						</g>
					</g>
					<g>
						<g>
							<g>
								<g>
									<g>
										<path class="st1" d="M137.2,36.1c-0.4,0.5-2-0.1-3.8-0.3c-1.9-0.2-3.5,0.1-3.8-0.4c-0.1-0.3,0.1-0.8,0.9-1.2
											c0.7-0.4,1.9-0.8,3.2-0.7c1.3,0.1,2.4,0.7,3,1.2C137.2,35.3,137.4,35.8,137.2,36.1z"/>
									</g>
								</g>
							</g>
						</g>
					</g>
					<g>
						<g>
							<g>
								<g>
									<path class="st1" d="M140.3,28.8c0,0-3.4-9.5-7.7-11.9c-5.3-2.9-7.9,2.9-13,1.1c-5.1-1.7-10.1-4.6-15.6-0.9
										c-6,4-3.5,7.2-4.2,13.8c-3,26.5-8.3,33.8-9,21.2c-0.1-1.4-3.8-2.7-4-8.5c-0.3-7.6,0-16.7,2-22c1.7-4.4,4.4-7.4,9.2-10.5
										c7.6-5,17.6-4.5,24.3-3.4C129,8.6,141.6,17.2,140.3,28.8z"/>
								</g>
							</g>
						</g>
					</g>
					<g>
						<g>
							<g>
								<g>
									<path class="st16" d="M91.7,51.7c0-2.3-1.8-4.2-4.1-4.1c-2.8,0.1-5.9,1.5-6.1,7.2c-0.3,10.1,10,8.3,10,8
										C91.5,62.6,91.6,55.9,91.7,51.7z"/>
								</g>
							</g>
						</g>
					</g>
					<g>
						<g>
							<g>
								<g>
									<path class="st17" d="M89.4,58.9c0,0-0.2,0.1-0.5,0.2c-0.3,0.1-0.8,0.2-1.3,0c-1.1-0.4-1.9-2.1-1.9-4
										c0-0.9,0.2-1.8,0.6-2.5c0.3-0.7,0.8-1.2,1.4-1.3c0.5-0.1,0.9,0.2,1,0.5c0.1,0.3,0.1,0.5,0.1,0.5c0,0,0.2-0.2,0.2-0.6
										c0-0.2-0.1-0.4-0.4-0.6c-0.2-0.2-0.6-0.3-1-0.3c-0.8,0-1.5,0.7-1.9,1.5c-0.4,0.8-0.7,1.8-0.7,2.8c0,2,1,4,2.5,4.4
										c0.7,0.2,1.3,0,1.6-0.2C89.4,59.2,89.4,58.9,89.4,58.9z"/>
								</g>
							</g>
						</g>
					</g>
				</g>
				<g>
					<g>
						<g>
							<path class="st1" d="M93.1,32.1c1.3,1,2.6,2,4.2,2.2c1.6,0.3,3.4-0.6,3.8-2.1c0.2-0.7,0-1.5,0.5-2c0.6-0.6,1.6-0.4,2.4-0.2
								c2.9,0.5,6.1-1.4,7-4.2c0.7,1.2,2.4,1.2,3.6,0.6c1.2-0.7,2-1.8,2.9-2.8s2.2-1.8,3.6-1.5c0.7,0.2,1.4,0.6,2.2,0.6
								c1.3,0,2.1-1.6,2.4-2.9c0.3-1.3,0.5-2.8,1.7-3.5c1.1-0.6,2.4-0.1,3.6,0.1c1.2,0.3,2.8,0.1,3.2-1.1c0.2-0.6,0-1.3-0.3-1.9
								c-1.4-2.6-4.8-3.9-7.6-2.9c-0.8-3.4-3.8-6.2-7.2-6.8c-3.4-0.6-7.2,1.1-9,4.1c-2-2.1-5.1-3.1-7.9-2.6c-2.9,0.5-5.4,2.4-6.7,5
								c-2.4-0.8-5.3,0-7,1.9c-1.7,1.9-2.1,4.9-1,7.2c-1.9,0.9-3.5,2.6-3.7,4.7c-0.2,2.1,1.8,4.3,3.8,3.9c-0.9,1.6-0.4,3.8,1.1,4.8
								c1.5,1,3.8,0.6,4.9-0.9"/>
						</g>
					</g>
				</g>
				<g>
					<g>
						<g>
							<g>
								<path class="st4" d="M126.8,13.4c0,0,0,0.1,0,0.2c0,0.1,0,0.3-0.1,0.5c-0.1,0.5-0.3,1.1-0.8,1.9c-0.5,0.8-1.3,1.6-2.4,2.3
									c-1.1,0.7-2.6,1.1-4.2,0.9l0.2-0.2c0.3,0.9,0.1,1.9-0.4,2.8c-0.5,0.9-1.2,1.6-1.9,2.4c-0.4,0.4-0.7,0.8-1.2,1.1
									c-0.5,0.3-1.1,0.5-1.6,0.5c-1.1,0.1-2.4-0.4-3.2-1.4l0.4-0.1c-0.4,2-1.6,3.9-3.5,5.1c-1,0.6-2.2,1-3.4,0.9
									c-1.2-0.1-2.2-0.5-3.2-0.9l0.3-0.1c-0.6,1.2-1.5,2.2-2.6,3c-1,0.7-2.4,1.1-3.6,0.8c-2.4-0.6-3.8-2.7-4-4.6l0.2,0.1
									c-1.2,0.6-2.5,0.6-3.5,0.3c-1-0.2-1.8-0.7-2.4-1.2c-0.6-0.5-0.9-1-1.1-1.3c-0.2-0.3-0.2-0.5-0.2-0.5c0.1,0,0.3,0.8,1.4,1.7
									c0.6,0.4,1.3,0.9,2.3,1.1c1,0.2,2.2,0.2,3.3-0.3l0.2-0.1l0,0.2c0.2,1.8,1.6,3.7,3.8,4.3c1.1,0.3,2.3,0,3.3-0.7
									c1-0.7,1.9-1.7,2.4-2.8l0.1-0.2l0.2,0.1c1,0.4,2,0.8,3.1,0.9c1.1,0.1,2.2-0.2,3.1-0.8c1.8-1.1,3-2.9,3.3-4.8l0.1-0.5
									l0.3,0.4c0.7,0.9,1.8,1.3,2.8,1.2c0.5,0,1-0.2,1.5-0.4c0.4-0.3,0.8-0.7,1.1-1c0.7-0.7,1.4-1.5,1.8-2.3
									c0.5-0.8,0.6-1.7,0.4-2.5l-0.1-0.2l0.3,0c1.5,0.2,3-0.2,4-0.8c1.1-0.6,1.9-1.4,2.4-2.1C126.7,14.5,126.7,13.4,126.8,13.4z"
									/>
							</g>
						</g>
					</g>
				</g>
			</g>
		</g>
		<g>
			<g>
				<path class="st14" d="M148.7,158.5l1.1-10.8l3.7-39.5c-1.9-2-9.6-5.2-9.6-5.2l-19.1-6.9c0,0-1.8,5.2-16.2,5.5
					c-14.7,0.2-20.8-9-20.8-9c-7.3,2.4-23.3,8.4-23.3,8.4L59,152.5l-0.3,17L55.4,256c0,0,96.2-4.1,97.6-4.3l-3.9-31.1L148.7,158.5z"
					/>
				<polygon class="st18" points="121.1,133.1 121.1,153.4 132.1,162.4 143.6,153.4 144.2,133.7 				"/>
			</g>
		</g>
		<path class="st19" d="M57.4,204.2l-0.3,7.2c0,0,60.7-11,71.4-15.3c13.1-5.3,20.1-9.8,20.1-9.8l0.2-5.5L57.4,204.2z"/>
		<path class="st16" d="M61.6,105.4c0,0-13.7,2.2-16.5,19.6c-1.8,11.3-7.3,60.9,0.2,74.2c8.7,15.4,87.3-10.4,87.3-10.4l2.7-20
			l-60.6,4l-7.6-42.1L61.6,105.4z"/>
		<path class="st14" d="M39.6,164.1H78L67.5,100c0,0-22,4.5-24.9,27.5C39.7,150.7,39.6,164.1,39.6,164.1z"/>
		<g>
			<path class="st1" d="M44.5,164.1c0,0,0.1,0,0.2,0c0.1,0,0.3,0,0.5,0c0.5,0,1.1,0,1.9,0c1.7,0,4.2,0,7.2-0.1
				c6.1,0,14.5,0,23.8-0.1l-0.2,0.2c0-0.5-0.1-1-0.1-1.6c-0.8-9.7-1.5-18.4-2.1-24.8c-0.2-3.1-0.4-5.7-0.6-7.5
				c-0.1-0.9-0.1-1.5-0.1-2c0-0.2,0-0.4,0-0.5c0-0.1,0-0.2,0-0.2c0,0,0,0.1,0,0.2c0,0.1,0,0.3,0.1,0.5c0.1,0.5,0.1,1.2,0.2,2
				c0.2,1.8,0.4,4.4,0.7,7.5c0.6,6.4,1.3,15.1,2.2,24.8c0,0.5,0.1,1.1,0.1,1.6l0,0.2l-0.2,0c-9.3,0-17.7,0-23.8-0.1
				c-3,0-5.4,0-7.2-0.1c-0.8,0-1.5,0-1.9,0c-0.2,0-0.4,0-0.5,0C44.5,164.1,44.5,164.1,44.5,164.1z"/>
		</g>
		<g>
			<path class="st1" d="M151.5,125.2c0,0,0,0.5,0,1.3c0,0.8-0.1,2.1-0.1,3.6c-0.2,3-0.5,7.2-0.9,11.7c-0.4,4.6-0.9,8.7-1.3,11.7
				c-0.2,1.5-0.3,2.7-0.5,3.5c-0.1,0.8-0.2,1.3-0.2,1.3c0,0,0-0.5,0.1-1.3c0.1-0.9,0.2-2.1,0.3-3.5c0.3-3.1,0.7-7.2,1.1-11.7
				c0.4-4.6,0.8-8.7,1-11.7c0.1-1.4,0.2-2.6,0.3-3.6C151.5,125.6,151.5,125.2,151.5,125.2z"/>
		</g>
		<g>
			<path class="st1" d="M78.6,118.2c0,0-0.2-0.2-0.4-0.7c-0.3-0.5-0.6-1.2-1.1-2c-0.9-1.7-2.2-4-4.1-6.2c-1.9-2.1-4.3-3.5-6.1-4.1
				c-1.8-0.6-3-0.5-3-0.6c0,0,0.3-0.1,0.8-0.1c0.5,0,1.3,0.1,2.3,0.4c1.9,0.5,4.3,1.9,6.3,4.1c2,2.2,3.2,4.6,4.1,6.3
				c0.4,0.9,0.7,1.6,1,2.1C78.6,117.9,78.7,118.2,78.6,118.2z"/>
		</g>
		<path class="st19" d="M73.7,167c-0.1-0.4,6.6-2,6.6-2l-4.9-31.8l2.7,30.9h-4.9L73.7,167z"/>
		<g>
			<path class="st16" d="M134.8,168.9c0,0,31.3,5.3,32,6.1c0.7,0.9,8.8,10,8.8,10s12.1,4.2,10.5,6.8c-1.6,2.7-5.1,1.1-5.1,1.1
				s4.9,7.7,2.6,9.3c-2.3,1.6-4.7,0.5-6.5-1.8c-1.8-2.3-6.8-10.7-6.8-10.7s4.2,17.2,2.1,17.7c-2.1,0.5-5.4,0.7-6.8-3.7
				c-1.4-4.4-1.8-6.8-1.8-6.8l-6.7-11c0,0,2.6,20.1,1.1,21.8c0,0-4,1.3-5.4-2.2s-3.3-11.5-3.3-11.5l-3.3-8.8l-0.4,5.6
				c0,0,2.8,10.3,1.1,11c-1.8,0.7-4,0-5.3-2.4c-1.2-2.4-2.6-5.1-3.2-7.4c-0.3-1.4-2.2-6-2.2-6l-6.7-0.9L134.8,168.9z"/>
			<g>
				<path class="st17" d="M173.4,182.3c0.1-0.1,2,2.4,4.2,5.5c2.2,3.1,3.9,5.7,3.8,5.8c-0.1,0.1-2-2.4-4.2-5.5
					C174.9,185,173.3,182.4,173.4,182.3z"/>
			</g>
			<g>
				<path class="st17" d="M162.9,176.5c0,0,0.6,0.6,1.5,1.8c0.8,1.1,1.9,2.8,2.9,4.7c1,1.9,1.9,3.7,2.4,4.9c0.6,1.3,0.8,2.1,0.8,2.1
					c-0.1,0-0.5-0.8-1.1-2c-0.6-1.3-1.5-3-2.5-4.9c-1-1.9-2-3.5-2.8-4.7C163.4,177.3,162.9,176.6,162.9,176.5z"/>
			</g>
			<g>
				<path class="st17" d="M153.7,177.4c0,0,0.5,0.2,1.1,0.9c0.6,0.6,1.2,1.7,1.7,3c0.4,1.3,0.6,2.5,0.7,3.3c0.1,0.9,0.1,1.4,0,1.4
					c-0.1,0-0.2-0.5-0.4-1.3c-0.2-0.8-0.4-2-0.8-3.2c-0.4-1.2-1-2.2-1.5-2.9C154,177.9,153.6,177.5,153.7,177.4z"/>
			</g>
			<g>
				<path class="st17" d="M142.6,178.4c0-0.1,0.5,0.1,1.1,0.5c0.6,0.4,1.4,1.2,2,2.3c0.5,1.1,0.7,2.2,0.6,3c0,0.8-0.2,1.2-0.3,1.2
					c-0.1,0,0.2-1.9-0.8-4C144.2,179.4,142.5,178.5,142.6,178.4z"/>
			</g>
		</g>
	</g>
</g>
<g id="Ebene_2">
</g>
</svg>
