<?xml version="1.0" encoding="utf-8"?>
<!-- Generator: Adobe Illustrator 26.1.0, SVG Export Plug-In . SVG Version: 6.00 Build 0)  -->
<svg version="1.1" xmlns="http://www.w3.org/2000/svg" xmlns:xlink="http://www.w3.org/1999/xlink" x="0px" y="0px"
	 viewBox="0 0 321.7 297.6" style="enable-background:new 0 0 321.7 297.6;" xml:space="preserve">
<style type="text/css">
	.st0{fill:#834F45;}
	.st1{fill:#263239;}
	.st2{fill:#F8BC9E;}
	.st3{fill:#EC9A6E;}
	.st4{fill:#455A64;}
	.st5{fill:#F5F4F5;}
	.st6{fill:#E0E0E0;}
	.st7{fill:none;stroke:#444C52;stroke-miterlimit:10;}
	.st8{fill:#E9505B;}
	.st9{opacity:0.4;}
	.st10{fill:#010202;}
	.st11{fill:#FBFBFB;}
	.st12{opacity:0.3;}
	.st13{fill:#EE7160;}
	.st14{fill:#8E3039;}
	.st15{fill:#EBEBEB;}
	.st16{fill:#C27461;}
	.st17{fill:#7E4436;}
	.st18{opacity:0.3;fill:#8E3039;}
	.st19{opacity:0.3;fill:#010202;}
	.st20{fill:#5B342F;}
	.st21{fill:#A56A5F;}
	.st22{fill:#83544C;}
	.st23{fill:#FFFFFF;}
</style>
<g id="Ebene_1">
	<g>
		<g>
			<g>
				<g>
					<g>
						<g>
							<path class="st2" d="M170.8,128.3c0,0,7.2,2.3,11.5,10c4.3,7.7,3.2,11.5,2,16c-1.1,4.5-3.1,13.5-3.2,13
								C181,166.7,170.8,128.3,170.8,128.3z"/>
						</g>
					</g>
				</g>
			</g>
		</g>
		<g>
			<g>
				<g>
					<path class="st1" d="M160.6,29.6c-1-3.8-3.1-7.5-6.5-9.4c-1.6-0.9-3.4-1.4-5.1-2.3c-2-1.1-3.6-2.7-5.4-3.9
						c-4.5-3.1-10.4-4.2-15.8-2.9c-5.3,1.4-10,5.1-12.5,10c-3.8-2.9-10.4-1.7-14.9-0.1c-4.5,1.6-8.3,7-9.3,11.6l21.1,6.4
						c4.2,4.6,8.9,8.9,14.4,11.9c5.5,3,11.9,4.6,18.1,3.7c6.2-0.9,12.1-4.6,14.9-10.2C161.8,39.8,161.9,34.4,160.6,29.6z"/>
				</g>
			</g>
			<g>
				<g>
					<path class="st1" d="M175.6,99.4c5.4-3.7,6.7-12.2,2.7-17.4c-1.2-1.5-2.8-2.9-3.1-4.9c-0.2-1.2,0.2-2.4,0.5-3.5
						c1.9-7.7-1.3-16.5-7.7-21.2c-0.1-4.3-2.5-13.5-8-17L135.1,39c1.1,26.3,1.1,52.6-0.2,78.8c-0.2,4-0.3,8.4,1.9,11.7
						c3.1,4.8,9.6,5.8,15.3,5.9c5.5,0.1,11-0.1,16.2-1.9c5.2-1.8,9.9-5.4,12.1-10.4C183.6,115.4,180.2,106.4,175.6,99.4z"/>
				</g>
			</g>
			<g>
				<g>
					<g>
						<g>
							<g>
								<g>
									<g>
										<g>
											<g>
												<path class="st2" d="M99.5,46.3l-0.8-5.6l32.9-10.3c10.2-2.3,22.7,6.8,24.5,17.1c2.1,11.5,4.1,25.6,3.7,34.4
													c-0.8,17.7-13.8,21.4-13.8,21.4l1.3,10.5c1.4,10.6-6.1,20.3-16.7,21.6h0c-10.6,1.4-20.2-6.1-21.6-16.7L99.5,46.3z"/>
											</g>
										</g>
									</g>
								</g>
							</g>
						</g>
					</g>
				</g>
			</g>
			<g>
				<g>
					<g>
						<g>
							<g>
								<g>
									<g>
										<g>
											<g>
												<g>
													<g>
														<g>
															<g>
																<g>
																	<g>
																		<g>
																			<g>
																				<path class="st1" d="M153.9,60.5c0.2,1.2-0.7,2.3-1.9,2.5c-1.2,0.2-2.3-0.6-2.5-1.7c-0.2-1.2,0.7-2.3,1.9-2.5
																					C152.6,58.6,153.8,59.4,153.9,60.5z"/>
																			</g>
																		</g>
																	</g>
																</g>
															</g>
														</g>
													</g>
												</g>
											</g>
										</g>
									</g>
								</g>
							</g>
						</g>
					</g>
				</g>
			</g>
			<g>
				<g>
					<g>
						<g>
							<g>
								<g>
									<g>
										<g>
											<g>
												<g>
													<g>
														<g>
															<g>
																<g>
																	<g>
																		<g>
																			<g>
																				<g>
																					<path class="st1" d="M153.4,55.4c-0.2,0.3-2.1-0.7-4.5-0.5c-2.4,0.2-4,1.7-4.3,1.4c-0.1-0.1,0.1-0.7,0.8-1.3
																						c0.7-0.6,1.9-1.3,3.4-1.5c1.5-0.2,2.8,0.2,3.6,0.7C153.2,54.7,153.5,55.2,153.4,55.4z"/>
																				</g>
																			</g>
																		</g>
																	</g>
																</g>
															</g>
														</g>
													</g>
												</g>
											</g>
										</g>
									</g>
								</g>
							</g>
						</g>
					</g>
				</g>
			</g>
			<g>
				<g>
					<g>
						<g>
							<g>
								<g>
									<g>
										<g>
											<g>
												<g>
													<g>
														<g>
															<g>
																<g>
																	<g>
																		<g>
																			<g>
																				<path class="st1" d="M131.6,63.6c0.2,1.2-0.7,2.3-1.9,2.5c-1.2,0.2-2.3-0.6-2.5-1.7c-0.2-1.2,0.7-2.3,1.9-2.5
																					C130.3,61.6,131.4,62.4,131.6,63.6z"/>
																			</g>
																		</g>
																	</g>
																</g>
															</g>
														</g>
													</g>
												</g>
											</g>
										</g>
									</g>
								</g>
							</g>
						</g>
					</g>
				</g>
			</g>
			<g>
				<g>
					<g>
						<g>
							<g>
								<g>
									<g>
										<g>
											<g>
												<g>
													<g>
														<g>
															<g>
																<g>
																	<g>
																		<g>
																			<g>
																				<g>
																					<path class="st1" d="M129.9,58.5c-0.2,0.3-2.1-0.7-4.5-0.4c-2.4,0.2-4,1.7-4.3,1.4c-0.1-0.1,0.1-0.7,0.8-1.3
																						c0.7-0.6,1.9-1.3,3.4-1.5c1.5-0.2,2.8,0.2,3.6,0.7C129.7,57.9,130,58.4,129.9,58.5z"/>
																				</g>
																			</g>
																		</g>
																	</g>
																</g>
															</g>
														</g>
													</g>
												</g>
											</g>
										</g>
									</g>
								</g>
							</g>
						</g>
					</g>
				</g>
			</g>
			<g>
				<g>
					<g>
						<g>
							<g>
								<g>
									<g>
										<g>
											<g>
												<g>
													<g>
														<g>
															<g>
																<g>
																	<g>
																		<g>
																			<g>
																				<path class="st1" d="M140.6,75.3c0-0.1,1.4-0.6,3.8-1.1c0.6-0.1,1.2-0.3,1.2-0.8c0.1-0.5-0.2-1.1-0.6-1.8
																					c-0.7-1.4-1.5-2.9-2.3-4.4c-3.3-6.3-5.7-11.6-5.5-11.7c0.3-0.1,3.1,4.9,6.4,11.2c0.8,1.6,1.5,3.1,2.3,4.5
																					c0.3,0.7,0.8,1.4,0.6,2.4c-0.1,0.5-0.5,0.9-0.9,1c-0.4,0.2-0.7,0.2-1,0.3C142.1,75.2,140.6,75.4,140.6,75.3z"/>
																			</g>
																		</g>
																	</g>
																</g>
															</g>
														</g>
													</g>
												</g>
											</g>
										</g>
									</g>
								</g>
							</g>
						</g>
					</g>
				</g>
			</g>
			<g>
				<g>
					<g>
						<g>
							<g>
								<g>
									<g>
										<g>
											<g>
												<g>
													<g>
														<g>
															<g>
																<g>
																	<g>
																		<g>
																			<path class="st3" d="M146.1,103.4c0,0-12.2,2.1-24.5-3.5c0,0,7.3,11.5,25,7.8L146.1,103.4z"/>
																		</g>
																	</g>
																</g>
															</g>
														</g>
													</g>
												</g>
											</g>
										</g>
									</g>
								</g>
							</g>
						</g>
					</g>
				</g>
			</g>
			<g>
				<g>
					<g>
						<g>
							<g>
								<g>
									<g>
										<g>
											<g>
												<g>
													<g>
														<g>
															<g>
																<g>
																	<g>
																		<g>
																			<path class="st3" d="M140.3,81.1c-1-1-2.6-1.5-4.1-1.2c-1,0.2-2,0.9-2.6,1.8c-0.5,0.9-0.5,2.1,0.1,2.9
																				c0.8,0.8,2.1,0.9,3.2,0.4c1.1-0.5,2-1.3,2.8-2.2c0.2-0.2,0.5-0.5,0.6-0.8c0.1-0.3,0.1-0.7-0.1-0.9"/>
																		</g>
																	</g>
																</g>
															</g>
														</g>
													</g>
												</g>
											</g>
										</g>
									</g>
								</g>
							</g>
						</g>
					</g>
				</g>
			</g>
			<g>
				<g>
					<g>
						<g>
							<g>
								<g>
									<g>
										<g>
											<g>
												<g>
													<g>
														<g>
															<g>
																<g>
																	<g>
																		<g>
																			<g>
																				<path class="st1" d="M133.8,77.7c0.4-0.1,0.7,2.5,3.1,4.1c2.4,1.6,5.2,1,5.2,1.3c0.1,0.2-0.6,0.6-1.7,0.7
																					c-1.1,0.2-2.9,0-4.4-1c-1.5-1-2.2-2.4-2.5-3.5C133.4,78.4,133.6,77.7,133.8,77.7z"/>
																			</g>
																		</g>
																	</g>
																</g>
															</g>
														</g>
													</g>
												</g>
											</g>
										</g>
									</g>
								</g>
							</g>
						</g>
					</g>
				</g>
			</g>
			<g>
				<g>
					<g>
						<g>
							<g>
								<g>
									<g>
										<g>
											<g>
												<g>
													<g>
														<g>
															<g>
																<path class="st1" d="M129.4,49.1c-0.2,0.7-2.6,0.6-5.4,1.3c-2.8,0.6-5,1.7-5.4,1.1c-0.2-0.3,0.1-0.9,1-1.7
																	c0.8-0.7,2.2-1.5,3.9-1.9c1.7-0.4,3.2-0.3,4.3,0C128.9,48.3,129.5,48.7,129.4,49.1z"/>
															</g>
														</g>
													</g>
												</g>
											</g>
										</g>
									</g>
								</g>
							</g>
						</g>
					</g>
				</g>
			</g>
			<g>
				<g>
					<g>
						<g>
							<g>
								<g>
									<g>
										<g>
											<g>
												<g>
													<g>
														<g>
															<g>
																<path class="st1" d="M151.7,48.5c-0.4,0.6-2.1,0.2-4.1,0.4c-2,0.1-3.6,0.8-4.1,0.3c-0.2-0.3,0-0.8,0.7-1.4
																	c0.7-0.6,1.8-1.2,3.2-1.3c1.4-0.1,2.6,0.2,3.4,0.7C151.6,47.7,151.8,48.2,151.7,48.5z"/>
															</g>
														</g>
													</g>
												</g>
											</g>
										</g>
									</g>
								</g>
							</g>
						</g>
					</g>
				</g>
			</g>
			<g>
				<g>
					<path class="st1" d="M103.3,28.8C99.9,30,96,39.3,97,42.7c1,3.4,4.2,5.9,7.7,6.8c3.5,0.9,7.2,0.4,10.6-0.7
						c4.9-1.5,10-4.8,10.3-9.9c4.7,4.8,12.1,6.8,18.6,5.1c6.5-1.7,11.3-11.6,13.2-18.1L103.3,28.8z"/>
				</g>
			</g>
			<g>
				<g>
					<g>
						<path class="st4" d="M136.9,63.7c-0.1,0,0-0.9-0.4-2.4c-0.4-1.5-1.4-3.6-3.6-5.3c-1.1-0.8-2.5-1.5-4-1.8
							c-1.6-0.3-3.3-0.2-5,0.4c-1.7,0.6-3.3,1.7-4.4,3.3c-1.2,1.6-1.8,3.6-1.8,5.6c0,2.1,0.7,4.1,1.8,5.6c1.1,1.6,2.7,2.7,4.4,3.3
							c1.7,0.6,3.4,0.7,5,0.4c1.6-0.3,2.9-1,4-1.8c2.2-1.6,3.2-3.8,3.6-5.3C136.9,64.6,136.9,63.7,136.9,63.7c0,0,0,0.2,0,0.6
							c0,0.4,0,1-0.2,1.8c-0.3,1.5-1.3,3.8-3.6,5.6c-1.1,0.9-2.6,1.6-4.2,1.9c-1.7,0.3-3.5,0.3-5.3-0.4c-1.8-0.6-3.5-1.8-4.7-3.5
							c-1.3-1.7-2-3.8-2-6c0-2.2,0.7-4.4,2-6c1.2-1.7,2.9-2.9,4.7-3.5c1.8-0.7,3.7-0.7,5.3-0.4c1.7,0.3,3.1,1.1,4.2,1.9
							c2.3,1.8,3.2,4.1,3.6,5.6c0.2,0.8,0.2,1.4,0.2,1.8C137,63.5,137,63.7,136.9,63.7z"/>
					</g>
				</g>
			</g>
			<g>
				<g>
					<g>
						<path class="st4" d="M161.6,59.2c-0.1,0,0-0.9-0.4-2.4c-0.4-1.5-1.4-3.6-3.6-5.3c-1.1-0.8-2.5-1.5-4-1.8
							c-1.6-0.3-3.3-0.2-5,0.4c-1.7,0.6-3.3,1.7-4.4,3.3c-1.2,1.6-1.8,3.6-1.8,5.6c0,2.1,0.7,4.1,1.8,5.6c1.1,1.6,2.7,2.7,4.4,3.3
							c1.7,0.6,3.4,0.7,5,0.4c1.6-0.3,2.9-1,4-1.8c2.2-1.6,3.2-3.8,3.6-5.3C161.5,60.1,161.5,59.2,161.6,59.2c0,0,0,0.2,0,0.6
							c0,0.4,0,1-0.2,1.8c-0.3,1.5-1.3,3.8-3.6,5.6c-1.1,0.9-2.6,1.6-4.2,1.9c-1.7,0.3-3.5,0.3-5.3-0.4c-1.8-0.6-3.5-1.8-4.7-3.5
							c-1.3-1.7-2-3.8-2-6c0-2.2,0.7-4.4,2-6c1.2-1.7,2.9-2.9,4.7-3.5c1.8-0.7,3.7-0.7,5.3-0.4c1.7,0.3,3.1,1.1,4.2,1.9
							c2.3,1.8,3.2,4.1,3.6,5.6c0.2,0.8,0.2,1.4,0.2,1.8C161.6,59,161.6,59.2,161.6,59.2z"/>
					</g>
				</g>
			</g>
			<g>
				<g>
					<g>
						<path class="st4" d="M135.5,58.3c-0.1,0-0.1-0.5,0.2-1.1c0.3-0.6,1-1.4,2.1-1.8c1.1-0.3,2.1-0.1,2.8,0.2
							c0.6,0.3,0.9,0.7,0.8,0.8c-0.1,0.1-0.4-0.1-1-0.3c-0.6-0.2-1.5-0.3-2.4,0c-0.9,0.3-1.5,0.9-1.9,1.4
							C135.7,57.9,135.6,58.3,135.5,58.3z"/>
					</g>
				</g>
			</g>
			<g>
				<g>
					<g>
						<path class="st4" d="M116.9,66c0.1,0.2-1.6,0.9-3.8,1.6c-2.2,0.7-4,1.2-4,1c-0.1-0.2,1.6-0.9,3.8-1.6
							C115.1,66.3,116.9,65.8,116.9,66z"/>
					</g>
				</g>
			</g>
		</g>
		<g>
			<g>
				<g>
					<path class="st2" d="M287.5,96c2.9-1.1,1.7-4.1,1.7-4.1l-10.7,3.2c0,0,5.7-2.3,8.6-4.7c2.9-2.4,1.5-4.4,1.5-4.4l-11,4.3
						l-6.2,3.7l-15.6,23.8c0,0,12.2,6,14.3,4.2c3.8-3,5.9-9.8,6.7-13.2c1.5-0.4,6.3-1.9,7.6-2.7c1.6-1,2.3-2.6,2.3-2.6l-8.5,1.6
						c1.2-0.4,9.1-3.1,9.7-4c1.1-1.7,0.4-2.4,0.4-2.4l-10.7,1.7l1.1-0.8C278.7,99.4,284.7,97.1,287.5,96z"/>
				</g>
			</g>
			<g>
				<g>
					<g>
						<path class="st2" d="M248.2,120.8l-35.9,32.9c-4.5-1-59.1-33.7-59.1-33.7l-8.6,42c0,0,55.9,25.7,71.3,22.6
							c2.5-0.5,6.6-0.8,9.2-4.2c12.3-15.8,38.4-55,38.4-55L248.2,120.8z"/>
					</g>
				</g>
			</g>
			<g>
				<g>
					<g>
						<path class="st2" d="M272.6,119.1l-6.5-3.1l4.7-8.5l3.7-7.8l5.7-10.6l-8.7,3.3c-1,0.4-1.9,1.1-2.6,2l-14.3,19.7l-6.3,6.4
							l6.1,16.4l7.2-11.2c0,0,0,0,4.2-1C269.9,123.9,272.6,119.1,272.6,119.1z"/>
					</g>
				</g>
			</g>
			<g>
				<g>
					<g>
						<g>
							<path class="st2" d="M262.1,105.8c3-1.5,6.1-2.7,9.3-3.6c1-0.3,2.1-0.6,3.2-0.4c1.1,0.2,2.1,0.8,2.4,1.9
								c0.3,1.2-0.5,2.5-1.5,3.1c-1,0.7-2.3,0.9-3.5,1.2c-1.2,0.3-2.4,0.8-3.2,1.7c-0.7,0.9-1,2.1-1.4,3.2c-1.3,3.6-4.5,6.4-8.3,7.1
								"/>
						</g>
					</g>
				</g>
				<g>
					<g>
						<g>
							<g>
								<path class="st3" d="M259.3,120c0-0.1,0.6-0.2,1.6-0.6c1-0.4,2.4-1.1,3.7-2.4c0.7-0.7,1.3-1.5,1.9-2.4
									c0.6-1,0.9-2.1,1.3-3.3c0.2-0.6,0.5-1.3,1-1.8c0.5-0.5,1.1-0.9,1.8-1.2c1.3-0.6,2.8-0.7,4.1-1.3c0.7-0.3,1.2-0.6,1.6-1.1
									c0.4-0.5,0.7-1.1,0.6-1.7c-0.1-1.2-1.4-2-2.5-2.1c-1.2-0.1-2.4,0.3-3.4,0.6c-1.1,0.3-2.1,0.6-3,1c-1.8,0.6-3.2,1.2-4.2,1.6
									c-1,0.4-1.5,0.7-1.6,0.6c0,0,0.5-0.3,1.5-0.8c1-0.5,2.4-1.1,4.2-1.8c0.9-0.3,1.9-0.7,3-1c1.1-0.3,2.3-0.7,3.6-0.7
									c0.7,0,1.4,0.3,2,0.7c0.6,0.4,1.1,1.1,1.1,1.9c0.1,1.6-1.3,2.9-2.7,3.5c-1.4,0.6-2.9,0.7-4.1,1.2c-0.6,0.3-1.2,0.6-1.6,1.1
									c-0.4,0.5-0.7,1-0.9,1.6c-0.4,1.2-0.8,2.4-1.4,3.4c-0.6,1-1.3,1.8-2,2.5c-1.4,1.3-2.9,2-4,2.3c-0.5,0.2-0.9,0.3-1.2,0.3
									C259.4,120,259.3,120,259.3,120z"/>
							</g>
						</g>
					</g>
				</g>
			</g>
		</g>
		<g>
			<g>
				<path class="st1" d="M149.1,238.2H75.6c0,0-10.9,13.7-18,27.9l104.8,0.4C164.4,263.2,149.1,238.2,149.1,238.2z"/>
			</g>
		</g>
		<g>
			<g>
				<path class="st14" d="M170.9,171.3c-2.5-32.9-10.7-53.6-10.7-53.6l-12.7-3.9v0c-1.9,8.4-15.6,11.2-23.4,7.5l-8.3-4.3
					c-26.5-4-25.1-1.8-31.3,1.9c-5.3,3.2-4.8,27.1-4.8,27.1s-13.2,62.2-12.5,72.2c0.7,10,8.4,20,8.4,20s66.2,0,73.6,0
					c7.4,0,9.5-16.7,9-22.8C157.6,209.3,171.7,182.2,170.9,171.3z"/>
			</g>
		</g>
		<g>
			<g>
				<g>
					<g>
						<g>
							<g>
								<g>
									<path class="st1" d="M101,192.1c0,0,0.4,0.4,1.2,1c0.8,0.6,2.1,1.4,3.8,2.2c1.7,0.8,3.8,1.5,6.3,1.9c2.5,0.3,5.2,0.3,8-0.3
										c5.6-1.3,9.9-4.6,12.5-7.2c1.3-1.3,2.3-2.5,2.9-3.3c0.6-0.8,0.9-1.3,0.9-1.4c-0.1-0.1-1.4,1.8-4.1,4.3
										c-2.7,2.5-6.8,5.6-12.3,6.9c-5.4,1.3-10.6,0.2-13.9-1.3C102.9,193.4,101.1,191.9,101,192.1z"/>
								</g>
							</g>
						</g>
					</g>
				</g>
			</g>
		</g>
		<g class="st12">
			<g>
				<g>
					<g>
						<g>
							<g>
								<g>
									<path class="st10" d="M135.3,186.6c-0.6,5.6-3.2,10.9-7.6,14.5c-4.3,3.5-10.4,5-15.7,3.4c-5.4-1.5-9.8-6.2-10.8-11.7
										c3.8,1.7,7.6,3.5,11.7,4.1c8.8,1.3,18.1-3.1,22.7-10.7c-0.2,0.2-0.4,0.4-0.6,0.6"/>
								</g>
							</g>
						</g>
					</g>
				</g>
			</g>
		</g>
		<g>
			<g>
				<path class="st14" d="M51.4,169.8l37.1,17.4c0,0,15.1-33.4,16.4-38c1.3-4.6,5.4-11.8,1.2-21.3c-4.2-9.5-15.4-13-21.6-9
					C70.6,128,51.4,169.8,51.4,169.8z"/>
			</g>
		</g>
		<g>
			<g>
				<g>
					<path class="st14" d="M167.9,171.6c1.7,0,21.6,10.4,21.6,10.4l11.3-37.5c-16.9-11.3-30.8-24.1-40.7-26.8l5.2,31L167.9,171.6z"
						/>
				</g>
			</g>
		</g>
		<g>
			<g>
				<g>
					<g>
						<path class="st1" d="M51.4,169.8c0,0,0.3,0.1,0.7,0.3c0.5,0.2,1.2,0.5,2.1,0.9c1.9,0.8,4.4,2,7.5,3.3
							c6.4,2.9,15,6.9,24.6,11.2c1,0.5,2,0.9,3,1.4l-0.5,0.2c4.3-8.8,8-16.7,10.7-22.4c1.3-2.8,2.3-5.1,3.1-6.7
							c0.3-0.7,0.6-1.3,0.8-1.8c0.2-0.4,0.3-0.6,0.3-0.6c0,0,0,0.2-0.2,0.7c-0.2,0.4-0.4,1.1-0.7,1.9c-0.6,1.6-1.6,4-2.9,6.8
							c-2.5,5.8-6.2,13.7-10.5,22.5l-0.2,0.3l-0.3-0.1c-1-0.4-2-0.9-3-1.4c-9.5-4.4-18.2-8.4-24.5-11.4c-3.1-1.5-5.6-2.7-7.4-3.5
							c-0.8-0.4-1.5-0.7-2-1C51.6,170,51.4,169.8,51.4,169.8z"/>
					</g>
				</g>
			</g>
		</g>
		<g>
			<g>
				<g>
					<path class="st1" d="M164.5,140.8c0,0,0.3,0.8,0.8,2.3c0.5,1.6,1.2,3.7,1.9,6.3c1.6,5.3,3.9,12.8,4.1,21.5
						c-0.1,4.3-0.9,8.4-2,11.9c-1,3.6-2.2,6.7-3.2,9.3c-1,2.6-1.9,4.7-2.5,6.1c-0.6,1.4-0.9,2.2-1,2.2c0,0,0-0.2,0.2-0.6
						c0.2-0.5,0.4-1,0.6-1.7c0.6-1.6,1.4-3.7,2.3-6.2c1-2.6,2.1-5.7,3.1-9.3c1-3.5,1.8-7.5,1.9-11.8c-0.1-8.5-2.3-16-3.8-21.3
						c-0.8-2.7-1.4-4.9-1.7-6.4c-0.2-0.8-0.3-1.4-0.4-1.8C164.5,141,164.5,140.8,164.5,140.8z"/>
				</g>
			</g>
		</g>
		<g>
			<g>
				<path class="st1" d="M133.2,133.3c-0.6-5.5-3.4-10.5-7.3-14.4c-1.9-1.9-4.2-3.9-4.6-6.5c-0.5-3.5,2.5-6.8,2-10.3
					c-0.6-4.4-6.1-6.2-8-10.2c-2.6-5.3,1.9-12.2-0.9-17.4c-1.7-3.1-5.7-4.8-6.5-8.3c-0.5-2.2,3.8-5.5,4.8-10.4
					c2.2-11,3.4-19.4-7.3-25.8l-6.2-8.5c-7,3.4-12.8,11-12.9,19c-0.1,3.8,1.9,7.6,0.2,11c-2.3,4.7-7.6,7.7-9.3,12.7
					c-2.3,7.2,4.1,15.2,1.3,22.2c-1.6,4.1-6,6.5-8.7,10c-4.2,5.5-3.8,14.1,1,19.2c-6.8,4.6-9.9,13.9-7.3,21.6c1.1,3.3,3.6,6.5,7,6.7
					c4.9,0.3,7.7-5.3,11.3-8.6c5.6-5.2,15.4-5,20.7,0.5c3.8,3.9,5.3,9.8,9.7,13c4.4,3.2,11,2.6,15.3-0.8
					C131.8,144.6,133.8,138.8,133.2,133.3z"/>
			</g>
		</g>
		<g>
			<g>
				<g>
					<g>
						<g>
							<g>
								<g>
									<g>
										<path class="st2" d="M84.8,184.8c-7,11.5-11.9,18.2-11.9,18.2l63,38.3l-7.3,17l-81.7-33.6c0,0-8-8.3-5.2-17.5l13-35.9
											L84.8,184.8z"/>
									</g>
								</g>
							</g>
						</g>
					</g>
				</g>
			</g>
			<g>
				<g>
					<g>
						<g>
							<g>
								<g>
									<g>
										<g>
											<path class="st3" d="M57.6,208.9c0.1,0.2,3.1-2.3,7.5-3.9c4.4-1.7,8.3-1.7,8.3-1.9c0-0.2-4-0.5-8.5,1.2
												C60.3,205.9,57.4,208.7,57.6,208.9z"/>
										</g>
									</g>
								</g>
							</g>
						</g>
					</g>
				</g>
			</g>
		</g>
		<g>
			<g>
				<g>
					<g>
						<g>
							<g>
								<g>
									<path class="st2" d="M184.7,253l-15.7-7.5l-30.6-2.4l-2.5-1.7l-7.3,17c0,0,8,3.8,12.2,4.2l25.8-0.8l13.5,1.4L184.7,253z"/>
								</g>
							</g>
						</g>
					</g>
				</g>
			</g>
		</g>
		<g>
			<g>
				<g>
					<g>
						<g>
							<path class="st6" d="M273,192.5l-88.3,0.7c-2.9,0-5.6,1.4-6,4.2l-9.7,64.4h-45.5c-1.5,0-2.7,1.2-2.7,2.7
								c0,1.5,1.2,2.7,2.7,2.7h44.7h8.5h92.1l9.9-68C279.3,195.7,276.6,192.5,273,192.5z"/>
						</g>
					</g>
				</g>
				<g>
					<g>
						<g>
							<g>
								<path class="st1" d="M273,192.5c0,0,0.5-0.1,1.4,0.1c0.9,0.2,2.3,0.8,3.4,2.2c0.5,0.7,1,1.7,1.1,2.8
									c0.1,1.1-0.2,2.3-0.3,3.6c-0.4,2.6-0.8,5.6-1.3,9c-1.9,13.5-4.7,33-8.2,56.9l0,0.2l-0.2,0c-37.6,0-87,0.1-141,0.1
									c-1.3,0-2.5,0-3.8,0c-0.6,0-1.4,0-2-0.4c-0.6-0.3-1.1-0.9-1.4-1.6c-0.5-1.3,0.1-3,1.4-3.7c0.6-0.4,1.4-0.4,2-0.4l1.9,0
									c5,0,9.9,0,14.8,0c9.7,0,19.2,0,28.3,0l-0.3,0.3c3.5-23.1,6.7-44.6,9.6-63.9c0.1-1.2,0.7-2.5,1.6-3.4c1-0.9,2.2-1.3,3.4-1.5
									c1.2-0.2,2.4-0.1,3.6-0.1c1.2,0,2.3,0,3.5,0c4.6,0,9-0.1,13.3-0.1c8.5-0.1,16.5-0.1,23.6-0.1c14.3-0.1,25.8-0.1,33.6-0.2
									c3.9,0,6.9,0,9,0c1,0,1.8,0,2.3,0C272.8,192.5,273,192.5,273,192.5s-0.3,0-0.8,0c-0.5,0-1.3,0-2.3,0c-2.1,0-5.1,0.1-9,0.1
									c-7.9,0.1-19.3,0.2-33.6,0.4c-7.2,0.1-15.1,0.1-23.6,0.2c-4.3,0-8.7,0.1-13.3,0.1c-1.1,0-2.3,0-3.5,0
									c-1.2,0-2.4-0.1-3.5,0.1c-1.1,0.2-2.2,0.6-3.1,1.4c-0.9,0.8-1.3,1.8-1.4,3c-2.9,19.3-6.1,40.8-9.5,63.9l0,0.3H169
									c-9.1,0-18.6,0-28.3,0c-4.9,0-9.8,0-14.8,0l-1.9,0c-0.7,0-1.2,0-1.6,0.3c-1,0.5-1.5,1.8-1,2.8c0.2,0.5,0.6,1,1,1.2
									c0.5,0.3,1,0.3,1.7,0.3c1.3,0,2.5,0,3.8,0c54,0,103.4,0.1,141,0.1l-0.3,0.2c3.5-23.9,6.4-43.3,8.4-56.8c0.5-3.4,1-6.4,1.3-9
									c0.2-1.3,0.5-2.5,0.4-3.6c-0.1-1.1-0.5-2-1-2.7c-1-1.5-2.4-2-3.3-2.3C273.5,192.5,273,192.6,273,192.5z"/>
							</g>
						</g>
					</g>
				</g>
			</g>
			<g>
				<g>
					<g>
						<circle class="st23" cx="225.1" cy="229" r="5.5"/>
					</g>
				</g>
			</g>
			<g>
				<g>
					<g>
						<g>
							<path class="st1" d="M172.6,266.6c0.1,0,2.9-16.4,6.3-36.6c3.3-20.2,6-36.7,5.8-36.7c-0.1,0-2.9,16.4-6.3,36.6
								C175.1,250.1,172.5,266.5,172.6,266.6z"/>
						</g>
					</g>
				</g>
			</g>
		</g>
	</g>
</g>
<g id="Ebene_2">
</g>
</svg>
