<?xml version="1.0" encoding="utf-8"?>
<!-- Generator: Adobe Illustrator 26.1.0, SVG Export Plug-In . SVG Version: 6.00 Build 0)  -->
<svg version="1.1" xmlns="http://www.w3.org/2000/svg" xmlns:xlink="http://www.w3.org/1999/xlink" x="0px" y="0px"
	 viewBox="0 0 322.7 297.6" style="enable-background:new 0 0 322.7 297.6;" xml:space="preserve">
<style type="text/css">
	.st0{fill:#834F45;}
	.st1{fill:#263239;}
	.st2{fill:#F8BC9E;}
	.st3{fill:#EC9A6E;}
	.st4{fill:#455A64;}
	.st5{fill:#F5F4F5;}
	.st6{fill:#E0E0E0;}
	.st7{fill:none;stroke:#444C52;stroke-miterlimit:10;}
	.st8{fill:#E9505B;}
	.st9{opacity:0.4;}
	.st10{fill:#010202;}
	.st11{fill:#FBFBFB;}
	.st12{opacity:0.3;}
	.st13{fill:#EE7160;}
	.st14{fill:#8E3039;}
	.st15{fill:#EBEBEB;}
	.st16{fill:#C27461;}
	.st17{fill:#7E4436;}
	.st18{opacity:0.3;fill:#8E3039;}
	.st19{opacity:0.3;fill:#010202;}
	.st20{fill:#5B342F;}
	.st21{fill:#A56A5F;}
	.st22{fill:#83544C;}
	.st23{fill:#FFFFFF;}
</style>
<g id="Ebene_1">
	<g>
		<g>
			<g>
				<g>
					<path class="st2" d="M293.1,141l-1.8-1.1c-3.3-2.1-7.6-1-9.5,2.4c-2.9,5.2-6.4,12.5-6.4,12.5l7.5,11.9l2.5,0.1
						c2.7,1.7,9.2-1.8,13.5-4.4c4.3-2.6,2.2-5.3,2.2-5.3c2.7-3.7-1-5.3-1-5.3c2.3-3.4-1.1-5.7-1.1-5.7"/>
				</g>
			</g>
		</g>
		<g>
			<g>
				<path class="st2" d="M288.1,138.8c0.4,0,16.6,2.5,16.6,2.5c0.3,1.5-0.6,3.6-4.4,3.7c-3.6,0.1-6.9-0.2-6.9-0.2s-4,8.3-7.9,9.3
					c-3.9,0.9-2-8-2-8l0,0L288.1,138.8z"/>
			</g>
		</g>
	</g>
	<g>
		<g>
			<g>
				<g>
					<path class="st1" d="M103,86.2c-1.4-3.3-2.8-6.6-3-10.2c-0.1-3.6,1.3-7.4,4.4-9c2.8-1.5,6.3-0.8,9.4-1.9
						c3.7-1.3,6.1-5.1,7.7-8.8c1.7-3.7-0.6-5,2.1-7.9c3.7-3.8,6.1-4.3,10.8-2c3.4-2.4,15.1-6.7,18.5-6.8c5-0.2,10.7,0.2,14.2,3.8
						c2.7,2.8,4.4,6.3,7.8,8.3c4.6,2.8,10.4,0.4,15.8,0.6c1.1,0,2.4,0.3,2.8,1.3c0.4,0.9,0,1.9-0.4,2.7c-1.4,2.9-2.8,5.8-4.1,8.6
						c2.2,1,5,1,7.2-0.2c-0.2,5.6-2.5,11.2-6.4,15.3c0.9-0.7,2.4,0,2.9,1.1c0.5,1.1,0.3,2.3,0,3.4c-1.9,6.9-6.8,12.9-13.3,16
						c-6.4,3.1-14.2,3.3-20.8,0.5l-29.5,2.2c-0.8,2.3-2.8,4.1-5.1,4.7c-3.3-2.4-3.8-3.8-3.8-3.8c-2,1.5-0.4,0.8-2,1.5
						c-3.7,1.7-9.1-0.3-9.9-4.4c-0.3-1.7-0.8-3.3-2-4.5c-1.2-1.2-2.8-1.6-4.3-2.4c-2.3-1.2-4.3-3.1-5.4-5.5
						C98.9,89,101.3,88,103,86.2z"/>
				</g>
			</g>
		</g>
		<g>
			<g>
				<g>
					<g>
						<g>
							<g>
								<g>
									<g>
										<g>
											<g>
												<g>
													<g>
														<g>
															<g>
																<g>
																	<g>
																		<g>
																			<g>
																				<g>
																					<g>
																						<g>
																							<path class="st2" d="M123.9,73.5l-0.8,60.9c-0.1,10.4,1.8,25.6,18.2,25.1l0,0c14.2-1.5,17.9-15,18.1-24.6
																								c0.1-4.6,0.1-8.4,0.1-8.9c0,0,15.5-1.3,16.8-16.6c0.6-7.4,0.7-22.8,0.6-36.7c-0.1-14.9-11.7-27.3-26.6-28.4
																								l-1.5-0.1C132.8,44,123.6,57.5,123.9,73.5z"/>
																						</g>
																					</g>
																				</g>
																			</g>
																		</g>
																	</g>
																</g>
															</g>
														</g>
													</g>
												</g>
											</g>
										</g>
									</g>
								</g>
							</g>
						</g>
					</g>
					<g>
						<g>
							<g>
								<g>
									<g>
										<g>
											<g>
												<g>
													<g>
														<g>
															<g>
																<g>
																	<g>
																		<g>
																			<g>
																				<g>
																					<g>
																						<g>
																							<path class="st3" d="M159.5,126c0,0-9.7-0.1-19.5-7.4c0,0,4.1,11.6,19.5,11.3L159.5,126z"/>
																						</g>
																					</g>
																				</g>
																			</g>
																		</g>
																	</g>
																</g>
															</g>
														</g>
													</g>
												</g>
											</g>
										</g>
									</g>
								</g>
							</g>
						</g>
					</g>
				</g>
			</g>
		</g>
		<g>
			<g>
				<g>
					<g>
						<g>
							<g>
								<g>
									<g>
										<g>
											<g>
												<g>
													<g>
														<g>
															<g>
																<g>
																	<g>
																		<g>
																			<g>
																				<g>
																					<g>
																						<g>
																							<g>
																								<g>
																									<g>
																										<g>
																											<path class="st1" d="M150.7,79c-0.3,0.3-2.1-1.1-4.6-1.2c-2.6-0.1-4.5,1.2-4.8,0.9
																												c-0.1-0.1,0.2-0.7,1-1.3c0.8-0.6,2.2-1.1,3.8-1.1c1.6,0.1,2.9,0.7,3.7,1.3
																												C150.6,78.3,150.8,78.8,150.7,79z"/>
																										</g>
																									</g>
																								</g>
																							</g>
																						</g>
																					</g>
																				</g>
																			</g>
																		</g>
																	</g>
																</g>
															</g>
														</g>
													</g>
												</g>
											</g>
										</g>
									</g>
								</g>
							</g>
							<g>
								<g>
									<g>
										<g>
											<g>
												<g>
													<g>
														<g>
															<g>
																<g>
																	<g>
																		<g>
																			<g>
																				<g>
																					<g>
																						<g>
																							<g>
																								<g>
																									<g>
																										<path class="st1" d="M151.1,84.7c0,1.1-1,2-2.2,1.9c-1.1,0-2-0.9-2-2c0-1.1,1-2,2.1-1.9
																											C150.3,82.7,151.2,83.6,151.1,84.7z"/>
																									</g>
																								</g>
																							</g>
																						</g>
																					</g>
																				</g>
																			</g>
																		</g>
																	</g>
																</g>
															</g>
														</g>
													</g>
												</g>
											</g>
										</g>
									</g>
								</g>
							</g>
							<g>
								<g>
									<g>
										<g>
											<g>
												<g>
													<g>
														<g>
															<g>
																<g>
																	<g>
																		<g>
																			<g>
																				<g>
																					<g>
																						<g>
																							<g>
																								<g>
																									<g>
																										<path class="st1" d="M157.1,96.9c0-0.1,1.5-0.3,3.9-0.4c0.6,0,1.2-0.1,1.3-0.5c0.2-0.4,0-1.1-0.3-1.8
																											c-0.5-1.5-0.9-3.1-1.4-4.7c-2-6.7-3.4-12.2-3.1-12.3c0.3-0.1,2.1,5.3,4.1,12c0.5,1.7,0.9,3.2,1.4,4.7
																											c0.2,0.7,0.5,1.5,0.1,2.4c-0.2,0.4-0.7,0.7-1.1,0.8c-0.4,0.1-0.7,0.1-1,0.1
																											C158.6,97.1,157.1,97,157.1,96.9z"/>
																									</g>
																								</g>
																							</g>
																						</g>
																					</g>
																				</g>
																			</g>
																		</g>
																	</g>
																</g>
															</g>
														</g>
													</g>
												</g>
											</g>
										</g>
									</g>
								</g>
							</g>
						</g>
					</g>
				</g>
				<g>
					<g>
						<g>
							<g>
								<g>
									<g>
										<g>
											<g>
												<g>
													<g>
														<g>
															<g>
																<g>
																	<g>
																		<g>
																			<g>
																				<g>
																					<g>
																						<path class="st1" d="M149.6,69.3c-0.2,0.6-2.3,0.1-4.8,0.3c-2.5,0.1-4.5,0.7-4.8,0.1
																							c-0.1-0.3,0.3-0.8,1.1-1.3c0.8-0.5,2.1-1,3.6-1c1.5-0.1,2.8,0.3,3.7,0.7C149.3,68.6,149.7,69.1,149.6,69.3z"
																							/>
																					</g>
																				</g>
																			</g>
																		</g>
																	</g>
																</g>
															</g>
														</g>
													</g>
												</g>
											</g>
										</g>
									</g>
								</g>
							</g>
						</g>
					</g>
				</g>
				<g>
					<g>
						<g>
							<g>
								<g>
									<g>
										<g>
											<g>
												<g>
													<g>
														<g>
															<g>
																<g>
																	<g>
																		<g>
																			<g>
																				<g>
																					<g>
																						<path class="st1" d="M174,74.1c-0.3,0.5-2.3-0.1-4.7-0.1c-2.4-0.1-4.4,0.2-4.7-0.2c-0.1-0.2,0.3-0.6,1.1-1
																							c0.8-0.4,2.1-0.7,3.6-0.6c1.5,0.1,2.7,0.4,3.6,0.9C173.7,73.4,174.1,73.9,174,74.1z"/>
																					</g>
																				</g>
																			</g>
																		</g>
																	</g>
																</g>
															</g>
														</g>
													</g>
												</g>
											</g>
										</g>
									</g>
								</g>
							</g>
						</g>
					</g>
				</g>
			</g>
		</g>
		<g>
			<g>
				<g>
					<g>
						<g>
							<g>
								<g>
									<g>
										<g>
											<g>
												<g>
													<g>
														<g>
															<g>
																<g>
																	<g>
																		<path class="st2" d="M124.3,85c-0.3-0.1-10.3-3.9-10.7,6.6c-0.4,10.5,10.2,8.8,10.2,8.5
																			C123.8,99.8,124.3,85,124.3,85z"/>
																	</g>
																</g>
															</g>
														</g>
													</g>
												</g>
											</g>
										</g>
									</g>
								</g>
							</g>
						</g>
					</g>
				</g>
			</g>
		</g>
		<g>
			<g>
				<g>
					<g>
						<g>
							<g>
								<g>
									<g>
										<g>
											<g>
												<g>
													<g>
														<g>
															<g>
																<g>
																	<g>
																		<g>
																			<path class="st3" d="M120.7,96c0,0-0.2,0.1-0.5,0.3c-0.3,0.1-0.8,0.2-1.4,0c-1.1-0.5-2-2.3-1.9-4.2
																				c0-1,0.3-1.9,0.6-2.6c0.4-0.8,0.9-1.3,1.4-1.3c0.6-0.1,0.9,0.2,1.1,0.5c0.1,0.3,0.1,0.5,0.1,0.5
																				c0,0,0.2-0.2,0.2-0.6c0-0.2-0.1-0.5-0.4-0.7c-0.2-0.2-0.6-0.3-1-0.3c-0.8,0-1.6,0.7-2,1.6
																				c-0.5,0.8-0.7,1.8-0.8,2.9c0,2.1,1,4.1,2.5,4.7c0.7,0.2,1.4,0,1.7-0.2C120.7,96.2,120.8,96,120.7,96z"/>
																		</g>
																	</g>
																</g>
															</g>
														</g>
													</g>
												</g>
											</g>
										</g>
									</g>
								</g>
							</g>
						</g>
					</g>
				</g>
			</g>
		</g>
		<g>
			<g>
				<g>
					<g>
						<path class="st1" d="M154.6,104.1c0.1-0.3-1.9-0.9-3.4-2.8c-0.7-1-1.1-2-1.5-2.7c-0.3-0.8-0.5-1.2-0.7-1.2
							c-0.1,0-0.1,0.6,0.1,1.4c0.2,0.8,0.5,2,1.4,3.1c0.8,1.1,1.9,1.7,2.7,2.1C154.1,104.2,154.6,104.2,154.6,104.1z"/>
					</g>
				</g>
			</g>
		</g>
		<g>
			<g>
				<path class="st1" d="M110.3,68c2.2-3.7,2.7-8.1,3.9-12.3c1.2-4.1,3.5-8.4,7.6-9.9l0.1,0c3.6-1.5,8.1-1.5,11.1,1
					c0.7-5.5,5.5-9.8,10.9-11.2c5.3-1.4,13.9-0.6,19,1.5c4,1.6,7.8,4.9,12.4,9.6c2,2,3.8,4.2,5.4,6.5l4.6,14.3
					c0.5,0.4,0.9,0.8,1.3,1.3c1.8,2.5-1.6,5.7-3.9,3.6c0,0,0,0,0,0c-0.5,0.8-0.8,1.6-1.2,2.5l0,0l-0.1,0.2c-0.2,0.5-0.5,1-0.8,1.5
					l0,0l-3.6,15.8c-0.2-4.3,0.1-19.3-0.1-23.7c-6.7-0.3-12.7-3-17.2-7.9c-2.4-2.6-4.2-5.9-7.4-7.4c-4.1-2-8.9-0.5-13.2,0.9l0.2-0.2
					c-2.2,1-4.3,2.5-5.9,4.3c1,8.5,0.1,17.2-2.6,25.3c-0.4,1.2-1.5,3.7-2.7,4.2c-2.4,0.9-3-1.5-4.4-2.8c-1-0.9-2.6-1.1-4.3-1.1
					c-1-2.6-2-7-2.9-10.9c-1.4,0.4-2.9,0.6-4.4,0.3c0.5-1.1,0.9-2.2,1.4-3.3c-0.6,0.4-1.2,0.8-1.9,0.9c-0.7,0.1-1.5-0.2-1.8-0.8
					C109.3,69.7,109.8,68.7,110.3,68z"/>
			</g>
		</g>
		<g>
			<g>
				<g>
					<g>
						<path class="st4" d="M137.8,48.7c0,0-0.6,0.4-1.5,1.4c-0.9,1-1.9,2.7-2.4,5.1c-0.2,1.2-0.4,2.5-0.4,3.9c0,1.4,0.1,2.9,0.2,4.5
							c0.1,1.6,0.2,3.3,0.1,5c-0.1,0.9-0.2,1.8-0.3,2.7c-0.2,0.9-0.4,1.8-1.1,2.6c-0.5,0.6-1.4,0.9-2.2,0.7
							c-0.8-0.1-1.4-0.5-1.9-1.1c-1-1.2-1.2-2.6-1.5-3.9l0.3,0c-0.5,1.2-1.1,2.3-1.9,3.2c-0.8,0.9-1.9,1.5-3,1.6
							c-0.6,0-1.1,0-1.6-0.3c-0.5-0.2-0.8-0.6-1.1-1.1c-0.2-0.4-0.3-0.9-0.3-1.4c0-0.5,0.2-0.9,0.5-1.2l0.2,0.1
							c-1.2,1.3-2.4,2.1-3.3,2.5c-0.4,0.2-0.8,0.3-1,0.4c-0.2,0.1-0.4,0.1-0.4,0.1c0,0,0.1-0.1,0.3-0.1c0.2-0.1,0.6-0.2,1-0.4
							c0.8-0.4,2-1.2,3.2-2.5l0.2,0.1c-0.5,0.5-0.5,1.5-0.1,2.3c0.2,0.4,0.5,0.7,1,0.9c0.4,0.2,0.9,0.3,1.4,0.2c1-0.1,2-0.7,2.8-1.5
							c0.8-0.9,1.3-2,1.8-3.1l0.2-0.5l0.1,0.5c0.2,1.3,0.5,2.7,1.4,3.7c0.4,0.5,1.1,0.9,1.7,1c0.7,0.1,1.4-0.1,1.8-0.6
							c0.6-0.7,0.8-1.5,1-2.4c0.2-0.9,0.3-1.7,0.3-2.6c0.1-1.7,0-3.4-0.1-5c-0.1-1.6-0.2-3.1-0.2-4.5c0-1.4,0.2-2.8,0.4-3.9
							c0.5-2.4,1.6-4.1,2.5-5.1C137.1,49,137.8,48.7,137.8,48.7z"/>
					</g>
				</g>
			</g>
		</g>
		<g>
			<g>
				<g>
					<g>
						<path class="st4" d="M185.2,63.6c0,0,0,0-0.1,0.1c-0.1,0.1-0.2,0.2-0.4,0.3c-0.2,0.1-0.4,0.3-0.6,0.4
							c-0.3,0.2-0.6,0.3-0.9,0.5c-1.4,0.7-3.7,1.3-6.6,1.2c-2.8-0.2-6.2-1.2-9.3-3.4c-3.1-2.2-5.8-5.4-8-9.2c-1.1-1.9-2-3.8-3-5.5
							c-1-1.8-2.1-3.4-3.4-4.7c-1.3-1.3-2.8-2.2-4.4-2.7c-0.8-0.2-1.6-0.3-2.3-0.3c-0.8,0-1.5,0.2-2.1,0.4c-1.3,0.4-2.4,1.2-3.2,1.9
							c-0.8,0.8-1.4,1.6-1.7,2.2c-0.7,1.4-0.7,2.3-0.8,2.3c0,0,0-0.1,0-0.2c0-0.1,0-0.3,0.1-0.5c0.1-0.4,0.3-1,0.6-1.7
							c0.4-0.7,0.9-1.5,1.7-2.3c0.8-0.8,1.9-1.5,3.3-2c0.7-0.2,1.4-0.4,2.2-0.4c0.8,0,1.6,0,2.4,0.3c1.6,0.4,3.2,1.4,4.6,2.7
							c1.4,1.3,2.5,3,3.5,4.7c1,1.8,1.9,3.7,3,5.5c2.2,3.7,4.8,6.9,7.8,9.1c3,2.2,6.3,3.2,9.1,3.4c2.8,0.2,5.1-0.4,6.5-1.1
							C184.5,64.1,185.2,63.5,185.2,63.6z"/>
					</g>
				</g>
			</g>
		</g>
		<g>
			<g>
				<g>
					<g>
						<path class="st4" d="M186.6,56.8c0,0-0.2,0.2-0.6,0.4c-0.4,0.2-0.9,0.5-1.6,0.8c-0.7,0.3-1.6,0.6-2.6,0.8
							c-1,0.2-2.1,0.4-3.3,0.4c-1.2,0-2.3-0.1-3.3-0.2c-1-0.2-1.9-0.4-2.6-0.7c-0.7-0.3-1.3-0.5-1.7-0.7c-0.4-0.2-0.6-0.3-0.6-0.3
							c0-0.1,0.9,0.4,2.3,0.8c0.7,0.2,1.6,0.4,2.6,0.6c1,0.1,2.1,0.2,3.3,0.2c1.2,0,2.3-0.2,3.2-0.4c1-0.2,1.8-0.5,2.6-0.8
							C185.8,57.3,186.6,56.8,186.6,56.8z"/>
					</g>
				</g>
			</g>
		</g>
		<g>
			<g>
				<g>
					<g>
						<g>
							<g>
								<g>
									<g>
										<g>
											<g>
												<g>
													<g>
														<path class="st1" d="M174.1,79.9c-0.3,0.3-2.1-1.1-4.6-1.2c-2.6-0.1-4.5,1.2-4.8,0.9c-0.1-0.1,0.2-0.7,1-1.3
															c0.8-0.6,2.2-1.1,3.8-1.1c1.6,0.1,2.9,0.7,3.7,1.3C174,79.2,174.2,79.8,174.1,79.9z"/>
													</g>
												</g>
											</g>
										</g>
									</g>
								</g>
							</g>
						</g>
					</g>
				</g>
			</g>
		</g>
		<g>
			<g>
				<g>
					<g>
						<g>
							<g>
								<g>
									<g>
										<g>
											<g>
												<g>
													<path class="st1" d="M172.6,85c0,1.1-1,2-2.2,1.9c-1.1,0-2-0.9-2-2c0-1.1,1-2,2.1-1.9C171.8,83,172.7,83.9,172.6,85z"
														/>
												</g>
											</g>
										</g>
									</g>
								</g>
							</g>
						</g>
					</g>
				</g>
			</g>
		</g>
	</g>
	<g>
		<g>
			<g>
				<g>
					<g>
						<g>
							<path class="st4" d="M184.3,142l55.5,36.3l33.8-26.4l10.5,16.7c0,0-19.7,22.8-27,30.5c-7.3,7.7-12.2,11.9-17.9,11.1
								c-5.7-0.7-53.8-19.4-53.8-19.4l-7.3-50.9l3.1,0.7C182.3,140.9,183.4,141.4,184.3,142z"/>
						</g>
					</g>
				</g>
			</g>
		</g>
		<g>
			<g>
				<g>
					<g>
						<path class="st4" d="M122.4,129.6c12.4,7.8,24.9,10.7,37.6,5.7l19,4.9l9.3,16.1c1.5,2.5,2.1,5.4,1.9,8.4l-3.6,61.6l11.2,39.1
							l-109.9,1l5.4-29.1l13.6-104.5L122.4,129.6z"/>
					</g>
				</g>
			</g>
		</g>
		<g>
			<g>
				<g>
					<g>
						<path class="st4" d="M105.6,179.6l3.4-47.2c0,0-25.9,2.4-34.4,20.6c-7.2,15.4-28.9,60.1-31,66.4c-6.3,18.6,5.3,45.7,45.5,44.2
							l4.6-25.2L105.6,179.6z"/>
					</g>
				</g>
			</g>
			<g>
				<g>
					<g>
						<g>
							<path class="st1" d="M84.9,218.9c0,0-0.2,0.7-0.6,1.9c-0.4,1.1-1.1,2.7-1.9,4.4c-0.7,1.6-1.4,3.1-1.9,4.3
								c-0.5,1.1-0.8,1.8-0.8,1.8c0,0,0.2-0.7,0.6-1.9c0.4-1.1,1.1-2.7,1.9-4.4c0.7-1.6,1.4-3.1,1.9-4.3
								C84.6,219.6,84.9,218.9,84.9,218.9z"/>
						</g>
					</g>
				</g>
			</g>
			<g>
				<g>
					<g>
						<g>
							<path class="st1" d="M99.2,181.8c-0.1,0-0.2-3-0.2-6.7c0-3.7,0.1-6.7,0.2-6.7c0.1,0,0.2,3,0.2,6.7
								C99.4,178.8,99.3,181.8,99.2,181.8z"/>
						</g>
					</g>
				</g>
			</g>
			<g>
				<g>
					<g>
						<g>
							<path class="st1" d="M95.4,161.7c0,0-0.1-0.3-0.2-0.7c-0.1-0.5-0.3-1.2-0.6-2c-0.6-1.7-1.5-4-2.9-6.3
								c-1.4-2.3-2.9-4.3-4.2-5.6c-0.6-0.7-1.1-1.2-1.5-1.5c-0.4-0.4-0.5-0.6-0.5-0.6c0,0,0.2,0.2,0.6,0.5c0.4,0.3,0.9,0.8,1.6,1.5
								c1.3,1.3,2.9,3.2,4.3,5.6c1.4,2.4,2.3,4.7,2.8,6.4c0.3,0.9,0.4,1.6,0.5,2.1C95.4,161.4,95.5,161.7,95.4,161.7z"/>
						</g>
					</g>
				</g>
			</g>
		</g>
		<g>
			<g>
				<g>
					<path class="st1" d="M186.7,158.8c0,0-0.1,0.5-0.1,1.5c-0.1,1-0.1,2.4,0,4.2c0,3.6,0.4,8.5,0.8,13.9c0.4,5.4,0.6,10.3,0.5,13.8
						c0,1.8-0.1,3.2-0.2,4.2c-0.1,1-0.1,1.5,0,1.5c0,0,0.1-0.5,0.3-1.5c0.2-1,0.3-2.4,0.4-4.2c0.2-3.6,0.1-8.5-0.4-13.9
						c-0.4-5.4-0.9-10.3-1-13.8c-0.1-1.8-0.1-3.2-0.2-4.2C186.7,159.3,186.7,158.8,186.7,158.8z"/>
				</g>
			</g>
		</g>
		<g>
			<g>
				<g>
					<path class="st1" d="M68.5,227.6c0,0,0.6,0.4,1.8,1c1.2,0.6,2.8,1.5,4.8,2.7c2,1.2,4.4,2.7,7.1,4.1c1.4,0.7,2.8,1.4,4.4,2.1
						c1.6,0.6,3.2,1.3,4.8,2c0.5,0.2,1,0.4,1.5,0.6l-0.2-0.4c-1.1,6.7-2,12.7-2.6,17c-0.3,2.1-0.5,3.8-0.7,5.1
						c-0.2,1.2-0.2,1.9-0.2,1.9c0,0,0.2-0.6,0.4-1.8c0.2-1.3,0.5-3,0.9-5.1c0.7-4.3,1.7-10.3,2.8-16.9l0-0.3l-0.2-0.1
						c-0.5-0.2-1-0.4-1.5-0.6c-1.6-0.7-3.2-1.3-4.8-2c-1.5-0.7-3-1.3-4.4-2c-2.7-1.4-5.1-2.8-7.2-4c-2-1.2-3.7-2-4.9-2.6
						c-0.6-0.3-1.1-0.5-1.4-0.6C68.6,227.6,68.5,227.5,68.5,227.6z"/>
				</g>
			</g>
		</g>
		<g>
			<g>
				<g>
					<path class="st1" d="M62.6,219.5c0,0.1,1.3,0.4,3.3,1.1c2,0.7,4.7,2.1,7.2,4.2c2.5,2.1,4.4,4.5,5.5,6.3c1.1,1.8,1.6,3.1,1.7,3
						c0,0,0-0.3-0.3-0.9c-0.2-0.6-0.6-1.4-1.1-2.4c-1-1.9-2.9-4.4-5.5-6.6c-2.6-2.1-5.4-3.5-7.5-4.1c-1-0.3-1.9-0.5-2.5-0.6
						C62.9,219.5,62.6,219.4,62.6,219.5z"/>
				</g>
			</g>
		</g>
	</g>
	<g>
		<g>
			<g>
				<g>
					<g>
						<g>
							<path class="st13" d="M104.4,265.8l-27-65.1c-1.2-3,0.3-5.4,3.5-5.4h5.4c2.2,0,3.7-1.2,3.9-3.1l0.2-2.4
								c0.1-1.9,1.7-3.1,3.9-3.1h25.8c2,0,4.3,1,6,2.6l2.1,2c1.7,1.6,4,2.6,6,2.6H167c3.1,0,6.7,2.4,7.8,5.4l26.8,66.5H104.4z"/>
						</g>
					</g>
				</g>
			</g>
			<g>
				<g>
					<g>
						<g>
							<path class="st14" d="M104.4,265.8l-27-65.1c-1.2-3,0.3-5.4,3.5-5.4h5.4c2.2,0,3.7-1.2,3.9-3.1l0.2-2.4
								c0.1-1.9,1.7-3.1,3.9-3.1h25.8c2,0,4.3,1,6,2.6l2.1,2c1.7,1.6,4,2.6,6,2.6H167c3.1,0,6.7,2.4,7.8,5.4l26.8,66.5H104.4z"/>
						</g>
					</g>
				</g>
			</g>
			<g>
				<g>
					<g>
						<path class="st6" d="M100,243.7l-10.2-39.4c-0.7-2.6,1-5.2,3.4-5.2H173c1.6,0,3,1.2,3.4,2.9l14.8,59.2
							c0.7,2.6-0.4,4.2-2.8,4.1l-80.3,0c-1.6,0-2.9-1.2-3.4-2.9L100,243.7z"/>
					</g>
				</g>
			</g>
			<g>
				<g>
					<g>
						<g>
							<path class="st15" d="M105.5,264l-4.3-62c-0.2-2.2,1.6-4.1,3.8-4.1h82.7V264H105.5z"/>
						</g>
					</g>
				</g>
				<g>
					<g>
						<g>
							<g>
								<g>
									<g>
										<path class="st11" d="M104.6,265.4l9.8-63.9c0.5-2.1,2.3-3.6,4.5-3.6h83.6c3.3,0,5.5,3.3,4.2,6.3l-18.1,58.5L104.6,265.4z
											"/>
									</g>
								</g>
							</g>
						</g>
					</g>
				</g>
			</g>
			<g>
				<g>
					<g>
						<g>
							<g>
								<g>
									<g>
										<path class="st14" d="M104.4,265.7l20.3-59.8c0.8-2.5,3.1-4.2,5.6-4.2h86.2c2.8,0,4.7,2.8,3.9,5.6l-18.9,58.4L104.4,265.7
											z"/>
									</g>
								</g>
							</g>
						</g>
					</g>
				</g>
			</g>
		</g>
		<g class="st12">
			<g>
				<g>
					<g>
						<path class="st10" d="M146.1,255.7c0,0-3.3,0.1-4.8,0.3c-7.1,0.5-14.4-0.8-21-3.7c-2-0.9-4.2-2.2-4.8-4.3
							c-0.7-2.4,0.9-4.9,2.7-6.5c1.9-1.6,4.2-2.8,5.8-4.6c1.6-1.9,2.4-4.9,0.8-6.8l-0.4,0.3c-1.2,3-4.4,4.4-7.1,6.1
							c-5,3.1-8.8,8.1-10.5,13.8c-0.9,3.1-1.2,6.7,0.7,9.4c1.3,1.9,3.5,2.9,5.7,3.7c6.5,2.4,13.5,2.5,20.5,2.5
							c2.2,0,8.9-0.1,8.9-0.1c2.1-0.6,2.8-1.7,4.1-3.5C147.9,260.6,147.7,257,146.1,255.7z"/>
					</g>
				</g>
			</g>
		</g>
		<g>
			<g>
				<g>
					<g>
						<g>
							<path class="st2" d="M146.1,255.7l-22.5-3.4l-8.7-5c-1.2-0.7-1.9-1.8-2-3.2c0,0,0,0,0-0.1c-0.1-1.7,0.9-3.2,2.5-3.8
								c2.8-1.2,7.2-2.7,9-6c2.7-4.7,0-5.7,0-5.7l-18.8,7.5l-13.3,9l-2.7,15.1l18.5,6.1c0,0,20.7,1.2,26.4,0.5
								c5.7-0.6,5.7-3.3,5.7-3.3c1.1-0.3,3.2-2.2,3.2-4C146.3,257,146.1,255.7,146.1,255.7"/>
						</g>
					</g>
				</g>
			</g>
			<g>
				<g>
					<g>
						<g>
							<g>
								<path class="st3" d="M117.4,262.2c0,0,0.3,0,0.9,0.2c0.6,0.1,1.4,0.3,2.5,0.5c2.1,0.4,5.1,0.9,8.4,1
									c3.3,0.1,6.3-0.1,8.4-0.3c1.1-0.1,1.9-0.2,2.5-0.3c0.6-0.1,0.9-0.1,0.9-0.1c0,0-0.3,0.1-0.9,0.3c-0.6,0.1-1.5,0.3-2.5,0.5
									c-2.1,0.3-5.2,0.6-8.5,0.5c-3.3-0.1-6.3-0.6-8.4-1.1c-1.1-0.2-1.9-0.5-2.5-0.7C117.7,262.4,117.4,262.2,117.4,262.2z"/>
							</g>
						</g>
					</g>
				</g>
			</g>
			<g>
				<g>
					<g>
						<g>
							<g>
								<path class="st3" d="M119.4,258.7c0,0,0.3,0,0.9,0.2c0.6,0.1,1.5,0.3,2.5,0.5c2.2,0.4,5.2,0.8,8.5,0.9
									c3.3,0.1,6.4-0.1,8.5-0.4c1.1-0.1,2-0.3,2.6-0.4c0.6-0.1,0.9-0.1,1-0.1c0,0-0.3,0.1-0.9,0.3c-0.6,0.1-1.5,0.3-2.6,0.5
									c-2.2,0.3-5.2,0.6-8.6,0.5c-3.4-0.1-6.4-0.6-8.5-1.1c-1.1-0.2-1.9-0.5-2.5-0.7C119.7,258.9,119.4,258.8,119.4,258.7z"/>
							</g>
						</g>
					</g>
				</g>
			</g>
		</g>
	</g>
</g>
<g id="Ebene_2">
</g>
</svg>
