<?xml version="1.0" encoding="utf-8"?>
<!-- Generator: Adobe Illustrator 26.1.0, SVG Export Plug-In . SVG Version: 6.00 Build 0)  -->
<svg version="1.1" xmlns="http://www.w3.org/2000/svg" xmlns:xlink="http://www.w3.org/1999/xlink" x="0px" y="0px"
	 viewBox="0 0 322.7 297.6" style="enable-background:new 0 0 322.7 297.6;" xml:space="preserve">
<style type="text/css">
	.st0{fill:#834F45;}
	.st1{fill:#263239;}
	.st2{fill:#F8BC9E;}
	.st3{fill:#EC9A6E;}
	.st4{fill:#455A64;}
	.st5{fill:#F5F4F5;}
	.st6{fill:#E0E0E0;}
	.st7{fill:none;stroke:#444C52;stroke-miterlimit:10;}
	.st8{fill:#E9505B;}
	.st9{opacity:0.4;}
	.st10{fill:#010202;}
	.st11{fill:#FBFBFB;}
	.st12{opacity:0.3;}
	.st13{fill:#EE7160;}
	.st14{fill:#8E3039;}
	.st15{fill:#EBEBEB;}
	.st16{fill:#C27461;}
	.st17{fill:#7E4436;}
	.st18{opacity:0.3;fill:#8E3039;}
	.st19{opacity:0.3;fill:#010202;}
	.st20{fill:#5B342F;}
	.st21{fill:#A56A5F;}
	.st22{fill:#83544C;}
	.st23{fill:#FFFFFF;}
</style>
<g id="Ebene_1">
	<g>
		<g>
			<g>
				<g>
					<path class="st6" d="M130.6,7.9c1.4-3,4.7-4.8,8-4.4c3.6-3.2,9.5-3.3,13.2-0.4c2.7-1.8,6.5-2.1,9.4-0.6c3,1.4,5.1,4.5,5.4,7.7
						c3.3-0.7,6.9,0.9,8.6,3.8c1.7,2.9,1.3,6.8-0.9,9.3c3.6,1,6.2,5,5.6,8.7c-0.6,3.7-4.3,6.7-8.1,6.4l-39.3-21.6
						C130,14.6,129.2,10.8,130.6,7.9z"/>
				</g>
			</g>
			<g>
				<g>
					<g>
						<g>
							<g>
								<g>
									<path class="st2" d="M172.9,39.4c-2.2-16.9-17-29.2-34-28.3l-1.7,0.1c-18.1,2-26.6,18.5-24.1,36.5l5.6,60.4l0.3,2.9
										l42.4,6.3l-0.8-15.4c0,0,17.4-3.6,16.7-21.1C177.1,72.4,175,55.1,172.9,39.4z"/>
								</g>
							</g>
						</g>
					</g>
					<g>
						<g>
							<g>
								<g>
									<g>
										<g>
											<path class="st3" d="M160.8,101.9c0,0-11.1,1.2-23.2-5.6c0,0,6,12.3,23.4,9.9L160.8,101.9z"/>
										</g>
									</g>
								</g>
							</g>
						</g>
					</g>
					<g>
						<g>
							<g>
								<g>
									<g>
										<g>
											<g>
												<g>
													<g>
														<path class="st1" d="M169.1,56.4c0.1,1.3-0.9,2.5-2.3,2.6c-1.4,0.1-2.6-0.8-2.7-2.1c-0.1-1.3,0.9-2.5,2.3-2.6
															C167.8,54.1,169,55.1,169.1,56.4z"/>
													</g>
												</g>
											</g>
										</g>
									</g>
								</g>
							</g>
						</g>
					</g>
					<g>
						<g>
							<g>
								<g>
									<g>
										<g>
											<g>
												<g>
													<g>
														<g>
															<path class="st1" d="M169.6,48.1c-0.3,0.3-2.3-1-4.9-0.8c-2.7,0.1-4.6,1.6-4.9,1.3c-0.2-0.1,0.1-0.7,1-1.4
																c0.8-0.7,2.2-1.3,3.9-1.4c1.7-0.1,3.1,0.5,4,1.1C169.4,47.4,169.8,48,169.6,48.1z"/>
														</g>
													</g>
												</g>
											</g>
										</g>
									</g>
								</g>
							</g>
						</g>
					</g>
					<g>
						<g>
							<g>
								<g>
									<g>
										<g>
											<g>
												<g>
													<g>
														<path class="st1" d="M145.4,58c0.1,1.3-0.9,2.5-2.3,2.6c-1.4,0.1-2.6-0.8-2.7-2.1c-0.1-1.3,0.9-2.5,2.3-2.6
															C144.1,55.7,145.3,56.7,145.4,58z"/>
													</g>
												</g>
											</g>
										</g>
									</g>
								</g>
							</g>
						</g>
					</g>
					<g>
						<g>
							<g>
								<g>
									<g>
										<g>
											<g>
												<g>
													<g>
														<g>
															<path class="st1" d="M143.2,49.9c-0.3,0.3-2.3-1-4.9-0.8c-2.7,0.1-4.6,1.6-4.9,1.3c-0.2-0.1,0.1-0.7,1-1.4
																c0.8-0.7,2.2-1.3,3.9-1.4c1.7-0.1,3.1,0.5,4,1.1C143.1,49.2,143.4,49.8,143.2,49.9z"/>
														</g>
													</g>
												</g>
											</g>
										</g>
									</g>
								</g>
							</g>
						</g>
					</g>
					<g>
						<g>
							<g>
								<g>
									<g>
										<g>
											<g>
												<g>
													<g>
														<path class="st1" d="M154,69.4c0-0.2,1.6-0.5,4.3-1c0.7-0.1,1.3-0.3,1.4-0.7c0.1-0.5-0.2-1.2-0.6-2
															c-0.7-1.6-1.5-3.3-2.3-5.1c-3.2-7.3-5.5-13.3-5.2-13.4c0.3-0.1,3.1,5.7,6.3,13c0.8,1.8,1.5,3.5,2.2,5.2
															c0.3,0.8,0.8,1.6,0.5,2.7c-0.2,0.5-0.6,0.9-1.1,1.1c-0.4,0.2-0.8,0.2-1.2,0.2C155.7,69.4,154,69.5,154,69.4z"/>
													</g>
												</g>
											</g>
										</g>
									</g>
								</g>
							</g>
						</g>
					</g>
					<g>
						<g>
							<g>
								<g>
									<g>
										<g>
											<g>
												<g>
													<g>
														<path class="st1" d="M146.2,71.6c0.4,0,0.6,2.9,3.2,4.8c2.6,2,5.7,1.5,5.7,1.9c0,0.2-0.7,0.6-2,0.7
															c-1.3,0.1-3.2-0.2-4.8-1.4c-1.6-1.2-2.3-2.9-2.5-4C145.7,72.4,146,71.6,146.2,71.6z"/>
													</g>
												</g>
											</g>
										</g>
									</g>
								</g>
							</g>
						</g>
					</g>
					<g>
						<g>
							<g>
								<g>
									<g>
										<path class="st6" d="M143.4,39.4c-0.2,0.7-2.9,0.5-6.1,1.1c-3.1,0.5-5.6,1.5-6.1,0.9c-0.2-0.3,0.2-1,1.2-1.8
											c1-0.8,2.6-1.5,4.5-1.8c1.9-0.3,3.6-0.1,4.8,0.3C142.9,38.5,143.5,39,143.4,39.4z"/>
									</g>
								</g>
							</g>
						</g>
					</g>
					<g>
						<g>
							<g>
								<g>
									<g>
										<path class="st6" d="M168.2,40.4c-0.4,0.6-2.3,0.1-4.6,0.2c-2.2,0-4.1,0.6-4.6,0c-0.2-0.3,0.1-0.9,0.9-1.5
											c0.8-0.6,2.1-1.2,3.6-1.2c1.5,0,2.9,0.5,3.7,1C168.1,39.5,168.4,40.1,168.2,40.4z"/>
									</g>
								</g>
							</g>
						</g>
					</g>
					<g>
						<g>
							<g>
								<g>
									<path class="st6" d="M170.9,31.5c0,0-5.2-10.7-10.6-13c-6.5-2.8-8.9,4.4-15.1,3c-6.2-1.4-12.4-4.1-18.4,1
										c-6.6,5.5-3.2,8.9-3.2,16.7c-0.1,31.5-5.4,40.7-7.8,26c-0.3-1.6-4.8-2.7-5.8-9.5c-1.3-8.8-2.2-19.6-0.5-26
										c1.4-5.4,4.3-9.2,9.5-13.5c8.3-6.8,20-7.5,28.1-7.1C155,9.3,170.9,17.7,170.9,31.5z"/>
								</g>
							</g>
						</g>
					</g>
					<g>
						<g>
							<g>
								<g>
									<path class="st2" d="M116.8,64.5c-0.2-2.7-2.7-4.7-5.4-4.3c-3.2,0.5-6.8,2.5-6.2,9.2c1,11.9,12.8,8.5,12.7,8.1
										C118,77.4,117.3,69.5,116.8,64.5z"/>
								</g>
							</g>
						</g>
					</g>
					<g>
						<g>
							<g>
								<g>
									<path class="st3" d="M115,73.3c-0.1,0-0.2,0.2-0.5,0.4c-0.3,0.2-0.9,0.3-1.6,0.2c-1.3-0.4-2.5-2.3-2.8-4.4
										c-0.1-1.1,0-2.1,0.3-3c0.3-0.9,0.8-1.6,1.4-1.7c0.6-0.2,1.1,0.1,1.3,0.5c0.2,0.3,0.1,0.6,0.2,0.6c0,0,0.2-0.2,0.1-0.7
										c-0.1-0.2-0.2-0.5-0.5-0.7c-0.3-0.2-0.7-0.3-1.2-0.2c-0.9,0.1-1.7,1.1-2,2c-0.4,1-0.6,2.2-0.4,3.4c0.3,2.4,1.7,4.5,3.5,4.9
										c0.9,0.2,1.5-0.2,1.9-0.5C115,73.6,115.1,73.3,115,73.3z"/>
								</g>
							</g>
						</g>
					</g>
				</g>
				<g>
					<g>
						<g>
							<path class="st6" d="M115.9,41.4c1.6,1,3.3,2,5.2,2.1c1.9,0.1,4-1.1,4.2-3c0.1-0.8-0.2-1.8,0.4-2.5c0.6-0.8,1.8-0.6,2.8-0.6
								c3.5,0.2,6.9-2.4,7.6-5.9c1,1.3,3,1.1,4.3,0.2c1.3-0.9,2.1-2.4,3.1-3.6c1-1.3,2.4-2.4,4-2.3c0.9,0.1,1.7,0.6,2.6,0.4
								c1.6-0.2,2.2-2.1,2.4-3.7c0.2-1.6,0.3-3.4,1.5-4.3c1.2-0.8,2.8-0.5,4.3-0.3c1.5,0.1,3.3-0.3,3.6-1.7c0.2-0.8-0.2-1.5-0.6-2.1
								c-2-2.8-6.1-3.9-9.3-2.5c-1.4-3.9-5.2-6.8-9.3-7c-4.1-0.2-8.3,2.2-10,5.9c-2.6-2.2-6.4-2.9-9.6-2c-3.3,0.9-6.1,3.5-7.2,6.7
								c-2.9-0.6-6.2,0.7-7.9,3.1c-1.7,2.5-1.8,6-0.2,8.5c-2.1,1.3-3.8,3.6-3.7,6c0.1,2.5,2.6,4.8,5,4.1c-0.9,2,0,4.5,2,5.5
								c1.9,1,4.5,0.2,5.6-1.6"/>
						</g>
					</g>
				</g>
			</g>
			<g>
				<g>
					<g>
						<path class="st23" d="M108,37.1c0,0-0.2,1,0.9,2.3c0.5,0.6,1.4,1.2,2.5,1.3c1.1,0.1,2.4-0.2,3.4-1.2l-0.5-0.1
							c0.6,1,1.5,2,2.5,2.9c0.7,0.5,1.4,1,2.2,1.2c0.8,0.3,1.7,0.3,2.4,0.1c1.5-0.2,2.8-1.1,3.4-2.1c0.6-1,0.7-1.9,0.8-2.5
							c0.1-0.6,0.1-1,0-1c-0.1,0-0.1,0.3-0.3,0.9c-0.2,0.6-0.4,1.5-1,2.3c-1,1.8-4.7,2.8-7.2,0.5c-1-0.8-1.8-1.7-2.4-2.7l-0.2-0.3
							l-0.3,0.3c-0.8,0.8-1.9,1.1-2.8,1.1c-1-0.1-1.7-0.5-2.2-1C108.2,38.1,108.1,37.1,108,37.1z"/>
					</g>
				</g>
			</g>
			<g>
				<g>
					<g>
						<path class="st23" d="M129.3,8.7c0,0,0.3,0.1,0.9,0.3c0.5,0.2,1.3,0.6,1.9,1.5l0.2,0.2l0.2-0.2c1-1.6,2.8-3.6,5.5-5
							c1.4-0.7,2.9-1.2,4.7-1.3c1.7-0.1,3.5,0.3,5.1,1.2c1.3,0.7,2.3,1.6,3.2,2.7c0.8,1.1,1.3,2.3,1.5,3.5l0.1,0.4l0.4-0.1
							c1.8-0.6,3.6-0.3,5,0.4c1.4,0.7,2.3,1.8,2.9,2.8c1.1,2.1,0.8,3.5,0.9,3.5c0,0,0.1-0.3,0.1-1c0-0.6-0.1-1.6-0.7-2.7
							c-0.5-1.1-1.5-2.3-3-3.1c-1.5-0.8-3.5-1.1-5.4-0.5l0.4,0.3c-0.2-1.3-0.7-2.7-1.6-3.9c-0.9-1.2-2-2.2-3.4-2.9
							c-1.7-0.9-3.7-1.4-5.5-1.3c-1.8,0.1-3.5,0.7-4.9,1.4c-2.8,1.5-4.6,3.7-5.6,5.3l0.3,0c-0.7-0.9-1.6-1.3-2.2-1.5
							C129.6,8.6,129.3,8.7,129.3,8.7z"/>
					</g>
				</g>
			</g>
			<g>
				<g>
					<g>
						<path class="st3" d="M142.1,73.6c0.2,0,0.2-1.3,1.2-2.4c0.9-1.1,2.2-1.3,2.2-1.5c0-0.1-0.3-0.2-0.9,0
							c-0.5,0.1-1.2,0.5-1.8,1.1c-0.5,0.6-0.8,1.4-0.8,1.9C141.9,73.3,142,73.6,142.1,73.6z"/>
					</g>
				</g>
			</g>
			<g>
				<g>
					<g>
						<path class="st3" d="M140.9,70.3c0.2,0.1,0.6-0.3,1.2-0.7c0.6-0.3,1.2-0.4,1.2-0.6c0-0.2-0.7-0.4-1.5,0
							C141,69.5,140.7,70.3,140.9,70.3z"/>
					</g>
				</g>
			</g>
			<g>
				<g>
					<g>
						<path class="st3" d="M128,99c0-0.1-0.2-0.1-0.3-0.3c-0.2-0.2-0.3-0.6-0.1-1.1c0.2-0.5,0.7-0.9,1-1.7c0.2-0.4,0.2-1-0.1-1.4
							c-0.3-0.4-0.6-0.7-0.8-1c-1-1.1,1.7-2.1,1.3-3.6c-0.1-0.6-0.4-1-0.7-1.2c-0.3-0.2-0.5-0.2-0.5-0.2c-0.1,0.1,0.7,0.4,0.7,1.5
							c0,0.5-0.3,0.9-0.8,1.4c-0.3,0.3-0.6,0.6-0.8,1c-0.2,0.4-0.1,1.1,0.2,1.5c0.3,0.4,0.6,0.6,0.8,0.9c0.2,0.3,0.2,0.5,0.1,0.8
							c-0.2,0.6-0.7,1.1-0.9,1.7c-0.2,0.6,0.1,1.2,0.4,1.4C127.8,99.1,128,99,128,99z"/>
					</g>
				</g>
			</g>
			<g>
				<g>
					<g>
						<path class="st3" d="M124.3,98.6c0.1,0,0-0.2,0.1-0.4c0.1-0.3,0.3-0.6,0.6-1c0.2-0.2,0.3-0.5,0.5-0.8c0.1-0.3,0.2-0.8,0.1-1.2
							c-0.2-0.9-1-1.4-1.3-2c-0.4-0.6-0.1-1.1,0.4-1.7c0.2-0.3,0.5-0.6,0.6-0.9c0.1-0.3,0.2-0.7,0.1-1c-0.2-1.2-1-1.6-1-1.5
							c-0.1,0.1,0.5,0.5,0.5,1.5c0,0.5-0.2,0.9-0.7,1.4c-0.2,0.3-0.5,0.6-0.7,1c-0.2,0.5-0.1,1,0.2,1.4c0.5,0.8,1.1,1.2,1.3,1.8
							c0.2,0.5-0.2,1.1-0.4,1.5c-0.3,0.5-0.5,0.9-0.5,1.2C124.2,98.5,124.3,98.6,124.3,98.6z"/>
					</g>
				</g>
			</g>
		</g>
		<g>
			<g>
				<g>
					<path class="st6" d="M94.9,195.1L79,210.4l5.1-29.2L51.9,171c0,0-8.6,40.1-10,49.6c-2.7,17,0.6,41.2,16.5,43
						c17.2,1.8,30.1-15.1,38.4-26.2c6.3-8.5,16.6-23.5,16.6-23.5L94.9,195.1"/>
				</g>
			</g>
		</g>
		<g>
			<g>
				<g>
					<path class="st6" d="M217.6,169.1c5.2,16.3,12.4,18.7,15.2,65.3c0.6,9.1-1.4,21.2-10,24.1c-9.6,3.3-24.2-2.7-28.8-10.5V216
						L217.6,169.1z"/>
				</g>
			</g>
		</g>
		<g>
			<g>
				<g>
					<g>
						<path class="st1" d="M196.2,237.2c0.2,0.1,1.1-3.3,3.2-6.8c2.1-3.6,4.5-6,4.4-6.2c0-0.1-0.7,0.5-1.7,1.5
							c-0.9,1-2.1,2.5-3.2,4.4c-1.1,1.8-1.8,3.6-2.2,4.9C196.3,236.3,196.2,237.2,196.2,237.2z"/>
					</g>
				</g>
			</g>
		</g>
		<g>
			<g>
				<g>
					<path class="st6" d="M225.4,187.9c-0.3-1-16.2-44.2-21.2-53.7c-6.1-11.3-18.8-16.3-26.7-16.8c-7.9-0.5-92.6,6.3-92.6,6.3
						s-23.7,6-28.5,27.4c-6,26.9-10.9,53.5-10.9,53.5l42.5,9.2l5-12.6l79.8,17.8l19.5-28.8L225.4,187.9z"/>
				</g>
			</g>
		</g>
		<g>
			<g>
				<g>
					<g>
						<polygon class="st6" points="79.2,126.1 112.2,111.5 116,97.2 154.6,115.5 162.7,106.6 166.1,116.6 174.5,119.4 191.2,152.2 
							194.2,228.3 194,248.1 79.8,248.9 80.7,216.5 						"/>
					</g>
				</g>
			</g>
			<g>
				<g>
					<g>
						<g>
							<path class="st6" d="M116,97.2c0,0,4.3,1.2,15.4,7.2c10.9,5.8,23.2,11.1,23.2,11.1l-0.9,17.4l-41.1-20.6"/>
						</g>
					</g>
				</g>
			</g>
			<g>
				<g>
					<g>
						<g>
							<polyline class="st6" points="162.7,106.6 154.6,115.5 158.9,134.2 166.1,117.3 							"/>
						</g>
					</g>
				</g>
			</g>
			<g class="st12">
				<g>
					<g>
						<path class="st10" d="M154.7,117.4c0.4,0.3,2.6,21.6,2.6,21.6l-41.2-24.9l37.5,18.8L154.7,117.4z"/>
					</g>
				</g>
			</g>
		</g>
		<g>
			<g>
				<g>
					<path class="st14" d="M154.4,248.4c0,0,0.8-31.6,0.1-51.4c-0.6-16.3,1.9-57.9,1.9-57.9l5.4-0.9c0,0,10,40.4,13.8,89.9
						c1.5,20,1.5,20,1.5,20"/>
				</g>
			</g>
		</g>
		<g>
			<g>
				<g>
					<g>
						<path class="st1" d="M88.9,164.5c0,0-0.2,0.6-0.4,1.7c-0.2,1.2-0.5,2.7-0.8,4.6c-0.7,4-1.6,9.4-2.6,15.3
							c-1,6-1.9,11.4-2.5,15.3c-0.3,2-0.5,3.6-0.7,4.7c-0.1,1.1-0.2,1.7-0.2,1.7c0,0,0.2-0.6,0.4-1.7c0.2-1.2,0.5-2.7,0.8-4.6
							c0.7-4,1.6-9.4,2.7-15.3c1-6,1.9-11.4,2.5-15.3c0.3-1.9,0.5-3.5,0.7-4.7C88.9,165.1,89,164.5,88.9,164.5z"/>
					</g>
				</g>
			</g>
		</g>
		<g>
			<g>
				<g>
					<g>
						<path class="st1" d="M76.7,128.6c-0.1,0.1,1.1,1,2.8,2.7c1.7,1.7,3.8,4.3,5.5,7.5c1.7,3.2,2.7,6.4,3.2,8.7
							c0.5,2.3,0.6,3.8,0.7,3.8c0,0,0-0.4,0-1.1c0-0.7-0.1-1.7-0.3-2.8c-0.4-2.4-1.4-5.6-3.1-8.9c-1.8-3.3-4-5.9-5.7-7.5
							c-0.9-0.8-1.6-1.5-2.2-1.9C77,128.8,76.7,128.6,76.7,128.6z"/>
					</g>
				</g>
			</g>
		</g>
		<g>
			<g>
				<g>
					<polygon class="st14" points="154.5,123.8 158.1,122.4 161.6,128.4 162.2,138.2 157.3,139 153.6,132.9 					"/>
				</g>
			</g>
		</g>
		<g>
			<g>
				<g>
					<g>
						<path class="st1" d="M194.2,153.1c-0.2,0-0.3,21.3-0.3,47.5c0,26.2,0.1,47.5,0.3,47.5s0.3-21.3,0.3-47.5
							C194.5,174.3,194.4,153.1,194.2,153.1z"/>
					</g>
				</g>
			</g>
		</g>
		<g>
			<g>
				<g>
					<g>
						<path class="st1" d="M154.2,115.3c-0.1,0,0.8,1.4,2.1,3.6c1.3,2.2,3,5.2,4.7,8.8c0.1,0.3,0.3,0.6,0.4,0.8l0.3,0.6l0.3-0.5
							c1.6-3.3,2.7-6.4,3.4-8.7c0.4-1.1,0.6-2.1,0.8-2.7c0.2-0.6,0.2-1,0.2-1c-0.1,0-0.5,1.4-1.3,3.6c-0.8,2.2-2,5.3-3.6,8.6l0.5,0
							c-0.1-0.3-0.3-0.6-0.4-0.8c-1.7-3.5-3.5-6.6-4.9-8.7c-0.7-1.1-1.3-1.9-1.7-2.5C154.5,115.6,154.2,115.3,154.2,115.3z"/>
					</g>
				</g>
			</g>
		</g>
		<g>
			<g>
				<g>
					<g>
						<path class="st1" d="M112.2,111.5c0,0,0.2,0.1,0.6,0.3c0.4,0.2,1,0.5,1.7,0.9c1.5,0.8,3.6,1.9,6.1,3.2
							c5.2,2.7,12.3,6.5,20.1,10.7c4.8,2.6,9.3,4.9,13.3,6.9l0.4,0.2l0-0.4c0.1-5.1,0.1-9.4,0.1-12.5c0-1.5,0-2.6,0-3.5
							c0-0.8,0-1.3-0.1-1.3c0,0-0.1,0.4-0.1,1.3c0,0.9-0.1,2.1-0.1,3.5c-0.1,3.1-0.2,7.4-0.3,12.5l0.4-0.2c-3.9-2-8.4-4.4-13.2-6.9
							c-7.9-4.2-15-8-20.2-10.6c-2.6-1.3-4.7-2.3-6.2-3c-0.7-0.3-1.3-0.6-1.7-0.8C112.5,111.6,112.3,111.5,112.2,111.5z"/>
					</g>
				</g>
			</g>
		</g>
		<g>
			<g>
				<g>
					<g>
						<path class="st1" d="M189.3,124.9c-0.1,0.1,0.6,1.1,1.4,3c0.8,1.9,1.8,4.5,2.4,7.6c0.6,3.1,0.6,5.9,0.5,7.9
							c-0.1,2-0.3,3.3-0.2,3.3c0,0,0.1-0.3,0.3-0.9c0.1-0.6,0.3-1.4,0.4-2.4c0.2-2.1,0.2-4.9-0.3-8.1c-0.6-3.1-1.6-5.8-2.6-7.7
							c-0.5-0.9-0.9-1.6-1.2-2.1C189.5,125.2,189.3,124.9,189.3,124.9z"/>
					</g>
				</g>
			</g>
		</g>
		<g>
			<g>
				<g>
					<g>
						<path class="st1" d="M158.2,139.6c0.1,0.1,1-0.3,2.1-1c1.1-0.7,1.9-1.3,1.8-1.5c-0.1-0.1-1,0.3-2.1,1
							C158.9,138.9,158.1,139.5,158.2,139.6z"/>
					</g>
				</g>
			</g>
		</g>
		<g>
			<g>
				<g>
					<g>
						<path class="st1" d="M156.5,137.2c0.1,0.1,1.3-2.2,2.5-5c1.2-2.8,2.1-5.1,2-5.2c-0.1-0.1-1.3,2.2-2.5,5
							C157.2,134.8,156.3,137.2,156.5,137.2z"/>
					</g>
				</g>
			</g>
		</g>
		<g class="st12">
			<g>
				<g>
					<g>
						<path class="st10" d="M133.2,224.3c0.2-0.9,0.5-1.9,1.3-2.4c1.4-0.9,3.1,0.3,4.5,1.1c3.7,2.2,8.2,2.1,12.5,1.9
							c12.9-0.6,25.8-1.5,38.6-3.7c6.2-1,12.5-2.4,18.1-5.4c5.6-3,10.4-7.8,12.2-13.9l3-1.6c-2.3,4.9-2.1,18.9-2.9,24.3
							c-0.8,5.4-3.2,9.2-8.4,10.9c-2.1,0.7-4.3,0.6-6.5,0.5c-21.2-1.1-42.7-0.1-63.9-1.1c-3-0.2-6.5-0.6-8.2-3.1
							C132.1,229.6,132.6,226.7,133.2,224.3z"/>
					</g>
				</g>
			</g>
		</g>
		<g>
			<g>
				<g>
					<g>
						<path class="st1" d="M53.4,236.4c0,0,0.1-0.1,0.1-0.2c0.1-0.2,0.2-0.4,0.4-0.7c0.2-0.3,0.4-0.7,0.6-1.2c0.3-0.5,0.7-1,1-1.6
							c1.6-2.3,4.4-5.4,8.2-9c3.8-3.5,8.7-7.5,14.2-12.1c2.7-2.3,5.6-4.7,8.5-7.4c2.9-2.7,5.9-5.5,8.6-8.9l-0.4,0
							c5.2,5.4,10.8,11.2,16.5,17.3c0.8,0.8,1.5,1.6,2.2,2.3l0-0.4c-6.3,9.1-11.9,18-17.9,25.4c-3,3.7-6,7.1-9,10.1
							c-3,3-5.9,5.7-8.7,7.8c-5.7,4.3-11.5,6.2-15.5,6.1c-0.5,0-1,0-1.4,0c-0.4,0-0.8-0.1-1.2-0.1c-0.4,0-0.7-0.1-1.1-0.1
							c-0.3-0.1-0.6-0.1-0.9-0.2c-0.5-0.1-0.9-0.2-1.2-0.3c-0.3-0.1-0.4-0.1-0.4-0.1c0,0,0.1,0.1,0.4,0.1c0.3,0.1,0.7,0.2,1.2,0.3
							c0.3,0.1,0.5,0.1,0.9,0.2c0.3,0,0.7,0.1,1.1,0.1c0.4,0,0.8,0.1,1.2,0.2c0.4,0,0.9,0,1.4,0c4,0.2,9.9-1.7,15.7-6
							c2.9-2.1,5.9-4.8,8.8-7.8c3-3,6.1-6.3,9.1-10.1c6-7.4,11.7-16.3,18-25.4l0.1-0.2l-0.2-0.2c-0.7-0.7-1.5-1.5-2.2-2.3
							c-5.8-6.1-11.4-11.9-16.6-17.3l-0.2-0.2l-0.2,0.2c-2.6,3.3-5.6,6.2-8.5,8.9c-2.9,2.7-5.8,5.1-8.5,7.4
							c-5.5,4.6-10.3,8.6-14.1,12.2c-3.8,3.6-6.6,6.7-8.2,9.1c-0.4,0.6-0.7,1.1-1,1.6c-0.2,0.5-0.4,0.9-0.6,1.3
							c-0.1,0.3-0.3,0.6-0.3,0.8C53.4,236.3,53.4,236.4,53.4,236.4z"/>
					</g>
				</g>
			</g>
		</g>
		<g>
			<g>
				<g>
					<g>
						<g>
							<g>
								<g>
									<g>
										<g>
											<path class="st2" d="M97.4,197.7l26.1-28.5l15.7-3l17.8,2.3c0,0,0.8,2.8-2.3,4.3l6.6,0.4c0,0,1.3,3.4-2.4,4.9l4.7,0.8
												c0,0-2.1,4.8-7.3,3.9c-5.3-0.9-13.9-0.9-13.9-0.9l-9.2,5.1l13.7-0.6l9.9,1.9c0,0,1.3,2.5-0.9,3.1c-2.3,0.6-10.9,0-10.9,0
												l-12.4,3.9c0,0-4.9,6.9-6.5,8.8c-1.7,1.9-9.8,5.4-9.8,5.4l-4,3.6L97.4,197.7z"/>
										</g>
									</g>
								</g>
							</g>
						</g>
					</g>
					<g>
						<g>
							<g>
								<g>
									<g>
										<g>
											<g>
												<path class="st3" d="M161.3,173.1c0,0.1-2,0.1-5.1-0.2c-3.1-0.2-7.5-0.7-12.2-1.2c-1.6-0.2-3.1-0.4-4.6-0.5l0.2,0
													c-3.6,1-6.6,1.8-8.8,2.4c-2.2,0.6-3.5,0.8-3.6,0.7c0-0.1,1.2-0.6,3.4-1.3c2.2-0.7,5.2-1.7,8.7-2.7l0.1,0l0.1,0
													c1.5,0.2,3,0.3,4.6,0.5c4.8,0.5,9.1,1,12.2,1.5C159.4,172.6,161.3,173,161.3,173.1z"/>
											</g>
										</g>
									</g>
								</g>
							</g>
						</g>
					</g>
					<g>
						<g>
							<g>
								<g>
									<g>
										<g>
											<g>
												<path class="st3" d="M162.4,178.6c0,0.1-1.8,0-4.6-0.3c-2.8-0.3-6.7-0.8-11.1-1.5c-1.5-0.2-2.9-0.4-4.3-0.6l0.3,0
													c-6.2,2.4-10.7,4-10.8,3.8c-0.1-0.2,4.3-2.2,10.4-4.7l0.1,0l0.1,0c1.4,0.2,2.8,0.4,4.3,0.6c4.3,0.6,8.2,1.3,11,1.8
													C160.7,178.1,162.5,178.5,162.4,178.6z"/>
											</g>
										</g>
									</g>
								</g>
							</g>
						</g>
					</g>
				</g>
			</g>
			<g>
				<g>
					<g>
						<g>
							<path class="st1" d="M228.9,174.2l-13.2,50c-0.7,2.8-3.3,4.7-6.1,4.6l-68.6-1.3c-3.9-0.1-6.8-3.7-6-7.5l10.1-47.9
								c0.6-2.9,3.1-4.9,6.1-4.9h72.3C227.2,167.1,229.9,170.6,228.9,174.2z"/>
						</g>
					</g>
				</g>
				<g>
					<g>
						<path class="st23" d="M184.1,187.3c-1.9,0.9-2.7,3-1.9,4.6c0.8,1.7,3,2.3,4.8,1.3c1.9-0.9,2.7-3,1.9-4.6
							C188.1,187,186,186.4,184.1,187.3z"/>
					</g>
				</g>
				<g>
					<g>
						<g>
							<path class="st2" d="M233.9,185.1c1.3-1.5,1.2-3.9,0-5.5c-1.2-1.6-3.2-2.4-5.2-2.5c-2-0.1-3.9,0.5-5.8,1.2
								c-2.3,0.9-4.5,2-6.6,3.3c-1.5,0.9-3,2.1-3.3,3.8c-0.3,1.7,1.6,3.7,3.1,2.8c-2,0.8-3.9,2.9-4.3,5.1c-0.3,2.2,0.8,3.3,2.9,4
								c-1.6,0.6-2.6,2.6-1.9,4.2c0.8,1.6,3,2.1,4.7,1.4c1.7-0.6,2.9-2.1,4.1-3.4c-1.2,2.1-1.6,4.5-1.2,6.9
								c4.6-1.6,8.2-5.9,8.8-10.8c2.3-1.7,3-5.1,1.7-7.6c1.9-0.6,4-3.4,3.8-5.4"/>
						</g>
					</g>
				</g>
				<g>
					<g>
						<g>
							<g>
								<path class="st3" d="M214.8,197.3c0.1,0.1,0.8-0.6,2-1.5c1.2-0.9,3-2.2,5.3-2.7c1.1-0.2,2.3-0.2,3.2,0
									c1,0.2,1.8,0.7,2.3,1.2c1.2,1,1.4,2,1.5,1.9c0,0,0-0.3-0.2-0.7c-0.2-0.4-0.5-1-1.1-1.5c-0.6-0.5-1.4-1.1-2.5-1.4
									c-1-0.3-2.2-0.3-3.4,0c-2.4,0.5-4.2,1.9-5.4,2.9C215.4,196.6,214.8,197.3,214.8,197.3z"/>
							</g>
						</g>
					</g>
				</g>
				<g>
					<g>
						<g>
							<g>
								<path class="st3" d="M215.4,188.5c0,0.1,1-0.3,2.4-1c0.7-0.3,1.6-0.8,2.6-1.1c1-0.3,2.1-0.6,3.3-0.9c1.2-0.2,2.4-0.2,3.4,0
									c1,0.2,1.9,0.6,2.5,1.1c1.3,1,1.6,2,1.6,2c0,0,0-0.3-0.2-0.7c-0.2-0.4-0.6-1-1.2-1.5c-0.6-0.5-1.5-1-2.6-1.3
									c-1.1-0.2-2.3-0.2-3.6,0c-1.2,0.2-2.4,0.5-3.4,0.9c-1,0.4-1.9,0.9-2.6,1.3C216.2,188,215.3,188.4,215.4,188.5z"/>
							</g>
						</g>
					</g>
				</g>
			</g>
		</g>
		<polygon class="st6" points="81.8,254.6 79.2,266.4 194.5,266 194.2,248.1 87.6,248.9 		"/>
		<g class="st12">
			<g>
				<path class="st10" d="M109.6,219.9l1.8-0.5c-1.6,8.9-12.9,39-17.3,47l-14.9,0.1l2.6-11.8C86.6,248.5,109.6,219.9,109.6,219.9z"
					/>
			</g>
		</g>
	</g>
</g>
<g id="Ebene_2">
</g>
</svg>
