<?xml version="1.0" encoding="UTF-8"?><svg xmlns="http://www.w3.org/2000/svg" viewBox="0 0 354.33 297.64"><defs><style>.c{fill:#e9505b;}.d{fill:#8e3039;}.e{fill:#455a64;}.f{fill:#263239;}.g{fill:#5b342f;}.h{fill:#834f45;}.i{opacity:.3;}.j{opacity:.4;}</style></defs><g id="a"><g><rect class="c" x="42" y="35.49" width="252.82" height="220.25" rx="38.79" ry="38.79"/><g class="j"><rect class="c" x="42" y="35.49" width="252.82" height="220.25" rx="38.79" ry="38.79"/></g><g><polygon class="c" points="294.76 112.27 332.62 112.27 293.9 150.99 294.76 112.27"/><g class="j"><polygon class="c" points="294.76 112.27 332.62 112.27 293.9 150.99 294.76 112.27"/></g></g></g><g><path class="f" d="M163.56,33.6c-4.15-4.47-14.26-3.7-16.63-.7-3.53-1.79-8.39-.12-10.08,3.46-3.58,.82-7.16,1.64-10.75,2.46-1.83,.42-3.75,.88-5.15,2.14-1.4,1.26-2.04,3.57-.86,5.04-3.78,1.02-5.22,6.69-2.37,9.39-1.53,1.64-1.2,4.64,.66,5.9-2.94,3.59-5.26,7.69-6.82,12.06-.66,1.83-1.18,3.87-.48,5.68,.69,1.81,3.1,3.05,4.67,1.89-1.06,1.48-1.13,3.61-.17,5.16-1.82,.06-2.34,2.88-1.07,4.2,1.27,1.31,3.3,1.43,5.12,1.37,1.82-.06,3.8-.17,5.3,.85-.06,.54-.27,.9-.58,1.16-3.11,2.57-3.95,6.97-1.57,10.22,.22,.3,.43,.58,.61,.83,1.07,1.49,3.7,2.83,5.33,3.67,4.14,2.11,6.59,1.68,11.2,2.3-1.23,2.98,6.31,9.48,14.79,2.94,17.1,4.42,29.42,6.04,47.08,5.91,2.52-.02,5.55-.39,6.64-2.66,2.05,.52,4.25-.45,5.74-1.94,1.5-1.49,2.43-3.45,3.33-5.36,4.35-1.21,7.67-5.45,7.81-9.97,2.93-2.34,4.81-5.96,5.02-9.7,4.23-1.33,6.52-6.86,4.46-10.79-.96-5.19-2.79-10.22-5.39-14.82,2.88-.65,3.93-4.56,2.72-7.25-1.21-2.7-3.86-4.41-6.37-5.97,2.17,.55,4.02-2.18,3.49-4.35-.54-2.17-2.51-3.65-4.43-4.78-2.82-1.66-5.85-2.97-8.99-3.91-1.06-3.79-5.97-8.08-9.54-9.73-14.43-6.66-24.51-8.28-42.68,5.31"/><path class="h" d="M203.82,60.58c-1.24-9.88-8.57-21.64-18.38-19.98l-30.37,9.72c-2.98,.5-5.08,3.21-4.84,6.22l5.15,66.04c.67,8.61,7.3,15.55,15.87,16.61h0c10.97,1.36,20.61-7.31,20.4-18.37-.08-4.54-.14-7.96-.14-7.93,0,0,12.54-2.89,14.14-19.58,.79-8.3-.46-21.75-1.83-32.73Z"/><g><g><g><path class="f" d="M198.28,74c.11,1.12-.75,2.13-1.91,2.27-1.16,.13-2.19-.66-2.3-1.78-.11-1.12,.75-2.13,1.91-2.27,1.16-.14,2.2,.66,2.31,1.78Z"/><path class="f" d="M201.33,67.78c-.25,.29-1.93-.8-4.21-.65-2.28,.11-3.88,1.39-4.15,1.13-.13-.12,.11-.63,.8-1.21,.68-.57,1.88-1.16,3.3-1.25,1.42-.08,2.65,.37,3.37,.86,.73,.49,1,.98,.88,1.11Z"/></g><g><path class="f" d="M177.36,74.88c.11,1.12-.75,2.13-1.91,2.27-1.16,.13-2.19-.66-2.3-1.78-.11-1.12,.75-2.13,1.91-2.27,1.16-.14,2.2,.66,2.31,1.78Z"/><path class="f" d="M178.94,69.6c-.25,.29-1.93-.8-4.21-.65-2.28,.11-3.88,1.39-4.15,1.13-.13-.12,.11-.63,.8-1.21,.68-.57,1.88-1.16,3.3-1.25,1.42-.08,2.65,.37,3.37,.86,.73,.49,1,.98,.88,1.11Z"/></g><path class="f" d="M188.27,86c-.02-.13,1.38-.46,3.66-.9,.58-.1,1.12-.25,1.2-.65,.11-.43-.17-1.04-.5-1.7-.64-1.38-1.3-2.82-2-4.33-2.78-6.17-4.84-11.25-4.59-11.36,.25-.11,2.71,4.8,5.49,10.97,.67,1.52,1.32,2.97,1.93,4.36,.26,.65,.69,1.38,.44,2.27-.13,.44-.54,.79-.91,.91-.37,.14-.69,.16-.98,.2-2.3,.27-3.74,.37-3.76,.24Z"/><path class="g" d="M191.52,112.89s-11.08,1.41-22.5-4.53c0,0,6.08,11.02,22.52,8.45l-.02-3.92Z"/></g><path class="f" d="M179.36,60.14c-.19,.63-2.48,.48-5.14,.97-2.67,.44-4.78,1.35-5.17,.82-.17-.26,.17-.86,1-1.52,.83-.65,2.17-1.31,3.77-1.59,1.6-.28,3.08-.11,4.08,.22,1.01,.34,1.53,.79,1.45,1.09Z"/><path class="f" d="M200.04,59.98c-.37,.54-1.97,.1-3.87,.19-1.89,.03-3.47,.57-3.87,.05-.18-.25,.04-.79,.71-1.32,.66-.53,1.79-1,3.09-1.04,1.3-.04,2.45,.36,3.14,.85,.7,.49,.95,1.01,.79,1.27Z"/></g><path class="f" d="M211.4,68.4c-.2-2.59-1.06-5.21-2.87-7.08-.99-1.02-2.24-1.79-3.12-2.91-1.9-2.41-1.7-5.81-2.54-8.77-1.09-3.81-4.13-7.01-7.89-8.27-3.12-1.05-6.64-.84-9.58-2.34-2.17-1.11-3.85-3.06-6.08-4.03-4.35-1.9-9.32,.4-13.36,2.9-.75,3.25,1.35,6.02,3.37,8.68,2.02,2.66,5.26,4.35,8.59,4.49,2.59,.11,5.6-.53,7.45,1.29,1.95,1.91,1.26,5.34,2.87,7.53,2.3,3.14,7.39,1.84,10.78,3.75,2.62,1.47,3.77,4.56,5.12,7.24,1.35,2.68,3.66,5.47,6.66,5.27,.4-2.57,.79-5.16,.59-7.75Z"/><path class="f" d="M172.52,43.69c-7.55,.02-15.1,1.52-22.09,4.38-2.08,.86-4.23,1.93-5.4,3.86-1.02,1.7-1.11,3.78-1.05,5.76,.18,6.2,2.81,13.74,5.27,19.43l7.82,4.5c5.94-1.51,3.02-11.76,2.64-16.91,4.13-1.9,6.95-6.34,6.93-10.88,3.37-2.25,5.61-6.1,5.88-10.14Z"/><path class="h" d="M156.93,79.4c-.3-3.54-4.66-4.15-7.67-2.27-1.65,1.03-2.88,3.04-2.6,6.8,.75,10.03,10.66,7.2,10.66,6.91,0-.18-.04-7.29-.39-11.44Z"/><path class="g" d="M153.96,87.27s-.17,.14-.45,.29c-.28,.15-.77,.28-1.3,.12-1.09-.31-2.11-1.92-2.29-3.73-.09-.91,.03-1.79,.3-2.54,.25-.76,.69-1.3,1.21-1.44,.52-.16,.92,.13,1.07,.4,.16,.27,.11,.48,.16,.49,.03,.02,.2-.18,.09-.59-.06-.2-.19-.42-.44-.6-.26-.18-.62-.25-.98-.18-.77,.11-1.41,.87-1.71,1.69-.34,.82-.5,1.82-.4,2.84,.22,2.02,1.39,3.83,2.87,4.14,.72,.13,1.29-.13,1.58-.38,.29-.27,.33-.5,.29-.51Z"/><path class="e" d="M149.15,93.65c-.5,.03-1.04,0-1.61-.08-.57-.08-1.17-.21-1.77-.5l.12-.06c-.19,1.37-1.07,2.86-2.59,3.69-1.5,.83-3.66,.81-5.3-.38l.17-.03c-.28,.45-.77,.79-1.3,.9-.53,.13-1.1,.08-1.63-.11-.53-.19-1.01-.55-1.33-1.04-.32-.48-.49-1.06-.54-1.64-.09-1.17,.32-2.39,1.03-3.37,.71-1,1.65-1.81,2.6-2.62l.02,.23c-.85-.48-1.43-1.39-1.63-2.35-.22-.97-.14-2.01,.23-2.97,.38-.95,1-1.79,1.71-2.53,.72-.75,1.53-1.4,2.34-2.05v.23c-.77-.73-1.11-1.84-1.05-2.89,.05-1.07,.43-2.13,1.08-3,1.26-1.67,3.12-2.61,4.83-3.5l-.08,.17c-.58-2.19,.03-4.57,1.47-6.17,1.44-1.6,3.61-2.39,5.62-2.19l-.15,.17c-.43-1.79,.21-3.62,1.27-4.91,1.06-1.3,2.63-2.14,4.2-2.16l-.12,.13c-.03-1.84,.97-3.43,2.2-4.42,1.24-1,2.8-1.44,4.17-1.23l-.11,.1c.01-.98,.36-1.85,.77-2.59,.42-.74,.93-1.38,1.49-1.87,1.1-1.02,2.38-1.46,3.41-1.54l.38-.03c.12,0,.24,.01,.35,.02,.23,.02,.44,.02,.64,.06,.38,.1,.72,.14,.96,.25,.24,.1,.43,.17,.56,.23,.13,.05,.19,.08,.19,.09,0,0-.07-.02-.2-.06-.14-.05-.33-.12-.57-.2-.25-.1-.58-.13-.96-.22-.19-.04-.4-.03-.63-.05-.11,0-.23-.02-.35-.01-.12,.01-.24,.03-.37,.04-1,.1-2.25,.54-3.31,1.55-.55,.49-1.04,1.11-1.44,1.84-.39,.73-.72,1.58-.73,2.5v.12l-.11-.02c-1.32-.18-2.81,.24-4,1.21-1.19,.95-2.13,2.49-2.09,4.23v.13h-.12c-1.49,.03-2.98,.83-4,2.08-1.02,1.24-1.61,2.99-1.2,4.67l.05,.19-.2-.02c-1.92-.19-4,.57-5.37,2.1-1.37,1.52-1.96,3.81-1.4,5.89l.03,.12-.11,.06c-1.71,.89-3.53,1.82-4.73,3.42-.62,.82-.98,1.83-1.02,2.83-.05,1,.26,2.01,.95,2.67l.12,.12-.14,.11c-1.61,1.28-3.24,2.63-3.97,4.46-.35,.89-.43,1.89-.23,2.79,.19,.91,.72,1.73,1.49,2.17l.18,.1-.16,.13c-.95,.81-1.88,1.61-2.56,2.57-.69,.94-1.08,2.08-1,3.19,.06,1.09,.69,2.14,1.69,2.47,.95,.36,2.14,.14,2.64-.68l.07-.11,.1,.08c1.56,1.14,3.62,1.17,5.06,.39,1.47-.78,2.33-2.22,2.52-3.53l.02-.11,.1,.05c.56,.28,1.16,.42,1.71,.5,.56,.08,1.09,.11,1.59,.09,.99-.03,1.83-.22,2.44-.51,.61-.29,1-.68,1.14-1,.15-.31,.18-.5,.2-.5,0,0,0,.05-.03,.13-.03,.08-.03,.23-.13,.38-.13,.34-.52,.75-1.15,1.06"/><path class="e" d="M114.51,81.42s-.16-.18-.39-.6c-.22-.41-.49-1.07-.57-1.98-.08-.89,.06-2.06,.77-3.16,.69-1.09,1.95-2.1,3.6-2.38l-.08,.12c-.35-1.53-.13-3.36,.82-4.97,.46-.8,1.11-1.55,1.93-2.12,.81-.59,1.8-.91,2.72-1.34,.46-.22,.91-.47,1.3-.8,.39-.33,.69-.76,.9-1.25,.43-.97,.55-2.11,1.1-3.15,1.09-2.06,3.55-3.47,6.06-3.14l-.17,.17c-.37-2.29,.33-4.84,1.99-6.67,1.73-1.91,4.34-2.85,6.76-2.6l-.16,.17c-.35-2.94,1.26-5.81,3.63-7.08,2.39-1.28,5.26-1.01,7.24,.29l-.16,.02c1.02-1.05,2.26-1.73,3.47-2.2,1.22-.46,2.43-.77,3.59-.89,2.31-.3,4.35-.07,5.96,.3,1.61,.39,2.81,.93,3.56,1.41,.39,.21,.64,.45,.83,.58,.18,.14,.27,.22,.27,.22-.02,.02-.38-.28-1.13-.73-.75-.45-1.95-.97-3.55-1.33-1.6-.34-3.62-.56-5.9-.24-1.14,.13-2.33,.44-3.53,.9-1.19,.47-2.4,1.15-3.37,2.16l-.07,.08-.09-.06c-1.91-1.24-4.68-1.48-6.96-.25-2.26,1.21-3.8,3.99-3.46,6.79l.02,.19-.19-.02c-2.32-.24-4.85,.67-6.51,2.5-1.6,1.76-2.27,4.22-1.92,6.42l.03,.2-.2-.03c-2.37-.33-4.73,1.02-5.76,2.97-.52,.98-.65,2.11-1.1,3.13-.22,.51-.55,.99-.97,1.34-.42,.36-.89,.62-1.37,.84-.95,.44-1.91,.74-2.69,1.31-.79,.55-1.42,1.26-1.87,2.03-.93,1.55-1.16,3.32-.83,4.8l.02,.11-.11,.02c-1.58,.25-2.81,1.22-3.49,2.26-.7,1.06-.85,2.2-.79,3.07,.06,.89,.31,1.54,.51,1.96,.2,.42,.35,.62,.34,.62Z"/><path class="e" d="M210.54,82.51s-.21-.27-.05-.82c.08-.27,.27-.57,.57-.84,.3-.28,.74-.48,1.23-.64,.49-.17,1.05-.32,1.56-.68,.5-.36,.89-.94,1.1-1.63,.22-.69,.27-1.48,.21-2.3-.05-.83-.19-1.7-.21-2.64-.05-1.9,.72-3.85,1.18-5.95,.22-1.05,.3-2.18,.08-3.3-.22-1.11-.82-2.21-1.87-2.79-1.03-.61-2.3-.78-3.54-1.13-.62-.18-1.25-.42-1.81-.81-.57-.38-.99-.96-1.3-1.57-.61-1.24-.78-2.61-1.12-3.93-.16-.66-.38-1.32-.73-1.89-.34-.58-.88-1.02-1.5-1.27-.87-.31-1.83-.25-2.78-.33-.48-.04-.96-.13-1.41-.33-.45-.2-.85-.52-1.13-.92-.57-.79-.79-1.71-1.09-2.55-.28-.85-.72-1.61-1.3-2.24-1.15-1.28-2.8-2.01-4.41-2.02-1.61-.01-3.15,.61-4.23,1.61l-.13,.12-.08-.16c-1.29-2.71-3.73-4.42-6.05-5.04-1.17-.32-2.32-.36-3.36-.23-1.04,.12-1.97,.42-2.74,.81-1.56,.8-2.42,1.95-2.89,2.74-.24,.4-.39,.73-.48,.95-.05,.1-.08,.18-.12,.25-.03,.06-.04,.08-.05,.08,0,0,0-.03,.03-.09,.03-.07,.06-.15,.1-.26,.08-.23,.21-.57,.45-.98,.45-.82,1.3-2,2.89-2.84,.78-.42,1.73-.73,2.79-.86,1.06-.14,2.24-.11,3.44,.21,2.37,.62,4.89,2.36,6.23,5.14l-.21-.04c1.13-1.06,2.73-1.71,4.42-1.7,1.69,0,3.42,.77,4.62,2.1,.61,.66,1.08,1.48,1.36,2.34,.31,.85,.53,1.75,1.06,2.47,.51,.74,1.4,1.06,2.32,1.12,.92,.09,1.9,.01,2.86,.35,.69,.27,1.29,.77,1.66,1.4,.38,.62,.6,1.3,.76,1.98,.34,1.34,.51,2.7,1.1,3.87,.29,.58,.68,1.1,1.2,1.46,.52,.36,1.12,.59,1.72,.77,1.21,.35,2.5,.52,3.6,1.17,.54,.32,1.02,.77,1.34,1.3,.33,.52,.53,1.1,.65,1.69,.22,1.17,.13,2.33-.09,3.41-.47,2.14-1.25,4.05-1.21,5.9,0,.92,.15,1.79,.19,2.63,.05,.84,0,1.65-.25,2.37-.23,.71-.65,1.32-1.18,1.7-.54,.37-1.12,.51-1.6,.68-.49,.16-.91,.34-1.21,.6-.3,.26-.49,.54-.57,.79-.18,.52,.03,.8,0,.8Z"/><path class="e" d="M229.76,66.64s-.04-.06-.11-.19c-.07-.14-.17-.32-.29-.56-.25-.51-.61-1.23-1.07-2.16-.47-.93-1-2.1-1.75-3.38-.75-1.26-1.77-2.68-3.42-3.55-.82-.43-1.76-.7-2.71-1.1-.47-.2-.95-.44-1.38-.78-.44-.33-.81-.78-1.05-1.29-.49-1.03-.53-2.21-.93-3.28-.2-.53-.51-1.03-.99-1.35-.46-.34-1.04-.54-1.63-.72-.59-.18-1.2-.34-1.79-.65-.59-.29-1.08-.8-1.4-1.4-.62-1.21-.65-2.58-.92-3.88-.13-.65-.32-1.3-.7-1.83-.37-.54-.96-.89-1.61-1.02-1.32-.25-2.74,.23-4.21,.03-.74-.11-1.43-.47-1.95-.99-.52-.51-.91-1.12-1.28-1.71-.37-.59-.72-1.18-1.13-1.71-.41-.53-.9-.98-1.5-1.24-1.2-.53-2.56-.21-3.79,.1-1.24,.31-2.54,.64-3.81,.4-1.26-.23-2.34-.86-3.34-1.45-1.01-.6-1.96-1.24-2.98-1.59-2.06-.7-4.18-.56-5.96-.09-1.8,.48-3.26,1.39-4.37,2.35-1.12,.97-1.84,2.04-2.39,2.92-.49,.92-.84,1.65-1.01,2.18-.09,.25-.17,.44-.22,.59-.05,.13-.08,.2-.09,.2,0,0,.01-.07,.06-.21,.05-.15,.11-.35,.19-.6,.15-.53,.48-1.28,.96-2.21,.54-.9,1.25-1.99,2.38-2.99,1.12-.99,2.6-1.92,4.43-2.43,1.81-.49,3.97-.65,6.1,.06,1.07,.37,2.03,1.01,3.03,1.6,1,.59,2.06,1.19,3.25,1.41,1.19,.23,2.44-.09,3.69-.4,.63-.15,1.27-.32,1.95-.37,.67-.06,1.39,0,2.03,.29,.65,.28,1.19,.78,1.61,1.32,.43,.55,.79,1.15,1.15,1.74,.37,.59,.75,1.17,1.23,1.65,.48,.48,1.1,.8,1.78,.91,1.37,.2,2.78-.28,4.22-.02,.71,.14,1.39,.54,1.8,1.14,.42,.59,.61,1.28,.75,1.95,.27,1.33,.31,2.68,.89,3.8,.29,.55,.72,1.01,1.27,1.28,.54,.29,1.14,.45,1.74,.63,.59,.19,1.19,.39,1.7,.77,.52,.36,.87,.92,1.08,1.48,.41,1.13,.44,2.3,.9,3.27,.44,.99,1.38,1.57,2.3,1.96,.93,.4,1.88,.68,2.72,1.13,1.7,.91,2.73,2.38,3.47,3.65,.74,1.3,1.26,2.47,1.71,3.42,.44,.94,.78,1.67,1.02,2.18,.11,.24,.19,.43,.26,.57,.06,.13,.08,.2,.08,.2Z"/><path class="e" d="M218.9,56.32s.06-.02,.18-.03c.12,0,.32,0,.54,.11,.44,.21,.94,.83,1.03,1.76,.04,.47-.07,.97-.19,1.5-.12,.53-.27,1.12-.23,1.74,.04,.62,.34,1.25,.74,1.84,.4,.6,.91,1.18,1.32,1.9,.42,.69,.64,1.66,.29,2.52-.31,.86-.91,1.59-1.2,2.46-.3,.87-.1,1.86,.32,2.76,.41,.91,.98,1.79,1.38,2.8,.2,.5,.34,1.05,.35,1.62,0,.57-.12,1.14-.35,1.67-.47,1.06-1.22,1.94-1.86,2.89-.64,.94-1.17,2.04-1.01,3.2,.15,1.16,.82,2.21,1.27,3.37,.23,.58,.4,1.2,.4,1.84,0,.64-.17,1.26-.44,1.81-.55,1.11-1.38,1.99-2.12,2.88-.74,.89-1.4,1.81-1.71,2.87-.34,1.05-.51,2.15-.99,3.14-.24,.49-.57,.95-1,1.29-.43,.34-.93,.54-1.41,.71-.48,.17-.96,.31-1.38,.52-.42,.22-.81,.49-1.15,.81-.67,.65-1.16,1.42-1.61,2.18-.45,.76-.86,1.5-1.33,2.16-.93,1.35-2.22,2.23-3.45,2.63-1.23,.42-2.37,.48-3.27,.37-.9-.11-1.58-.35-2.01-.55-.43-.21-.64-.35-.64-.35,.02-.06,.86,.59,2.66,.78,.89,.09,2.01,.01,3.2-.41,1.2-.41,2.44-1.27,3.33-2.6,.46-.66,.86-1.4,1.31-2.16,.45-.76,.94-1.56,1.64-2.24,.35-.34,.76-.63,1.21-.86,.45-.22,.94-.37,1.41-.54,.47-.17,.94-.36,1.33-.67,.39-.31,.69-.73,.92-1.19,.45-.94,.62-2.03,.96-3.11,.31-1.1,1.01-2.08,1.75-2.97,.74-.9,1.56-1.76,2.07-2.82,.25-.52,.41-1.1,.41-1.68,0-.58-.16-1.16-.38-1.73-.44-1.13-1.12-2.19-1.29-3.44-.09-.62,0-1.25,.22-1.83,.21-.57,.52-1.09,.84-1.58,.66-.97,1.4-1.84,1.84-2.84,.22-.5,.34-1.02,.33-1.55,0-.52-.13-1.04-.33-1.53-.38-.98-.95-1.86-1.36-2.8-.43-.92-.65-2-.32-2.95,.32-.93,.93-1.65,1.22-2.46,.32-.8,.14-1.66-.26-2.34-.39-.69-.89-1.28-1.29-1.9-.4-.61-.71-1.27-.75-1.94-.03-.66,.13-1.25,.26-1.79,.13-.53,.24-1.02,.21-1.46-.07-.89-.53-1.5-.94-1.72-.42-.21-.7-.1-.69-.13Z"/><path class="f" d="M114.75,81.09s-.28,.02-.8-.06c-.51-.09-1.29-.3-2.13-.87-.83-.56-1.75-1.51-2.17-2.92-.42-1.38-.32-3.21,.73-4.75,.53-.76,1.25-1.41,1.97-2.1,.71-.68,1.47-1.43,1.83-2.42,.39-.99,.2-2.13-.21-3.19-.4-1.07-1.01-2.11-1.4-3.29-.76-2.36-.65-5.18,.63-7.62,1.26-2.43,3.67-4.39,6.56-5.05l-.09,.24c-.47-.63-.78-1.39-.91-2.18-.12-.79-.08-1.61,.11-2.39,.19-.78,.51-1.55,.97-2.23,.46-.68,1.03-1.28,1.67-1.8,1.94-1.54,4.29-2.31,6.55-2.79,2.28-.48,4.57-.6,6.74-.42l-.16,.14c.04-2.7,1.67-5.18,3.92-6.25,1.11-.55,2.34-.79,3.51-.74,1.19,.03,2.28,.48,3.31,.81,.52,.16,1.04,.3,1.55,.33,.52,.04,1.03-.04,1.51-.19,.97-.3,1.81-.85,2.63-1.34,.82-.5,1.65-.95,2.52-1.21,.86-.26,1.72-.38,2.53-.39,1.63-.01,3.08,.43,4.19,1.06,1.12,.62,1.92,1.39,2.48,2.07,.56,.69,.89,1.29,1.09,1.71,.2,.42,.26,.65,.26,.65-.01,0-.1-.22-.31-.63-.21-.4-.55-1-1.12-1.67-.57-.66-1.37-1.41-2.47-2.01-1.1-.6-2.52-1.02-4.12-1-.8,0-1.64,.13-2.47,.4-.84,.26-1.65,.7-2.46,1.2-.82,.5-1.67,1.06-2.68,1.38-.5,.16-1.05,.25-1.59,.2-.55-.03-1.09-.17-1.61-.33-1.05-.33-2.1-.76-3.24-.78-1.13-.04-2.31,.19-3.38,.73-2.15,1.03-3.72,3.42-3.75,6v.16h-.16c-2.15-.19-4.4-.07-6.66,.41-2.24,.48-4.55,1.24-6.42,2.73-.62,.5-1.17,1.08-1.61,1.73-.44,.65-.74,1.38-.92,2.13-.18,.75-.21,1.53-.1,2.27,.12,.74,.41,1.45,.85,2.04l.14,.19-.22,.05c-2.79,.63-5.14,2.54-6.37,4.89-1.24,2.36-1.37,5.11-.63,7.41,.37,1.15,.97,2.19,1.38,3.29,.42,1.08,.62,2.3,.2,3.35-.4,1.05-1.19,1.81-1.91,2.5-.73,.68-1.44,1.32-1.96,2.05-1.03,1.48-1.14,3.26-.75,4.6,.39,1.37,1.28,2.31,2.08,2.88,.82,.57,1.57,.8,2.08,.9,.51,.1,.79,.1,.79,.12Z"/><path class="f" d="M222.31,49.36s-.02-.06-.03-.19c-.02-.14-.04-.33-.06-.56-.06-.51-.14-1.24-.24-2.16-.11-.94-.27-2.08-.55-3.39-.28-1.31-.68-2.79-1.4-4.31-.72-1.51-1.77-3.07-3.28-4.34-.76-.63-1.63-1.16-2.6-1.54-.98-.37-2.05-.57-3.14-.84-1.09-.26-2.21-.66-3.19-1.35-.98-.69-1.81-1.57-2.6-2.5-.8-.93-1.55-1.9-2.43-2.78-.87-.89-1.89-1.64-3.05-2.17-2.32-1.08-4.87-1.36-7.28-1.41-2.42-.03-4.77,.11-6.97,.41-4.42,.58-8.28,1.86-11.29,3.37-3.02,1.51-5.14,3.29-6.47,4.61-.33,.34-.63,.63-.87,.9-.23,.27-.43,.51-.59,.7-.15,.18-.28,.32-.37,.43-.09,.1-.13,.14-.13,.14,0,0,.03-.06,.11-.16,.09-.11,.2-.26,.35-.45,.16-.2,.35-.44,.57-.72,.24-.28,.54-.57,.86-.92,1.32-1.35,3.43-3.17,6.46-4.72,3.02-1.55,6.9-2.86,11.35-3.46,2.22-.31,4.58-.46,7.02-.43,2.43,.05,5.02,.33,7.4,1.44,1.19,.54,2.25,1.33,3.14,2.23,.9,.9,1.66,1.88,2.45,2.8,.78,.92,1.6,1.79,2.54,2.45,.94,.67,2.01,1.05,3.09,1.31,1.08,.27,2.16,.48,3.16,.87,1,.4,1.9,.95,2.67,1.6,1.54,1.31,2.59,2.9,3.31,4.44,.72,1.55,1.11,3.05,1.38,4.36,.26,1.32,.4,2.47,.5,3.42,.09,.94,.15,1.67,.18,2.17,.01,.24,.03,.42,.03,.57,0,.13,0,.19,0,.19Z"/><path class="g" d="M178.45,91.28c.08-1.35,.93-2.65,2.18-3.18,1.24-.53,2.82-.22,3.71,.8,.84,.97,.93,2.53,.19,3.57-.33,.55-.84,1-1.43,1.26-.75,.34-1.62,.41-2.43,.26-.67-.12-1.34-.41-1.75-.95-.37-.49-.49-1.14-.46-1.75Z"/><path class="f" d="M179.72,86.39c.38,0,.17,2.52,2.18,4.48,2,1.97,4.7,1.91,4.69,2.26,.02,.16-.64,.44-1.77,.38-1.11-.05-2.7-.54-3.92-1.74-1.22-1.2-1.66-2.71-1.66-3.74,0-1.06,.32-1.66,.49-1.63Z"/></g><path class="d" d="M135.87,128.06l19.48-7.39s15.02,8.93,26.59,7.08c8.97-1.43,9.71-6.05,9.71-6.05l10.79,1.74s16.35,13.59,19.76,27.4c2.02,8.16,2.51,18.84,2.51,28.21,0,3.75-4.78,18.58-4.78,18.58l-1.85,21.46,9.03,35.77h-94.23v-98.97l2.98-27.83Z"/><path class="f" d="M220.82,193.61s.1-.16,.25-.47c.14-.32,.38-.78,.62-1.4,.52-1.23,1.16-3.06,1.75-5.37,1.21-4.62,1.87-11.27,1.21-18.53-.66-7.26-2.24-13.69-3.41-18.3-.6-2.31-1.11-4.16-1.47-5.44-.18-.61-.32-1.09-.43-1.47-.1-.34-.16-.51-.18-.51-.01,0,.02,.19,.1,.53,.09,.38,.21,.88,.36,1.49,.33,1.34,.79,3.2,1.35,5.47,1.1,4.62,2.62,11.04,3.28,18.26,.66,7.22,.05,13.82-1.08,18.43-.55,2.31-1.15,4.14-1.62,5.38-.22,.63-.43,1.1-.55,1.43-.13,.33-.18,.5-.17,.51Z"/><g class="i"><path d="M225.3,174.66l-.86-.62c.04-10.41-1.69-21.43-5.11-31.26,6.37,9.44,9.09,21.32,5.97,31.87Z"/></g><path class="i" d="M198.29,169.93s-13.52,50.03-21.05,59.2c-7.53,9.17-11.64,11.91-23.26,12.84-11.62,.92-15.93-12.51-18.51-17.75-2.58-5.24-2.11-13.1-2.11-13.1l15.83-8.85,12.53,20.64,32.27-53.87,4.31,.89Z"/><path class="h" d="M196.17,176.44s-13.77,32.02-23.63,50.38c-8.36,15.55-25.4,13.82-30.81,5.17-5.41-8.65-14.46-34.54-14.46-34.54l28.75-5.05,3.2,9.11,21.8-27.8,15.15,2.72Z"/><path class="h" d="M172.65,171.83l2.12-9.58s.97-2.65,2.54-.31c1.58,2.34,.84,6.75,.84,6.75,0,0,2.98-22.78,5.59-25.26,.96-.91,2.27,.34,2.27,.34,0,0,.31-4.46,1.7-4.43,1.4,.03,2.72,3.35,2.72,3.35,0,0,1.74-.95,3.1,.71,1.22,1.48,1.23,13.87,1.23,13.87,0,0,1.16-10.2,2.99-10.85,2.93-1.03,2.93,2.85,2.93,2.85l-.85,13.28s-1.6,9.06-3.61,14.76c-2.01,5.7-3.19,5.76-3.19,5.76l-13.12-.35s-2.96-2.71-5.29-4.8c-1.7-1.53-2.45-3.85-1.96-6.09Z"/><path class="g" d="M150.38,214.43s.09-.13,.22-.4c.15-.31,.33-.69,.56-1.17,.29-.5,.63-1.1,1.02-1.78,.42-.68,.93-1.44,1.47-2.28,2.27-3.33,5.7-7.71,9.61-12.46,3.91-4.75,7.52-9,10.05-12.14,1.27-1.57,2.27-2.86,2.94-3.77,.3-.43,.55-.78,.75-1.06,.17-.25,.25-.38,.24-.39-.01,0-.12,.11-.31,.34-.21,.27-.48,.6-.81,1.01-.71,.88-1.74,2.14-3.04,3.68-2.59,3.09-6.22,7.31-10.14,12.07-3.91,4.75-7.31,9.18-9.53,12.56-.53,.86-1.03,1.63-1.43,2.32-.38,.71-.71,1.32-.97,1.82-.2,.49-.36,.89-.49,1.21-.11,.28-.16,.42-.15,.43Z"/><g><path class="d" d="M139.1,127.21s-15.7,3.21-19.65,20.97c-3.63,16.34-2.51,51.09-2.51,51.09l42.75-7.52-10.4-59.33-10.19-5.21Z"/><path class="d" d="M153.63,155.56s0,.07,.01,.19c.02,.15,.04,.33,.07,.55,.08,.51,.18,1.21,.31,2.1,.3,1.86,.71,4.49,1.23,7.73,1.08,6.57,2.58,15.6,4.24,25.66l.17-.24c-.44,.08-.92,.16-1.4,.25-10.35,1.87-19.71,3.56-26.53,4.79-3.37,.63-6.1,1.14-8.03,1.5-.92,.18-1.65,.32-2.18,.43l-.57,.12c-.13,.03-.19,.05-.19,.06,0,0,.07,0,.2-.01l.57-.08c.53-.09,1.27-.2,2.19-.35,1.94-.33,4.68-.8,8.05-1.37,6.82-1.2,16.2-2.85,26.55-4.67,.48-.09,.96-.17,1.4-.25l.2-.04-.03-.2c-1.71-10.04-3.24-19.08-4.36-25.64-.57-3.24-1.03-5.86-1.36-7.71-.16-.88-.29-1.58-.39-2.09-.04-.22-.08-.4-.11-.54-.03-.12-.04-.18-.05-.18Z"/><path class="d" d="M151.23,149.86s-.09-.37-.33-1.02c-.24-.65-.59-1.57-1.08-2.71-.98-2.23-2.43-5.42-5.13-8.12-1.34-1.35-2.89-2.34-4.37-3.04-1.49-.69-2.92-1.09-4.14-1.32-1.22-.23-2.22-.29-2.91-.3-.69-.01-1.07,.03-1.07,.05,0,.09,1.53,.02,3.92,.54,2.36,.5,5.65,1.72,8.27,4.37,2.63,2.63,4.11,5.75,5.16,7.95,.48,1.06,.88,1.95,1.19,2.65,.28,.63,.45,.97,.47,.96Z"/></g><path class="g" d="M190.68,159.26c.06,0,.13-.93,.21-2.42,.08-1.5,.17-3.57,.18-5.87,0-2.3-.08-4.38-.24-5.87-.15-1.5-.35-2.41-.4-2.41-.06,0,.03,.93,.11,2.43,.08,1.49,.12,3.56,.12,5.85-.02,2.22-.04,4.23-.05,5.86,0,1.5,.02,2.43,.08,2.43Z"/><path class="g" d="M186.34,143.92c-.06,0-.09,.76-.13,1.98-.04,1.22-.09,2.91-.18,4.77-.1,1.86-.22,3.54-.31,4.76-.09,1.22-.14,1.98-.08,1.98,.05,0,.2-.74,.37-1.95,.16-1.22,.33-2.9,.43-4.77,.1-1.87,.1-3.56,.06-4.79-.04-1.23-.11-1.98-.17-1.98Z"/></g><g id="b"/></svg>