<?xml version="1.0" encoding="utf-8"?>
<!-- Generator: Adobe Illustrator 26.1.0, SVG Export Plug-In . SVG Version: 6.00 Build 0)  -->
<svg version="1.1" xmlns="http://www.w3.org/2000/svg" xmlns:xlink="http://www.w3.org/1999/xlink" x="0px" y="0px"
	 viewBox="0 0 322.7 297.6" style="enable-background:new 0 0 322.7 297.6;" xml:space="preserve">
<style type="text/css">
	.st0{fill:#834F45;}
	.st1{fill:#263239;}
	.st2{fill:#F8BC9E;}
	.st3{fill:#EC9A6E;}
	.st4{fill:#455A64;}
	.st5{fill:#F5F4F5;}
	.st6{fill:#E0E0E0;}
	.st7{fill:none;stroke:#444C52;stroke-miterlimit:10;}
	.st8{fill:#E9505B;}
	.st9{opacity:0.4;}
	.st10{fill:#010202;}
	.st11{fill:#FBFBFB;}
	.st12{opacity:0.3;}
	.st13{fill:#EE7160;}
	.st14{fill:#8E3039;}
	.st15{fill:#EBEBEB;}
	.st16{fill:#C27461;}
	.st17{fill:#7E4436;}
	.st18{opacity:0.3;fill:#8E3039;}
	.st19{opacity:0.3;fill:#010202;}
	.st20{fill:#5B342F;}
	.st21{fill:#A56A5F;}
	.st22{fill:#83544C;}
	.st23{fill:#FFFFFF;}
</style>
<g id="Ebene_1">
	<path class="st0" d="M146.6,175.9l27.2,30.1c4.5,5,7.7,9.5,14.2,11.3c4.5,1.3,14,1.8,16.4-1.2c3.3-4.1,5.3-11.1,0.7-19.9
		c-3-5.8-29.4-29.3-29.4-29.3L146.6,175.9"/>
	<g>
		<g>
			<g>
				<g>
					<path class="st1" d="M101.2,23.4c-4.6-4.9-15.7-4.1-18.3-0.8c-3.9-2-9.2-0.1-11.1,3.8c-3.9,0.9-7.9,1.8-11.8,2.7
						c-2,0.5-4.1,1-5.7,2.4c-1.5,1.4-2.2,3.9-0.9,5.5c-4.2,1.1-5.7,7.4-2.6,10.3c-1.7,1.8-1.3,5.1,0.7,6.5c-3.2,4-5.8,8.5-7.5,13.3
						c-0.7,2-1.3,4.3-0.5,6.2c0.8,2,3.4,3.4,5.1,2.1c-1.2,1.6-1.2,4-0.2,5.7c-2,0.1-2.6,3.2-1.2,4.6c1.4,1.4,3.6,1.6,5.6,1.5
						c2-0.1,4.2-0.2,5.8,0.9c-0.1,0.6-0.3,1-0.6,1.3c-3.4,2.8-4.3,7.7-1.7,11.2c0.2,0.3,0.5,0.6,0.7,0.9c1.2,1.6,4.1,3.1,5.9,4
						c4.6,2.3,7.3,1.8,12.3,2.5c-1.3,3.3,6.9,10.4,16.3,3.2c18.8,4.9,32.4,6.6,51.8,6.5c2.8,0,6.1-0.4,7.3-2.9
						c2.3,0.6,4.7-0.5,6.3-2.1c1.6-1.6,2.7-3.8,3.7-5.9c4.8-1.3,8.4-6,8.6-11c3.2-2.6,5.3-6.6,5.5-10.7c4.7-1.5,7.2-7.5,4.9-11.9
						c-1.1-5.7-3.1-11.2-5.9-16.3c3.2-0.7,4.3-5,3-8c-1.3-3-4.2-4.9-7-6.6c2.4,0.6,4.4-2.4,3.8-4.8c-0.6-2.4-2.8-4-4.9-5.3
						c-3.1-1.8-6.4-3.3-9.9-4.3c-1.2-4.2-6.6-8.9-10.5-10.7C132.3,10.2,121.2,8.4,101.2,23.4"/>
				</g>
			</g>
			<g>
				<g>
					<path class="st0" d="M145.5,53.1c-1.4-10.9-9.4-23.8-20.2-22L91.8,41.8c-3.3,0.6-5.6,3.5-5.3,6.8l5.7,72.6
						c0.7,9.5,8,17.1,17.5,18.3h0c12.1,1.5,22.7-8,22.4-20.2c-0.1-5-0.2-8.8-0.1-8.7c0,0,13.8-3.2,15.5-21.5
						C148.4,79.9,147,65.1,145.5,53.1z"/>
				</g>
			</g>
			<g>
				<g>
					<g>
						<g>
							<g>
								<g>
									<g>
										<g>
											<g>
												<g>
													<g>
														<g>
															<g>
																<g>
																	<g>
																		<g>
																			<g>
																				<g>
																					<g>
																						<path class="st1" d="M139.4,67.8c0.1,1.2-0.8,2.3-2.1,2.5c-1.3,0.1-2.4-0.7-2.5-2c-0.1-1.2,0.8-2.3,2.1-2.5
																							C138.1,65.7,139.3,66.6,139.4,67.8z"/>
																					</g>
																				</g>
																			</g>
																		</g>
																	</g>
																</g>
															</g>
														</g>
													</g>
												</g>
											</g>
										</g>
									</g>
								</g>
								<g>
									<g>
										<g>
											<g>
												<g>
													<g>
														<g>
															<g>
																<g>
																	<g>
																		<g>
																			<g>
																				<g>
																					<g>
																						<g>
																							<path class="st1" d="M142.7,61c-0.3,0.3-2.1-0.9-4.6-0.7c-2.5,0.1-4.3,1.5-4.6,1.2c-0.1-0.1,0.1-0.7,0.9-1.3
																								c0.8-0.6,2.1-1.3,3.6-1.4c1.6-0.1,2.9,0.4,3.7,0.9C142.6,60.3,142.9,60.8,142.7,61z"/>
																						</g>
																					</g>
																				</g>
																			</g>
																		</g>
																	</g>
																</g>
															</g>
														</g>
													</g>
												</g>
											</g>
										</g>
									</g>
								</g>
							</g>
							<g>
								<g>
									<g>
										<g>
											<g>
												<g>
													<g>
														<g>
															<g>
																<g>
																	<g>
																		<g>
																			<g>
																				<g>
																					<g>
																						<path class="st1" d="M116.4,68.8c0.1,1.2-0.8,2.3-2.1,2.5c-1.3,0.1-2.4-0.7-2.5-2c-0.1-1.2,0.8-2.3,2.1-2.5
																							C115.1,66.7,116.2,67.6,116.4,68.8z"/>
																					</g>
																				</g>
																			</g>
																		</g>
																	</g>
																</g>
															</g>
														</g>
													</g>
												</g>
											</g>
										</g>
									</g>
								</g>
								<g>
									<g>
										<g>
											<g>
												<g>
													<g>
														<g>
															<g>
																<g>
																	<g>
																		<g>
																			<g>
																				<g>
																					<g>
																						<g>
																							<path class="st1" d="M118.1,63c-0.3,0.3-2.1-0.9-4.6-0.7c-2.5,0.1-4.3,1.5-4.6,1.2c-0.1-0.1,0.1-0.7,0.9-1.3
																								c0.8-0.6,2.1-1.3,3.6-1.4c1.6-0.1,2.9,0.4,3.7,0.9C117.9,62.3,118.2,62.8,118.1,63z"/>
																						</g>
																					</g>
																				</g>
																			</g>
																		</g>
																	</g>
																</g>
															</g>
														</g>
													</g>
												</g>
											</g>
										</g>
									</g>
								</g>
							</g>
							<g>
								<g>
									<g>
										<g>
											<g>
												<g>
													<g>
														<g>
															<g>
																<g>
																	<g>
																		<g>
																			<g>
																				<g>
																					<g>
																						<path class="st1" d="M128.4,81c0-0.1,1.5-0.5,4-1c0.6-0.1,1.2-0.3,1.3-0.7c0.1-0.5-0.2-1.1-0.5-1.9
																							c-0.7-1.5-1.4-3.1-2.2-4.8c-3.1-6.8-5.3-12.4-5-12.5c0.3-0.1,3,5.3,6,12.1c0.7,1.7,1.4,3.3,2.1,4.8
																							c0.3,0.7,0.8,1.5,0.5,2.5c-0.1,0.5-0.6,0.9-1,1c-0.4,0.2-0.8,0.2-1.1,0.2C130,81,128.4,81.2,128.4,81z"/>
																					</g>
																				</g>
																			</g>
																		</g>
																	</g>
																</g>
															</g>
														</g>
													</g>
												</g>
											</g>
										</g>
									</g>
								</g>
							</g>
							<g>
								<g>
									<g>
										<g>
											<g>
												<g>
													<g>
														<g>
															<g>
																<g>
																	<g>
																		<g>
																			<g>
																				<g>
																					<path class="st20" d="M131.9,110.6c0,0-12.2,1.5-24.8-5c0,0,6.7,12.1,24.8,9.3L131.9,110.6z"/>
																				</g>
																			</g>
																		</g>
																	</g>
																</g>
															</g>
														</g>
													</g>
												</g>
											</g>
										</g>
									</g>
								</g>
							</g>
						</g>
					</g>
				</g>
				<g>
					<g>
						<g>
							<g>
								<g>
									<g>
										<g>
											<g>
												<g>
													<g>
														<g>
															<g>
																<g>
																	<g>
																		<path class="st1" d="M118.6,52.6c-0.2,0.7-2.7,0.5-5.7,1.1c-2.9,0.5-5.3,1.5-5.7,0.9c-0.2-0.3,0.2-0.9,1.1-1.7
																			c0.9-0.7,2.4-1.4,4.1-1.7c1.8-0.3,3.4-0.1,4.5,0.2C118.1,51.7,118.7,52.2,118.6,52.6z"/>
																	</g>
																</g>
															</g>
														</g>
													</g>
												</g>
											</g>
										</g>
									</g>
								</g>
							</g>
						</g>
					</g>
				</g>
				<g>
					<g>
						<g>
							<g>
								<g>
									<g>
										<g>
											<g>
												<g>
													<g>
														<g>
															<g>
																<g>
																	<g>
																		<path class="st1" d="M141.3,52.4c-0.4,0.6-2.2,0.1-4.3,0.2c-2.1,0-3.8,0.6-4.3,0.1c-0.2-0.3,0-0.9,0.8-1.5
																			c0.7-0.6,2-1.1,3.4-1.1c1.4,0,2.7,0.4,3.5,0.9C141.2,51.5,141.5,52.1,141.3,52.4z"/>
																	</g>
																</g>
															</g>
														</g>
													</g>
												</g>
											</g>
										</g>
									</g>
								</g>
							</g>
						</g>
					</g>
				</g>
			</g>
			<g>
				<g>
					<path class="st1" d="M153.8,61.7c-0.2-2.8-1.2-5.7-3.2-7.8c-1.1-1.1-2.5-2-3.4-3.2c-2.1-2.7-1.9-6.4-2.8-9.6
						c-1.2-4.2-4.5-7.7-8.7-9.1c-3.4-1.2-7.3-0.9-10.5-2.6c-2.4-1.2-4.2-3.4-6.7-4.4c-4.8-2.1-10.3,0.4-14.7,3.2
						c-0.8,3.6,1.5,6.6,3.7,9.5c2.2,2.9,5.8,4.8,9.5,4.9c2.8,0.1,6.2-0.6,8.2,1.4c2.1,2.1,1.4,5.9,3.2,8.3c2.5,3.5,8.1,2,11.9,4.1
						c2.9,1.6,4.1,5,5.6,8c1.5,3,4,6,7.3,5.8C153.6,67.4,154,64.5,153.8,61.7z"/>
				</g>
			</g>
			<g>
				<g>
					<path class="st1" d="M111,34.5c-8.3,0-16.6,1.7-24.3,4.8c-2.3,0.9-4.7,2.1-5.9,4.2c-1.1,1.9-1.2,4.2-1.2,6.3
						c0.2,6.8,3.1,15.1,5.8,21.4l8.6,4.9c6.5-1.7,3.3-12.9,2.9-18.6c4.5-2.1,7.6-7,7.6-12C108.3,43.2,110.7,38.9,111,34.5z"/>
				</g>
			</g>
			<g>
				<g>
					<g>
						<g>
							<g>
								<g>
									<g>
										<path class="st0" d="M93.9,73.8c-0.3-3.9-5.1-4.6-8.4-2.5c-1.8,1.1-3.2,3.3-2.9,7.5c0.8,11,11.7,7.9,11.7,7.6
											C94.3,86.1,94.3,78.3,93.9,73.8z"/>
									</g>
								</g>
							</g>
						</g>
					</g>
				</g>
			</g>
			<g>
				<g>
					<g>
						<g>
							<g>
								<g>
									<g>
										<g>
											<path class="st20" d="M90.6,82.4c-0.1,0-0.2,0.1-0.5,0.3c-0.3,0.2-0.8,0.3-1.4,0.1c-1.2-0.3-2.3-2.1-2.5-4.1
												c-0.1-1,0-2,0.3-2.8c0.3-0.8,0.8-1.4,1.3-1.6c0.6-0.2,1,0.1,1.2,0.4c0.2,0.3,0.1,0.5,0.2,0.5c0,0,0.2-0.2,0.1-0.7
												c-0.1-0.2-0.2-0.5-0.5-0.7c-0.3-0.2-0.7-0.3-1.1-0.2c-0.8,0.1-1.6,1-1.9,1.9c-0.4,0.9-0.6,2-0.4,3.1
												c0.2,2.2,1.5,4.2,3.2,4.6c0.8,0.1,1.4-0.1,1.7-0.4C90.6,82.7,90.7,82.4,90.6,82.4z"/>
										</g>
									</g>
								</g>
							</g>
						</g>
					</g>
				</g>
			</g>
			<g>
				<g>
					<path class="st4" d="M85.3,89.4c-0.6,0-1.1,0-1.8-0.1c-0.6-0.1-1.3-0.2-1.9-0.6l0.1-0.1c-0.2,1.5-1.2,3.1-2.9,4.1
						c-1.7,0.9-4,0.9-5.8-0.4l0.2,0c-0.3,0.5-0.8,0.9-1.4,1c-0.6,0.1-1.2,0.1-1.8-0.1c-0.6-0.2-1.1-0.6-1.5-1.1
						c-0.3-0.5-0.5-1.2-0.6-1.8c-0.1-1.3,0.3-2.6,1.1-3.7c0.8-1.1,1.8-2,2.9-2.9l0,0.3c-0.9-0.5-1.6-1.5-1.8-2.6
						c-0.2-1.1-0.2-2.2,0.3-3.3c0.4-1,1.1-2,1.9-2.8c0.8-0.8,1.7-1.5,2.6-2.3l0,0.2c-0.8-0.8-1.2-2-1.1-3.2c0.1-1.2,0.5-2.3,1.2-3.3
						c1.4-1.8,3.4-2.9,5.3-3.9l-0.1,0.2c-0.6-2.4,0-5,1.6-6.8c1.6-1.8,4-2.6,6.2-2.4l-0.2,0.2c-0.5-2,0.2-4,1.4-5.4
						c1.2-1.4,2.9-2.4,4.6-2.4l-0.1,0.1c0-2,1.1-3.8,2.4-4.9c1.4-1.1,3.1-1.6,4.6-1.4l-0.1,0.1c0-1.1,0.4-2,0.8-2.8
						c0.5-0.8,1-1.5,1.6-2.1c1.2-1.1,2.6-1.6,3.7-1.7c0.1,0,0.3,0,0.4,0c0.1,0,0.3,0,0.4,0c0.3,0,0.5,0,0.7,0.1
						c0.4,0.1,0.8,0.2,1.1,0.3c0.3,0.1,0.5,0.2,0.6,0.3c0.1,0.1,0.2,0.1,0.2,0.1c0,0-0.1,0-0.2-0.1c-0.2-0.1-0.4-0.1-0.6-0.2
						c-0.3-0.1-0.6-0.1-1.1-0.2c-0.2,0-0.4,0-0.7-0.1c-0.1,0-0.3,0-0.4,0c-0.1,0-0.3,0-0.4,0c-1.1,0.1-2.5,0.6-3.6,1.7
						c-0.6,0.5-1.1,1.2-1.6,2c-0.4,0.8-0.8,1.7-0.8,2.7l0,0.1l-0.1,0c-1.5-0.2-3.1,0.3-4.4,1.3c-1.3,1-2.3,2.7-2.3,4.7l0,0.1l-0.1,0
						c-1.6,0-3.3,0.9-4.4,2.3c-1.1,1.4-1.8,3.3-1.3,5.1l0.1,0.2l-0.2,0c-2.1-0.2-4.4,0.6-5.9,2.3c-1.5,1.7-2.2,4.2-1.5,6.5l0,0.1
						l-0.1,0.1c-1.9,1-3.9,2-5.2,3.8c-0.7,0.9-1.1,2-1.1,3.1c-0.1,1.1,0.3,2.2,1,2.9l0.1,0.1l-0.1,0.1c-1.8,1.4-3.6,2.9-4.4,4.9
						c-0.4,1-0.5,2.1-0.2,3.1c0.2,1,0.8,1.9,1.6,2.4l0.2,0.1l-0.2,0.1c-1,0.9-2.1,1.8-2.8,2.8c-0.8,1-1.2,2.3-1.1,3.5
						c0.1,1.2,0.8,2.4,1.9,2.7c1,0.4,2.4,0.2,2.9-0.8l0.1-0.1l0.1,0.1c1.7,1.3,4,1.3,5.6,0.4c1.6-0.9,2.6-2.4,2.8-3.9l0-0.1l0.1,0.1
						c0.6,0.3,1.3,0.5,1.9,0.6c0.6,0.1,1.2,0.1,1.7,0.1c1.1,0,2-0.2,2.7-0.6c0.7-0.3,1.1-0.7,1.3-1.1c0.2-0.3,0.2-0.6,0.2-0.5
						c0,0,0,0,0,0.1c0,0.1,0,0.3-0.1,0.4c-0.1,0.4-0.6,0.8-1.3,1.2"/>
				</g>
			</g>
			<g>
				<g>
					<path class="st4" d="M47.2,76c0,0-0.2-0.2-0.4-0.7c-0.2-0.5-0.5-1.2-0.6-2.2c-0.1-1,0.1-2.3,0.8-3.5c0.8-1.2,2.1-2.3,4-2.6
						l-0.1,0.1c-0.4-1.7-0.1-3.7,0.9-5.5c0.5-0.9,1.2-1.7,2.1-2.3c0.9-0.7,2-1,3-1.5c0.5-0.2,1-0.5,1.4-0.9c0.4-0.4,0.8-0.8,1-1.4
						c0.5-1.1,0.6-2.3,1.2-3.5c1.2-2.3,3.9-3.8,6.7-3.5L67,48.9c-0.4-2.5,0.4-5.3,2.2-7.3c1.9-2.1,4.8-3.1,7.4-2.9l-0.2,0.2
						c-0.4-3.2,1.4-6.4,4-7.8c2.6-1.4,5.8-1.1,8,0.3l-0.2,0c1.1-1.2,2.5-1.9,3.8-2.4c1.3-0.5,2.7-0.8,3.9-1c2.5-0.3,4.8-0.1,6.6,0.3
						c1.8,0.4,3.1,1,3.9,1.5c0.4,0.2,0.7,0.5,0.9,0.6c0.2,0.2,0.3,0.2,0.3,0.2c0,0-0.4-0.3-1.2-0.8c-0.8-0.5-2.1-1.1-3.9-1.5
						c-1.8-0.4-4-0.6-6.5-0.3c-1.3,0.1-2.6,0.5-3.9,1c-1.3,0.5-2.6,1.3-3.7,2.4l-0.1,0.1l-0.1-0.1c-2.1-1.4-5.2-1.6-7.7-0.3
						c-2.5,1.3-4.2,4.4-3.8,7.5l0,0.2l-0.2,0c-2.6-0.3-5.3,0.7-7.2,2.8c-1.8,1.9-2.5,4.6-2.1,7.1l0,0.2l-0.2,0
						c-2.6-0.4-5.2,1.1-6.3,3.3c-0.6,1.1-0.7,2.3-1.2,3.4c-0.2,0.6-0.6,1.1-1.1,1.5c-0.5,0.4-1,0.7-1.5,0.9c-1,0.5-2.1,0.8-3,1.4
						c-0.9,0.6-1.6,1.4-2.1,2.2c-1,1.7-1.3,3.7-0.9,5.3l0,0.1l-0.1,0c-1.7,0.3-3.1,1.3-3.8,2.5c-0.8,1.2-0.9,2.4-0.9,3.4
						c0.1,1,0.3,1.7,0.6,2.2C47.1,75.8,47.2,76,47.2,76z"/>
				</g>
			</g>
			<g>
				<g>
					<path class="st4" d="M152.9,77.2c0,0-0.2-0.3-0.1-0.9c0.1-0.3,0.3-0.6,0.6-0.9c0.3-0.3,0.8-0.5,1.4-0.7
						c0.5-0.2,1.2-0.4,1.7-0.7c0.5-0.4,1-1,1.2-1.8c0.2-0.8,0.3-1.6,0.2-2.5c-0.1-0.9-0.2-1.9-0.2-2.9c-0.1-2.1,0.8-4.2,1.3-6.6
						c0.2-1.2,0.3-2.4,0.1-3.6c-0.2-1.2-0.9-2.4-2.1-3.1c-1.1-0.7-2.5-0.9-3.9-1.2c-0.7-0.2-1.4-0.5-2-0.9c-0.6-0.4-1.1-1.1-1.4-1.7
						c-0.7-1.4-0.9-2.9-1.2-4.3c-0.2-0.7-0.4-1.4-0.8-2.1c-0.4-0.6-1-1.1-1.7-1.4c-1-0.3-2-0.3-3.1-0.4c-0.5,0-1.1-0.1-1.6-0.4
						c-0.5-0.2-0.9-0.6-1.2-1c-0.6-0.9-0.9-1.9-1.2-2.8c-0.3-0.9-0.8-1.8-1.4-2.5c-1.3-1.4-3.1-2.2-4.8-2.2c-1.8,0-3.5,0.7-4.7,1.8
						l-0.1,0.1l-0.1-0.2c-1.4-3-4.1-4.9-6.7-5.5c-1.3-0.3-2.6-0.4-3.7-0.3c-1.1,0.1-2.2,0.5-3,0.9c-1.7,0.9-2.7,2.1-3.2,3
						c-0.3,0.4-0.4,0.8-0.5,1c-0.1,0.1-0.1,0.2-0.1,0.3c0,0.1,0,0.1-0.1,0.1c0,0,0,0,0-0.1c0-0.1,0.1-0.2,0.1-0.3
						c0.1-0.3,0.2-0.6,0.5-1.1c0.5-0.9,1.4-2.2,3.2-3.1c0.9-0.5,1.9-0.8,3.1-0.9c1.2-0.2,2.5-0.1,3.8,0.2c2.6,0.7,5.4,2.6,6.9,5.7
						l-0.2,0c1.2-1.2,3-1.9,4.9-1.9c1.9,0,3.8,0.8,5.1,2.3c0.7,0.7,1.2,1.6,1.5,2.6c0.3,0.9,0.6,1.9,1.2,2.7
						c0.6,0.8,1.5,1.2,2.6,1.2c1,0.1,2.1,0,3.1,0.4c0.8,0.3,1.4,0.8,1.8,1.5c0.4,0.7,0.7,1.4,0.8,2.2c0.4,1.5,0.6,3,1.2,4.3
						c0.3,0.6,0.7,1.2,1.3,1.6c0.6,0.4,1.2,0.6,1.9,0.8c1.3,0.4,2.8,0.6,4,1.3c0.6,0.4,1.1,0.8,1.5,1.4c0.4,0.6,0.6,1.2,0.7,1.9
						c0.2,1.3,0.1,2.6-0.1,3.7c-0.5,2.4-1.4,4.5-1.3,6.5c0,1,0.2,2,0.2,2.9c0.1,0.9,0,1.8-0.3,2.6c-0.2,0.8-0.7,1.5-1.3,1.9
						c-0.6,0.4-1.2,0.6-1.8,0.7c-0.5,0.2-1,0.4-1.3,0.7c-0.3,0.3-0.5,0.6-0.6,0.9C152.7,76.9,152.9,77.2,152.9,77.2z"/>
				</g>
			</g>
			<g>
				<g>
					<path class="st4" d="M174,59.7c0,0,0-0.1-0.1-0.2c-0.1-0.2-0.2-0.4-0.3-0.6c-0.3-0.6-0.7-1.4-1.2-2.4c-0.5-1-1.1-2.3-1.9-3.7
						c-0.8-1.4-2-3-3.8-3.9c-0.9-0.5-1.9-0.8-3-1.2c-0.5-0.2-1-0.5-1.5-0.9c-0.5-0.4-0.9-0.9-1.2-1.4c-0.5-1.1-0.6-2.4-1-3.6
						c-0.2-0.6-0.6-1.1-1.1-1.5c-0.5-0.4-1.1-0.6-1.8-0.8c-0.6-0.2-1.3-0.4-2-0.7c-0.6-0.3-1.2-0.9-1.5-1.5c-0.7-1.3-0.7-2.8-1-4.3
						c-0.1-0.7-0.4-1.4-0.8-2c-0.4-0.6-1.1-1-1.8-1.1c-1.5-0.3-3,0.3-4.6,0c-0.8-0.1-1.6-0.5-2.1-1.1c-0.6-0.6-1-1.2-1.4-1.9
						c-0.4-0.7-0.8-1.3-1.2-1.9c-0.5-0.6-1-1.1-1.6-1.4c-1.3-0.6-2.8-0.2-4.2,0.1c-1.4,0.3-2.8,0.7-4.2,0.4
						c-1.4-0.3-2.6-0.9-3.7-1.6c-1.1-0.7-2.2-1.4-3.3-1.7c-2.3-0.8-4.6-0.6-6.6-0.1c-2,0.5-3.6,1.5-4.8,2.6c-1.2,1.1-2,2.2-2.6,3.2
						c-0.5,1-0.9,1.8-1.1,2.4c-0.1,0.3-0.2,0.5-0.2,0.6c-0.1,0.1-0.1,0.2-0.1,0.2c0,0,0-0.1,0.1-0.2c0.1-0.2,0.1-0.4,0.2-0.7
						c0.2-0.6,0.5-1.4,1.1-2.4c0.6-1,1.4-2.2,2.6-3.3c1.2-1.1,2.9-2.1,4.9-2.7c2-0.5,4.4-0.7,6.7,0.1c1.2,0.4,2.2,1.1,3.3,1.8
						c1.1,0.7,2.3,1.3,3.6,1.5c1.3,0.3,2.7-0.1,4.1-0.4c0.7-0.2,1.4-0.3,2.1-0.4c0.7-0.1,1.5,0,2.2,0.3c0.7,0.3,1.3,0.9,1.8,1.5
						c0.5,0.6,0.9,1.3,1.3,1.9c0.4,0.6,0.8,1.3,1.4,1.8c0.5,0.5,1.2,0.9,2,1c1.5,0.2,3.1-0.3,4.6,0c0.8,0.2,1.5,0.6,2,1.3
						c0.5,0.7,0.7,1.4,0.8,2.1c0.3,1.5,0.3,2.9,1,4.2c0.3,0.6,0.8,1.1,1.4,1.4c0.6,0.3,1.3,0.5,1.9,0.7c0.6,0.2,1.3,0.4,1.9,0.8
						c0.6,0.4,1,1,1.2,1.6c0.5,1.2,0.5,2.5,1,3.6c0.5,1.1,1.5,1.7,2.5,2.2c1,0.4,2.1,0.8,3,1.2c1.9,1,3,2.6,3.8,4
						c0.8,1.4,1.4,2.7,1.9,3.8c0.5,1,0.9,1.8,1.1,2.4c0.1,0.3,0.2,0.5,0.3,0.6C174,59.6,174,59.7,174,59.7z"/>
				</g>
			</g>
			<g>
				<g>
					<path class="st4" d="M162.1,48.4c0,0,0.1,0,0.2,0c0.1,0,0.3,0,0.6,0.1c0.5,0.2,1,0.9,1.1,1.9c0,0.5-0.1,1.1-0.2,1.7
						c-0.1,0.6-0.3,1.2-0.3,1.9c0,0.7,0.4,1.4,0.8,2c0.4,0.7,1,1.3,1.5,2.1c0.5,0.8,0.7,1.8,0.3,2.8c-0.3,0.9-1,1.7-1.3,2.7
						c-0.3,1-0.1,2,0.4,3c0.4,1,1.1,2,1.5,3.1c0.2,0.6,0.4,1.2,0.4,1.8c0,0.6-0.1,1.3-0.4,1.8c-0.5,1.2-1.3,2.1-2,3.2
						c-0.7,1-1.3,2.2-1.1,3.5c0.2,1.3,0.9,2.4,1.4,3.7c0.2,0.6,0.4,1.3,0.4,2c0,0.7-0.2,1.4-0.5,2c-0.6,1.2-1.5,2.2-2.3,3.2
						c-0.8,1-1.5,2-1.9,3.2c-0.4,1.2-0.6,2.4-1.1,3.5c-0.3,0.5-0.6,1-1.1,1.4c-0.5,0.4-1,0.6-1.5,0.8c-0.5,0.2-1.1,0.3-1.5,0.6
						c-0.5,0.2-0.9,0.5-1.3,0.9c-0.7,0.7-1.3,1.6-1.8,2.4c-0.5,0.8-1,1.6-1.5,2.4c-1,1.5-2.4,2.5-3.8,2.9c-1.4,0.5-2.6,0.5-3.6,0.4
						c-1-0.1-1.7-0.4-2.2-0.6c-0.5-0.2-0.7-0.4-0.7-0.4c0-0.1,0.9,0.7,2.9,0.9c1,0.1,2.2,0,3.5-0.5c1.3-0.5,2.7-1.4,3.7-2.9
						c0.5-0.7,0.9-1.5,1.4-2.4c0.5-0.8,1-1.7,1.8-2.5c0.4-0.4,0.8-0.7,1.3-0.9c0.5-0.2,1-0.4,1.6-0.6c0.5-0.2,1-0.4,1.5-0.7
						c0.4-0.3,0.8-0.8,1-1.3c0.5-1,0.7-2.2,1.1-3.4c0.3-1.2,1.1-2.3,1.9-3.3c0.8-1,1.7-1.9,2.3-3.1c0.3-0.6,0.4-1.2,0.4-1.8
						c0-0.6-0.2-1.3-0.4-1.9c-0.5-1.2-1.2-2.4-1.4-3.8c-0.1-0.7,0-1.4,0.2-2c0.2-0.6,0.6-1.2,0.9-1.7c0.7-1.1,1.5-2,2-3.1
						c0.2-0.5,0.4-1.1,0.4-1.7c0-0.6-0.1-1.1-0.4-1.7c-0.4-1.1-1-2-1.5-3.1c-0.5-1-0.7-2.2-0.3-3.2c0.4-1,1-1.8,1.3-2.7
						c0.4-0.9,0.2-1.8-0.3-2.6c-0.4-0.8-1-1.4-1.4-2.1c-0.4-0.7-0.8-1.4-0.8-2.1c0-0.7,0.1-1.4,0.3-2c0.1-0.6,0.3-1.1,0.2-1.6
						c-0.1-1-0.6-1.7-1-1.9C162.3,48.3,162,48.4,162.1,48.4z"/>
				</g>
			</g>
			<g>
				<g>
					<path class="st1" d="M47.5,75.6c0,0-0.3,0-0.9-0.1c-0.6-0.1-1.4-0.3-2.3-1c-0.9-0.6-1.9-1.7-2.4-3.2c-0.5-1.5-0.4-3.5,0.8-5.2
						c0.6-0.8,1.4-1.6,2.2-2.3c0.8-0.8,1.6-1.6,2-2.7c0.4-1.1,0.2-2.3-0.2-3.5c-0.4-1.2-1.1-2.3-1.5-3.6c-0.8-2.6-0.7-5.7,0.7-8.4
						c1.4-2.7,4-4.8,7.2-5.6l-0.1,0.3c-0.5-0.7-0.9-1.5-1-2.4c-0.1-0.9-0.1-1.8,0.1-2.6c0.2-0.9,0.6-1.7,1.1-2.4
						c0.5-0.7,1.1-1.4,1.8-2c2.1-1.7,4.7-2.5,7.2-3.1c2.5-0.5,5-0.7,7.4-0.5l-0.2,0.2c0-3,1.8-5.7,4.3-6.9c1.2-0.6,2.6-0.9,3.9-0.8
						c1.3,0,2.5,0.5,3.6,0.9c0.6,0.2,1.1,0.3,1.7,0.4c0.6,0,1.1,0,1.7-0.2c1.1-0.3,2-0.9,2.9-1.5c0.9-0.6,1.8-1,2.8-1.3
						c0.9-0.3,1.9-0.4,2.8-0.4c1.8,0,3.4,0.5,4.6,1.2c1.2,0.7,2.1,1.5,2.7,2.3c0.6,0.8,1,1.4,1.2,1.9c0.2,0.5,0.3,0.7,0.3,0.7
						c0,0-0.1-0.2-0.3-0.7c-0.2-0.4-0.6-1.1-1.2-1.8c-0.6-0.7-1.5-1.6-2.7-2.2c-1.2-0.7-2.8-1.1-4.5-1.1c-0.9,0-1.8,0.1-2.7,0.4
						c-0.9,0.3-1.8,0.8-2.7,1.3c-0.9,0.5-1.8,1.2-2.9,1.5c-0.6,0.2-1.2,0.3-1.8,0.2c-0.6,0-1.2-0.2-1.8-0.4
						c-1.2-0.4-2.3-0.8-3.6-0.9c-1.2,0-2.5,0.2-3.7,0.8c-2.4,1.1-4.1,3.8-4.1,6.6l0,0.2l-0.2,0c-2.4-0.2-4.8-0.1-7.3,0.5
						c-2.5,0.5-5,1.4-7.1,3c-0.7,0.5-1.3,1.2-1.8,1.9c-0.5,0.7-0.8,1.5-1,2.3c-0.2,0.8-0.2,1.7-0.1,2.5c0.1,0.8,0.5,1.6,0.9,2.2
						l0.2,0.2l-0.2,0.1c-3.1,0.7-5.7,2.8-7,5.4c-1.4,2.6-1.5,5.6-0.7,8.1c0.4,1.3,1.1,2.4,1.5,3.6c0.5,1.2,0.7,2.5,0.2,3.7
						c-0.4,1.2-1.3,2-2.1,2.7c-0.8,0.8-1.6,1.5-2.2,2.3c-1.1,1.6-1.3,3.6-0.8,5.1c0.4,1.5,1.4,2.5,2.3,3.2c0.9,0.6,1.7,0.9,2.3,1
						C47.2,75.6,47.5,75.6,47.5,75.6z"/>
				</g>
			</g>
			<g>
				<g>
					<path class="st1" d="M165.8,40.7c0,0,0-0.1,0-0.2c0-0.2,0-0.4-0.1-0.6c-0.1-0.6-0.2-1.4-0.3-2.4c-0.1-1-0.3-2.3-0.6-3.7
						c-0.3-1.4-0.8-3.1-1.5-4.7c-0.8-1.7-1.9-3.4-3.6-4.8c-0.8-0.7-1.8-1.3-2.9-1.7c-1.1-0.4-2.3-0.6-3.5-0.9
						c-1.2-0.3-2.4-0.7-3.5-1.5c-1.1-0.8-2-1.7-2.9-2.7c-0.9-1-1.7-2.1-2.7-3.1c-1-1-2.1-1.8-3.4-2.4c-2.6-1.2-5.4-1.5-8-1.6
						c-2.7,0-5.2,0.1-7.7,0.4c-4.9,0.6-9.1,2-12.4,3.7c-3.3,1.7-5.6,3.6-7.1,5.1c-0.4,0.4-0.7,0.7-1,1c-0.3,0.3-0.5,0.6-0.7,0.8
						c-0.2,0.2-0.3,0.4-0.4,0.5c-0.1,0.1-0.1,0.2-0.1,0.2c0,0,0-0.1,0.1-0.2c0.1-0.1,0.2-0.3,0.4-0.5c0.2-0.2,0.4-0.5,0.6-0.8
						c0.3-0.3,0.6-0.6,0.9-1c1.4-1.5,3.8-3.5,7.1-5.2c3.3-1.7,7.6-3.1,12.5-3.8c2.4-0.3,5-0.5,7.7-0.5c2.7,0.1,5.5,0.4,8.1,1.6
						c1.3,0.6,2.5,1.5,3.5,2.5c1,1,1.8,2.1,2.7,3.1c0.9,1,1.8,2,2.8,2.7c1,0.7,2.2,1.2,3.4,1.4c1.2,0.3,2.4,0.5,3.5,1
						c1.1,0.4,2.1,1,2.9,1.8c1.7,1.4,2.9,3.2,3.6,4.9c0.8,1.7,1.2,3.4,1.5,4.8c0.3,1.5,0.4,2.7,0.5,3.8c0.1,1,0.2,1.8,0.2,2.4
						c0,0.3,0,0.5,0,0.6C165.8,40.6,165.8,40.7,165.8,40.7z"/>
				</g>
			</g>
			<g>
				<g>
					<path class="st20" d="M117.6,86.8c0.1-1.5,1-2.9,2.4-3.5c1.4-0.6,3.1-0.2,4.1,0.9c0.9,1.1,1,2.8,0.2,3.9
						c-0.4,0.6-0.9,1.1-1.6,1.4c-0.8,0.4-1.8,0.4-2.7,0.3c-0.7-0.1-1.5-0.5-1.9-1C117.7,88.2,117.5,87.5,117.6,86.8z"/>
				</g>
			</g>
			<g>
				<g>
					<g>
						<g>
							<g>
								<g>
									<g>
										<g>
											<g>
												<g>
													<g>
														<path class="st1" d="M119,81.5c0.4,0,0.2,2.8,2.4,4.9c2.2,2.2,5.2,2.1,5.2,2.5c0,0.2-0.7,0.5-1.9,0.4
															c-1.2-0.1-3-0.6-4.3-1.9c-1.3-1.3-1.8-3-1.8-4.1C118.4,82.1,118.8,81.4,119,81.5z"/>
													</g>
												</g>
											</g>
										</g>
									</g>
								</g>
							</g>
						</g>
					</g>
				</g>
			</g>
		</g>
	</g>
	<path class="st14" d="M70.7,127.3l21.4-8.1c0,0,16.5,9.8,29.3,7.8c9.9-1.6,10.7-6.7,10.7-6.7l11.9,1.9c0,0,18,14.9,21.7,30.1
		c2.2,9,2.8,20.7,2.8,31c0,4.1-5.3,20.4-5.3,20.4l-2,23.6l9.9,39.3H67.4V157.9L70.7,127.3z"/>
	<path class="st19" d="M139.4,173.3c0,0-14.9,55-23.2,65.1c-8.3,10.1-12.8,13.1-25.6,14.1c-12.8,1-17.5-13.8-20.4-19.5
		c-2.8-5.8-2.3-14.4-2.3-14.4l17.4-9.7l13.8,22.7l35.5-59.3L139.4,173.3z"/>
	<path class="st0" d="M137.1,180.5c0,0-15.1,35.2-26,55.4c-9.2,17.1-27.9,15.2-33.9,5.7c-5.9-9.5-15.9-38-15.9-38l31.6-5.6l3.5,10
		l24-30.6L137.1,180.5z"/>
	<path class="st0" d="M111.2,175.4l2.3-10.5c0,0,1.1-2.9,2.8-0.3c1.7,2.6,0.9,7.4,0.9,7.4s3.3-25.1,6.2-27.8c1.1-1,2.5,0.4,2.5,0.4
		s0.3-4.9,1.9-4.9c1.5,0,3,3.7,3,3.7s1.9-1,3.4,0.8c1.3,1.6,1.4,15.3,1.4,15.3s1.3-11.2,3.3-11.9c3.2-1.1,3.2,3.1,3.2,3.1l-0.9,14.6
		c0,0-1.8,10-4,16.2c-2.2,6.3-3.5,6.3-3.5,6.3l-14.4-0.4c0,0-3.3-3-5.8-5.3C111.5,180.4,110.6,177.9,111.2,175.4z"/>
	<g>
		<path class="st20" d="M86.7,222.3c0,0,0.1-0.1,0.2-0.4c0.2-0.3,0.4-0.8,0.6-1.3c0.3-0.6,0.7-1.2,1.1-2c0.5-0.7,1-1.6,1.6-2.5
			c2.5-3.7,6.3-8.5,10.6-13.7c4.3-5.2,8.3-9.9,11.1-13.4c1.4-1.7,2.5-3.1,3.2-4.1c0.3-0.5,0.6-0.9,0.8-1.2c0.2-0.3,0.3-0.4,0.3-0.4
			c0,0-0.1,0.1-0.3,0.4c-0.2,0.3-0.5,0.7-0.9,1.1c-0.8,1-1.9,2.4-3.3,4.1c-2.8,3.4-6.8,8-11.2,13.3c-4.3,5.2-8,10.1-10.5,13.8
			c-0.6,0.9-1.1,1.8-1.6,2.6c-0.4,0.8-0.8,1.4-1.1,2c-0.2,0.5-0.4,1-0.5,1.3C86.7,222.1,86.7,222.3,86.7,222.3z"/>
	</g>
	<g>
		<path class="st14" d="M74.3,126.3c0,0-17.3,3.5-21.6,23.1c-4,18-2.8,56.2-2.8,56.2l47-8.3l-11.4-65.3L74.3,126.3z"/>
		<g>
			<path class="st14" d="M90.3,157.5c0,0,0,0.1,0,0.2c0,0.2,0,0.4,0.1,0.6c0.1,0.6,0.2,1.3,0.3,2.3c0.3,2,0.8,4.9,1.4,8.5
				c1.2,7.2,2.8,17.2,4.7,28.2l0.2-0.3c-0.5,0.1-1,0.2-1.5,0.3c-11.4,2.1-21.7,3.9-29.2,5.3c-3.7,0.7-6.7,1.3-8.8,1.6
				c-1,0.2-1.8,0.4-2.4,0.5c-0.3,0.1-0.5,0.1-0.6,0.1c-0.1,0-0.2,0.1-0.2,0.1c0,0,0.1,0,0.2,0c0.2,0,0.4-0.1,0.6-0.1
				c0.6-0.1,1.4-0.2,2.4-0.4c2.1-0.4,5.1-0.9,8.9-1.5c7.5-1.3,17.8-3.1,29.2-5.1c0.5-0.1,1.1-0.2,1.5-0.3l0.2,0l0-0.2
				c-1.9-11-3.6-21-4.8-28.2c-0.6-3.6-1.1-6.4-1.5-8.5c-0.2-1-0.3-1.7-0.4-2.3c0-0.2-0.1-0.4-0.1-0.6
				C90.3,157.6,90.3,157.5,90.3,157.5z"/>
		</g>
		<g>
			<path class="st14" d="M87.6,151.3c0,0-0.1-0.4-0.4-1.1c-0.3-0.7-0.7-1.7-1.2-3c-1.1-2.5-2.7-6-5.6-8.9c-1.5-1.5-3.2-2.6-4.8-3.3
				c-1.6-0.8-3.2-1.2-4.6-1.5c-1.3-0.3-2.4-0.3-3.2-0.3c-0.8,0-1.2,0-1.2,0.1c0,0.1,1.7,0,4.3,0.6c2.6,0.6,6.2,1.9,9.1,4.8
				c2.9,2.9,4.5,6.3,5.7,8.7c0.5,1.2,1,2.1,1.3,2.9C87.4,150.9,87.6,151.3,87.6,151.3z"/>
		</g>
	</g>
	<g>
		<path class="st20" d="M131,161.6c0.1,0,0.1-1,0.2-2.7c0.1-1.6,0.2-3.9,0.2-6.5c0-2.5-0.1-4.8-0.3-6.5c-0.2-1.6-0.4-2.7-0.4-2.6
			c-0.1,0,0,1,0.1,2.7c0.1,1.6,0.1,3.9,0.1,6.4c0,2.4,0,4.7-0.1,6.4C130.9,160.6,130.9,161.6,131,161.6z"/>
	</g>
	<g>
		<path class="st20" d="M126.2,144.7c-0.1,0-0.1,0.8-0.1,2.2c0,1.3-0.1,3.2-0.2,5.2c-0.1,2-0.2,3.9-0.3,5.2
			c-0.1,1.3-0.2,2.2-0.1,2.2c0.1,0,0.2-0.8,0.4-2.1c0.2-1.3,0.4-3.2,0.5-5.2c0.1-2.1,0.1-3.9,0.1-5.3
			C126.4,145.6,126.3,144.7,126.2,144.7z"/>
	</g>
	<path class="st14" d="M155.6,181c0.2,1.5,7.3,16.3,7.3,16.3l23.3-15.2c0,0-15-35.7-26-38.1L155.6,181z"/>
	<g>
		<g>
			<g>
				<g>
					<g>
						<g>
							<g>
								<g>
									<g>
										<path class="st0" d="M195.5,139.4l0.3-11.3l-0.8-14.4l-2.3-12c0,0-0.6-1.2-2.1-0.3c-1.5,0.9-0.2,7.4-0.2,7.4l0.2,4.9
											c0,0-0.9,3.8-1.2,3.5c-0.3-0.3-1.2-7-1.2-7l-2.8-14.3c0,0-0.7-1.5-2.4-1c-1,0.3-1.6,1.7-1.5,3.8c0.1,2.1,1,5.7,1.1,6.9
											c0.1,1.2,0.9,8.1,0.9,8.1l-4.8-16c0,0-0.9-5.2-3.1-4.4c-2.2,0.7-0.7,4.5-0.6,6.1c0.1,1.6,3.2,12.5,3,15.5
											c-0.3,3-0.7,1.5-0.7,1.5s-1.3-5-2.2-8.9c-1-3.9-2.5-6.2-4.2-6.5c-1.7-0.3,0.6,8.9,0.6,8.9l2.9,12.8l-0.7,4.1l-2.8-3.7
											c0,0-0.1-4.8-3.1-6.8c-3-2-3.8,0.2-3.8,0.2l5.6,18.6c1.3,3,9.9,8.9,9.9,8.9l1.5,18.6l19-0.4L195.5,139.4z"/>
									</g>
								</g>
							</g>
						</g>
					</g>
				</g>
			</g>
			<g>
				<g>
					<g>
						<g>
							<path class="st0" d="M188.8,132.7c-0.1,0.1-1-0.8-2.5-2.1c-1.5-1.3-3.9-3-7-2.9c-1.3,0-2.6,0.5-3.4,1.2l-0.3,0.3l-0.3-0.4
								c-1.2-1.6-2.5-3-3.3-4c-0.8-1-1.2-1.7-1.1-1.7c0.1,0,0.6,0.5,1.5,1.4c0.9,1,2.2,2.2,3.6,3.9l-0.6-0.1c1-0.9,2.4-1.4,3.9-1.5
								c1.7-0.1,3.2,0.4,4.4,1.1c1.2,0.7,2.2,1.5,2.9,2.2C188.2,131.6,188.9,132.6,188.8,132.7z"/>
						</g>
					</g>
				</g>
			</g>
		</g>
		<polygon class="st0" points="183.9,204.2 179.9,146.3 196,141.2 207.6,204.2 		"/>
	</g>
</g>
<g id="Ebene_2">
</g>
</svg>
