<?xml version="1.0" encoding="utf-8"?>
<!-- Generator: Adobe Illustrator 26.1.0, SVG Export Plug-In . SVG Version: 6.00 Build 0)  -->
<svg version="1.1" xmlns="http://www.w3.org/2000/svg" xmlns:xlink="http://www.w3.org/1999/xlink" x="0px" y="0px"
	 viewBox="0 0 321.7 297.6" style="enable-background:new 0 0 321.7 297.6;" xml:space="preserve">
<style type="text/css">
	.st0{fill:#834F45;}
	.st1{fill:#263239;}
	.st2{fill:#F8BC9E;}
	.st3{fill:#EC9A6E;}
	.st4{fill:#455A64;}
	.st5{fill:#F5F4F5;}
	.st6{fill:#E0E0E0;}
	.st7{fill:none;stroke:#444C52;stroke-miterlimit:10;}
	.st8{fill:#E9505B;}
	.st9{opacity:0.4;}
	.st10{fill:#010202;}
	.st11{fill:#FBFBFB;}
	.st12{opacity:0.3;}
	.st13{fill:#EE7160;}
	.st14{fill:#8E3039;}
	.st15{fill:#EBEBEB;}
	.st16{fill:#C27461;}
	.st17{fill:#7E4436;}
	.st18{opacity:0.3;fill:#8E3039;}
	.st19{opacity:0.3;fill:#010202;}
	.st20{fill:#5B342F;}
	.st21{fill:#A56A5F;}
	.st22{fill:#83544C;}
	.st23{fill:#FFFFFF;}
</style>
<g id="Ebene_1">
	<g>
		<g>
			<g>
				<g>
					<path class="st21" d="M259.5,221.4c0,0,7.4-9.7,10.9-10.1c3.5-0.4,25.2,0.4,28.3,0c3.1-0.4,20.3-7.6,20.3-7.6s3.1,1,2.7,3.8
						c-0.4,2.7-19.5,13.1-21.8,13.4c-2.3,0.4-20.7,1.7-20.7,1.7l-4.6,8.3L259.5,221.4z"/>
				</g>
			</g>
			<g>
				<g>
					<g>
						<g>
							<path class="st1" d="M212.5,98.8c3.7-1.7,6.4-5.4,6.8-9.5c0.4-4.1-1.6-8.3-5-10.6l-13.4-4.5c-1.9,17.3-4,34.6-6.2,51.9
								c3.6-0.2,7.3-0.8,10.3-2.9c3-2.1,4.9-5.9,3.8-9.4c2.9-1,5.3-3.5,6-6.6C215.6,104.3,214.6,101,212.5,98.8z"/>
						</g>
					</g>
				</g>
				<g>
					<g>
						<g>
							<g>
								<g>
									<g>
										<g>
											<g>
												<g>
													<g>
														<g>
															<g>
																<g>
																	<path class="st21" d="M146.7,88.6l0.5-6.2l37.7-3.3c11.5,0,22.7,12.6,22.2,24.2c-0.5,12.8-1.6,28.4-4.1,37.7
																		c-5,18.8-19.8,19.7-19.8,19.7l-1.3,18.9c-1,11-10.5,12.5-21.5,11.5l0,0c-10.8-1-18.8-10.3-18.2-21.1L146.7,88.6z"
																		/>
																</g>
															</g>
														</g>
													</g>
												</g>
											</g>
										</g>
									</g>
								</g>
								<g>
									<g>
										<g>
											<g>
												<g>
													<g>
														<g>
															<g>
																<g>
																	<g>
																		<g>
																			<g>
																				<g>
																					<g>
																						<g>
																							<g>
																								<g>
																									<path class="st1" d="M201.1,116.9c-0.1,1.3-1.3,2.3-2.6,2.2c-1.4-0.1-2.4-1.2-2.3-2.5
																										c0.1-1.3,1.3-2.3,2.6-2.2C200.2,114.5,201.2,115.6,201.1,116.9z"/>
																								</g>
																							</g>
																						</g>
																					</g>
																				</g>
																			</g>
																		</g>
																	</g>
																</g>
															</g>
														</g>
													</g>
												</g>
											</g>
										</g>
									</g>
									<g>
										<g>
											<g>
												<g>
													<g>
														<g>
															<g>
																<g>
																	<g>
																		<g>
																			<g>
																				<g>
																					<g>
																						<g>
																							<g>
																								<g>
																									<g>
																										<path class="st1" d="M202.2,111c-0.3,0.3-2-1.3-4.7-1.5c-2.6-0.3-4.7,0.9-4.9,0.5
																											c-0.1-0.2,0.2-0.7,1.1-1.2c0.9-0.5,2.4-1,4-0.8c1.6,0.2,3,0.9,3.7,1.6C202.2,110.3,202.4,110.9,202.2,111
																											z"/>
																									</g>
																								</g>
																							</g>
																						</g>
																					</g>
																				</g>
																			</g>
																		</g>
																	</g>
																</g>
															</g>
														</g>
													</g>
												</g>
											</g>
										</g>
									</g>
								</g>
								<g>
									<g>
										<g>
											<g>
												<g>
													<g>
														<g>
															<g>
																<g>
																	<g>
																		<g>
																			<g>
																				<g>
																					<g>
																						<g>
																							<g>
																								<g>
																									<path class="st1" d="M176.5,115.4c-0.1,1.3-1.3,2.3-2.6,2.2c-1.4-0.1-2.4-1.2-2.3-2.5
																										c0.1-1.3,1.3-2.3,2.6-2.2C175.6,113,176.6,114.1,176.5,115.4z"/>
																								</g>
																							</g>
																						</g>
																					</g>
																				</g>
																			</g>
																		</g>
																	</g>
																</g>
															</g>
														</g>
													</g>
												</g>
											</g>
										</g>
									</g>
									<g>
										<g>
											<g>
												<g>
													<g>
														<g>
															<g>
																<g>
																	<g>
																		<g>
																			<g>
																				<g>
																					<g>
																						<g>
																							<g>
																								<g>
																									<g>
																										<path class="st1" d="M176.3,108.9c-0.3,0.3-2.1-1.3-4.7-1.5c-2.6-0.3-4.7,0.9-5,0.5
																											c-0.1-0.2,0.2-0.7,1.1-1.2c0.9-0.5,2.4-1,4-0.8c1.6,0.2,3,0.9,3.7,1.6
																											C176.3,108.2,176.5,108.8,176.3,108.9z"/>
																									</g>
																								</g>
																							</g>
																						</g>
																					</g>
																				</g>
																			</g>
																		</g>
																	</g>
																</g>
															</g>
														</g>
													</g>
												</g>
											</g>
										</g>
									</g>
								</g>
								<g>
									<g>
										<g>
											<g>
												<g>
													<g>
														<g>
															<g>
																<g>
																	<g>
																		<g>
																			<g>
																				<g>
																					<g>
																						<g>
																							<g>
																								<g>
																									<path class="st1" d="M183.9,129.4c0-0.2,1.7-0.3,4.4-0.3c0.7,0,1.3-0.1,1.5-0.5c0.2-0.5,0-1.2-0.2-2
																										c-0.5-1.7-1-3.5-1.5-5.3c-2-7.6-3.4-13.8-3.1-13.8c0.3-0.1,2.2,6,4.2,13.6c0.5,1.9,0.9,3.6,1.4,5.3
																										c0.2,0.8,0.5,1.7,0.1,2.7c-0.2,0.5-0.8,0.8-1.2,0.9c-0.4,0.1-0.8,0.1-1.2,0
																										C185.5,129.7,183.9,129.5,183.9,129.4z"/>
																								</g>
																							</g>
																						</g>
																					</g>
																				</g>
																			</g>
																		</g>
																	</g>
																</g>
															</g>
														</g>
													</g>
												</g>
											</g>
										</g>
									</g>
								</g>
								<g>
									<g>
										<g>
											<g>
												<g>
													<g>
														<g>
															<g>
																<g>
																	<g>
																		<g>
																			<g>
																				<g>
																					<g>
																						<g>
																							<g>
																								<path class="st22" d="M183.2,160.8c0,0-13.6-0.6-25.5-9.5c0,0,5.1,14,25,14.3L183.2,160.8z"/>
																							</g>
																						</g>
																					</g>
																				</g>
																			</g>
																		</g>
																	</g>
																</g>
															</g>
														</g>
													</g>
												</g>
											</g>
										</g>
									</g>
								</g>
							</g>
						</g>
					</g>
					<g>
						<g>
							<g>
								<g>
									<g>
										<g>
											<g>
												<g>
													<g>
														<g>
															<g>
																<g>
																	<g>
																		<g>
																			<g>
																				<g>
																					<path class="st1" d="M177.7,101.5c-0.3,0.7-2.9,0.1-6.1,0.1c-3.1,0-5.7,0.6-6.1,0c-0.2-0.3,0.4-1,1.4-1.5
																						c1.1-0.6,2.7-1.1,4.6-1.1c1.9,0,3.5,0.5,4.6,1C177.3,100.6,177.8,101.2,177.7,101.5z"/>
																				</g>
																			</g>
																		</g>
																	</g>
																</g>
															</g>
														</g>
													</g>
												</g>
											</g>
										</g>
									</g>
								</g>
							</g>
						</g>
					</g>
					<g>
						<g>
							<g>
								<g>
									<g>
										<g>
											<g>
												<g>
													<g>
														<g>
															<g>
																<g>
																	<g>
																		<g>
																			<g>
																				<g>
																					<path class="st1" d="M203.1,102c-0.5,0.6-2.3-0.3-4.5-0.5c-2.2-0.3-4.1,0-4.4-0.7c-0.2-0.3,0.2-0.9,1.1-1.4
																						c0.9-0.5,2.2-0.8,3.7-0.6c1.5,0.2,2.7,0.9,3.4,1.6C203.1,101.1,203.3,101.7,203.1,102z"/>
																				</g>
																			</g>
																		</g>
																	</g>
																</g>
															</g>
														</g>
													</g>
												</g>
											</g>
										</g>
									</g>
								</g>
							</g>
						</g>
					</g>
				</g>
				<g>
					<g>
						<g>
							<path class="st1" d="M215.5,87c4.1-2.2,6.4-7.1,5.9-11.8c-0.6-4.6-3.9-8.7-8.2-10.5c-0.9-0.4-1.8-0.6-2.7-0.8
								c-1.7-1.2-3.7-2.1-5.8-2.3c0-2.5-2-4.6-4.4-5.5c-2.3-0.9-4.9-0.8-7.4-0.5c-2.1-3.3-5.9-5.5-9.8-5.7
								c-3.9-0.2-7.9,1.5-10.4,4.5c-2.6-1.9-6-2.5-9-1.6c-3,0.9-5.6,3.3-6.7,6.3c-2.8-0.2-5.6,0.8-7.6,2.7c-0.8,0.7-1.4,1.5-1.9,2.5
								c-1,1-1.7,2.2-2.2,3.6c-4.7,0-9.2,3.2-10.8,7.6c-1.6,4.4-0.1,9.7,3.4,12.7c-2.5,2-4.1,5.3-3.9,8.6c0.1,3.3,1.8,6.4,4.5,8.3
								c-1.5,3.3-1.5,7.3,0,10.6c0.6,1.4,1.7,2.8,3,3.5c0,0.3,0.1,0.5,0.2,0.7c1,1.9,3.8,1.4,5.6,0.3c4.4-2.8,7-7.6,8.7-12.5
								c1.7-4.9,2.5-10.1,4.1-15c0-0.1,0.1-0.2,0.1-0.3c0.7-2.1,1.8-3.9,3.3-5.4c1.4,1.2,2.7,2.4,4.3,3.4c5.5,3.5,13.3,2.7,18-1.7
								c3.6,3.7,8.5,6.1,13.6,6.6c5.1,0.5,10.3,0.1,14.6-2.8c0.8-0.5,1.9-1.5,2.6-3C217.2,88.6,216.4,87.3,215.5,87z"/>
						</g>
					</g>
				</g>
				<g>
					<g>
						<g>
							<g>
								<g>
									<g>
										<g>
											<g>
												<g>
													<g>
														<path class="st21" d="M147.2,114.2c-0.2-0.2-9.8-5-11.4,5.4c-1.6,10.4,9.2,9.8,9.3,9.5
															C145.1,128.8,147.2,114.2,147.2,114.2z"/>
													</g>
												</g>
											</g>
										</g>
									</g>
								</g>
							</g>
						</g>
					</g>
				</g>
				<g>
					<g>
						<g>
							<g>
								<g>
									<g>
										<g>
											<g>
												<g>
													<g>
														<g>
															<path class="st22" d="M142.5,124.7c0,0-0.2,0.1-0.5,0.2c-0.3,0.1-0.8,0.1-1.4-0.2c-1-0.6-1.7-2.5-1.5-4.3
																c0.1-1,0.4-1.8,0.9-2.5c0.4-0.7,1-1.2,1.6-1.2c0.6,0,0.9,0.3,1,0.7c0.1,0.3,0,0.5,0.1,0.5c0,0,0.2-0.1,0.2-0.6
																c0-0.2-0.1-0.5-0.3-0.7c-0.2-0.2-0.6-0.4-1-0.4c-0.8-0.1-1.6,0.6-2.1,1.3c-0.5,0.8-0.9,1.7-1.1,2.8
																c-0.2,2.1,0.5,4.2,2,4.9c0.7,0.3,1.3,0.2,1.7,0C142.4,124.9,142.5,124.7,142.5,124.7z"/>
														</g>
													</g>
												</g>
											</g>
										</g>
									</g>
								</g>
							</g>
						</g>
					</g>
				</g>
				<g>
					<g>
						<g>
							<g>
								<path class="st4" d="M221.1,73.4c0,0,0,0.1,0.1,0.3c0,0.2,0.1,0.4,0.1,0.8c0,0.7,0,1.7-0.4,2.9c-0.4,1.2-1.2,2.7-2.7,3.8
									c-1.4,1.1-3.5,1.9-5.8,1.7l0.2-0.1c-0.8,2.9-2.6,6.1-5.4,8.6c-1.4,1.2-3.1,2.3-5,2.9c-1.9,0.7-4.1,0.6-6.1,0.2
									c-2-0.4-3.9-1.2-5.6-2.1c-1.7-1-3.3-2.1-4.5-3.5l0.3,0c-3,2.2-6.2,3.6-9.3,3.8c-3.1,0.2-5.8-0.6-7.8-1.6
									c-2-1-3.4-2.2-4.2-3.1c-0.4-0.4-0.7-0.8-0.9-1c-0.2-0.2-0.3-0.4-0.3-0.4c0,0,0.4,0.5,1.3,1.3c0.9,0.8,2.2,2,4.2,2.9
									c2,0.9,4.6,1.7,7.6,1.5c3-0.3,6.2-1.7,9.1-3.8l0.2-0.1l0.1,0.2c1.1,1.3,2.7,2.4,4.4,3.3c1.7,0.9,3.5,1.7,5.5,2.1
									c2,0.4,4,0.5,5.9-0.2c1.9-0.6,3.5-1.6,4.8-2.8c2.7-2.4,4.5-5.5,5.3-8.3l0-0.2l0.2,0c2.2,0.2,4.2-0.5,5.6-1.5
									c1.4-1.1,2.2-2.4,2.7-3.6c0.4-1.2,0.5-2.2,0.5-2.9C221.1,73.8,221,73.4,221.1,73.4z"/>
							</g>
						</g>
					</g>
				</g>
				<g>
					<g>
						<g>
							<g>
								<path class="st4" d="M147,67.5c0.1,0-0.7,1.2-1.4,3.5c-0.6,2.2-1,5.8,0.5,9.5l0.1,0.2l-0.1,0.1c-1.3,0.9-2.5,2.2-3.3,3.9
									c-0.8,1.6-1.1,3.6-0.8,5.5c0.4,2.5,1.9,4.8,3.7,6.1l0.2,0.1l-0.1,0.2c-1.4,2-2,4.3-2,6.4c-0.1,2,0.3,3.9,0.9,5.3
									c1.1,2.8,2.6,4,2.5,4.1c0,0-0.1-0.1-0.3-0.2c-0.1-0.2-0.4-0.4-0.7-0.7c-0.5-0.6-1.3-1.6-1.8-3.1c-0.6-1.4-1.1-3.3-1-5.4
									c0-2.1,0.6-4.5,2.1-6.6l0.1,0.3c-1.9-1.4-3.5-3.7-3.9-6.4c-0.4-2,0-4.1,0.8-5.8c0.8-1.7,2.1-3.1,3.5-4l-0.1,0.3
									c-1.5-3.9-1.1-7.5-0.3-9.7c0.4-1.1,0.8-2,1.1-2.6c0.2-0.3,0.3-0.5,0.4-0.6C146.9,67.6,147,67.5,147,67.5z"/>
							</g>
						</g>
					</g>
				</g>
				<g>
					<g>
						<g>
							<g>
								<path class="st1" d="M139.5,128c0.1,0-0.4,0.7-0.5,1.8c0,0.6,0.1,1.3,0.5,1.9c0.4,0.6,1.2,1,2.1,0.9
									c0.8-0.1,1.4-0.8,1.5-1.5c0.2-0.7,0.1-1.4-0.1-2c-0.4-1.1-0.7-1.8-0.7-1.8c0,0,0.5,0.6,1,1.7c0.2,0.6,0.4,1.3,0.2,2.2
									c-0.1,0.4-0.3,0.8-0.6,1.2c-0.3,0.4-0.8,0.6-1.3,0.7c-1,0.1-2-0.4-2.5-1.1c-0.5-0.7-0.6-1.5-0.5-2.2
									C138.9,128.6,139.5,128,139.5,128z"/>
							</g>
						</g>
					</g>
				</g>
				<g>
					<g>
						<g>
							<g>
								<g>
									<g>
										<g>
											<path class="st22" d="M177,132.5c-1.2,1-1.8,2.6-1.7,4.2c0.2,1.5,1.1,3,2.5,3.7c0.5,0.3,1.2,0.5,1.8,0.4
												c1.1-0.2,1.8-1.2,2.4-2.1c0.5-0.8,1-1.5,1.5-2.3c0.2-0.3,0.3-0.5,0.3-0.8c-0.1-0.3-0.4-0.5-0.7-0.6
												c-1.9-0.9-3.9-1.9-5.8-2.8"/>
										</g>
									</g>
								</g>
							</g>
						</g>
					</g>
					<g>
						<g>
							<g>
								<g>
									<g>
										<g>
											<g>
												<path class="st1" d="M179.5,140.5c0,0.1-1.1,0-2.7-0.9c-0.8-0.5-1.6-1.3-2-2.5c-0.2-0.6-0.2-1.4,0-2
													c0.2-0.6,0.5-1.3,0.9-1.9c0.4-0.6,0.9-1,1.5-1.3l0.2-0.1l0.2,0.1c3.8,2.3,6.8,3.7,6.7,3.9c-0.1,0.2-3.2-1-7.1-3.2h0.4
													c-0.5,0.3-0.9,0.7-1.3,1.2c-0.7,1-1.2,2.2-0.9,3.2c0.3,1,1,1.8,1.6,2.2C178.5,140,179.6,140.4,179.5,140.5z"/>
											</g>
										</g>
									</g>
								</g>
							</g>
						</g>
					</g>
				</g>
			</g>
			<g>
				<g>
					<g>
						<path class="st4" d="M40.3,266c0,0,37.9-67.9,44.2-78.9c7.4-12.9,13.9-17.6,19.7-20.4c6.1-2.9,12.8-4.3,19.6-4.4l18.8-0.1
							c0,0,7.1,10.7,16.8,12.8c13.3,2.9,23.3-7,23.3-7l27,11.1l-5.4,49.9c-1.4,12.6-6,24.6-13.3,34.8l-1.8,2.3l-99.5-0.1l11.5-35.9
							l-21.3,36H40.3z"/>
					</g>
				</g>
				<g>
					<g>
						<path class="st4" d="M207.1,179c0,0,6.5,4.5,11.4,23.1c4.9,18.7,15.4,51.8,15.4,51.8l26.4-35.4l15.7,11.8
							c0,0-25.3,51.9-29.3,58c-6,9.2-21.1,14.4-30,2.2c-6.4-8.8-21.9-51.6-21.9-51.6L207.1,179z"/>
					</g>
				</g>
				<g>
					<g>
						<g>
							<path class="st1" d="M198.2,206.7c0,0,0.1,0.2,0.3,0.6c0.2,0.4,0.4,0.9,0.7,1.7c0.6,1.5,1.3,3.7,2,6.5
								c1.4,5.5,2.3,13.6,1,22.2c-1.3,8.7-4.6,16.1-7.6,20.9c-1.5,2.4-2.9,4.3-3.9,5.6c-0.5,0.6-0.9,1.1-1.2,1.4
								c-0.3,0.3-0.4,0.5-0.5,0.5c0,0,0.5-0.7,1.4-2c0.9-1.3,2.2-3.2,3.6-5.7c2.8-4.9,6-12.2,7.3-20.8c1.3-8.6,0.5-16.5-0.8-22
								c-0.6-2.8-1.3-5-1.8-6.5C198.4,207.5,198.1,206.7,198.2,206.7z"/>
						</g>
					</g>
				</g>
				<g>
					<g>
						<g>
							<path class="st1" d="M107.4,200.6c0,0,0,0.2,0,0.7c-0.1,0.5-0.2,1.2-0.3,2c-0.2,1.7-0.7,4.2-1.2,7.2
								c-1.1,6.1-2.9,14.4-5.4,23.5c-2.5,9.1-5.2,17.2-7.4,23c-1.1,2.9-2,5.2-2.7,6.8c-0.3,0.7-0.6,1.3-0.8,1.8
								c-0.2,0.4-0.3,0.6-0.3,0.6c0,0,0-0.2,0.2-0.7c0.2-0.5,0.4-1.1,0.7-1.9c0.6-1.7,1.4-4.1,2.4-6.9c2-5.8,4.7-13.9,7.2-23
								c2.5-9.1,4.4-17.4,5.6-23.4c0.6-2.9,1.1-5.4,1.4-7.2c0.2-0.8,0.3-1.4,0.4-1.9C107.3,200.8,107.4,200.6,107.4,200.6z"/>
						</g>
					</g>
				</g>
			</g>
			<g>
				<g>
					<g>
						<g>
							<g>
								<g>
									<path class="st21" d="M59.8,266c0,0,3.6-4.9,5.4-5.8c1.8-0.9,4.2-0.9,5.3,0.1c1.1,1,1.1,1,1.1,1s5.6-2.5,8.3-0.6
										c0,0,5.3-2.5,7.9,0.4c0,0,4.1-2.7,5.9-0.3c1.7,2.3,1.6,6.3,0.7,8.3c-0.8,2-2.4,9-3.6,9.1c0,0-3.3,0.4-3.7-1.4
										c-0.4-1.8-0.6-2.6-0.6-2.6s-1.3,6.3-2.8,6.6c-1.5,0.3-4.4,0.1-4.5-2.6c0,0-1.4,2.1-2.8,1.5c-1.4-0.6-3.1-1.6-2.9-3.3
										c0.2-1.7,0.2-3.4,0.2-3.4s-0.8,2.5-2,1.9c-1.2-0.5-2.5-0.4-3.2-2.5C67.8,270,66,266,66,266H59.8z"/>
								</g>
							</g>
						</g>
					</g>
					<g>
						<g>
							<g>
								<g>
									<g>
										<path class="st22" d="M73.5,272.5c-0.1,0,0.2-0.7,0.5-1.8c0.3-1.1,0.5-2.7,0.2-4.3c-0.3-1.7-1.1-3.1-1.7-4
											c-0.7-0.9-1.2-1.4-1.1-1.5c0,0,0.7,0.3,1.4,1.2c0.8,0.9,1.6,2.3,2,4.1c0.3,1.8,0.1,3.5-0.3,4.6
											C74,272,73.6,272.6,73.5,272.5z"/>
									</g>
								</g>
							</g>
						</g>
					</g>
					<g>
						<g>
							<g>
								<g>
									<g>
										<path class="st22" d="M80.3,260.6c0.1,0,0.4,0.9,0.7,2.5c0.3,1.6,0.5,3.8,0.4,6.2c-0.2,2.4-0.7,4.6-1.2,6.1
											c-0.5,1.5-1,2.4-1,2.4c-0.2-0.1,1.4-3.7,1.7-8.5C81.2,264.5,80.1,260.6,80.3,260.6z"/>
									</g>
								</g>
							</g>
						</g>
					</g>
					<g>
						<g>
							<g>
								<g>
									<g>
										<path class="st22" d="M87.9,261c0.1,0,0.5,3,0.1,6.6c-0.4,3.7-1.5,6.5-1.6,6.5c-0.2,0,0.6-2.9,1-6.5
											C87.9,264,87.8,261,87.9,261z"/>
									</g>
								</g>
							</g>
						</g>
					</g>
				</g>
				<g>
					<g>
						<g>
							<g>
								<path class="st21" d="M109,262.4c-0.2-0.6-0.8-1-1.4-1.1c-1.4-0.4-2.9,0.2-4.1,1.1c-1.1,0.9-2.2,2.4-3,3.7l8,0
									C108.4,264.8,109.4,263.6,109,262.4z"/>
							</g>
						</g>
					</g>
				</g>
			</g>
		</g>
	</g>
</g>
<g id="Ebene_2">
</g>
</svg>
