<?xml version="1.0" encoding="utf-8"?>
<!-- Generator: Adobe Illustrator 26.1.0, SVG Export Plug-In . SVG Version: 6.00 Build 0)  -->
<svg version="1.1" id="Ebene_1" xmlns="http://www.w3.org/2000/svg" xmlns:xlink="http://www.w3.org/1999/xlink" x="0px" y="0px"
	 viewBox="0 0 192 241.9" style="enable-background:new 0 0 192 241.9;" xml:space="preserve">
<style type="text/css">
	.st0{clip-path:url(#SVGID_00000016033642280641225410000012296492373908923822_);}
	.st1{fill:#E0E0E0;}
	.st2{fill:#F8BC9E;}
	.st3{fill:#EC9A6E;}
	.st4{fill:#263239;}
	.st5{fill:#FFFFFF;}
	.st6{opacity:0.3;}
	.st7{fill:#8E3039;}
</style>
<g id="b">
</g>
<g>
	<defs>
		<rect id="SVGID_1_" x="0.9" width="192" height="241.9"/>
	</defs>
	<clipPath id="SVGID_00000157267929269403192000000017130534397381876153_">
		<use xlink:href="#SVGID_1_"  style="overflow:visible;"/>
	</clipPath>
	<g id="a" style="clip-path:url(#SVGID_00000157267929269403192000000017130534397381876153_);">
		<g>
			<path class="st1" d="M86.6,19.7c1.2-2.7,4.3-4.4,7.2-4c3.3-2.9,8.6-3,12-0.4c2.5-1.6,5.9-1.9,8.6-0.6s4.6,4.1,4.9,7
				c3-0.6,6.2,0.8,7.8,3.5s1.2,6.2-0.8,8.5c3.3,0.9,5.6,4.5,5.1,7.9c-0.6,3.4-3.9,6-7.3,5.8L88.3,27.8
				C86.1,25.9,85.4,22.4,86.6,19.7L86.6,19.7z"/>
			<g>
				<g>
					<path class="st2" d="M125.1,48.4c-2-15.3-15.4-26.5-30.9-25.8l-1.5,0.1c-16.5,1.8-24.2,16.8-21.9,33.2l5.1,54.9l0.3,2.7
						l38.5,5.8l-0.8-14c0,0,15.8-3.3,15.2-19.2C128.8,78.4,127,62.6,125.1,48.4L125.1,48.4z"/>
					<path class="st3" d="M114.1,105.2c0,0-10.1,1.1-21.1-5.1c0,0,5.5,11.2,21.2,9L114.1,105.2L114.1,105.2z"/>
					<path class="st4" d="M121.6,63.8c0.1,1.2-0.8,2.3-2.1,2.4c-1.2,0.1-2.3-0.7-2.4-1.9c-0.1-1.2,0.8-2.3,2.1-2.4
						C120.5,61.8,121.5,62.6,121.6,63.8z"/>
					<path class="st4" d="M122.1,56.3c-0.3,0.3-2.1-0.9-4.5-0.8c-2.4,0.1-4.2,1.4-4.4,1.2c-0.1-0.1,0.1-0.7,0.9-1.3
						c0.7-0.6,2-1.2,3.5-1.3c1.5-0.1,2.8,0.4,3.6,1C121.9,55.7,122.2,56.2,122.1,56.3L122.1,56.3z"/>
					<path class="st4" d="M100.1,65.3c0.1,1.2-0.8,2.3-2.1,2.4c-1.2,0.1-2.3-0.7-2.4-1.9s0.8-2.3,2.1-2.4
						C98.9,63.2,100,64.1,100.1,65.3z"/>
					<path class="st4" d="M98.1,58c-0.3,0.3-2.1-0.9-4.5-0.8c-2.4,0.1-4.2,1.4-4.4,1.2c-0.1-0.1,0.1-0.7,0.9-1.3
						c0.7-0.6,2-1.2,3.5-1.3c1.5-0.1,2.8,0.4,3.6,1C97.9,57.3,98.2,57.8,98.1,58L98.1,58z"/>
					<path class="st4" d="M107.8,75.6c0-0.1,1.5-0.5,3.9-0.9c0.6-0.1,1.2-0.2,1.3-0.7c0.1-0.5-0.2-1.1-0.5-1.8
						c-0.7-1.5-1.4-3-2.1-4.7c-2.9-6.6-5-12.1-4.8-12.2c0.3-0.1,2.8,5.2,5.7,11.8c0.7,1.6,1.4,3.2,2,4.7c0.3,0.7,0.7,1.5,0.4,2.4
						c-0.1,0.5-0.6,0.8-1,1c-0.4,0.1-0.7,0.2-1.1,0.2C109.4,75.7,107.9,75.7,107.8,75.6L107.8,75.6z"/>
					<path class="st4" d="M100.7,77.7c0.4,0,0.5,2.6,2.9,4.4c2.4,1.8,5.2,1.3,5.2,1.7c0.1,0.2-0.6,0.6-1.8,0.6
						c-1.2,0.1-2.9-0.2-4.3-1.3c-1.4-1.1-2.1-2.6-2.3-3.7C100.3,78.4,100.6,77.7,100.7,77.7L100.7,77.7z"/>
					<path class="st1" d="M98.2,48.4c-0.2,0.7-2.7,0.5-5.5,1c-2.9,0.4-5.1,1.4-5.5,0.8c-0.2-0.3,0.2-0.9,1.1-1.6
						c0.9-0.7,2.3-1.4,4.1-1.7c1.7-0.3,3.3-0.1,4.4,0.3C97.8,47.5,98.3,48,98.2,48.4L98.2,48.4z"/>
					<path class="st1" d="M120.8,49.3c-0.4,0.6-2.1,0.1-4.1,0.2c-2,0-3.7,0.6-4.1,0c-0.2-0.3,0.1-0.8,0.8-1.4c0.7-0.6,1.9-1,3.3-1.1
						c1.4,0,2.6,0.4,3.4,1C120.7,48.4,121,49,120.8,49.3L120.8,49.3z"/>
					<path class="st1" d="M123.2,41.2c0,0-4.7-9.7-9.6-11.8c-5.9-2.5-8.1,4-13.8,2.7c-5.6-1.3-11.3-3.7-16.7,0.9
						c-6,5-2.9,8.1-2.9,15.2c-0.1,28.7-4.9,37-7.1,23.6c-0.2-1.5-4.4-2.4-5.3-8.6c-1.2-8-2-17.8-0.5-23.7c1.3-4.9,3.9-8.4,8.6-12.3
						c7.5-6.2,18.2-6.9,25.5-6.5C108.8,21,123.2,28.7,123.2,41.2L123.2,41.2z"/>
					<path class="st2" d="M74.1,71.2c-0.2-2.4-2.4-4.3-4.9-3.9c-2.9,0.4-6.2,2.3-5.7,8.4c0.9,10.8,11.6,7.7,11.6,7.4
						C75.1,82.9,74.5,75.8,74.1,71.2L74.1,71.2z"/>
					<path class="st3" d="M72.4,79.2c-0.1,0-0.2,0.2-0.5,0.3c-0.3,0.2-0.8,0.3-1.4,0.1c-1.2-0.3-2.3-2.1-2.5-4c-0.1-1,0-1.9,0.3-2.8
						c0.3-0.8,0.7-1.4,1.3-1.6c0.6-0.2,1,0.1,1.2,0.4c0.2,0.3,0.1,0.5,0.2,0.5c0,0,0.2-0.2,0.1-0.6c-0.1-0.2-0.2-0.5-0.5-0.6
						c-0.3-0.2-0.7-0.3-1.1-0.2c-0.8,0.1-1.5,1-1.8,1.8c-0.4,0.9-0.5,2-0.4,3.1c0.2,2.2,1.5,4.1,3.1,4.5c0.8,0.1,1.4-0.2,1.7-0.4
						C72.4,79.5,72.5,79.2,72.4,79.2L72.4,79.2z"/>
				</g>
				<path class="st1" d="M73.2,50.2c1.5,0.9,3,1.8,4.7,1.9c1.7,0.1,3.6-1,3.8-2.7c0.1-0.8-0.1-1.6,0.3-2.2c0.6-0.7,1.7-0.6,2.6-0.5
					c3.2,0.2,6.3-2.2,6.9-5.3c0.9,1.2,2.7,1,3.9,0.2c1.2-0.8,1.9-2.2,2.8-3.3c0.9-1.1,2.2-2.2,3.6-2c0.8,0.1,1.6,0.5,2.4,0.4
					c1.4-0.2,2-1.9,2.2-3.3s0.2-3.1,1.4-3.9c1.1-0.8,2.6-0.4,3.9-0.3c1.3,0.1,3-0.3,3.3-1.6c0.1-0.7-0.2-1.4-0.6-2
					c-1.8-2.6-5.6-3.6-8.4-2.2c-1.2-3.5-4.7-6.2-8.5-6.4c-3.7-0.2-7.5,2-9.1,5.4c-2.4-2-5.8-2.7-8.8-1.8s-5.5,3.2-6.5,6.1
					c-2.7-0.6-5.6,0.6-7.2,2.9s-1.6,5.4-0.2,7.8c-1.9,1.2-3.5,3.2-3.4,5.5c0.1,2.2,2.4,4.4,4.5,3.7c-0.8,1.8,0,4.1,1.8,5
					s4.1,0.2,5.1-1.5"/>
			</g>
			<path class="st5" d="M66.1,46.3c0,0-0.2,0.9,0.8,2c0.5,0.5,1.2,1.1,2.2,1.2c1,0.1,2.2-0.2,3.1-1l-0.5,0c0.6,0.9,1.3,1.8,2.3,2.6
				c0.6,0.5,1.3,0.9,2,1.1c0.7,0.2,1.5,0.2,2.2,0.1c1.4-0.2,2.5-1,3.1-2c0.5-0.9,0.7-1.8,0.8-2.3c0.1-0.6,0.1-0.9,0-0.9
				c-0.1,0-0.1,0.3-0.3,0.8c-0.2,0.5-0.4,1.3-0.9,2.1c-0.9,1.6-4.3,2.6-6.5,0.5c-0.9-0.7-1.6-1.6-2.2-2.4L72,47.8l-0.3,0.3
				c-0.7,0.7-1.7,1-2.6,1c-0.9-0.1-1.6-0.5-2-0.9C66.2,47.2,66.2,46.3,66.1,46.3L66.1,46.3z"/>
			<path class="st5" d="M85.4,20.5c0,0,0.3,0.1,0.8,0.2c0.5,0.2,1.2,0.6,1.8,1.4l0.1,0.2l0.1-0.2c0.9-1.4,2.6-3.2,5-4.5
				c1.2-0.6,2.7-1.1,4.2-1.1c1.6-0.1,3.2,0.3,4.7,1.1c1.1,0.6,2.1,1.5,2.9,2.5c0.7,1,1.2,2.1,1.4,3.2l0.1,0.3l0.3-0.1
				c1.6-0.5,3.3-0.3,4.5,0.3c1.3,0.6,2.1,1.6,2.6,2.5c1,1.9,0.7,3.2,0.8,3.2c0,0,0.1-0.3,0.1-0.9c0-0.6-0.1-1.5-0.6-2.5
				c-0.5-1-1.3-2.1-2.7-2.8c-1.3-0.7-3.1-1-4.9-0.4l0.4,0.2c-0.2-1.2-0.7-2.4-1.4-3.5c-0.8-1.1-1.8-2-3.1-2.6
				c-1.6-0.9-3.3-1.2-5-1.1c-1.7,0.1-3.2,0.6-4.4,1.3c-2.6,1.4-4.2,3.3-5.1,4.8h0.3c-0.6-0.9-1.4-1.2-2-1.3
				C85.7,20.4,85.4,20.4,85.4,20.5L85.4,20.5z"/>
			<path class="st3" d="M97.1,79.4c0.2,0,0.2-1.2,1.1-2.2c0.8-1,2-1.2,2-1.4c0-0.1-0.3-0.2-0.8,0c-0.5,0.1-1.1,0.4-1.6,1
				s-0.7,1.3-0.8,1.8S97,79.5,97.1,79.4z"/>
			<path class="st3" d="M96,76.5c0.2,0.1,0.5-0.3,1.1-0.6c0.6-0.3,1.1-0.4,1.1-0.6c0-0.2-0.7-0.4-1.4,0C96,75.7,95.8,76.4,96,76.5
				L96,76.5z"/>
			<path class="st3" d="M84.3,102.6c0-0.1-0.2-0.1-0.3-0.3c-0.1-0.2-0.3-0.6-0.1-1c0.2-0.4,0.6-0.8,0.9-1.5c0.1-0.3,0.2-0.9-0.1-1.3
				c-0.2-0.4-0.6-0.6-0.7-0.9c-0.9-1.1,1.5-1.9,1.2-3.3c-0.1-0.6-0.4-0.9-0.6-1.1c-0.3-0.2-0.4-0.2-0.4-0.2
				c-0.1,0.1,0.6,0.4,0.6,1.3c0,0.5-0.2,0.9-0.8,1.3c-0.2,0.2-0.5,0.5-0.7,0.9c-0.2,0.4-0.1,1,0.2,1.4c0.3,0.3,0.6,0.6,0.7,0.8
				c0.1,0.2,0.1,0.5,0.1,0.8c-0.2,0.5-0.6,1-0.8,1.6c-0.2,0.6,0.1,1.1,0.3,1.3C84.1,102.7,84.3,102.6,84.3,102.6L84.3,102.6z"/>
			<path class="st3" d="M80.9,102.2c0,0,0.1-0.2,0.1-0.4c0.1-0.2,0.3-0.5,0.6-0.9c0.1-0.2,0.3-0.4,0.4-0.7c0.1-0.3,0.2-0.7,0.1-1.1
				c-0.2-0.8-0.9-1.2-1.2-1.8c-0.4-0.5-0.1-1,0.4-1.5c0.2-0.2,0.4-0.5,0.6-0.8s0.1-0.6,0.1-0.9c-0.1-1.1-0.9-1.4-0.9-1.3
				c-0.1,0.1,0.5,0.5,0.5,1.4c0,0.4-0.2,0.9-0.7,1.3c-0.2,0.2-0.5,0.5-0.6,0.9c-0.2,0.4-0.1,0.9,0.2,1.3c0.5,0.7,1,1.1,1.2,1.6
				c0.2,0.5-0.1,1-0.4,1.4c-0.2,0.4-0.4,0.8-0.4,1.1C80.7,102.1,80.8,102.2,80.9,102.2L80.9,102.2z"/>
		</g>
		<path class="st1" d="M54.1,190l-14.4,13.9l4.7-26.6L15.1,168c0,0-7.8,36.5-9.1,45.1c-2.4,15.5,0.6,37.5,15,39.1
			c15.6,1.7,27.4-13.7,34.9-23.8c5.8-7.8,15.1-21.4,15.1-21.4L54.1,190"/>
		<path class="st1" d="M165.7,166.3c4.7,14.8,11.3,17,13.9,59.4c0.5,8.3-1.3,19.3-9.1,21.9c-8.7,3-22-2.4-26.2-9.6v-29.2
			L165.7,166.3L165.7,166.3z"/>
		<path class="st4" d="M146.3,228.2c0.2,0.1,1-3,2.9-6.2c1.9-3.3,4.1-5.5,4-5.6c0-0.1-0.7,0.4-1.5,1.4c-0.9,0.9-1.9,2.3-2.9,4
			s-1.6,3.3-2,4.5C146.3,227.4,146.2,228.2,146.3,228.2L146.3,228.2z"/>
		<path class="st1" d="M172.8,183.4c-0.2-0.9-14.7-40.2-19.3-48.8c-5.5-10.3-17.1-14.8-24.3-15.3c-7.2-0.4-84.2,5.7-84.2,5.7
			s-21.6,5.4-25.9,24.9c-5.5,24.5-9.9,48.6-9.9,48.6l38.6,8.3l4.5-11.4l72.5,16.2l17.7-26.2L172.8,183.4L172.8,183.4z"/>
		<g>
			<polygon class="st1" points="39.8,127.2 69.9,113.9 73.3,101 108.4,117.6 115.8,109.4 118.8,118.6 126.5,121.1 141.7,151 
				144.5,220.1 144.2,238.1 40.4,238.8 41.3,209.4 			"/>
			<path class="st1" d="M73.3,101c0,0,3.9,1.1,14,6.5c9.9,5.3,21.1,10.1,21.1,10.1l-0.9,15.9l-37.4-18.8"/>
			<polyline class="st1" points="115.8,109.4 108.4,117.6 112.3,134.6 118.9,119.2 			"/>
			<g class="st6">
				<path d="M108.5,119.3c0.3,0.2,2.4,19.6,2.4,19.6l-37.5-22.6l34.1,17.1C107.5,133.4,108.5,119.3,108.5,119.3z"/>
			</g>
		</g>
		<path class="st7" d="M108.2,238.3c0,0,0.8-28.7,0.1-46.7c-0.6-14.8,1.8-52.6,1.8-52.6l4.9-0.8c0,0,9.1,36.7,12.5,81.8l1.4,18.2"/>
		<path class="st4" d="M48.7,162.1c0,0-0.2,0.5-0.3,1.5c-0.2,1.1-0.4,2.5-0.8,4.2c-0.6,3.6-1.5,8.5-2.4,13.9
			c-0.9,5.4-1.8,10.4-2.3,13.9c-0.3,1.8-0.5,3.2-0.6,4.2s-0.2,1.6-0.2,1.6c0,0,0.2-0.5,0.3-1.5c0.2-1.1,0.4-2.5,0.8-4.2
			c0.6-3.6,1.5-8.5,2.4-13.9c0.9-5.4,1.7-10.4,2.2-13.9c0.2-1.7,0.4-3.1,0.6-4.2C48.7,162.7,48.8,162.1,48.7,162.1L48.7,162.1z"/>
		<path class="st4" d="M37.6,129.5c-0.1,0.1,1,0.9,2.5,2.5s3.4,3.9,5,6.8c1.6,2.9,2.5,5.8,2.9,7.9c0.5,2.1,0.6,3.5,0.7,3.5
			c0,0,0-0.3,0-1c0-0.6-0.1-1.5-0.3-2.6c-0.4-2.2-1.2-5.1-2.8-8.1c-1.6-3-3.6-5.3-5.2-6.8c-0.8-0.8-1.5-1.3-2-1.7
			C37.9,129.7,37.6,129.5,37.6,129.5L37.6,129.5z"/>
		<polygon class="st7" points="108.3,125.1 111.6,123.8 114.8,129.3 115.4,138.2 110.9,138.9 107.6,133.4 		"/>
		<path class="st4" d="M144.5,151.7c-0.1,0-0.3,19.3-0.3,43.2s0.1,43.2,0.3,43.2s0.3-19.3,0.3-43.2
			C144.7,171.1,144.6,151.7,144.5,151.7z"/>
		<path class="st4" d="M108.1,117.4c-0.1,0,0.7,1.2,1.9,3.2c1.2,2,2.8,4.8,4.2,8c0.1,0.3,0.2,0.5,0.4,0.8l0.2,0.5l0.2-0.5
			c1.4-3,2.5-5.9,3.1-7.9c0.3-1,0.6-1.9,0.7-2.4c0.1-0.6,0.2-0.9,0.2-0.9c-0.1,0-0.5,1.2-1.2,3.3c-0.7,2-1.8,4.8-3.3,7.8h0.5
			c-0.1-0.2-0.2-0.5-0.4-0.8c-1.5-3.2-3.1-6-4.4-7.9c-0.6-1-1.2-1.7-1.6-2.3C108.3,117.7,108.1,117.4,108.1,117.4L108.1,117.4z"/>
		<path class="st4" d="M69.9,113.9c0,0,0.2,0.1,0.5,0.3c0.4,0.2,0.9,0.5,1.5,0.8c1.4,0.7,3.3,1.7,5.6,2.9c4.7,2.4,11.2,5.9,18.3,9.8
			c4.4,2.3,8.5,4.5,12.1,6.3l0.3,0.2v-0.4c0.1-4.6,0.1-8.6,0.1-11.4c0-1.3,0-2.4,0-3.2c0-0.7,0-1.1-0.1-1.1c0,0-0.1,0.4-0.1,1.1
			c0,0.8-0.1,1.9-0.1,3.2c-0.1,2.8-0.2,6.8-0.3,11.4l0.3-0.2c-3.6-1.8-7.7-4-12-6.3c-7.1-3.8-13.6-7.3-18.4-9.6
			c-2.4-1.2-4.3-2.1-5.7-2.8c-0.6-0.3-1.1-0.5-1.6-0.7C70.1,114,69.9,113.9,69.9,113.9L69.9,113.9z"/>
		<path class="st4" d="M139.9,126.2c-0.1,0.1,0.5,1,1.3,2.7c0.8,1.7,1.6,4.1,2.1,6.9s0.6,5.4,0.4,7.2c-0.1,1.9-0.3,3-0.2,3
			c0,0,0.1-0.3,0.2-0.8c0.1-0.5,0.2-1.3,0.4-2.2c0.2-1.9,0.2-4.5-0.3-7.3c-0.5-2.8-1.5-5.3-2.3-6.9c-0.4-0.8-0.8-1.5-1.1-1.9
			C140.2,126.4,140,126.1,139.9,126.2L139.9,126.2z"/>
		<path class="st4" d="M111.7,139.5c0.1,0.1,0.9-0.3,1.9-0.9s1.7-1.2,1.6-1.3s-0.9,0.3-1.9,0.9S111.6,139.4,111.7,139.5z"/>
		<path class="st4" d="M110.1,137.3c0.1,0.1,1.1-2,2.3-4.5c1.1-2.6,1.9-4.7,1.8-4.7c-0.1-0.1-1.1,2-2.3,4.5
			C110.8,135.2,110,137.3,110.1,137.3z"/>
		<g class="st6">
			<path d="M89,216.4c0.2-0.8,0.4-1.7,1.2-2.2c1.2-0.8,2.8,0.3,4.1,1c3.4,2,7.5,1.9,11.4,1.8c11.7-0.5,23.5-1.4,35.1-3.3
				c5.7-0.9,11.4-2.2,16.5-4.9c5.1-2.7,9.5-7.1,11.1-12.6l2.7-1.5c-2.1,4.5-1.9,17.2-2.6,22.1c-0.8,4.9-2.9,8.4-7.6,9.9
				c-1.9,0.6-3.9,0.5-5.9,0.4c-19.3-1-38.8-0.1-58.1-1c-2.8-0.1-5.9-0.5-7.4-2.8C87.9,221.2,88.4,218.7,89,216.4L89,216.4z"/>
		</g>
		<path class="st4" d="M16.4,227.5c0,0,0.1-0.1,0.1-0.2c0.1-0.2,0.2-0.4,0.3-0.7c0.2-0.3,0.3-0.7,0.6-1.1c0.3-0.4,0.6-0.9,0.9-1.4
			c1.5-2.1,4-4.9,7.5-8.1c3.5-3.2,7.9-6.8,12.9-10.9c2.5-2.1,5.1-4.3,7.8-6.7s5.3-5,7.8-8.1l-0.4,0c4.7,4.9,9.8,10.2,15,15.7
			c0.7,0.7,1.4,1.4,2,2.1l0-0.3c-5.7,8.3-10.9,16.4-16.3,23.1c-2.7,3.4-5.5,6.4-8.2,9.1c-2.7,2.7-5.3,5.2-7.9,7.1
			c-5.2,3.9-10.4,5.6-14.1,5.5c-0.4,0-0.9,0-1.3,0c-0.4,0-0.8-0.1-1.1-0.1c-0.3,0-0.7-0.1-1-0.1c-0.3-0.1-0.5-0.1-0.8-0.2
			c-0.4-0.1-0.8-0.2-1.1-0.2c-0.2-0.1-0.4-0.1-0.4-0.1c0,0,0.1,0.1,0.3,0.1c0.3,0.1,0.6,0.2,1.1,0.3c0.2,0.1,0.5,0.1,0.8,0.2l1,0.1
			c0.3,0,0.7,0.1,1.1,0.1c0.4,0,0.8,0,1.3,0c3.7,0.1,9-1.5,14.3-5.4c2.7-1.9,5.3-4.3,8-7.1c2.7-2.7,5.5-5.8,8.2-9.1
			c5.5-6.8,10.7-14.8,16.3-23.1l0.1-0.2l-0.1-0.1c-0.6-0.7-1.3-1.4-2-2.1c-5.3-5.5-10.4-10.8-15.1-15.7l-0.2-0.2l-0.2,0.2
			c-2.4,3-5.1,5.6-7.7,8.1c-2.6,2.4-5.2,4.6-7.7,6.7c-5,4.1-9.4,7.8-12.8,11.1c-3.5,3.2-6,6.1-7.4,8.3c-0.3,0.5-0.7,1-0.9,1.4
			c-0.2,0.4-0.4,0.8-0.5,1.1c-0.1,0.3-0.2,0.5-0.3,0.7C16.4,227.4,16.4,227.4,16.4,227.5L16.4,227.5z"/>
		<g>
			<g>
				<path class="st2" d="M56.4,192.3l23.8-25.9l14.2-2.7l16.2,2.1c0,0,0.7,2.6-2.1,3.9l6,0.3c0,0,1.2,3.1-2.2,4.4l4.3,0.8
					c0,0-1.9,4.4-6.6,3.5c-4.8-0.9-12.6-0.9-12.6-0.9l-8.4,4.6l12.4-0.5l9,1.7c0,0,1.2,2.3-0.9,2.9c-2.1,0.6-9.9,0-9.9,0L88.4,190
					c0,0-4.4,6.3-5.9,8s-8.9,4.9-8.9,4.9l-3.6,3.2L56.4,192.3L56.4,192.3z"/>
				<path class="st3" d="M114.5,169.9c0,0.1-1.8,0.1-4.6-0.2s-6.8-0.6-11.1-1.1c-1.4-0.2-2.8-0.3-4.2-0.5h0.2c-3.2,0.9-6,1.6-8,2.1
					c-2,0.5-3.2,0.8-3.2,0.6s1.1-0.5,3.1-1.2c2-0.6,4.7-1.5,7.9-2.5l0.1,0h0.1c1.3,0.1,2.7,0.3,4.2,0.4c4.3,0.5,8.3,0.9,11.1,1.3
					C112.8,169.5,114.5,169.8,114.5,169.9L114.5,169.9z"/>
				<path class="st3" d="M115.6,174.9c0,0.1-1.6,0-4.2-0.3s-6.1-0.8-10.1-1.3c-1.4-0.2-2.7-0.4-3.9-0.6l0.2,0
					c-5.6,2.2-9.7,3.6-9.8,3.5c-0.1-0.2,3.9-2,9.5-4.3l0.1,0l0.1,0c1.2,0.2,2.6,0.4,3.9,0.6c3.9,0.6,7.5,1.1,10,1.6
					S115.6,174.8,115.6,174.9L115.6,174.9z"/>
			</g>
			<g>
				<path class="st4" d="M176,170.9l-12,45.5c-0.7,2.5-3,4.3-5.6,4.2L96,219.4c-3.6-0.1-6.2-3.4-5.4-6.8l9.2-43.6
					c0.6-2.6,2.9-4.5,5.5-4.5h65.7C174.4,164.5,176.8,167.7,176,170.9L176,170.9z"/>
				<path class="st5" d="M135.2,182.8c-1.7,0.8-2.5,2.7-1.7,4.2s2.7,2.1,4.4,1.2c1.7-0.8,2.5-2.7,1.7-4.2S136.9,182,135.2,182.8z"/>
				<path class="st2" d="M180.5,180.9c1.2-1.3,1.1-3.6,0-5s-2.9-2.2-4.8-2.2c-1.8-0.1-3.6,0.4-5.3,1.1c-2.1,0.8-4.1,1.8-6,3
					c-1.3,0.8-2.7,1.9-3,3.5c-0.3,1.6,1.4,3.3,2.8,2.6c-1.8,0.8-3.6,2.6-3.9,4.6s0.8,3,2.7,3.6c-1.4,0.6-2.4,2.4-1.7,3.8
					c0.7,1.5,2.7,1.9,4.3,1.3c1.5-0.6,2.7-1.9,3.7-3.1c-1.1,1.9-1.5,4.1-1.1,6.2c4.2-1.4,7.4-5.4,8-9.8c2.1-1.6,2.8-4.7,1.5-6.9
					c1.7-0.5,3.6-3.1,3.5-4.9"/>
				<path class="st3" d="M163.2,191.9c0.1,0.1,0.7-0.5,1.8-1.4c1.1-0.8,2.7-2,4.8-2.5c1-0.2,2.1-0.2,2.9,0c0.9,0.2,1.6,0.6,2.1,1.1
					c1.1,0.9,1.3,1.8,1.4,1.8c0,0,0-0.2-0.2-0.6c-0.2-0.4-0.5-0.9-1-1.4s-1.3-1-2.2-1.2s-2-0.3-3.1,0c-2.2,0.5-3.8,1.7-4.9,2.7
					C163.7,191.2,163.2,191.9,163.2,191.9L163.2,191.9z"/>
				<path class="st3" d="M163.6,183.9c0,0.1,0.9-0.3,2.2-0.9c0.7-0.3,1.4-0.7,2.4-1c0.9-0.3,1.9-0.6,3-0.8s2.1-0.2,3.1,0
					c0.9,0.2,1.7,0.6,2.3,1c1.2,0.9,1.4,1.8,1.5,1.8c0,0,0-0.2-0.2-0.6c-0.2-0.4-0.5-0.9-1.1-1.4c-0.6-0.5-1.4-0.9-2.4-1.1
					s-2.1-0.2-3.2,0s-2.2,0.5-3.1,0.8c-0.9,0.4-1.7,0.8-2.4,1.1C164.4,183.5,163.6,183.9,163.6,183.9L163.6,183.9z"/>
			</g>
		</g>
		<polygon class="st1" points="42.2,244 39.8,254.7 144.7,254.3 144.5,238.1 47.5,238.8 		"/>
		<g class="st6">
			<path d="M67.5,212.5l1.6-0.5c-1.4,8.1-11.7,35.5-15.8,42.7l-13.5,0.1l2.4-10.7C46.6,238.5,67.5,212.5,67.5,212.5L67.5,212.5z"/>
		</g>
	</g>
</g>
</svg>
