<?xml version="1.0" encoding="utf-8"?>
<!-- Generator: Adobe Illustrator 26.1.0, SVG Export Plug-In . SVG Version: 6.00 Build 0)  -->
<svg version="1.1" id="Ebene_1" xmlns="http://www.w3.org/2000/svg" xmlns:xlink="http://www.w3.org/1999/xlink" x="0px" y="0px"
	 viewBox="0 0 242 237.3" style="enable-background:new 0 0 242 237.3;" xml:space="preserve">
<style type="text/css">
	.st0{fill:#F8BC9E;}
	.st1{fill:#263239;}
	.st2{fill:#EC9A6E;}
	.st3{fill:#455A64;}
	.st4{fill:#8E3039;}
	.st5{opacity:0.3;}
	.st6{fill:#E0E0E0;}
	.st7{fill:#FFFFFF;}
</style>
<g id="a">
	<path class="st0" d="M116.6,111.5c0,0-9.3,34.9-9.4,35.4c-0.1,0.5-1.9-7.7-2.9-11.8s-2.1-7.6,1.9-14.6
		C110.1,113.6,116.6,111.5,116.6,111.5L116.6,111.5z"/>
	<g>
		<path class="st1" d="M125.8,21.8c-1.2,4.4-1.1,9.3,0.9,13.4c2.5,5.1,7.9,8.5,13.5,9.3s11.4-0.6,16.4-3.3s9.3-6.6,13.1-10.8
			l19.2-5.8c-1-4.2-4.4-9.1-8.5-10.6c-4.1-1.5-10.1-2.6-13.5,0c-2.3-4.5-6.5-7.9-11.4-9.1s-10.2-0.3-14.3,2.6
			c-1.7,1.1-3.2,2.6-4.9,3.6c-1.5,0.8-3.1,1.3-4.6,2.1C128.6,15,126.8,18.4,125.8,21.8L125.8,21.8z"/>
		<path class="st1" d="M112.2,85.3c-4.2,6.4-7.3,14.6-4.3,21.6c2,4.6,6.3,7.8,11,9.4s9.8,1.9,14.7,1.7c5.2-0.1,11.1-1,13.9-5.4
			c2-3.1,1.9-7,1.7-10.7c-1.1-23.8-1.2-47.7-0.2-71.5l-22.7-3.2c-5,3.2-7.2,11.5-7.3,15.4c-5.8,4.3-8.7,12.2-7,19.3
			c0.3,1.1,0.6,2.1,0.5,3.2c-0.2,1.8-1.7,3-2.8,4.4C106.2,74.2,107.3,81.9,112.2,85.3L112.2,85.3z"/>
		<path class="st0" d="M181.3,37l-8.7,65.9c-1.3,9.6-10.1,16.4-19.7,15.2l0,0c-9.6-1.2-16.4-10-15.2-19.7l1.2-9.5
			c0,0-11.9-3.4-12.6-19.5c-0.3-8,1.5-20.8,3.4-31.2c1.7-9.4,13-17.7,22.3-15.6l29.9,9.3L181.3,37L181.3,37z"/>
		<path class="st1" d="M131.9,50c0.2-1.1,1.2-1.8,2.3-1.6c1.1,0.2,1.9,1.2,1.7,2.3c-0.2,1.1-1.2,1.8-2.3,1.6
			C132.5,52.1,131.7,51,131.9,50L131.9,50z"/>
		<path class="st1" d="M132.4,45.3c-0.1-0.1,0.2-0.6,0.9-1s1.9-0.8,3.3-0.7c1.3,0.2,2.5,0.8,3.1,1.4c0.6,0.6,0.8,1.1,0.7,1.2
			c-0.3,0.2-1.7-1.1-3.9-1.3C134.3,44.6,132.6,45.6,132.4,45.3L132.4,45.3z"/>
		<path class="st1" d="M152.2,52.7c0.2-1.1,1.2-1.8,2.3-1.6c1.1,0.2,1.9,1.2,1.7,2.3c-0.2,1.1-1.2,1.8-2.3,1.6
			C152.8,54.8,152,53.8,152.2,52.7L152.2,52.7z"/>
		<path class="st1" d="M153.7,48.1c-0.1-0.1,0.2-0.6,0.9-1s1.9-0.8,3.3-0.7c1.3,0.2,2.5,0.8,3.1,1.4s0.8,1.1,0.7,1.2
			c-0.3,0.2-1.7-1.1-3.9-1.3C155.6,47.5,154,48.4,153.7,48.1L153.7,48.1z"/>
		<path class="st1" d="M144,63.4c0,0.1-1.4,0-3.6-0.4c-0.3,0-0.6-0.1-0.9-0.2c-0.3-0.1-0.7-0.5-0.8-0.9c-0.2-0.9,0.3-1.5,0.5-2.2
			c0.6-1.3,1.3-2.7,2.1-4.1c3-5.8,5.6-10.3,5.8-10.2s-2,4.9-5,10.6c-0.7,1.4-1.5,2.8-2.1,4c-0.3,0.6-0.6,1.2-0.6,1.6
			c0.1,0.4,0.6,0.6,1.1,0.7C142.7,62.9,144,63.2,144,63.4L144,63.4z"/>
		<path class="st2" d="M139,88.9l-0.4,3.9c16.1,3.3,22.8-7.1,22.8-7.1C150.1,90.8,139,88.9,139,88.9L139,88.9z"/>
		<path class="st2" d="M144.2,68.8c-0.2,0.2-0.2,0.5-0.1,0.8c0.1,0.3,0.3,0.5,0.6,0.7c0.8,0.8,1.6,1.6,2.6,2s2.3,0.4,2.9-0.4
			c0.6-0.7,0.6-1.8,0.1-2.6s-1.4-1.4-2.3-1.6c-1.3-0.3-2.8,0.1-3.7,1.1"/>
		<path class="st1" d="M150.2,65.6c0.2,0,0.4,0.6,0.2,1.6s-0.9,2.3-2.2,3.2c-1.3,0.9-2.9,1.1-3.9,0.9c-1.1-0.2-1.6-0.5-1.6-0.7
			c0.1-0.3,2.5,0.2,4.8-1.2C149.6,67.9,149.9,65.5,150.2,65.6L150.2,65.6z"/>
		<path class="st1" d="M154.2,39.5c-0.1-0.3,0.5-0.7,1.4-1c1-0.3,2.4-0.3,3.9,0s2.8,1,3.5,1.7c0.8,0.7,1.1,1.3,0.9,1.5
			c-0.4,0.5-2.4-0.5-4.9-1C156.5,40.1,154.3,40.2,154.2,39.5L154.2,39.5z"/>
		<path class="st1" d="M133.9,39.1c-0.1-0.3,0.1-0.8,0.8-1.2s1.8-0.8,3.1-0.7c1.2,0.1,2.3,0.6,2.9,1.2c0.6,0.5,0.8,1.1,0.6,1.3
			c-0.4,0.5-1.9-0.1-3.7-0.2C135.8,39.3,134.3,39.6,133.9,39.1L133.9,39.1z"/>
		<path class="st1" d="M177.9,21.2l-49.2-2.6c1.7,5.9,6.1,14.9,12,16.5s12.6-0.3,16.9-4.6c0.3,4.6,5,7.7,9.4,9
			c3.1,1,6.5,1.4,9.6,0.6s6.1-3.1,7-6.2C184.5,30.8,181,22.2,177.9,21.2L177.9,21.2z"/>
		<path class="st3" d="M147.3,52.8c0,0,0-0.2,0-0.6s0-0.9,0.2-1.6c0.3-1.4,1.2-3.5,3.2-5.1c1-0.8,2.3-1.5,3.9-1.8
			c1.5-0.3,3.2-0.2,4.8,0.4c1.6,0.6,3.2,1.7,4.3,3.2s1.8,3.5,1.8,5.5s-0.7,4-1.8,5.5s-2.7,2.6-4.3,3.2s-3.3,0.6-4.8,0.4
			c-1.5-0.3-2.8-1-3.9-1.8c-2.1-1.6-2.9-3.7-3.2-5.1c-0.2-0.7-0.2-1.3-0.2-1.6C147.3,53,147.3,52.8,147.3,52.8c0.1,0,0,0.8,0.4,2.2
			c0.4,1.3,1.3,3.3,3.3,4.8c1,0.7,2.2,1.4,3.7,1.6c1.4,0.2,3,0.2,4.6-0.4c1.5-0.5,3-1.6,4-3c1.1-1.4,1.6-3.2,1.7-5.1
			c0-1.9-0.6-3.7-1.7-5.1c-1-1.4-2.5-2.5-4-3c-1.5-0.6-3.1-0.6-4.6-0.4c-1.4,0.2-2.7,0.9-3.7,1.6c-2,1.5-2.9,3.4-3.3,4.8
			C147.4,52,147.4,52.8,147.3,52.8L147.3,52.8z"/>
		<path class="st3" d="M124.9,48.8c0,0,0-0.2,0-0.6s0-0.9,0.2-1.6c0.3-1.4,1.2-3.5,3.2-5.1c1-0.8,2.3-1.5,3.9-1.8
			c1.5-0.3,3.2-0.2,4.8,0.4c1.6,0.6,3.2,1.7,4.3,3.2s1.8,3.5,1.8,5.5s-0.7,4-1.8,5.5s-2.7,2.6-4.3,3.2s-3.3,0.6-4.8,0.4
			c-1.5-0.3-2.8-1-3.9-1.8c-2.1-1.6-2.9-3.7-3.2-5.1c-0.2-0.7-0.2-1.3-0.2-1.6C124.9,49,124.9,48.8,124.9,48.8c0.1,0,0,0.8,0.4,2.2
			c0.4,1.3,1.3,3.3,3.3,4.8c1,0.7,2.2,1.4,3.7,1.6c1.4,0.2,3,0.2,4.6-0.4c1.5-0.5,3-1.6,4-3c1.1-1.4,1.6-3.2,1.7-5.1
			c0-1.9-0.6-3.7-1.7-5.1c-1-1.4-2.5-2.5-4-3c-1.5-0.6-3.1-0.6-4.6-0.4c-1.4,0.2-2.7,0.9-3.7,1.6c-2,1.5-2.9,3.4-3.3,4.8
			C125,48,125,48.8,124.9,48.8L124.9,48.8z"/>
		<path class="st3" d="M148.7,47.9c-0.1,0-0.2-0.3-0.6-0.8c-0.3-0.4-0.9-1-1.7-1.2s-1.6-0.1-2.1,0s-0.9,0.4-0.9,0.3
			c-0.1,0,0.2-0.4,0.8-0.7s1.5-0.5,2.5-0.2s1.6,1,1.9,1.6C148.8,47.5,148.7,47.9,148.7,47.9L148.7,47.9z"/>
		<path class="st3" d="M169.2,55.8c1.9,0.7,3.5,1.3,3.4,1.5c0,0.2-1.7-0.2-3.6-0.9c-2-0.7-3.5-1.3-3.4-1.5S167.2,55.2,169.2,55.8z"
			/>
	</g>
	<g>
		<path class="st0" d="M10.5,82.2c2.5,1,8,3.1,8,3.1l1,0.7l-9.7-1.5c0,0-0.6,0.7,0.4,2.2c0.6,0.9,7.7,3.3,8.8,3.7l-7.7-1.5
			c0,0,0.7,1.4,2.1,2.3c1.2,0.8,5.6,2.1,7,2.5c0.8,3.1,2.6,9.2,6.1,12c2,1.6,13-3.9,13-3.9L25.2,80.3L19.5,77l-10-3.9
			c0,0-1.3,1.9,1.3,4.1c2.6,2.2,7.8,4.2,7.8,4.2L9,78.5C9,78.5,7.9,81.2,10.5,82.2L10.5,82.2z"/>
		<path class="st0" d="M46.2,104.7l-14,4.2c0,0,23.8,35.6,34.9,50c2.4,3,6.1,3.3,8.4,3.8c14,2.8,64.8-20.5,64.8-20.5l-7.9-38.2
			c0,0-49.7,29.7-53.7,30.6L46.2,104.7L46.2,104.7z"/>
		<path class="st0" d="M24.1,103.3c0,0,2.4,4.3,6.2,5.2l3.8,0.9l6.5,10.2l5.5-14.9l-5.8-5.9l-13-17.9c-0.6-0.8-1.5-1.4-2.4-1.8
			l-7.9-3l5.2,9.6l3.3,7.1l4.2,7.7L24.1,103.3L24.1,103.3z"/>
		<g>
			<path class="st0" d="M36.2,104c-3.4-0.7-6.4-3.2-7.5-6.4c-0.4-1-0.6-2.1-1.2-2.9c-0.7-0.9-1.9-1.3-2.9-1.6
				c-1.1-0.3-2.2-0.5-3.2-1.1c-0.9-0.6-1.6-1.8-1.4-2.8c0.3-1,1.2-1.6,2.2-1.7s2,0.1,2.9,0.4c2.9,0.8,5.7,1.9,8.5,3.3"/>
			<path class="st2" d="M36.1,104c0,0-0.1,0-0.4,0s-0.6-0.1-1.1-0.3c-0.9-0.3-2.3-0.9-3.6-2.1c-0.7-0.6-1.3-1.3-1.9-2.2
				c-0.6-0.9-0.9-2-1.3-3.1c-0.2-0.5-0.4-1-0.8-1.5c-0.4-0.4-0.9-0.7-1.4-1c-1.1-0.5-2.4-0.6-3.7-1.1c-1.3-0.5-2.5-1.7-2.4-3.2
				c0-0.7,0.5-1.4,1-1.8s1.2-0.6,1.8-0.6c1.2-0.1,2.3,0.3,3.3,0.6c1,0.3,1.9,0.6,2.7,0.9c1.6,0.6,2.9,1.2,3.8,1.7s1.3,0.7,1.3,0.8
				c0,0-0.5-0.2-1.4-0.6s-2.2-0.9-3.9-1.5c-0.8-0.3-1.7-0.6-2.7-0.9s-2-0.6-3.1-0.5c-1,0.1-2.2,0.8-2.3,1.9c0,0.5,0.2,1.1,0.6,1.6
				s0.9,0.8,1.5,1c1.2,0.5,2.5,0.6,3.7,1.2c0.6,0.3,1.2,0.6,1.6,1.1s0.7,1.1,0.9,1.6c0.4,1.1,0.7,2.1,1.2,3s1.1,1.6,1.7,2.2
				c1.2,1.2,2.5,1.8,3.4,2.2C35.6,103.9,36.2,104,36.1,104L36.1,104z"/>
		</g>
	</g>
	<path class="st1" d="M136.3,211.5c0,0-13.9,22.7-12.1,25.8l95.3-0.4c-6.5-12.9-16.4-25.4-16.4-25.4L136.3,211.5L136.3,211.5z"/>
	<path class="st4" d="M116.5,150.7c-0.7,9.8,12.1,34.5,11.6,40.1c-0.5,5.5,1.5,20.8,8.2,20.8h66.9c0,0,7-9.1,7.6-18.2
		s-11.4-65.7-11.4-65.7s0.4-21.7-4.4-24.6c-5.6-3.4-4.3-5.4-28.4-1.7l-7.5,3.9c-7.1,3.3-19.6,0.8-21.3-6.8l0,0l-11.6,3.6
		C126.2,102,118.8,120.8,116.5,150.7L116.5,150.7z"/>
	<path class="st1" d="M180,169.5c-0.1-0.1-1.7,1.2-4.8,2.5c-3,1.3-7.7,2.4-12.6,1.2c-4.9-1.1-8.8-4-11.2-6.3s-3.6-4-3.7-3.9
		c0,0,0.2,0.5,0.8,1.2c0.6,0.8,1.4,1.8,2.6,3c2.4,2.4,6.2,5.4,11.4,6.6c2.5,0.6,5.1,0.6,7.3,0.3s4.2-1,5.7-1.7s2.7-1.5,3.5-2
		S180,169.5,180,169.5L180,169.5z"/>
	<g class="st5">
		<path d="M149,164.8c-0.2-0.2-0.4-0.4-0.5-0.6c4.1,6.9,12.6,10.9,20.6,9.7c3.7-0.6,7.2-2.1,10.7-3.7c-0.8,5-4.9,9.2-9.8,10.6
			c-4.9,1.4-10.4,0.1-14.3-3.1s-6.4-8.1-6.9-13.1"/>
	</g>
	<path class="st4" d="M225.1,149.3c0,0-17.5-38-30.1-46.3c-5.6-3.7-15.8-0.5-19.6,8.2s-0.1,15.2,1.1,19.4s14.9,34.5,14.9,34.5
		L225.1,149.3L225.1,149.3z"/>
	<path class="st4" d="M119.1,150.9l2.3-20.8l4.7-28.2c-9,2.4-21.6,14.1-37,24.3l10.3,34.1C99.5,160.4,117.6,150.9,119.1,150.9
		L119.1,150.9z"/>
	<path class="st1" d="M225.1,149.3c0,0-0.2,0.1-0.6,0.4c-0.5,0.2-1.1,0.5-1.8,0.9c-1.7,0.8-3.9,1.9-6.7,3.2
		c-5.8,2.7-13.6,6.3-22.3,10.4c-0.9,0.4-1.9,0.9-2.7,1.3l-0.3,0.1l-0.1-0.3c-3.9-8-7.2-15.2-9.5-20.5c-1.1-2.6-2.1-4.7-2.6-6.2
		c-0.3-0.7-0.5-1.3-0.6-1.7c-0.2-0.4-0.2-0.6-0.2-0.6s0.1,0.2,0.3,0.6c0.2,0.4,0.4,1,0.8,1.7c0.7,1.5,1.7,3.6,2.8,6.1
		c2.4,5.2,5.8,12.4,9.7,20.4l-0.4-0.1c0.9-0.4,1.8-0.8,2.7-1.3c8.7-4,16.6-7.6,22.4-10.2c2.8-1.2,5.1-2.3,6.8-3
		c0.8-0.3,1.4-0.6,1.9-0.8C224.9,149.4,225.1,149.3,225.1,149.3L225.1,149.3z"/>
	<path class="st1" d="M122.3,123c0,0,0,0.2-0.1,0.6c-0.1,0.4-0.2,0.9-0.4,1.6c-0.3,1.4-0.9,3.4-1.6,5.8c-1.3,4.9-3.4,11.7-3.5,19.4
		c0.1,3.9,0.8,7.5,1.7,10.7s1.9,6.1,2.8,8.4c0.9,2.3,1.6,4.2,2.1,5.6c0.2,0.6,0.4,1.1,0.5,1.6c0.1,0.4,0.2,0.6,0.1,0.6
		c-0.1,0-0.4-0.7-0.9-2c-0.6-1.3-1.4-3.2-2.3-5.6s-2-5.2-2.9-8.4s-1.7-6.9-1.8-10.8c0.1-7.9,2.2-14.7,3.7-19.5
		c0.7-2.4,1.3-4.3,1.8-5.8C122,123.7,122.3,123,122.3,123L122.3,123z"/>
	<path class="st1" d="M150.7,116.2c-0.5,5,1.3,10.3,5.1,13.4s9.9,3.7,13.9,0.7c4-2.9,5.4-8.3,8.8-11.8c4.8-5,13.7-5.2,18.8-0.5
		c3.3,3.1,5.8,8.1,10.3,7.9c3.1-0.2,5.4-3.1,6.4-6.1c2.4-7-0.5-15.5-6.6-19.6c4.4-4.6,4.8-12.4,0.9-17.5c-2.5-3.2-6.4-5.3-7.9-9.1
		c-2.5-6.4,3.3-13.7,1.2-20.2c-1.5-4.6-6.3-7.2-8.4-11.5c-1.5-3.1,0.3-6.5,0.2-10c-0.1-7.3-5.4-14.2-11.8-17.3l-5.6,7.7
		c-9.7,5.8-8.6,13.5-6.6,23.5c0.9,4.4,4.8,7.4,4.3,9.5c-0.7,3.2-4.4,4.7-5.9,7.5c-2.6,4.7,1.6,11-0.8,15.8c-1.8,3.6-6.7,5.3-7.3,9.3
		c-0.4,3.2,2.3,6.2,1.9,9.3c-0.3,2.4-2.4,4.2-4.2,5.9C153.9,106.6,151.3,111.2,150.7,116.2L150.7,116.2z"/>
	<g>
		<path class="st0" d="M222.1,150.7l11.8,32.7c2.6,8.4-4.7,15.9-4.7,15.9L155,229.8l-6.7-15.5l57.2-34.8c0,0-4.4-6-10.8-16.5
			L222.1,150.7z"/>
		<path class="st2" d="M212.9,180.6c-4.1-1.6-7.8-1.3-7.8-1.1s3.5,0.3,7.5,1.8s6.7,3.7,6.9,3.6C219.6,184.7,217,182.1,212.9,180.6z"
			/>
	</g>
	<path class="st0" d="M103.9,224.9l4.3,9.3l12.2-1.3l23.4,0.7c3.8-0.3,11.1-3.8,11.1-3.8l-6.7-15.5l-2.3,1.6l-27.9,2.2L103.9,224.9
		L103.9,224.9z"/>
	<g>
		<g>
			<path class="st6" d="M18.4,176l9,61.8h132.1c1.3,0,2.4-1.1,2.4-2.4s-1.1-2.4-2.4-2.4h-41.4l-8.8-58.5c-0.4-2.6-2.9-3.8-5.5-3.8
				l-80.3-0.6C20.4,170,17.9,172.9,18.4,176z"/>
			<path class="st1" d="M23.6,170c0,0-0.4,0-1.2,0.2c-0.8,0.2-2,0.7-3,2.1c-0.5,0.6-0.8,1.5-0.9,2.5s0.2,2.1,0.3,3.2
				c0.4,2.4,0.8,5.1,1.2,8.1c1.8,12.3,4.4,29.9,7.7,51.7l-0.2-0.2c34.2,0,79.1-0.1,128.2-0.1c1.1,0,2.3,0,3.4,0c0.6,0,1.1,0,1.5-0.3
				c0.4-0.2,0.8-0.6,0.9-1.1c0.4-0.9-0.1-2.1-0.9-2.6c-0.4-0.3-0.9-0.3-1.5-0.3h-1.7c-4.5,0-9,0-13.4,0c-8.8,0-17.4,0-25.8,0h-0.3
				v-0.3c-3.1-21-6-40.5-8.7-58.1c-0.1-1.1-0.5-2.1-1.3-2.7c-0.8-0.7-1.8-1.1-2.8-1.2c-1-0.2-2.1-0.1-3.2-0.1c-1.1,0-2.1,0-3.1,0
				c-4.2,0-8.2-0.1-12.1-0.1c-7.8-0.1-15-0.2-21.5-0.2c-13-0.1-23.4-0.3-30.6-0.3c-3.5,0-6.3-0.1-8.2-0.1c-0.9,0-1.6,0-2.1,0
				C23.9,170,23.6,170,23.6,170s0.2,0,0.7,0s1.2,0,2.1,0c1.9,0,4.6,0,8.2,0c7.2,0,17.6,0.1,30.6,0.2c6.5,0.1,13.7,0.1,21.5,0.1
				c3.9,0,7.9,0.1,12.1,0.1c1,0,2.1,0,3.1,0c1.1,0,2.1-0.1,3.2,0.1c1.1,0.2,2.2,0.6,3.1,1.4c0.9,0.8,1.4,1.9,1.5,3.1
				c2.6,17.5,5.6,37.1,8.8,58.1l-0.3-0.3c8.3,0,16.9,0,25.8,0c4.4,0,8.9,0,13.4,0h1.7c0.5,0,1.3,0,1.8,0.3c1.2,0.6,1.7,2.1,1.2,3.3
				c-0.2,0.6-0.7,1.1-1.2,1.4c-0.6,0.4-1.3,0.4-1.8,0.4h-3.4c-49.1,0-94-0.1-128.2-0.1h-0.2v-0.2c-3.1-21.7-5.7-39.4-7.5-51.7
				c-0.4-3.1-0.8-5.8-1.2-8.1c-0.1-1.2-0.4-2.3-0.3-3.3s0.5-1.9,1-2.6c1-1.4,2.3-1.8,3.1-2C23.2,169.9,23.6,170,23.6,170L23.6,170z"
				/>
		</g>
		<circle class="st7" cx="67.2" cy="203.2" r="5"/>
		<path class="st1" d="M114.9,237.3c0.1,0-2.3-15-5.3-33.4s-5.6-33.3-5.7-33.3s2.3,14.9,5.3,33.4
			C112.3,222.4,114.8,237.3,114.9,237.3L114.9,237.3z"/>
	</g>
</g>
<g id="b">
</g>
</svg>
