<?xml version="1.0" encoding="utf-8"?>
<!-- Generator: Adobe Illustrator 26.1.0, SVG Export Plug-In . SVG Version: 6.00 Build 0)  -->
<svg version="1.1" xmlns="http://www.w3.org/2000/svg" xmlns:xlink="http://www.w3.org/1999/xlink" x="0px" y="0px"
	 viewBox="0 0 464.5 275.8" style="enable-background:new 0 0 464.5 275.8;" xml:space="preserve">
<style type="text/css">
	.st0{fill:#8E3039;}
	.st1{fill:#263239;}
	.st2{fill:#F8BC9E;}
	.st3{fill:#EC9A6E;}
	.st4{fill:#455A64;}
	.st5{fill:#EBEBEB;}
	.st6{opacity:0.3;}
	.st7{fill:#EE7160;}
	.st8{fill:#E0E0E0;}
	.st9{fill:#FBFBFB;}
	.st10{fill:#834F45;}
	.st11{fill:#5B342F;}
	.st12{opacity:0.3;enable-background:new    ;}
</style>
<g id="Ebene_1">
	<g id="b">
	</g>
	<g id="b_00000022548653805493217320000013632775731191213709_">
	</g>
	<g id="a">
		<path class="st0" d="M299.6,124.5c-1.5,9.7-1.4,23.1,1,33.1c1.4,6.1,2.7,18.8,5.2,24.5c2.5,5.8,0.8,1.9,6.6,4.2
			c1.4-7,0-14.3-1.9-21.2c-1.9-6.9-4.5-13.6-5.7-20.7c-1.8-10.8-0.1-22.2,5.4-31.7s14.7-16.9,25.3-19.4l-3.3-2.9
			c-5.1,0.5-9.2,1.5-13.9,4.3c-4.4,2.7-7.7,5.7-11.1,9.6C302.4,109.7,300.7,117.5,299.6,124.5L299.6,124.5z"/>
		<g>
			<g>
				<path class="st1" d="M305.3,108.8c-5.3,8.2-1.7,49,2.8,71.2c0.9,2.4,4.4,10,4.3,10.9l49.2,0l7.5-2.7c0,0,7.1-41.6,5.1-54.9
					c-3.1-21.4-8.6-44.9-39.2-42.7C335.2,90.6,314.3,94.9,305.3,108.8L305.3,108.8z"/>
				<polygon class="st1" points="303.9,182.2 303.9,182.2 303.9,182.2 				"/>
			</g>
			<path class="st2" d="M330.8,98.6c-12.2,0-22.7,9.1-23.4,24.3c-0.5,11-0.8,22.1,0.9,30.2c3.4,16.3,16.1,17.7,16.1,17.7
				c0-0.1,0.1,2.4,0.5,8.3c0,0,0,4.7,0.6,10.1c0,0.5,0.2,0.9,0.3,1.5c0.1,0.5,0.4,1.1,0.7,1.7c5.2,9.6,18.9,10.4,25.5,1.6l2.9-3.8
				c2.8-3.6,3.7-7.6,3.6-12.2l0.2-67.4c-0.1-3-2.5-5.4-5.5-5.6l-20.7-8.3L330.8,98.6L330.8,98.6z"/>
			<g>
				<path class="st1" d="M334.6,133c0-1.1,0.9-2,2.1-2s2.1,0.9,2.1,2s-0.9,2-2.1,2S334.6,134.1,334.6,133L334.6,133z"/>
				<path class="st1" d="M313.7,133.7c0-1.1,0.9-2,2.1-2s2.1,0.9,2.1,2s-0.9,2-2.1,2S313.7,134.8,313.7,133.7L313.7,133.7z"/>
				<path class="st1" d="M309.6,127.2c-0.1-0.1,0.1-0.6,0.8-1.2c0.6-0.6,1.8-1.1,3.2-1.2c1.4-0.1,2.6,0.4,3.4,0.9
					c0.8,0.5,1,1,0.9,1.1c-0.2,0.3-2-0.8-4.2-0.7C311.4,126.2,309.9,127.4,309.6,127.2L309.6,127.2z"/>
			</g>
			<path class="st1" d="M333.2,126.2c0.6-0.6,1.7-1.3,3.1-1.6c1.4-0.2,2.7,0.1,3.5,0.5c0.8,0.4,1.1,0.9,1,1c-0.2,0.3-2-0.6-4.2-0.2
				c-2.2,0.3-3.6,1.8-3.9,1.5C332.4,127.3,332.6,126.8,333.2,126.2z"/>
			<path class="st1" d="M324.7,143.9c0,0.1-1.4,0.2-3.7,0.2c-0.3,0-0.6,0-1-0.1c-0.4-0.1-0.8-0.4-1-0.8c-0.3-0.9,0-1.6,0.2-2.3
				c0.4-1.4,0.9-2.9,1.4-4.5c2-6.4,3.9-11.5,4.2-11.4s-1.2,5.3-3.3,11.7c-0.5,1.6-1,3.1-1.5,4.5c-0.2,0.7-0.5,1.3-0.3,1.7
				c0.1,0.4,0.7,0.5,1.2,0.5C323.3,143.6,324.7,143.8,324.7,143.9L324.7,143.9z"/>
			<path class="st3" d="M324.4,170.7l0.2,4c16.5,0.7,21.4-10.9,21.4-10.9C335.5,170.9,324.5,170.7,324.4,170.7L324.4,170.7z"/>
			<path class="st3" d="M325.8,149.4c-0.2,0.2-0.1,0.6,0,0.8c0.2,0.3,0.4,0.5,0.7,0.6c0.9,0.7,1.9,1.3,3,1.6s2.4,0,2.9-0.9
				c0.5-0.8,0.3-1.9-0.3-2.7c-0.6-0.8-1.6-1.2-2.6-1.2C328.1,147.5,326.7,148.2,325.8,149.4"/>
			<path class="st1" d="M331.4,145.1c0.2,0,0.5,0.6,0.4,1.6c0,1-0.5,2.5-1.7,3.6c-1.2,1.1-2.8,1.6-3.9,1.6c-1.1,0-1.7-0.3-1.7-0.4
				c0-0.3,2.6-0.2,4.6-2.1C331.2,147.6,331,145.1,331.4,145.1L331.4,145.1z"/>
			<path class="st1" d="M331.6,117.2c0.9-0.5,2.3-1,3.9-1.1c1.6-0.1,3,0.3,4,0.7c1,0.5,1.4,1,1.3,1.3c-0.3,0.6-2.5,0.2-5.2,0.3
				c-2.7,0.1-4.9,0.7-5.2,0.1C330.3,118.3,330.7,117.8,331.6,117.2z"/>
			<path class="st1" d="M310.6,116.1c0.6-0.6,1.7-1.1,3-1.2c1.3-0.1,2.5,0.2,3.2,0.7c0.7,0.5,1,1,0.9,1.2c-0.3,0.6-2,0.2-3.8,0.4
				c-1.9,0.1-3.4,0.7-3.8,0.2C309.8,117.2,309.9,116.7,310.6,116.1z"/>
			<path class="st1" d="M358.5,139.4l3.2-25.3c0,0-5.4-11.5-5.8-11.8c-0.4-0.3-23.2-6.7-23.2-6.7l-3.7,1.1c0,0,9.1,7.9,11.3,17.7
				C346.9,143,358.5,139.4,358.5,139.4L358.5,139.4z"/>
			<path class="st2" d="M356.7,150.6c0,0.3,11.4,2,10.8-9.2c-0.5-8.2-6.3-8.1-9.5-7.5c-1.2,0.2-2.5,3.2-2.4,4.4
				C355.8,142.6,356.7,150.4,356.7,150.6z"/>
			<path class="st3" d="M359.9,146.2c0,0,0,0.3,0.4,0.5c0.4,0.2,1,0.4,1.8,0.2c1.6-0.6,2.6-2.7,2.6-5c0-1.2-0.4-2.2-0.9-3.1
				c-0.4-0.9-1.3-1.6-2.1-1.6c-0.4,0-0.8,0.1-1.1,0.4c-0.2,0.2-0.4,0.5-0.4,0.7c-0.1,0.5,0.2,0.7,0.2,0.6c0.1,0,0-0.2,0.1-0.6
				c0.1-0.3,0.5-0.7,1.1-0.6c0.6,0.1,1.2,0.6,1.6,1.4c0.4,0.8,0.7,1.7,0.7,2.8c0.1,2-0.8,3.9-2,4.4c-0.6,0.2-1.1,0.2-1.5,0.1
				C360.1,146.3,359.9,146.2,359.9,146.2L359.9,146.2z"/>
			<path class="st1" d="M350.6,133.9c0,0-0.6,0-1.7-0.2c-1.1-0.3-2.6-0.9-4.1-2.3c-0.7-0.7-1.5-1.5-2.1-2.5c-0.7-1-1.2-2.1-1.7-3.3
				c-1-2.4-1.7-5.2-2.4-8.1s-1.6-5.7-2.5-8.1c-0.9-2.4-1.9-4.6-2.8-6.3c-0.9-1.7-1.8-3.1-2.5-4c-0.3-0.5-0.6-0.8-0.8-1
				c-0.2-0.2-0.2-0.4-0.2-0.4c0,0,0.1,0.1,0.3,0.3c0.2,0.2,0.5,0.6,0.8,1c0.7,0.9,1.6,2.2,2.6,3.9c1,1.7,2,3.9,2.9,6.3
				c0.9,2.4,1.8,5.2,2.6,8.1c0.8,2.9,1.4,5.7,2.4,8.1c0.5,1.2,1.1,2.3,1.7,3.3c0.6,0.9,1.4,1.8,2.1,2.4c1.5,1.3,2.9,2,4,2.3
				C350,133.9,350.6,134,350.6,133.9L350.6,133.9z"/>
			<path class="st4" d="M367.9,180.6c0,0,0-0.1,0-0.3l0-0.8c0-0.7-0.1-1.6-0.1-2.9c0-2.5,0.4-6.1,1.2-10.6c0.4-2.2,0.9-4.6,1.3-7.2
				c0.5-2.6,0.9-5.4,1-8.4c0.1-3,0.1-6.1-0.7-9.3c-0.4-1.6-0.9-3.2-1.6-4.7c-0.7-1.5-1.6-3-2.7-4.3c-2.1-2.7-4.6-5-7.1-7.1
				c-2.5-2.1-4.8-4.2-6.9-6.3c-4.2-4.2-7.5-8.4-10.1-12.1c-2.6-3.7-4.3-6.9-5.5-9.1c-0.6-1.1-1-2-1.3-2.6c-0.1-0.3-0.3-0.5-0.3-0.7
				c-0.1-0.2-0.1-0.2-0.1-0.2s0,0.1,0.1,0.2c0.1,0.2,0.2,0.4,0.3,0.7c0.3,0.6,0.7,1.5,1.3,2.6c1.1,2.2,2.9,5.5,5.4,9.2
				c2.5,3.7,5.9,8,10.1,12.2c2.1,2.1,4.4,4.2,6.9,6.3c2.4,2.1,4.9,4.4,7,7.1c1,1.3,2,2.8,2.6,4.3c0.7,1.5,1.2,3.1,1.6,4.6
				c0.7,3.2,0.8,6.3,0.7,9.2c-0.1,3-0.6,5.8-1,8.4c-0.5,2.6-0.9,5-1.3,7.2c-0.8,4.4-1.1,8.1-1.1,10.6
				C367.7,179.2,367.9,180.6,367.9,180.6L367.9,180.6z"/>
			<path class="st4" d="M371.5,181.6c0,0,0-0.1,0-0.3c0-0.2,0-0.4-0.1-0.8c0-0.7-0.1-1.6-0.1-2.9c0-2.5,0.4-6.2,1.2-10.6
				c0.4-2.2,0.9-4.6,1.3-7.2c0.5-2.6,0.9-5.4,1-8.4c0.1-3,0.1-6.2-0.7-9.3c-0.4-1.6-0.9-3.2-1.6-4.7c-0.7-1.5-1.6-3-2.7-4.4
				c-2.1-2.7-4.6-5-7.1-7.1c-2.5-2.1-4.8-4.2-6.9-6.3c-4.2-4.2-7.5-8.4-10.1-12.1c-2.6-3.7-4.3-6.9-5.5-9.1c-0.6-1.1-1-2-1.3-2.6
				c-0.1-0.3-0.3-0.5-0.3-0.7c-0.1-0.2-0.1-0.2-0.1-0.2s0,0.1,0.1,0.2c0.1,0.2,0.2,0.4,0.3,0.7c0.3,0.6,0.7,1.5,1.3,2.6
				c1.1,2.2,2.9,5.5,5.4,9.2c2.5,3.7,5.9,8,10.1,12.2c2.1,2.1,4.4,4.2,6.9,6.3c2.4,2.1,4.9,4.4,7,7.1c1,1.4,2,2.8,2.6,4.3
				c0.7,1.5,1.2,3.1,1.6,4.6c0.7,3.1,0.8,6.3,0.7,9.2c-0.1,3-0.6,5.8-1,8.4c-0.5,2.6-0.9,5-1.3,7.2c-0.8,4.4-1.1,8.1-1.1,10.6
				C371.3,180.2,371.5,181.6,371.5,181.6L371.5,181.6z"/>
		</g>
		<path class="st1" d="M387.6,327.7h-98.5l5.9-49.7l77.1,5.1c0,0,5.7,7,10.6,19.8C388.7,318.4,387.6,327.7,387.6,327.7L387.6,327.7z
			"/>
		<g>
			<path class="st5" d="M296,249.2c1.1,17.2-6.7,71.1-6.7,71.1c36.8,10.1,96.4-10.4,96.4-10.4c-1.7-12.6-13.8-36.9-13.8-36.9
				l6.1-29.3l1.4-6.2l4.9,4.6l25.1,26.4l-21.6,35.6l8.4,14.3l1.3,2.4c16.1-11.9,36.9-41.7,37.6-43.8c1.3-2.1,3.6-7.4,1.1-14.2
				c-3.3-9-25.8-41.8-25.8-41.8l0,0c-3.2-5-14.7-22.6-21.7-29.2c-6.8-6.4-28.1-10.9-29.5-10.9c0,0-9.8,18-24.8,14.7
				c-8.8-1.9-8.8-13.7-8.8-13.7l-16.8,2.6L296,206C296,206,294.8,232,296,249.2L296,249.2z"/>
			<g>
				<path class="st2" d="M358.7,297.6c-0.9,2.1,5.3,4.4,5.3,4.4l-9.5,2.6c0.1,1.5,2.6,2.9,2.6,2.9l-2.1,0.5
					c-0.3,0.9,0.9,2.2,1.9,2.4c1,0.2,11.3-0.3,11.3-0.3l7.3,1.9l-4.1-0.2l-10.8,2.1l0.1,0.9c0.9,3.3,11.9,1.7,11.9,1.7l2.9,0.6
					c0,0,12.2,5.1,14.4,5.1c2.2,0,6.3-3.9,6.3-3.9l-7-12.3c0,0-1.1,0.4-2.8,0.3c-1.8-0.1-4.4-2.5-4.4-2.5c-1.2-1-3.6-3.9-3.6-3.9
					s-7.5-4-8.6-4.6C368.8,294.9,358.7,297.6,358.7,297.6L358.7,297.6z"/>
				<path class="st3" d="M356.7,307.1c0.6-0.2,1.3-0.5,2.3-0.8c2-0.6,4.8-1.3,7.9-2c0.4-0.1,0.8-0.2,1.2-0.2c0.4,0,0.8,0,1.2,0.1
					c0.8,0.2,1.4,0.4,2.1,0.7c1.3,0.5,2.4,0.9,3.4,1.4c0.9,0.5,1.7,0.9,2.1,1.2c0.5,0.3,0.7,0.6,0.7,0.6c0,0-0.3-0.1-0.8-0.4
					c-0.5-0.3-1.2-0.7-2.2-1.1c-1-0.4-2.1-0.8-3.4-1.3c-0.6-0.2-1.3-0.5-2-0.6c-0.3-0.1-0.7-0.1-1.1-0.1c-0.3,0-0.7,0.1-1.1,0.2
					c-3.1,0.7-5.9,1.4-7.9,1.9c-1,0.3-1.8,0.5-2.4,0.6s-0.9,0.2-0.9,0.2C355.9,307.4,356.2,307.3,356.7,307.1z"/>
				<path class="st3" d="M365.7,301.5c1.3-0.5,3.2-0.9,5.3-0.5c2.1,0.3,3.8,1.2,4.9,2c1.1,0.8,1.6,1.5,1.5,1.6
					c0,0.1-0.6-0.6-1.7-1.3c-1.1-0.7-2.8-1.6-4.8-1.9c-2-0.3-3.9,0-5.1,0.4c-1.3,0.4-2,0.8-2,0.7C363.7,302.5,364.4,302,365.7,301.5
					z"/>
			</g>
			<polygon class="st5" points="294.2,314 307.1,311.5 298.2,275.3 294.2,230.5 304.4,230.5 309.1,184.6 298.2,186.8 279.3,205.9 
				273.9,273.7 			"/>
			<path class="st1" d="M295.3,269.2c0,0,0-0.2,0-0.7c0-0.5,0-1.1,0-2c0-1.7,0-4.2,0.1-7.2c0-3,0-6.6,0-10.6c0-4-0.1-8.4,0-13.1
				c0-9.3,1.8-17.6,3.3-23.5c0.7-2.9,1.4-5.3,1.8-6.9c0.2-0.8,0.4-1.4,0.5-1.9c0.1-0.4,0.2-0.6,0.2-0.6c0,0,0,0.2-0.1,0.7
				c-0.1,0.5-0.3,1.1-0.5,1.9c-0.4,1.6-1,4-1.7,7c-1.4,5.9-3.1,14.1-3.1,23.4c-0.1,4.6,0,9,0,13c0,4,0,7.6-0.1,10.7
				c-0.1,3-0.1,5.5-0.2,7.2c0,0.8-0.1,1.5-0.1,1.9C295.3,269,295.3,269.3,295.3,269.2L295.3,269.2z"/>
			<g class="st6">
				<path d="M295.4,230.7c1.2-11.5,4.1-22.9,8.5-33.6c-8.4,8.9-11.7,22.4-8.4,34.2"/>
			</g>
		</g>
		<path class="st0" d="M327.9,90.9c1.5-1,16.7-8.2,33.6,6.9c19.6,17.4,22.6,40.4,22.7,59.1s-16.8,25.6-16.8,25.6l-30.9,5.8
			c0,0,24.8-7.3,20.1-41.2C353.5,123.3,352.6,93.2,327.9,90.9L327.9,90.9z"/>
		<path class="st0" d="M303.9,180.9c-1.1,1-1.5,2.5-1.3,3.9c0.5,2.7,4.9-0.5,6.2,1.8c2.4,4.3,5.1,8.5,8.1,14.1
			c3.3,6.1,12.6,11.4,17.5,11.6c5,0.2,11.6-4.8,18.7-11c6.1-5.3,8.9-12.7,15.5-17.3c1.2-0.9,7.5,2.1,8.3,0.9c0.2-0.3,0.3-1,0.3-1.8
			c0.1-3.6-1.5-7.1-4.3-9.4l-14.5-11.9c-2.9,6.4-6.1,13.2-12,17.1c-5,3.4-11.4,4.2-17.4,3.4c-6-0.8-12.7-4.6-18.7-4.1
			C305.1,178.6,305.8,179.3,303.9,180.9L303.9,180.9z"/>
		<path class="st1" d="M384.3,216.3c0,0,0,0.2-0.1,0.6c-0.1,0.4-0.2,1-0.4,1.6c-0.3,1.5-0.8,3.5-1.4,6.1c-1.2,5.2-2.8,12.2-4.5,20
			c-1.8,7.8-3.3,14.9-4.4,20c-0.5,2.5-0.9,4.6-1.2,6.1c-0.1,0.7-0.2,1.2-0.3,1.7c-0.1,0.4-0.1,0.6-0.1,0.6c0,0,0-0.2,0.1-0.6
			c0.1-0.4,0.1-1,0.2-1.7c0.2-1.5,0.6-3.5,1.1-6.1c1-5.2,2.5-12.3,4.3-20.1c1.8-7.8,3.4-14.9,4.6-20c0.6-2.5,1.1-4.6,1.5-6
			c0.2-0.7,0.3-1.2,0.4-1.6C384.2,216.5,384.3,216.3,384.3,216.3L384.3,216.3z"/>
		<path class="st1" d="M304,184.1c0,0,0.1,0,0.2,0.1l0.5,0.2c0.5,0.2,1.1,0.6,2,0.9c1.7,0.8,4.3,1.7,7.7,2.4
			c3.3,0.7,7.4,1.2,11.9,1.3c4.5,0.1,9.4-0.1,14.6-0.5c2.6-0.2,5.1-0.4,7.5-0.8c2.4-0.4,4.7-0.9,6.9-1.4c4.3-1.1,8.2-2.6,11.2-4
			c3.1-1.5,5.4-2.9,7-3.9c0.8-0.5,1.4-1,1.8-1.2c0.2-0.1,0.3-0.2,0.5-0.3c0.1-0.1,0.2-0.1,0.2-0.1c0,0,0,0-0.1,0.1l-0.5,0.4
			c-0.4,0.3-1,0.8-1.8,1.3c-1.6,1.1-3.9,2.6-7,4.1c-3.1,1.5-6.9,3-11.3,4.1c-2.2,0.6-4.5,1.1-6.9,1.4c-2.4,0.4-5,0.6-7.6,0.8
			c-5.2,0.3-10.1,0.6-14.7,0.4c-4.5-0.1-8.6-0.6-11.9-1.4c-3.3-0.8-5.9-1.7-7.7-2.6c-0.9-0.4-1.5-0.8-1.9-1l-0.5-0.3
			C304,184.1,303.9,184.1,304,184.1L304,184.1z"/>
		<path class="st1" d="M351.2,187.3c0,0,0,0,0.1-0.1l0.4-0.4c0.4-0.3,0.9-0.8,1.6-1.3c0.7-0.6,1.5-1.3,2.5-2.1
			c0.5-0.4,1-0.9,1.5-1.4c0.5-0.5,1.1-1,1.7-1.6c2.3-2.2,4.9-5.1,7.1-8.7c2.2-3.6,3.8-8.1,3.9-13c0.2-4.9-0.8-9.5-1.8-13.6
			c-1.1-4.1-2.2-7.8-3.1-10.8c-0.9-3.1-1.7-5.6-2.1-7.3c-0.2-0.8-0.4-1.5-0.5-2c0-0.2-0.1-0.4-0.1-0.5c0-0.1,0-0.2,0-0.2
			c0,0,0,0.1,0.1,0.2c0.1,0.1,0.1,0.3,0.2,0.5c0.1,0.5,0.4,1.2,0.6,2c0.5,1.7,1.3,4.2,2.3,7.3c1,3.1,2.1,6.7,3.2,10.8
			c1.1,4.1,2.1,8.8,1.9,13.7c-0.2,4.9-1.8,9.5-4,13.2c-2.2,3.6-4.9,6.5-7.2,8.7c-0.6,0.6-1.1,1.1-1.7,1.6c-0.5,0.5-1,0.9-1.5,1.4
			c-1,0.8-1.8,1.5-2.6,2.1c-0.7,0.5-1.2,0.9-1.7,1.2c-0.2,0.1-0.3,0.2-0.4,0.3C351.3,187.3,351.2,187.3,351.2,187.3L351.2,187.3z"/>
		<path class="st1" d="M328,98c0,0,0.3,0,0.9,0c0.3,0,0.6,0,1.1,0.1c0.4,0.1,0.9,0.1,1.4,0.3c1,0.2,2.2,0.7,3.4,1.2
			c1.2,0.6,2.6,1.4,3.9,2.2c2.6,1.8,4.7,3.9,6.1,5.4c0.7,0.8,1.2,1.4,1.6,1.9c0.4,0.4,0.5,0.7,0.5,0.7c-0.1,0-0.9-0.9-2.4-2.4
			c-1.5-1.5-3.5-3.4-6.1-5.2c-1.3-0.9-2.6-1.6-3.8-2.2c-1.2-0.6-2.4-1-3.4-1.3C329.2,98.1,327.9,98,328,98L328,98z"/>
		<path class="st0" d="M359.4,116.7c2.5,9.5,6.8,18.6,9,28.2s2.1,20.5-3.8,28.4l-2.2,4c7.7-4.9,10.6-15,10.4-24.1
			c-0.2-9.1-3.4-17.8-6.6-26.4c-1.6-4.3-3.2-8.6-4.9-12.9c-0.5-1.4-2.6-0.9-2.4,0.6C359.1,115.2,359.2,115.9,359.4,116.7
			L359.4,116.7z"/>
		<path class="st1" d="M303.5,186.3c0,0-0.1-0.1-0.2-0.2c-0.1-0.2-0.2-0.4-0.3-0.8c-0.2-0.7-0.3-1.8,0.1-3.1
			c0.4-1.3,1.6-2.5,3.2-3.3c1.6-0.8,3.6-1,5.5-0.9c2,0.2,3.9,0.6,5.5,1c1.7,0.4,3.2,0.8,4.4,1.3c1.2,0.4,2.2,0.8,2.9,1.1
			c0.7,0.3,1,0.5,1,0.5c0,0-0.4-0.1-1.1-0.3c-0.7-0.2-1.7-0.6-2.9-0.9c-1.2-0.4-2.7-0.8-4.4-1.2c-1.7-0.4-3.5-0.8-5.5-0.9
			c-2-0.2-3.8,0.1-5.4,0.8c-1.5,0.7-2.6,1.9-3.1,3.1c-0.5,1.2-0.4,2.3-0.3,2.9C303.3,185.9,303.5,186.2,303.5,186.3L303.5,186.3z"/>
		<g class="st6">
			<path d="M336,188.9c19.9-0.2,32.7-7.6,32.7-7.6c-8,6.5-16.5,9.4-26.8,10.8s-20.8-0.2-30.2-4.4C311.7,187.7,319.5,189,336,188.9z"
				/>
		</g>
	</g>
	<g id="b_00000147932261727676177760000016367801987406057630_">
	</g>
	<g id="a_00000079455846145388542650000015946002608725465779_">
		<g>
			<g>
				<path class="st2" d="M137.6,46.3l-0.8,62.6c-0.1,10.6,1.9,26.3,18.7,25.7l0,0c14.6-1.6,18.4-15.4,18.5-25.3
					c0.1-4.7,0.1-8.6,0.1-9.1c0,0,15.9-1.3,17.3-17c0.6-7.6,0.7-23.4,0.6-37.7c-0.1-15.3-12-28-27.3-29.1l-1.5-0.1
					C146.8,16,137.4,29.8,137.6,46.3L137.6,46.3z"/>
				<path class="st3" d="M174.2,100.2c0,0-10-0.1-20.1-7.6c0,0,4.2,11.9,20,11.6L174.2,100.2z"/>
			</g>
			<g>
				<g>
					<path class="st1" d="M165.2,51.9c-0.3,0.3-2.1-1.2-4.8-1.2c-2.6-0.1-4.6,1.2-4.9,0.9c-0.1-0.2,0.2-0.7,1.1-1.3
						c0.9-0.6,2.3-1.2,3.9-1.1c1.6,0.1,3,0.7,3.8,1.4C165.1,51.2,165.3,51.8,165.2,51.9L165.2,51.9z"/>
					<path class="st1" d="M164.6,57.4c0,1.1-1,2-2.2,2c-1.2,0-2.1-1-2.1-2.1c0-1.1,1-2,2.2-2C163.8,55.3,164.7,56.2,164.6,57.4
						L164.6,57.4z"/>
					<path class="st1" d="M171.8,70.3c0-0.1,1.5-0.3,4-0.4c0.6,0,1.2-0.1,1.4-0.5c0.2-0.4,0-1.1-0.3-1.9c-0.5-1.5-1-3.2-1.5-4.8
						c-2.1-6.9-3.5-12.5-3.2-12.6c0.3-0.1,2.2,5.4,4.2,12.3c0.5,1.7,1,3.3,1.4,4.9c0.2,0.7,0.5,1.6,0.1,2.4
						c-0.2,0.4-0.7,0.8-1.1,0.8c-0.4,0.1-0.8,0.1-1.1,0.1C173.3,70.5,171.8,70.4,171.8,70.3L171.8,70.3z"/>
				</g>
				<path class="st1" d="M164.1,42c-0.2,0.6-2.4,0.1-4.9,0.3c-2.5,0.1-4.6,0.7-4.9,0.1c-0.1-0.3,0.3-0.8,1.1-1.3
					c0.9-0.5,2.2-1,3.7-1c1.5-0.1,2.9,0.3,3.8,0.7C163.7,41.2,164.2,41.7,164.1,42L164.1,42z"/>
				<path class="st1" d="M189.1,46.9c-0.3,0.5-2.3,0-4.8-0.1c-2.5-0.1-4.6,0.2-4.8-0.3c-0.1-0.2,0.3-0.7,1.2-1
					c0.9-0.4,2.2-0.7,3.7-0.6c1.5,0.1,2.8,0.5,3.7,0.9C188.9,46.2,189.3,46.6,189.1,46.9L189.1,46.9z"/>
			</g>
			<path class="st2" d="M138.1,58.1c-0.3-0.1-10.6-4-11,6.8s10.5,9,10.5,8.7S138.1,58.1,138.1,58.1L138.1,58.1z"/>
			<path class="st3" d="M134.4,69.4c0,0-0.2,0.1-0.5,0.3c-0.3,0.1-0.8,0.2-1.4,0c-1.1-0.5-2-2.3-2-4.3c0-1,0.3-1.9,0.6-2.7
				c0.4-0.8,0.9-1.3,1.5-1.4c0.6-0.1,1,0.2,1.1,0.6c0.1,0.3,0.1,0.5,0.1,0.5c0,0,0.2-0.2,0.2-0.6c0-0.2-0.2-0.5-0.4-0.7
				c-0.2-0.2-0.6-0.3-1-0.3c-0.8,0-1.6,0.8-2,1.6c-0.5,0.8-0.8,1.9-0.8,3c0,2.2,1,4.3,2.6,4.8c0.8,0.2,1.4,0,1.7-0.2
				C134.4,69.6,134.4,69.4,134.4,69.4L134.4,69.4z"/>
			<path class="st1" d="M169.2,77.7c0.1-0.3-2-0.9-3.5-2.9c-0.7-1-1.2-2-1.5-2.8s-0.6-1.3-0.7-1.2c-0.1,0-0.1,0.6,0.1,1.4
				c0.2,0.8,0.6,2.1,1.4,3.2c0.8,1.1,1.9,1.8,2.8,2.1C168.7,77.8,169.2,77.8,169.2,77.7L169.2,77.7z"/>
			<path class="st1" d="M213,31.3c-0.2-0.6-0.6-1.2-1.2-1.5c-1.2-0.7-2.6-0.6-4-0.6c-4.2-0.1-8.3-1.3-11.8-3.6
				c-1.6-2.4-3.5-4.6-5.5-6.7c-4.8-4.9-8.7-8.3-12.8-9.9c-5.3-2.1-14-3-19.5-1.5c-5.5,1.4-10.4,5.9-11.2,11.5
				c-3.1-2.6-7.7-2.6-11.4-1.1l-0.1,0c-4.2,1.5-6.5,5.9-7.8,10.1c-1.2,4.2-1.8,8.8-4,12.6c-0.5,0.8-1,1.8-0.6,2.6
				c0.3,0.6,1.1,0.9,1.8,0.8c0.7-0.1,1.3-0.5,1.9-0.9c-0.5,1.1-0.9,2.2-1.4,3.3c1.5,0.3,3.1,0.1,4.5-0.3c0.9,4,1.9,8.5,3,11.2
				c1.7,0,3.3,0.1,4.4,1.1c1.5,1.3,2.1,3.8,4.5,2.8c1.2-0.5,2.4-3.1,2.8-4.3c2.7-8.3,3.6-17.3,2.7-26c1.7-1.8,3.8-3.3,6.1-4.4
				l-0.2,0.2c4.4-1.5,9.4-3,13.6-1c3.2,1.6,5.1,5,7.6,7.6c4.6,5.1,10.8,7.8,17.6,8.1c0.2,4.4-0.1,10.7,0.1,15.1l3.7-7.1v0
				c0.3-0.5,0.6-1,0.8-1.6l0.1-0.2v0c0.4-0.8,0.8-1.7,1.2-2.5l0,0c2.4,2.1,5.9-1.1,4.1-3.7c-0.4-0.5-0.8-1-1.3-1.3
				c1.1,1,2.7,1.5,4.2,1.1c1.4-0.4,2.6-1.9,2.4-3.4c-0.1-1-0.8-1.9-1.7-2.3c1.9,0.2,3.9-0.3,5.6-1.2C212.3,33.8,213.4,32.7,213,31.3
				L213,31.3z"/>
			<path class="st4" d="M152,20.8c0,0-0.7,0.4-1.6,1.5c-0.9,1-1.9,2.8-2.4,5.2c-0.2,1.2-0.4,2.5-0.4,4c0,1.4,0.1,3,0.2,4.6
				s0.2,3.4,0.1,5.2c-0.1,0.9-0.2,1.8-0.4,2.7c-0.2,0.9-0.4,1.9-1.1,2.6c-0.5,0.6-1.4,0.9-2.2,0.8c-0.8-0.1-1.5-0.6-2-1.1
				c-1-1.2-1.3-2.7-1.5-4l0.3,0c-0.5,1.2-1.1,2.4-1.9,3.3c-0.8,0.9-1.9,1.6-3.1,1.7c-0.6,0-1.1,0-1.6-0.3c-0.5-0.2-0.9-0.7-1.1-1.1
				c-0.2-0.4-0.4-0.9-0.3-1.4s0.2-0.9,0.5-1.2l0.2,0.2c-1.2,1.4-2.5,2.1-3.4,2.5c-0.4,0.2-0.8,0.3-1.1,0.4c-0.2,0.1-0.4,0.1-0.4,0.1
				c0,0,0.1-0.1,0.4-0.2c0.2-0.1,0.6-0.2,1-0.5c0.9-0.4,2.1-1.2,3.3-2.6l0.2,0.2c-0.5,0.6-0.6,1.5-0.1,2.3c0.2,0.4,0.6,0.8,1,1
				c0.4,0.2,0.9,0.3,1.5,0.2c1-0.1,2.1-0.7,2.8-1.6c0.8-0.9,1.3-2,1.8-3.2l0.2-0.5l0.1,0.5c0.2,1.3,0.5,2.8,1.4,3.8
				c0.5,0.5,1.1,0.9,1.8,1c0.7,0.1,1.4-0.1,1.9-0.6c0.6-0.7,0.8-1.6,1-2.5c0.2-0.9,0.3-1.8,0.4-2.7c0.1-1.8,0-3.5-0.1-5.1
				c-0.1-1.6-0.2-3.2-0.2-4.7c0-1.5,0.2-2.8,0.4-4.1c0.5-2.5,1.6-4.3,2.6-5.3C151.3,21.1,152,20.7,152,20.8L152,20.8z"/>
			<path class="st4" d="M200.7,36.1c0,0,0,0-0.1,0.1c-0.1,0.1-0.2,0.2-0.4,0.3c-0.2,0.1-0.4,0.3-0.7,0.4c-0.3,0.2-0.6,0.3-1,0.5
				c-1.5,0.7-3.8,1.4-6.7,1.2c-2.9-0.2-6.4-1.2-9.5-3.5c-3.1-2.3-5.9-5.6-8.2-9.4c-1.1-1.9-2.1-3.9-3.1-5.7c-1-1.8-2.1-3.5-3.5-4.8
				c-1.4-1.3-2.9-2.3-4.5-2.8c-0.8-0.2-1.6-0.3-2.4-0.3c-0.8,0-1.5,0.2-2.2,0.4c-1.4,0.5-2.4,1.2-3.3,2c-0.8,0.8-1.4,1.6-1.8,2.3
				c-0.7,1.5-0.8,2.4-0.8,2.4c0,0,0-0.1,0-0.2c0-0.1,0-0.3,0.1-0.5c0.1-0.4,0.3-1,0.6-1.8c0.4-0.7,0.9-1.6,1.8-2.4
				c0.8-0.8,1.9-1.6,3.3-2.1c0.7-0.2,1.5-0.4,2.3-0.5c0.8,0,1.7,0,2.5,0.3c1.7,0.4,3.3,1.5,4.7,2.8c1.4,1.3,2.6,3,3.6,4.9
				c1,1.8,2,3.8,3.1,5.7c2.2,3.8,5,7.1,8.1,9.3c3.1,2.3,6.5,3.3,9.3,3.5c2.9,0.2,5.2-0.4,6.7-1.1C199.9,36.6,200.6,36,200.7,36.1
				L200.7,36.1z"/>
			<path class="st4" d="M202.1,29.2c0,0-0.2,0.2-0.6,0.4c-0.4,0.2-0.9,0.5-1.7,0.9c-0.7,0.3-1.6,0.6-2.6,0.9c-1,0.2-2.2,0.4-3.4,0.5
				c-1.2,0-2.4-0.1-3.4-0.2c-1-0.2-1.9-0.4-2.7-0.7s-1.3-0.5-1.7-0.7c-0.4-0.2-0.6-0.3-0.6-0.4c0-0.1,0.9,0.4,2.4,0.9
				c0.7,0.2,1.6,0.5,2.7,0.6c1,0.1,2.1,0.2,3.3,0.2c1.2,0,2.3-0.2,3.3-0.4c1-0.2,1.9-0.5,2.6-0.8C201.2,29.6,202.1,29.1,202.1,29.2
				L202.1,29.2z"/>
			<path class="st1" d="M189.2,52.9c-0.3,0.3-2.1-1.2-4.8-1.2c-2.6-0.1-4.6,1.2-4.9,0.9c-0.1-0.2,0.2-0.7,1.1-1.3
				c0.9-0.6,2.3-1.2,3.9-1.1c1.6,0.1,3,0.7,3.8,1.4C189.1,52.1,189.4,52.7,189.2,52.9L189.2,52.9z"/>
			<path class="st1" d="M186.5,58.1c0,1.1-1,2-2.2,2c-1.2,0-2.1-1-2.1-2.1c0-1.1,1-2,2.2-2C185.7,56.1,186.6,57,186.5,58.1
				L186.5,58.1z"/>
		</g>
		<path class="st2" d="M285,115.7c0-4.6-4.4-4.6-4.4-4.6c-1.7-2.2-3.5-1.4-3.5-1.4l-7.1,4.8c-1,1.8-7.9,8.6-7.9,8.6
			c-1.9-1.4-1.9-4.2-4.1-7.6c-2.3-3.4-7.3-3-7.3-3s4,8.9,4.4,14.5c0.4,5.6-3,21.1-3,21.1l20,5.6c0,0,1.3-8.5,3.5-9.2
			c2.7-0.8,4.2-4.8,4.2-4.8c2.9-5.9,8.8-14.5,9.7-18.9C290.2,116.5,285,115.7,285,115.7L285,115.7z"/>
		<g>
			<g>
				<path class="st4" d="M136.1,105.8c12.8,8,25.6,11,38.6,5.8l19.6,5l19.2,128.6l-112.8,1l5.6-29.9l14-107.3L136.1,105.8
					L136.1,105.8z"/>
				<path class="st4" d="M194.3,116.7c0,0,15.2,6.3,21,17.4c5.8,11.1,15.1,42.1,15.1,42.1l17.2-31.6l31.9,8.2
					c0,0-23.8,65.5-29.7,71.5c-6.5,6.5-24.3,13.1-33,8c-8.7-5.1-10.5-24.4-10.5-24.4L194.3,116.7L194.3,116.7z"/>
				<path class="st1" d="M195.3,170.4c-0.1,0-0.2-5.7-0.2-12.8s0.1-12.8,0.2-12.8s0.2,5.7,0.2,12.8S195.4,170.4,195.3,170.4z"/>
				<path class="st1" d="M201.3,124c0,0-0.3,0.8-0.7,2.1c-0.5,1.3-1.1,3.1-1.7,5.1c-0.6,2-1.1,3.9-1.4,5.2c-0.3,1.3-0.5,2.2-0.6,2.2
					c0,0,0-0.2,0.1-0.6s0.2-0.9,0.3-1.6c0.3-1.4,0.7-3.2,1.4-5.2c0.6-2,1.3-3.8,1.8-5.1c0.3-0.6,0.5-1.2,0.7-1.5
					S201.3,124,201.3,124L201.3,124z"/>
			</g>
			<g>
				<path class="st4" d="M118.2,157.2l3.5-48.4c0,0-26.6,2.5-35.3,21.2c-7.4,15.8-27.8,63.3-30,69.8c-6.4,19.1,3.6,45.3,45,43.8
					l4.7-25.9L118.2,157.2L118.2,157.2z"/>
				<path class="st1" d="M88.4,223c0,0,0.1-0.2,0.2-0.5c0.2-0.3,0.4-0.8,0.7-1.3c0.6-1.1,1.5-2.8,2.5-4.8c0.3-0.5,0.6-1,0.8-1.6
					c0.3-0.5,0.7-1.1,1.2-1.6c0.6-0.4,1.3-0.6,2-0.6c0.7,0,1.5,0.2,2.2,0.4c1.5,0.4,3,0.9,4.4,1.7c0.7,0.4,1.5,0.8,2.1,1.4l0.2,0.2
					c0.1,0.1,0.2,0.2,0.2,0.3c0.1,0.2,0.1,0.4,0.1,0.7c0,0.4,0,0.9,0,1.3c-0.1,1.8-0.3,3.4-0.5,5.1s-0.5,3.2-0.7,4.7
					c-0.5,3-1,5.6-1.4,7.9c-0.4,2.2-0.8,4-1,5.3c-0.1,0.6-0.2,1.1-0.3,1.4c-0.1,0.3-0.1,0.5-0.1,0.5s0-0.2,0-0.5s0.1-0.8,0.2-1.4
					c0.2-1.3,0.6-3.1,0.9-5.3c0.4-2.2,0.9-4.9,1.4-7.9c0.2-1.5,0.5-3.1,0.7-4.7c0.2-1.6,0.4-3.3,0.5-5c0-0.4,0-0.9,0-1.3
					c0-0.2-0.1-0.4-0.1-0.6c0-0.1-0.1-0.1-0.1-0.2l-0.2-0.2c-0.6-0.5-1.3-1-2.1-1.3c-1.4-0.7-2.9-1.3-4.4-1.7
					c-0.7-0.2-1.4-0.4-2.1-0.4c-0.7,0-1.4,0.1-1.9,0.5c-0.5,0.4-0.8,0.9-1.2,1.5c-0.3,0.5-0.6,1.1-0.9,1.6c-1.1,2-2,3.6-2.6,4.7
					c-0.3,0.5-0.6,1-0.7,1.3C88.5,222.9,88.4,223,88.4,223L88.4,223z"/>
				<path class="st1" d="M69.2,200c0,0,0.1,0,0.3,0c0.2,0,0.5,0,0.9,0c0.8,0,1.9,0.1,3.3,0.2c1.4,0.1,3,0.3,4.8,0.7
					c1.8,0.4,3.8,1,5.7,1.9c1.9,0.9,3.6,2.1,5,3.3c1.4,1.2,2.4,2.6,3,3.8c0.6,1.3,0.9,2.4,0.9,3.2c0.1,0.4,0,0.7,0,0.9
					c0,0.2,0,0.3,0,0.3c0,0,0-0.4-0.1-1.2c-0.1-0.8-0.4-1.9-1-3.1c-0.6-1.2-1.7-2.5-3-3.7c-1.4-1.2-3.1-2.3-4.9-3.2
					c-1.9-0.9-3.8-1.5-5.6-1.9s-3.4-0.6-4.8-0.8c-1.4-0.2-2.5-0.3-3.3-0.3l-0.9-0.1C69.3,200,69.2,200,69.2,200L69.2,200z"/>
				<path class="st1" d="M97.6,197.5c0,0-0.2,0.8-0.7,1.9c-0.4,1.2-1.1,2.7-1.9,4.5c-0.8,1.7-1.4,3.2-2,4.4
					c-0.5,1.1-0.8,1.8-0.9,1.8c0,0,0.2-0.8,0.7-1.9c0.4-1.2,1.1-2.7,1.9-4.5c0.8-1.7,1.4-3.2,2-4.4
					C97.3,198.2,97.6,197.5,97.6,197.5z"/>
				<path class="st1" d="M112.3,159.4c-0.1,0-0.2-3.1-0.2-6.9s0.1-6.9,0.2-6.9s0.2,3.1,0.2,6.9S112.4,159.4,112.3,159.4z"/>
				<g class="st6">
					<path d="M93.1,214.3c-7,2.4-11.7,8.8-13.6,15.9c-0.2,0.8-0.3,1.6,0.2,2.2c0.5,0.6,1.5,0.6,2.2,0.2s1.1-1.1,1.6-1.8
						C86.8,225.5,90.1,220.5,93.1,214.3L93.1,214.3L93.1,214.3z"/>
				</g>
				<g class="st6">
					<path d="M84.5,200.5c-3.7-2-7.9-2.9-12-3.1c-1.6-0.1-3.3,0.1-4.9,0.4c-2.2,0.5-4.7,1.6-5.2,3.1c5-1.6,12.4-0.5,17.5,0.6
						c5.2,1.1,9.4,4.1,12.3,8.7C91,206.3,88,202.5,84.5,200.5L84.5,200.5z"/>
				</g>
				<path class="st1" d="M108.4,138.8c0,0-0.1-0.3-0.2-0.8c-0.1-0.5-0.3-1.2-0.6-2.1c-0.6-1.7-1.5-4.1-2.9-6.5
					c-1.4-2.4-3-4.4-4.3-5.8c-0.6-0.7-1.1-1.2-1.5-1.6c-0.4-0.4-0.6-0.6-0.6-0.6c0,0,0.2,0.2,0.6,0.5c0.4,0.3,0.9,0.8,1.6,1.5
					c1.3,1.3,2.9,3.3,4.4,5.7c1.4,2.4,2.4,4.8,2.9,6.6c0.3,0.9,0.4,1.6,0.5,2.1S108.5,138.8,108.4,138.8L108.4,138.8z"/>
			</g>
		</g>
		<path class="st7" d="M118.2,246.2l-29.6-71.4c-1.3-3.3,0.3-5.9,3.8-5.9h5.9c2.4,0,4.1-1.3,4.2-3.4l0.2-2.6
			c0.2-2.1,1.8-3.4,4.2-3.4h28.3c2.2,0,4.7,1.1,6.6,2.9l2.3,2.2c1.9,1.8,4.3,2.9,6.6,2.9h36c3.4,0,7.3,2.6,8.6,5.9l29.3,72.9
			L118.2,246.2L118.2,246.2z"/>
		<path class="st0" d="M118.2,246.2l-29.6-71.4c-1.3-3.3,0.3-5.9,3.8-5.9h5.9c2.4,0,4.1-1.3,4.2-3.4l0.2-2.6
			c0.2-2.1,1.8-3.4,4.2-3.4h28.3c2.2,0,4.7,1.1,6.6,2.9l2.3,2.2c1.9,1.8,4.3,2.9,6.6,2.9h36c3.4,0,7.3,2.6,8.6,5.9l29.3,72.9
			L118.2,246.2L118.2,246.2z"/>
		<path class="st8" d="M113.3,222l-11.2-43.2c-0.7-2.8,1.1-5.7,3.7-5.7h87.5c1.7,0,3.2,1.3,3.7,3.2l16.2,65c0.7,2.9-0.4,4.6-3,4.5
			l-88,0c-1.7,0-3.2-1.3-3.7-3.2L113.3,222L113.3,222z"/>
		<g>
			<path class="st5" d="M119.3,244.2l-4.8-68c-0.2-2.4,1.7-4.5,4.2-4.5h90.7v72.4L119.3,244.2L119.3,244.2z"/>
			<path class="st9" d="M118.3,245.8l10.8-70.1c0.5-2.3,2.6-3.9,4.9-3.9h91.7c3.6,0,6.1,3.6,4.6,6.9l-19.8,64.1L118.3,245.8
				L118.3,245.8z"/>
		</g>
		<path class="st0" d="M118.2,246.2l22.2-65.6c0.9-2.7,3.4-4.6,6.2-4.6h94.5c3.1,0,5.2,3.1,4.2,6.1l-20.7,64.1L118.2,246.2
			L118.2,246.2z"/>
		<g class="st6">
			<path d="M163.9,235.2c0,0-3.6,0.2-5.2,0.3c-7.8,0.5-15.8-0.9-23-4.1c-2.2-1-4.6-2.4-5.2-4.7c-0.8-2.6,0.9-5.4,3-7.1
				c2.1-1.8,4.6-3,6.4-5.1c1.8-2.1,2.7-5.4,0.9-7.4l-0.5,0.4c-1.3,3.2-4.8,4.8-7.8,6.7c-5.5,3.4-9.7,8.9-11.5,15.1
				c-1,3.4-1.3,7.4,0.7,10.2c1.5,2.1,3.8,3.2,6.2,4.1c7.1,2.6,14.8,2.8,22.4,2.8c2.4,0,9.8-0.1,9.8-0.1c2.3-0.6,3.1-1.8,4.5-3.8
				C165.9,240.5,165.6,236.6,163.9,235.2L163.9,235.2z"/>
		</g>
		<g>
			<path class="st2" d="M163.9,235.2l-24.7-3.7l-9.6-5.5c-1.3-0.7-2.1-2-2.2-3.5v-0.1c-0.1-1.8,1-3.5,2.7-4.2c3-1.3,7.9-3,9.9-6.6
				c2.9-5.2,0-6.2,0-6.2l-20.6,8.2l-14.6,9.9l-2.9,16.5l20.3,6.6c0,0,22.7,1.3,28.9,0.6c6.2-0.7,6.2-3.6,6.2-3.6
				c1.2-0.4,3.5-2.4,3.5-4.4C164,236.5,163.9,235.2,163.9,235.2"/>
			<path class="st3" d="M132.4,242.3c0,0,0.4,0,1,0.2c0.6,0.2,1.6,0.4,2.7,0.6c2.3,0.5,5.6,0.9,9.2,1.1s6.9-0.1,9.2-0.4
				c1.2-0.1,2.1-0.3,2.8-0.4c0.7-0.1,1-0.1,1-0.1s-0.4,0.1-1,0.3c-0.6,0.2-1.6,0.3-2.8,0.5c-2.4,0.4-5.6,0.6-9.3,0.5
				c-3.6-0.1-6.9-0.7-9.2-1.2c-1.2-0.3-2.1-0.5-2.7-0.7C132.7,242.4,132.4,242.3,132.4,242.3L132.4,242.3z"/>
			<path class="st3" d="M134.6,238.5c0,0,0.4,0,1,0.2c0.7,0.2,1.6,0.4,2.8,0.6c2.4,0.5,5.7,0.9,9.3,1c3.7,0.1,7-0.1,9.4-0.4
				c1.2-0.1,2.2-0.3,2.8-0.4c0.7-0.1,1-0.1,1-0.1s-0.4,0.1-1,0.3c-0.7,0.2-1.6,0.3-2.8,0.5c-2.4,0.4-5.7,0.7-9.4,0.6
				c-3.7-0.1-7-0.6-9.4-1.2c-1.2-0.3-2.1-0.5-2.8-0.7C135,238.7,134.6,238.5,134.6,238.5L134.6,238.5z"/>
		</g>
		<polygon class="st4" points="98.3,298 100.7,246.2 224.7,246.2 227.9,298 		"/>
	</g>
	<g id="b_00000115480064351626212630000002693232382121386900_">
	</g>
	<g id="a_00000179617983198538014950000012582726805819394495_">
		<g>
			<path class="st1" d="M63,92.5c-4.1-4.5-14.3-3.7-16.6-0.7c-3.5-1.8-8.4-0.1-10.1,3.5c-3.6,0.8-7.2,1.6-10.8,2.5
				c-1.8,0.4-3.8,0.9-5.2,2.1c-1.4,1.3-2,3.6-0.9,5c-3.8,1-5.2,6.7-2.4,9.4c-1.5,1.6-1.2,4.6,0.7,5.9c-2.9,3.6-5.3,7.7-6.8,12.1
				c-0.7,1.8-1.2,3.9-0.5,5.7c0.7,1.8,3.1,3.1,4.7,1.9c-1.1,1.5-1.1,3.6-0.2,5.2c-1.8,0.1-2.3,2.9-1.1,4.2c1.3,1.3,3.3,1.4,5.1,1.4
				s3.8-0.2,5.3,0.8c-0.1,0.5-0.3,0.9-0.6,1.2c-3.1,2.6-3.9,7-1.6,10.2c0.2,0.3,0.4,0.6,0.6,0.8c1.1,1.5,3.7,2.8,5.3,3.7
				c4.1,2.1,6.6,1.7,11.2,2.3c-1.2,3,6.3,9.5,14.8,2.9c17.1,4.4,29.4,6,47.1,5.9c2.5,0,5.6-0.4,6.6-2.7c2.1,0.5,4.2-0.4,5.7-1.9
				c1.5-1.5,2.4-3.4,3.3-5.4c4.4-1.2,7.7-5.4,7.8-10c2.9-2.3,4.8-6,5-9.7c4.2-1.3,6.5-6.9,4.5-10.8c-1-5.2-2.8-10.2-5.4-14.8
				c2.9-0.7,3.9-4.6,2.7-7.2c-1.2-2.7-3.9-4.4-6.4-6c2.2,0.6,4-2.2,3.5-4.3c-0.5-2.2-2.5-3.7-4.4-4.8c-2.8-1.7-5.9-3-9-3.9
				c-1.1-3.8-6-8.1-9.5-9.7C91.3,80.6,81.3,79,63,92.5"/>
			<path class="st10" d="M103.3,119.5c-1.2-9.9-8.6-21.6-18.4-20l-30.4,9.7c-3,0.5-5.1,3.2-4.8,6.2l5.1,66
				c0.7,8.6,7.3,15.6,15.9,16.6l0,0c11,1.4,20.6-7.3,20.4-18.4c-0.1-4.5-0.1-8-0.1-7.9c0,0,12.5-2.9,14.1-19.6
				C105.9,143.9,104.7,130.5,103.3,119.5L103.3,119.5z"/>
			<g>
				<g>
					<g>
						<path class="st1" d="M97.8,132.9c0.1,1.1-0.8,2.1-1.9,2.3c-1.2,0.1-2.2-0.7-2.3-1.8c-0.1-1.1,0.8-2.1,1.9-2.3
							S97.7,131.8,97.8,132.9L97.8,132.9z"/>
						<path class="st1" d="M100.8,126.7c-0.2,0.3-1.9-0.8-4.2-0.7c-2.3,0.1-3.9,1.4-4.1,1.1c-0.1-0.1,0.1-0.6,0.8-1.2
							c0.7-0.6,1.9-1.2,3.3-1.2c1.4-0.1,2.6,0.4,3.4,0.9C100.7,126.1,100.9,126.6,100.8,126.7L100.8,126.7z"/>
					</g>
					<g>
						<path class="st1" d="M76.8,133.8c0.1,1.1-0.8,2.1-1.9,2.3c-1.2,0.1-2.2-0.7-2.3-1.8s0.8-2.1,1.9-2.3S76.7,132.7,76.8,133.8
							L76.8,133.8z"/>
						<path class="st1" d="M78.4,128.5c-0.2,0.3-1.9-0.8-4.2-0.7c-2.3,0.1-3.9,1.4-4.1,1.1c-0.1-0.1,0.1-0.6,0.8-1.2
							c0.7-0.6,1.9-1.2,3.3-1.2c1.4-0.1,2.6,0.4,3.4,0.9C78.3,127.9,78.5,128.4,78.4,128.5L78.4,128.5z"/>
					</g>
					<path class="st1" d="M87.8,144.9c0-0.1,1.4-0.5,3.7-0.9c0.6-0.1,1.1-0.2,1.2-0.7c0.1-0.4-0.2-1-0.5-1.7c-0.6-1.4-1.3-2.8-2-4.3
						c-2.8-6.2-4.8-11.2-4.6-11.4s2.7,4.8,5.5,11c0.7,1.5,1.3,3,1.9,4.4c0.3,0.7,0.7,1.4,0.4,2.3c-0.1,0.4-0.5,0.8-0.9,0.9
						c-0.4,0.1-0.7,0.2-1,0.2C89.2,145,87.8,145.1,87.8,144.9L87.8,144.9z"/>
					<path class="st11" d="M91,171.8c0,0-11.1,1.4-22.5-4.5c0,0,6.1,11,22.5,8.4L91,171.8z"/>
				</g>
				<path class="st1" d="M78.8,119.1c-0.2,0.6-2.5,0.5-5.1,1c-2.7,0.4-4.8,1.3-5.2,0.8c-0.2-0.3,0.2-0.9,1-1.5
					c0.8-0.7,2.2-1.3,3.8-1.6s3.1-0.1,4.1,0.2C78.4,118.3,78.9,118.8,78.8,119.1L78.8,119.1z"/>
				<path class="st1" d="M99.5,118.9c-0.4,0.5-2,0.1-3.9,0.2c-1.9,0-3.5,0.6-3.9,0.1c-0.2-0.2,0-0.8,0.7-1.3c0.7-0.5,1.8-1,3.1-1
					s2.4,0.4,3.1,0.8C99.4,118.1,99.7,118.7,99.5,118.9L99.5,118.9z"/>
			</g>
			<path class="st1" d="M110.9,127.3c-0.2-2.6-1.1-5.2-2.9-7.1c-1-1-2.2-1.8-3.1-2.9c-1.9-2.4-1.7-5.8-2.5-8.8
				c-1.1-3.8-4.1-7-7.9-8.3c-3.1-1.1-6.6-0.8-9.6-2.3c-2.2-1.1-3.9-3.1-6.1-4c-4.4-1.9-9.3,0.4-13.4,2.9c-0.8,3.2,1.4,6,3.4,8.7
				c2,2.7,5.3,4.3,8.6,4.5c2.6,0.1,5.6-0.5,7.4,1.3c1.9,1.9,1.3,5.3,2.9,7.5c2.3,3.1,7.4,1.8,10.8,3.8c2.6,1.5,3.8,4.6,5.1,7.2
				c1.4,2.7,3.7,5.5,6.7,5.3C110.7,132.5,111.1,129.9,110.9,127.3L110.9,127.3z"/>
			<path class="st1" d="M72,102.6c-7.6,0-15.1,1.5-22.1,4.4c-2.1,0.9-4.2,1.9-5.4,3.9c-1,1.7-1.1,3.8-1.1,5.8
				c0.2,6.2,2.8,13.7,5.3,19.4l7.8,4.5c5.9-1.5,3-11.8,2.6-16.9c4.1-1.9,6.9-6.3,6.9-10.9C69.5,110.5,71.7,106.7,72,102.6L72,102.6z
				"/>
			<path class="st10" d="M56.4,138.3c-0.3-3.5-4.7-4.2-7.7-2.3c-1.6,1-2.9,3-2.6,6.8c0.8,10,10.7,7.2,10.7,6.9
				C56.8,149.6,56.8,142.5,56.4,138.3z"/>
			<path class="st11" d="M53.4,146.2c0,0-0.2,0.1-0.4,0.3c-0.3,0.2-0.8,0.3-1.3,0.1c-1.1-0.3-2.1-1.9-2.3-3.7
				c-0.1-0.9,0-1.8,0.3-2.5c0.2-0.8,0.7-1.3,1.2-1.4c0.5-0.2,0.9,0.1,1.1,0.4c0.2,0.3,0.1,0.5,0.2,0.5c0,0,0.2-0.2,0.1-0.6
				c-0.1-0.2-0.2-0.4-0.4-0.6c-0.3-0.2-0.6-0.2-1-0.2c-0.8,0.1-1.4,0.9-1.7,1.7c-0.3,0.8-0.5,1.8-0.4,2.8c0.2,2,1.4,3.8,2.9,4.1
				c0.7,0.1,1.3-0.1,1.6-0.4C53.4,146.4,53.5,146.2,53.4,146.2L53.4,146.2z"/>
			<path class="st4" d="M48.6,152.6c-0.5,0-1,0-1.6-0.1s-1.2-0.2-1.8-0.5l0.1-0.1c-0.2,1.4-1.1,2.9-2.6,3.7
				c-1.5,0.8-3.7,0.8-5.3-0.4l0.2,0c-0.3,0.4-0.8,0.8-1.3,0.9c-0.5,0.1-1.1,0.1-1.6-0.1s-1-0.6-1.3-1c-0.3-0.5-0.5-1.1-0.5-1.6
				c-0.1-1.2,0.3-2.4,1-3.4c0.7-1,1.6-1.8,2.6-2.6l0,0.2c-0.9-0.5-1.4-1.4-1.6-2.4c-0.2-1-0.1-2,0.2-3c0.4-0.9,1-1.8,1.7-2.5
				c0.7-0.8,1.5-1.4,2.3-2.1v0.2c-0.8-0.7-1.1-1.8-1.1-2.9c0.1-1.1,0.4-2.1,1.1-3c1.3-1.7,3.1-2.6,4.8-3.5l-0.1,0.2
				c-0.6-2.2,0-4.6,1.5-6.2s3.6-2.4,5.6-2.2l-0.1,0.2c-0.4-1.8,0.2-3.6,1.3-4.9c1.1-1.3,2.6-2.1,4.2-2.2l-0.1,0.1
				c0-1.8,1-3.4,2.2-4.4c1.2-1,2.8-1.4,4.2-1.2l-0.1,0.1c0-1,0.4-1.8,0.8-2.6c0.4-0.7,0.9-1.4,1.5-1.9c1.1-1,2.4-1.5,3.4-1.5l0.4,0
				c0.1,0,0.2,0,0.4,0c0.2,0,0.4,0,0.6,0.1c0.4,0.1,0.7,0.1,1,0.2c0.2,0.1,0.4,0.2,0.6,0.2c0.1,0.1,0.2,0.1,0.2,0.1
				c0,0-0.1,0-0.2-0.1c-0.1,0-0.3-0.1-0.6-0.2c-0.2-0.1-0.6-0.1-1-0.2c-0.2,0-0.4,0-0.6-0.1c-0.1,0-0.2,0-0.4,0c-0.1,0-0.2,0-0.4,0
				c-1,0.1-2.2,0.5-3.3,1.5c-0.6,0.5-1,1.1-1.4,1.8c-0.4,0.7-0.7,1.6-0.7,2.5v0.1l-0.1,0c-1.3-0.2-2.8,0.2-4,1.2
				c-1.2,0.9-2.1,2.5-2.1,4.2v0.1h-0.1c-1.5,0-3,0.8-4,2.1c-1,1.2-1.6,3-1.2,4.7l0.1,0.2l-0.2,0c-1.9-0.2-4,0.6-5.4,2.1
				c-1.4,1.5-2,3.8-1.4,5.9l0,0.1l-0.1,0.1c-1.7,0.9-3.5,1.8-4.7,3.4c-0.6,0.8-1,1.8-1,2.8c-0.1,1,0.3,2,0.9,2.7l0.1,0.1l-0.1,0.1
				c-1.6,1.3-3.2,2.6-4,4.5c-0.4,0.9-0.4,1.9-0.2,2.8c0.2,0.9,0.7,1.7,1.5,2.2l0.2,0.1l-0.2,0.1c-0.9,0.8-1.9,1.6-2.6,2.6
				c-0.7,0.9-1.1,2.1-1,3.2c0.1,1.1,0.7,2.1,1.7,2.5c0.9,0.4,2.1,0.1,2.6-0.7l0.1-0.1l0.1,0.1c1.6,1.1,3.6,1.2,5.1,0.4
				c1.5-0.8,2.3-2.2,2.5-3.5l0-0.1l0.1,0.1c0.6,0.3,1.2,0.4,1.7,0.5c0.6,0.1,1.1,0.1,1.6,0.1c1,0,1.8-0.2,2.4-0.5
				c0.6-0.3,1-0.7,1.1-1c0.1-0.3,0.2-0.5,0.2-0.5c0,0,0,0.1,0,0.1c0,0.1,0,0.2-0.1,0.4c-0.1,0.3-0.5,0.8-1.1,1.1"/>
			<path class="st4" d="M14,140.4c0,0-0.2-0.2-0.4-0.6c-0.2-0.4-0.5-1.1-0.6-2c-0.1-0.9,0.1-2.1,0.8-3.2c0.7-1.1,1.9-2.1,3.6-2.4
				l-0.1,0.1c-0.3-1.5-0.1-3.4,0.8-5c0.5-0.8,1.1-1.6,1.9-2.1c0.8-0.6,1.8-0.9,2.7-1.3c0.5-0.2,0.9-0.5,1.3-0.8s0.7-0.8,0.9-1.2
				c0.4-1,0.6-2.1,1.1-3.2c1.1-2.1,3.6-3.5,6.1-3.1l-0.2,0.2c-0.4-2.3,0.3-4.8,2-6.7c1.7-1.9,4.3-2.8,6.8-2.6l-0.2,0.2
				c-0.4-2.9,1.3-5.8,3.6-7.1c2.4-1.3,5.3-1,7.2,0.3l-0.2,0c1-1.1,2.3-1.7,3.5-2.2c1.2-0.5,2.4-0.8,3.6-0.9c2.3-0.3,4.4-0.1,6,0.3
				c1.6,0.4,2.8,0.9,3.6,1.4c0.4,0.2,0.6,0.5,0.8,0.6c0.2,0.1,0.3,0.2,0.3,0.2c0,0-0.4-0.3-1.1-0.7c-0.8-0.5-1.9-1-3.6-1.3
				c-1.6-0.3-3.6-0.6-5.9-0.2c-1.1,0.1-2.3,0.4-3.5,0.9c-1.2,0.5-2.4,1.2-3.4,2.2l-0.1,0.1l-0.1-0.1c-1.9-1.2-4.7-1.5-7-0.2
				c-2.3,1.2-3.8,4-3.5,6.8l0,0.2l-0.2,0c-2.3-0.2-4.9,0.7-6.5,2.5c-1.6,1.8-2.3,4.2-1.9,6.4l0,0.2l-0.2,0c-2.4-0.3-4.7,1-5.8,3
				c-0.5,1-0.7,2.1-1.1,3.1c-0.2,0.5-0.6,1-1,1.3c-0.4,0.4-0.9,0.6-1.4,0.8c-0.9,0.4-1.9,0.7-2.7,1.3c-0.8,0.6-1.4,1.3-1.9,2
				c-0.9,1.6-1.2,3.3-0.8,4.8l0,0.1l-0.1,0c-1.6,0.2-2.8,1.2-3.5,2.3c-0.7,1.1-0.8,2.2-0.8,3.1c0.1,0.9,0.3,1.5,0.5,2
				C13.9,140.1,14,140.3,14,140.4L14,140.4z"/>
			<path class="st4" d="M110,141.4c0,0-0.2-0.3-0.1-0.8c0.1-0.3,0.3-0.6,0.6-0.8c0.3-0.3,0.7-0.5,1.2-0.6c0.5-0.2,1.1-0.3,1.6-0.7
				c0.5-0.4,0.9-0.9,1.1-1.6c0.2-0.7,0.3-1.5,0.2-2.3c-0.1-0.8-0.2-1.7-0.2-2.6c-0.1-1.9,0.7-3.8,1.2-5.9c0.2-1.1,0.3-2.2,0.1-3.3
				c-0.2-1.1-0.8-2.2-1.9-2.8c-1-0.6-2.3-0.8-3.5-1.1c-0.6-0.2-1.2-0.4-1.8-0.8c-0.6-0.4-1-1-1.3-1.6c-0.6-1.2-0.8-2.6-1.1-3.9
				c-0.2-0.7-0.4-1.3-0.7-1.9c-0.3-0.6-0.9-1-1.5-1.3c-0.9-0.3-1.8-0.2-2.8-0.3c-0.5,0-1-0.1-1.4-0.3c-0.4-0.2-0.9-0.5-1.1-0.9
				c-0.6-0.8-0.8-1.7-1.1-2.5c-0.3-0.8-0.7-1.6-1.3-2.2c-1.1-1.3-2.8-2-4.4-2s-3.1,0.6-4.2,1.6l-0.1,0.1l-0.1-0.2
				c-1.3-2.7-3.7-4.4-6.1-5c-1.2-0.3-2.3-0.4-3.4-0.2c-1,0.1-2,0.4-2.7,0.8c-1.6,0.8-2.4,1.9-2.9,2.7c-0.2,0.4-0.4,0.7-0.5,1
				c-0.1,0.1-0.1,0.2-0.1,0.2c0,0.1,0,0.1-0.1,0.1c0,0,0,0,0-0.1c0-0.1,0.1-0.2,0.1-0.3c0.1-0.2,0.2-0.6,0.4-1
				c0.4-0.8,1.3-2,2.9-2.8c0.8-0.4,1.7-0.7,2.8-0.9c1.1-0.1,2.2-0.1,3.4,0.2c2.4,0.6,4.9,2.4,6.2,5.1l-0.2,0
				c1.1-1.1,2.7-1.7,4.4-1.7c1.7,0,3.4,0.8,4.6,2.1c0.6,0.7,1.1,1.5,1.4,2.3c0.3,0.8,0.5,1.8,1.1,2.5c0.5,0.7,1.4,1.1,2.3,1.1
				c0.9,0.1,1.9,0,2.9,0.3c0.7,0.3,1.3,0.8,1.7,1.4c0.4,0.6,0.6,1.3,0.8,2c0.3,1.3,0.5,2.7,1.1,3.9c0.3,0.6,0.7,1.1,1.2,1.5
				s1.1,0.6,1.7,0.8c1.2,0.3,2.5,0.5,3.6,1.2c0.5,0.3,1,0.8,1.3,1.3c0.3,0.5,0.5,1.1,0.6,1.7c0.2,1.2,0.1,2.3-0.1,3.4
				c-0.5,2.1-1.2,4.1-1.2,5.9c0,0.9,0.1,1.8,0.2,2.6c0.1,0.8,0,1.6-0.2,2.4c-0.2,0.7-0.6,1.3-1.2,1.7c-0.5,0.4-1.1,0.5-1.6,0.7
				c-0.5,0.2-0.9,0.3-1.2,0.6c-0.3,0.3-0.5,0.5-0.6,0.8C109.9,141.2,110.1,141.5,110,141.4L110,141.4z"/>
			<path class="st4" d="M129.2,125.6c0,0,0-0.1-0.1-0.2c-0.1-0.1-0.2-0.3-0.3-0.6c-0.2-0.5-0.6-1.2-1.1-2.2c-0.5-0.9-1-2.1-1.8-3.4
				c-0.8-1.3-1.8-2.7-3.4-3.5c-0.8-0.4-1.8-0.7-2.7-1.1c-0.5-0.2-0.9-0.4-1.4-0.8c-0.4-0.3-0.8-0.8-1.1-1.3c-0.5-1-0.5-2.2-0.9-3.3
				c-0.2-0.5-0.5-1-1-1.3c-0.5-0.3-1-0.5-1.6-0.7c-0.6-0.2-1.2-0.3-1.8-0.7c-0.6-0.3-1.1-0.8-1.4-1.4c-0.6-1.2-0.6-2.6-0.9-3.9
				c-0.1-0.7-0.3-1.3-0.7-1.8c-0.4-0.5-1-0.9-1.6-1c-1.3-0.2-2.7,0.2-4.2,0c-0.7-0.1-1.4-0.5-1.9-1c-0.5-0.5-0.9-1.1-1.3-1.7
				c-0.4-0.6-0.7-1.2-1.1-1.7s-0.9-1-1.5-1.2c-1.2-0.5-2.6-0.2-3.8,0.1c-1.2,0.3-2.5,0.6-3.8,0.4c-1.3-0.2-2.3-0.9-3.3-1.5
				c-1-0.6-2-1.2-3-1.6c-2.1-0.7-4.2-0.6-6-0.1c-1.8,0.5-3.3,1.4-4.4,2.3c-1.1,1-1.8,2-2.4,2.9c-0.5,0.9-0.8,1.7-1,2.2
				c-0.1,0.2-0.2,0.4-0.2,0.6c-0.1,0.1-0.1,0.2-0.1,0.2c0,0,0-0.1,0.1-0.2c0.1-0.2,0.1-0.3,0.2-0.6c0.1-0.5,0.5-1.3,1-2.2
				c0.5-0.9,1.2-2,2.4-3c1.1-1,2.6-1.9,4.4-2.4c1.8-0.5,4-0.7,6.1,0.1c1.1,0.4,2,1,3,1.6c1,0.6,2.1,1.2,3.2,1.4
				c1.2,0.2,2.4-0.1,3.7-0.4c0.6-0.2,1.3-0.3,1.9-0.4c0.7-0.1,1.4,0,2,0.3c0.6,0.3,1.2,0.8,1.6,1.3c0.4,0.6,0.8,1.2,1.1,1.7
				c0.4,0.6,0.8,1.2,1.2,1.7c0.5,0.5,1.1,0.8,1.8,0.9c1.4,0.2,2.8-0.3,4.2,0c0.7,0.1,1.4,0.5,1.8,1.1c0.4,0.6,0.6,1.3,0.8,1.9
				c0.3,1.3,0.3,2.7,0.9,3.8c0.3,0.5,0.7,1,1.3,1.3c0.5,0.3,1.1,0.4,1.7,0.6c0.6,0.2,1.2,0.4,1.7,0.8c0.5,0.4,0.9,0.9,1.1,1.5
				c0.4,1.1,0.4,2.3,0.9,3.3c0.4,1,1.4,1.6,2.3,2c0.9,0.4,1.9,0.7,2.7,1.1c1.7,0.9,2.7,2.4,3.5,3.7c0.7,1.3,1.3,2.5,1.7,3.4
				c0.4,0.9,0.8,1.7,1,2.2c0.1,0.2,0.2,0.4,0.3,0.6C129.2,125.5,129.2,125.6,129.2,125.6L129.2,125.6z"/>
			<path class="st4" d="M118.4,115.3c0,0,0.1,0,0.2,0c0.1,0,0.3,0,0.5,0.1c0.4,0.2,0.9,0.8,1,1.8c0,0.5-0.1,1-0.2,1.5
				s-0.3,1.1-0.2,1.7c0,0.6,0.3,1.2,0.7,1.8c0.4,0.6,0.9,1.2,1.3,1.9c0.4,0.7,0.6,1.7,0.3,2.5c-0.3,0.9-0.9,1.6-1.2,2.5
				c-0.3,0.9-0.1,1.9,0.3,2.8c0.4,0.9,1,1.8,1.4,2.8c0.2,0.5,0.3,1.1,0.4,1.6c0,0.6-0.1,1.1-0.4,1.7c-0.5,1.1-1.2,1.9-1.9,2.9
				c-0.6,0.9-1.2,2-1,3.2c0.1,1.2,0.8,2.2,1.3,3.4c0.2,0.6,0.4,1.2,0.4,1.8s-0.2,1.3-0.4,1.8c-0.6,1.1-1.4,2-2.1,2.9
				c-0.7,0.9-1.4,1.8-1.7,2.9c-0.3,1.1-0.5,2.1-1,3.1c-0.2,0.5-0.6,0.9-1,1.3s-0.9,0.5-1.4,0.7c-0.5,0.2-1,0.3-1.4,0.5
				c-0.4,0.2-0.8,0.5-1.1,0.8c-0.7,0.7-1.2,1.4-1.6,2.2c-0.4,0.8-0.9,1.5-1.3,2.2c-0.9,1.3-2.2,2.2-3.4,2.6
				c-1.2,0.4-2.4,0.5-3.3,0.4c-0.9-0.1-1.6-0.4-2-0.6c-0.4-0.2-0.6-0.4-0.6-0.4c0-0.1,0.9,0.6,2.7,0.8c0.9,0.1,2,0,3.2-0.4
				c1.2-0.4,2.4-1.3,3.3-2.6c0.5-0.7,0.9-1.4,1.3-2.2c0.4-0.8,0.9-1.6,1.6-2.2c0.4-0.3,0.8-0.6,1.2-0.9c0.4-0.2,0.9-0.4,1.4-0.5
				s0.9-0.4,1.3-0.7s0.7-0.7,0.9-1.2c0.4-0.9,0.6-2,1-3.1c0.3-1.1,1-2.1,1.8-3c0.7-0.9,1.6-1.8,2.1-2.8c0.2-0.5,0.4-1.1,0.4-1.7
				s-0.2-1.2-0.4-1.7c-0.4-1.1-1.1-2.2-1.3-3.4c-0.1-0.6,0-1.2,0.2-1.8c0.2-0.6,0.5-1.1,0.8-1.6c0.7-1,1.4-1.8,1.8-2.8
				c0.2-0.5,0.3-1,0.3-1.6c0-0.5-0.1-1-0.3-1.5c-0.4-1-0.9-1.9-1.4-2.8c-0.4-0.9-0.6-2-0.3-2.9c0.3-0.9,0.9-1.7,1.2-2.5
				c0.3-0.8,0.1-1.7-0.3-2.3c-0.4-0.7-0.9-1.3-1.3-1.9c-0.4-0.6-0.7-1.3-0.8-1.9c0-0.7,0.1-1.2,0.3-1.8c0.1-0.5,0.2-1,0.2-1.5
				c-0.1-0.9-0.5-1.5-0.9-1.7C118.6,115.1,118.4,115.2,118.4,115.3L118.4,115.3z"/>
			<path class="st1" d="M14.2,140c0,0-0.3,0-0.8-0.1c-0.5-0.1-1.3-0.3-2.1-0.9c-0.8-0.6-1.8-1.5-2.2-2.9c-0.4-1.4-0.3-3.2,0.7-4.8
				c0.5-0.8,1.2-1.4,2-2.1c0.7-0.7,1.5-1.4,1.8-2.4c0.4-1,0.2-2.1-0.2-3.2c-0.4-1.1-1-2.1-1.4-3.3c-0.8-2.4-0.7-5.2,0.6-7.6
				c1.3-2.4,3.7-4.4,6.6-5.1l-0.1,0.2c-0.5-0.6-0.8-1.4-0.9-2.2c-0.1-0.8-0.1-1.6,0.1-2.4s0.5-1.6,1-2.2s1-1.3,1.7-1.8
				c1.9-1.5,4.3-2.3,6.5-2.8c2.3-0.5,4.6-0.6,6.7-0.4l-0.2,0.1c0-2.7,1.7-5.2,3.9-6.2c1.1-0.6,2.3-0.8,3.5-0.7
				c1.2,0,2.3,0.5,3.3,0.8c0.5,0.2,1,0.3,1.6,0.3c0.5,0,1,0,1.5-0.2c1-0.3,1.8-0.8,2.6-1.3c0.8-0.5,1.6-0.9,2.5-1.2
				c0.9-0.3,1.7-0.4,2.5-0.4c1.6,0,3.1,0.4,4.2,1.1c1.1,0.6,1.9,1.4,2.5,2.1c0.6,0.7,0.9,1.3,1.1,1.7c0.2,0.4,0.3,0.7,0.3,0.7
				c0,0-0.1-0.2-0.3-0.6c-0.2-0.4-0.6-1-1.1-1.7c-0.6-0.7-1.4-1.4-2.5-2c-1.1-0.6-2.5-1-4.1-1c-0.8,0-1.6,0.1-2.5,0.4
				c-0.8,0.3-1.6,0.7-2.5,1.2c-0.8,0.5-1.7,1.1-2.7,1.4c-0.5,0.2-1.1,0.2-1.6,0.2c-0.6,0-1.1-0.2-1.6-0.3c-1.1-0.3-2.1-0.8-3.2-0.8
				c-1.1,0-2.3,0.2-3.4,0.7c-2.1,1-3.7,3.4-3.8,6v0.2h-0.2c-2.1-0.2-4.4-0.1-6.7,0.4c-2.2,0.5-4.6,1.2-6.4,2.7
				c-0.6,0.5-1.2,1.1-1.6,1.7s-0.7,1.4-0.9,2.1s-0.2,1.5-0.1,2.3c0.1,0.7,0.4,1.4,0.8,2l0.1,0.2l-0.2,0.1c-2.8,0.6-5.1,2.5-6.4,4.9
				c-1.2,2.4-1.4,5.1-0.6,7.4c0.4,1.2,1,2.2,1.4,3.3c0.4,1.1,0.6,2.3,0.2,3.3c-0.4,1.1-1.2,1.8-1.9,2.5c-0.7,0.7-1.4,1.3-2,2.1
				c-1,1.5-1.1,3.3-0.8,4.6c0.4,1.4,1.3,2.3,2.1,2.9c0.8,0.6,1.6,0.8,2.1,0.9C14,140,14.2,140,14.2,140L14.2,140z"/>
			<path class="st1" d="M121.8,108.3c0,0,0-0.1,0-0.2c0-0.1,0-0.3-0.1-0.6c-0.1-0.5-0.1-1.2-0.2-2.2c-0.1-0.9-0.3-2.1-0.6-3.4
				c-0.3-1.3-0.7-2.8-1.4-4.3c-0.7-1.5-1.8-3.1-3.3-4.3c-0.8-0.6-1.6-1.2-2.6-1.5c-1-0.4-2.1-0.6-3.1-0.8c-1.1-0.3-2.2-0.7-3.2-1.3
				s-1.8-1.6-2.6-2.5c-0.8-0.9-1.6-1.9-2.4-2.8c-0.9-0.9-1.9-1.6-3.1-2.2c-2.3-1.1-4.9-1.4-7.3-1.4c-2.4,0-4.8,0.1-7,0.4
				c-4.4,0.6-8.3,1.9-11.3,3.4c-3,1.5-5.1,3.3-6.5,4.6c-0.3,0.3-0.6,0.6-0.9,0.9c-0.2,0.3-0.4,0.5-0.6,0.7c-0.1,0.2-0.3,0.3-0.4,0.4
				c-0.1,0.1-0.1,0.1-0.1,0.1s0-0.1,0.1-0.2c0.1-0.1,0.2-0.3,0.4-0.5c0.2-0.2,0.4-0.4,0.6-0.7c0.2-0.3,0.5-0.6,0.9-0.9
				c1.3-1.3,3.4-3.2,6.5-4.7c3-1.6,6.9-2.9,11.4-3.5c2.2-0.3,4.6-0.5,7-0.4c2.4,0.1,5,0.3,7.4,1.4c1.2,0.5,2.2,1.3,3.1,2.2
				c0.9,0.9,1.7,1.9,2.4,2.8c0.8,0.9,1.6,1.8,2.5,2.5c0.9,0.7,2,1,3.1,1.3c1.1,0.3,2.2,0.5,3.2,0.9c1,0.4,1.9,1,2.7,1.6
				c1.5,1.3,2.6,2.9,3.3,4.4c0.7,1.5,1.1,3,1.4,4.4c0.3,1.3,0.4,2.5,0.5,3.4c0.1,0.9,0.1,1.7,0.2,2.2c0,0.2,0,0.4,0,0.6
				C121.8,108.2,121.8,108.3,121.8,108.3L121.8,108.3z"/>
			<path class="st11" d="M77.9,150.2c0.1-1.3,0.9-2.6,2.2-3.2c1.2-0.5,2.8-0.2,3.7,0.8c0.8,1,0.9,2.5,0.2,3.6
				c-0.3,0.6-0.8,1-1.4,1.3c-0.8,0.3-1.6,0.4-2.4,0.3c-0.7-0.1-1.3-0.4-1.8-0.9C78,151.5,77.9,150.8,77.9,150.2L77.9,150.2z"/>
			<path class="st1" d="M79.2,145.3c0.4,0,0.2,2.5,2.2,4.5c2,2,4.7,1.9,4.7,2.3c0,0.2-0.6,0.4-1.8,0.4c-1.1-0.1-2.7-0.5-3.9-1.7
				s-1.7-2.7-1.7-3.7C78.7,145.9,79,145.3,79.2,145.3L79.2,145.3z"/>
		</g>
		<path class="st0" d="M35.4,187l19.5-7.4c0,0,15,8.9,26.6,7.1c9-1.4,9.7-6.1,9.7-6.1l10.8,1.7c0,0,16.4,13.6,19.8,27.4
			c2,8.2,2.5,18.8,2.5,28.2c0,3.8-4.8,18.6-4.8,18.6l-1.9,21.5l9,35.8H32.4v-99L35.4,187L35.4,187z"/>
		<path class="st1" d="M120.3,252.5c0,0,0.1-0.2,0.2-0.5c0.1-0.3,0.4-0.8,0.6-1.4c0.5-1.2,1.2-3.1,1.8-5.4
			c1.2-4.6,1.9-11.3,1.2-18.5c-0.7-7.3-2.2-13.7-3.4-18.3c-0.6-2.3-1.1-4.2-1.5-5.4c-0.2-0.6-0.3-1.1-0.4-1.5
			c-0.1-0.3-0.2-0.5-0.2-0.5c0,0,0,0.2,0.1,0.5c0.1,0.4,0.2,0.9,0.4,1.5c0.3,1.3,0.8,3.2,1.4,5.5c1.1,4.6,2.6,11,3.3,18.3
			s0.1,13.8-1.1,18.4c-0.6,2.3-1.1,4.1-1.6,5.4c-0.2,0.6-0.4,1.1-0.6,1.4C120.4,252.4,120.3,252.5,120.3,252.5L120.3,252.5z"/>
		<g class="st6">
			<path d="M124.8,233.6l-0.9-0.6c0-10.4-1.7-21.4-5.1-31.3C125.2,211.2,127.9,223,124.8,233.6L124.8,233.6z"/>
		</g>
		<path class="st12" d="M97.8,228.9c0,0-13.5,50-21.1,59.2c-7.5,9.2-11.6,11.9-23.3,12.8c-11.6,0.9-15.9-12.5-18.5-17.8
			c-2.6-5.2-2.1-13.1-2.1-13.1l15.8-8.9l12.5,20.6L93.5,228L97.8,228.9L97.8,228.9z"/>
		<path class="st10" d="M95.7,235.4c0,0-13.8,32-23.6,50.4c-8.4,15.5-25.4,13.8-30.8,5.2c-5.4-8.6-14.5-34.5-14.5-34.5l28.7-5.1
			l3.2,9.1l21.8-27.8L95.7,235.4L95.7,235.4z"/>
		<path class="st10" d="M72.1,230.8l2.1-9.6c0,0,1-2.6,2.5-0.3c1.6,2.3,0.8,6.8,0.8,6.8s3-22.8,5.6-25.3c1-0.9,2.3,0.3,2.3,0.3
			s0.3-4.5,1.7-4.4c1.4,0,2.7,3.4,2.7,3.4s1.7-0.9,3.1,0.7c1.2,1.5,1.2,13.9,1.2,13.9s1.2-10.2,3-10.9c2.9-1,2.9,2.9,2.9,2.9
			l-0.9,13.3c0,0-1.6,9.1-3.6,14.8s-3.2,5.8-3.2,5.8l-13.1-0.4c0,0-3-2.7-5.3-4.8C72.4,235.3,71.7,233,72.1,230.8L72.1,230.8z"/>
		<path class="st11" d="M49.9,273.4c0,0,0.1-0.1,0.2-0.4c0.1-0.3,0.3-0.7,0.6-1.2c0.3-0.5,0.6-1.1,1-1.8c0.4-0.7,0.9-1.4,1.5-2.3
			c2.3-3.3,5.7-7.7,9.6-12.5c3.9-4.8,7.5-9,10.1-12.1c1.3-1.6,2.3-2.9,2.9-3.8c0.3-0.4,0.6-0.8,0.8-1.1c0.2-0.2,0.2-0.4,0.2-0.4
			c0,0-0.1,0.1-0.3,0.3c-0.2,0.3-0.5,0.6-0.8,1c-0.7,0.9-1.7,2.1-3,3.7c-2.6,3.1-6.2,7.3-10.1,12.1c-3.9,4.8-7.3,9.2-9.5,12.6
			c-0.5,0.9-1,1.6-1.4,2.3c-0.4,0.7-0.7,1.3-1,1.8c-0.2,0.5-0.4,0.9-0.5,1.2C49.9,273.2,49.8,273.3,49.9,273.4L49.9,273.4z"/>
		<g>
			<path class="st0" d="M38.6,186.1c0,0-15.7,3.2-19.7,21c-3.6,16.3-2.5,51.1-2.5,51.1l42.8-7.5l-10.4-59.3L38.6,186.1L38.6,186.1z"
				/>
			<path class="st0" d="M53.1,214.5c0,0,0,0.1,0,0.2c0,0.1,0,0.3,0.1,0.6c0.1,0.5,0.2,1.2,0.3,2.1c0.3,1.9,0.7,4.5,1.2,7.7
				c1.1,6.6,2.6,15.6,4.2,25.7l0.2-0.2c-0.4,0.1-0.9,0.2-1.4,0.2c-10.4,1.9-19.7,3.6-26.5,4.8c-3.4,0.6-6.1,1.1-8,1.5
				c-0.9,0.2-1.7,0.3-2.2,0.4l-0.6,0.1c-0.1,0-0.2,0-0.2,0.1c0,0,0.1,0,0.2,0l0.6-0.1c0.5-0.1,1.3-0.2,2.2-0.4
				c1.9-0.3,4.7-0.8,8-1.4c6.8-1.2,16.2-2.9,26.6-4.7c0.5-0.1,1-0.2,1.4-0.2l0.2,0l0-0.2c-1.7-10-3.2-19.1-4.4-25.6
				c-0.6-3.2-1-5.9-1.4-7.7c-0.2-0.9-0.3-1.6-0.4-2.1c0-0.2-0.1-0.4-0.1-0.5C53.1,214.6,53.1,214.5,53.1,214.5L53.1,214.5z"/>
			<path class="st0" d="M50.7,208.8c0,0-0.1-0.4-0.3-1c-0.2-0.6-0.6-1.6-1.1-2.7c-1-2.2-2.4-5.4-5.1-8.1c-1.3-1.4-2.9-2.3-4.4-3
				c-1.5-0.7-2.9-1.1-4.1-1.3c-1.2-0.2-2.2-0.3-2.9-0.3c-0.7,0-1.1,0-1.1,0.1c0,0.1,1.5,0,3.9,0.5c2.4,0.5,5.6,1.7,8.3,4.4
				c2.6,2.6,4.1,5.8,5.2,7.9c0.5,1.1,0.9,1.9,1.2,2.6C50.5,208.5,50.7,208.8,50.7,208.8L50.7,208.8z"/>
		</g>
		<path class="st11" d="M90.2,218.2c0.1,0,0.1-0.9,0.2-2.4c0.1-1.5,0.2-3.6,0.2-5.9c0-2.3-0.1-4.4-0.2-5.9c-0.1-1.5-0.4-2.4-0.4-2.4
			c-0.1,0,0,0.9,0.1,2.4c0.1,1.5,0.1,3.6,0.1,5.9c0,2.2,0,4.2-0.1,5.9C90.1,217.3,90.1,218.2,90.2,218.2L90.2,218.2z"/>
		<path class="st11" d="M85.8,202.9c-0.1,0-0.1,0.8-0.1,2c0,1.2-0.1,2.9-0.2,4.8c-0.1,1.9-0.2,3.5-0.3,4.8s-0.1,2-0.1,2
			c0.1,0,0.2-0.7,0.4-1.9c0.2-1.2,0.3-2.9,0.4-4.8c0.1-1.9,0.1-3.6,0.1-4.8C85.9,203.6,85.9,202.9,85.8,202.9L85.8,202.9z"/>
	</g>
	<g id="b_00000045584599866895434980000015014407539351851657_">
	</g>
</g>
<g id="Ebene_2">
</g>
</svg>
