<?xml version="1.0" encoding="UTF-8"?><svg xmlns="http://www.w3.org/2000/svg" viewBox="0 0 354.33 297.64"><defs><style>.c{fill:#f8bc9e;}.d{fill:#fff;}.e{fill:#ec9a6e;}.f{fill:#8e3039;}.g{fill:#e0e0e0;}.h{fill:#263239;}.i{opacity:.3;}</style></defs><g id="a"><g><path class="g" d="M158.6,19.72c1.23-2.69,4.31-4.39,7.24-4,3.27-2.87,8.6-3.03,12.04-.37,2.49-1.65,5.86-1.88,8.56-.59,2.7,1.29,4.63,4.06,4.9,7.04,2.96-.62,6.25,.83,7.78,3.45,1.53,2.62,1.18,6.2-.83,8.47,3.31,.89,5.63,4.51,5.07,7.88-.56,3.38-3.92,6.05-7.33,5.84l-35.73-19.62c-2.21-1.96-2.94-5.41-1.71-8.1Z"/><g><g><path class="c" d="M197.09,48.37c-2-15.32-15.44-26.53-30.87-25.76l-1.53,.08c-16.49,1.79-24.18,16.79-21.94,33.22l5.13,54.94,.28,2.67,38.54,5.75-.75-14.03s15.77-3.26,15.18-19.16c-.29-7.68-2.16-23.45-4.03-37.7Z"/><path class="e" d="M186.07,105.2s-10.12,1.11-21.13-5.06c0,0,5.47,11.19,21.25,8.98l-.13-3.91Z"/><path class="h" d="M193.65,63.82c.1,1.2-.83,2.27-2.07,2.4-1.25,.13-2.34-.73-2.44-1.93-.1-1.2,.83-2.27,2.07-2.4,1.25-.13,2.34,.74,2.44,1.93Z"/><path class="h" d="M194.06,56.31c-.27,.31-2.05-.88-4.49-.75-2.44,.09-4.17,1.44-4.45,1.15-.14-.13,.12-.67,.88-1.28,.74-.6,2.02-1.22,3.54-1.29,1.52-.07,2.83,.43,3.59,.97,.78,.54,1.06,1.06,.93,1.2Z"/><path class="h" d="M172.09,65.28c.1,1.2-.83,2.27-2.07,2.4-1.25,.13-2.34-.73-2.44-1.93-.1-1.2,.83-2.27,2.07-2.4,1.25-.13,2.34,.74,2.44,1.93Z"/><path class="h" d="M170.08,57.96c-.27,.31-2.05-.88-4.49-.75-2.44,.09-4.17,1.44-4.45,1.15-.14-.13,.12-.67,.88-1.28,.74-.6,2.02-1.22,3.54-1.29,1.52-.07,2.83,.43,3.59,.97,.78,.54,1.06,1.06,.93,1.2Z"/><path class="h" d="M179.84,75.63c-.02-.14,1.49-.48,3.93-.91,.62-.09,1.2-.25,1.29-.68,.12-.46-.17-1.12-.51-1.83-.66-1.48-1.35-3.03-2.08-4.66-2.9-6.63-5.03-12.1-4.76-12.22,.27-.11,2.83,5.17,5.73,11.8,.7,1.64,1.37,3.2,2,4.69,.27,.7,.72,1.48,.45,2.43-.14,.47-.59,.84-.98,.96-.39,.14-.74,.17-1.05,.2-2.47,.26-4,.34-4.02,.21Z"/><path class="h" d="M172.74,77.68c.4-.04,.53,2.61,2.9,4.38,2.36,1.78,5.17,1.34,5.21,1.71,.05,.16-.6,.55-1.8,.64-1.17,.1-2.9-.19-4.34-1.27-1.44-1.09-2.11-2.6-2.26-3.68-.16-1.1,.11-1.78,.29-1.77Z"/><path class="g" d="M170.23,48.36c-.21,.68-2.66,.48-5.51,.97-2.86,.43-5.13,1.38-5.54,.81-.18-.28,.19-.92,1.09-1.61,.89-.69,2.34-1.37,4.05-1.65,1.71-.27,3.3-.08,4.36,.29,1.07,.37,1.63,.87,1.54,1.19Z"/><path class="g" d="M192.81,49.29c-.4,.58-2.11,.08-4.14,.16-2.03,0-3.72,.56-4.14,0-.19-.27,.05-.84,.78-1.4,.71-.56,1.92-1.05,3.32-1.08,1.39-.02,2.62,.42,3.35,.95,.74,.53,1.01,1.09,.83,1.37Z"/><path class="g" d="M195.2,41.15s-4.69-9.74-9.6-11.83c-5.95-2.52-8.13,3.98-13.75,2.71-5.61-1.27-11.29-3.69-16.74,.87-5.96,4.99-2.9,8.13-2.93,15.21-.13,28.67-4.95,37.01-7.1,23.62-.24-1.47-4.39-2.44-5.31-8.64-1.19-8.04-1.99-17.84-.47-23.67,1.28-4.91,3.87-8.39,8.63-12.32,7.51-6.2,18.23-6.86,25.54-6.49,7.31,.37,21.76,8.05,21.72,20.54Z"/><path class="c" d="M146.07,71.24c-.22-2.45-2.43-4.28-4.86-3.93-2.95,.43-6.16,2.28-5.66,8.39,.89,10.85,11.59,7.72,11.59,7.41,0-.21-.65-7.34-1.06-11.87Z"/><path class="e" d="M144.44,79.22c-.05-.03-.18,.15-.49,.32-.3,.17-.83,.31-1.41,.14-1.18-.33-2.29-2.07-2.51-4.02-.11-.98,.02-1.94,.31-2.75,.27-.82,.73-1.42,1.3-1.57,.56-.18,1,.13,1.16,.43,.17,.29,.12,.51,.18,.53,.03,.02,.22-.2,.09-.64-.06-.21-.21-.46-.48-.64-.28-.19-.67-.27-1.07-.19-.83,.13-1.52,.96-1.84,1.84-.36,.89-.53,1.97-.41,3.08,.25,2.18,1.53,4.13,3.14,4.46,.78,.14,1.4-.15,1.7-.43,.31-.3,.35-.54,.31-.56Z"/></g><path class="g" d="M145.24,50.18c1.46,.89,3,1.81,4.71,1.9,1.71,.08,3.6-.99,3.81-2.69,.09-.76-.14-1.63,.33-2.24,.56-.73,1.66-.56,2.58-.51,3.18,.18,6.3-2.22,6.95-5.33,.87,1.17,2.74,1.02,3.92,.17,1.18-.85,1.9-2.17,2.8-3.31,.9-1.14,2.19-2.18,3.64-2.05,.81,.07,1.58,.52,2.39,.4,1.42-.2,2.03-1.9,2.18-3.33,.15-1.43,.23-3.09,1.4-3.92,1.08-.77,2.56-.43,3.88-.3,1.32,.13,3-.26,3.28-1.57,.14-.68-.18-1.38-.58-1.95-1.82-2.58-5.57-3.58-8.44-2.25-1.24-3.54-4.74-6.16-8.48-6.37-3.74-.21-7.51,2.02-9.13,5.39-2.4-1.97-5.78-2.68-8.77-1.84-2.99,.84-5.51,3.2-6.53,6.14-2.68-.56-5.64,.61-7.21,2.85-1.57,2.24-1.65,5.43-.2,7.75-1.9,1.21-3.47,3.24-3.4,5.49,.07,2.25,2.37,4.38,4.51,3.68-.79,1.79,.04,4.14,1.79,5.03,1.75,.89,4.13,.2,5.13-1.49"/></g><path class="d" d="M138.08,46.31s-.16,.92,.78,2.05c.46,.54,1.23,1.08,2.24,1.19,.99,.12,2.17-.18,3.05-1.05l-.46-.05c.58,.91,1.34,1.83,2.3,2.6,.62,.49,1.3,.91,2.04,1.13,.73,.25,1.54,.24,2.2,.1,1.37-.22,2.53-1.02,3.05-1.95,.54-.92,.68-1.75,.77-2.3,.08-.56,.08-.88,.04-.88-.05,0-.12,.3-.28,.83-.16,.53-.37,1.32-.9,2.12-.95,1.61-4.27,2.57-6.52,.48-.89-.72-1.63-1.59-2.19-2.44l-.21-.31-.26,.26c-.71,.73-1.73,1.03-2.58,.97-.87-.06-1.56-.49-2.02-.94-.92-.95-.96-1.83-1.05-1.8Z"/><path class="d" d="M157.38,20.48s.29,.06,.78,.24c.48,.18,1.2,.56,1.76,1.35l.14,.2,.14-.21c.95-1.41,2.56-3.25,5.04-4.51,1.23-.62,2.68-1.08,4.23-1.15,1.55-.08,3.19,.28,4.67,1.09,1.15,.62,2.13,1.48,2.87,2.46,.72,.99,1.19,2.11,1.36,3.22l.05,.34,.32-.11c1.61-.53,3.29-.29,4.54,.33,1.27,.62,2.11,1.62,2.6,2.52,.97,1.87,.73,3.21,.84,3.18,.02,0,.1-.31,.09-.9-.02-.58-.13-1.46-.61-2.45-.47-.98-1.33-2.09-2.7-2.8-1.34-.7-3.15-1-4.94-.44l.38,.24c-.16-1.21-.66-2.43-1.44-3.5-.79-1.06-1.84-1.98-3.06-2.65-1.57-.86-3.34-1.25-5-1.14-1.66,.09-3.17,.6-4.45,1.27-2.57,1.37-4.18,3.32-5.08,4.82h.28c-.65-.85-1.45-1.19-1.98-1.33-.54-.13-.84-.1-.84-.07Z"/><path class="e" d="M169.08,79.45c.18,0,.19-1.16,1.06-2.15,.84-1.02,1.97-1.21,1.96-1.39,0-.08-.31-.15-.8-.04-.49,.1-1.13,.44-1.63,1.03-.5,.59-.73,1.27-.76,1.77-.03,.5,.09,.79,.17,.78Z"/><path class="e" d="M167.97,76.49c.16,.09,.53-.31,1.1-.6,.56-.3,1.1-.39,1.12-.56,.04-.17-.66-.38-1.41,0-.75,.39-.96,1.09-.81,1.15Z"/><path class="e" d="M156.26,102.56c0-.05-.16-.07-.3-.27-.14-.19-.26-.56-.07-.96,.16-.42,.63-.81,.93-1.53,.15-.34,.18-.87-.08-1.27-.23-.38-.55-.63-.74-.89-.88-1.05,1.54-1.9,1.17-3.27-.08-.58-.4-.95-.64-1.13-.26-.18-.43-.19-.45-.16-.07,.07,.6,.39,.65,1.33,.03,.46-.24,.86-.75,1.32-.24,.23-.53,.52-.69,.94-.2,.41-.09,1.03,.21,1.36,.27,.35,.57,.58,.71,.83,.15,.23,.15,.48,.06,.76-.18,.54-.65,1.01-.81,1.57-.19,.57,.06,1.09,.32,1.28,.28,.21,.49,.13,.48,.1Z"/><path class="e" d="M152.87,102.2s.05-.16,.12-.4c.08-.24,.27-.54,.56-.94,.14-.2,.3-.42,.44-.72,.13-.28,.22-.68,.11-1.07-.22-.77-.88-1.23-1.2-1.79-.37-.54-.08-1.02,.36-1.52,.21-.25,.42-.51,.55-.82,.13-.31,.15-.62,.13-.89-.14-1.13-.92-1.43-.92-1.35-.08,.07,.48,.47,.47,1.37,0,.45-.21,.86-.67,1.32-.21,.24-.48,.51-.63,.92-.16,.42-.06,.94,.17,1.3,.46,.7,1.04,1.12,1.19,1.62,.17,.47-.14,.97-.37,1.39-.24,.42-.42,.83-.43,1.13-.01,.3,.08,.45,.12,.44Z"/></g><path class="g" d="M126.14,189.96l-14.42,13.9,4.66-26.59-29.28-9.26s-7.77,36.49-9.13,45.12c-2.43,15.49,.55,37.5,14.98,39.05,15.61,1.68,27.4-13.72,34.9-23.83,5.77-7.77,15.07-21.35,15.07-21.35l-16.79-17.04"/><path class="g" d="M237.67,166.32c4.7,14.79,11.27,17.03,13.86,59.4,.51,8.26-1.28,19.29-9.12,21.95-8.71,2.96-22.03-2.43-26.21-9.58v-29.18l21.47-42.6Z"/><path class="h" d="M218.26,228.21c.16,.05,.97-2.96,2.88-6.23,1.89-3.29,4.1-5.48,3.98-5.59-.04-.05-.66,.44-1.51,1.36-.86,.92-1.94,2.3-2.91,3.97-.97,1.67-1.63,3.29-2,4.5-.38,1.2-.5,1.98-.43,1.99Z"/><path class="g" d="M244.75,183.37c-.25-.88-14.7-40.21-19.31-48.82-5.51-10.3-17.11-14.85-24.3-15.3-7.2-.44-84.21,5.69-84.21,5.69,0,0-21.57,5.42-25.94,24.94-5.47,24.48-9.88,48.61-9.88,48.61l38.6,8.33,4.54-11.44,72.52,16.18,17.71-26.2,30.26-2.02Z"/><g><polygon class="g" points="111.84 127.2 141.92 113.93 145.29 100.96 180.4 117.56 187.76 109.43 190.84 118.59 198.53 121.11 213.67 150.96 216.46 220.13 216.2 238.1 112.42 238.79 113.27 209.37 111.84 127.2"/><path class="g" d="M145.29,100.96s3.93,1.14,14.01,6.52c9.88,5.27,21.1,10.08,21.1,10.08l-.85,15.86-37.37-18.76"/><polyline class="g" points="187.76 109.43 180.4 117.56 184.33 134.56 190.88 119.2"/><g class="i"><path d="M180.54,119.31c.33,.24,2.37,19.61,2.37,19.61l-37.46-22.63,34.1,17.12,.99-14.1Z"/></g></g><path class="f" d="M180.2,238.34s.77-28.72,.09-46.73c-.56-14.82,1.77-52.61,1.77-52.61l4.88-.79s9.12,36.74,12.53,81.77l1.38,18.22"/><path class="h" d="M120.73,162.13s-.16,.54-.35,1.53c-.2,1.08-.45,2.5-.76,4.2-.63,3.64-1.46,8.51-2.39,13.89-.94,5.42-1.75,10.35-2.28,13.91-.27,1.78-.47,3.23-.6,4.23-.13,1-.18,1.56-.15,1.56,.04,0,.16-.54,.35-1.53,.2-1.08,.45-2.5,.76-4.2,.64-3.64,1.49-8.51,2.43-13.89,.94-5.43,1.71-10.35,2.24-13.92,.24-1.72,.44-3.14,.6-4.23,.13-1,.18-1.56,.15-1.56Z"/><path class="h" d="M109.6,129.49c-.06,.07,1.01,.91,2.53,2.47,1.52,1.56,3.42,3.91,5,6.83,1.57,2.93,2.48,5.81,2.94,7.94,.47,2.13,.57,3.48,.66,3.47,.04,0,.04-.34,0-.96-.02-.62-.12-1.5-.31-2.59-.37-2.17-1.25-5.13-2.84-8.11-1.6-2.97-3.59-5.34-5.2-6.84-.8-.76-1.48-1.33-1.99-1.69-.5-.36-.78-.55-.8-.52Z"/><polygon class="f" points="180.29 125.14 183.63 123.84 186.8 129.28 187.37 138.21 182.91 138.93 179.55 133.42 180.29 125.14"/><path class="h" d="M216.46,151.72c-.14,0-.26,19.34-.26,43.19s.12,43.19,.26,43.19,.26-19.33,.26-43.19c0-23.85-.12-43.19-.26-43.19Z"/><path class="h" d="M180.05,117.42c-.06,.04,.72,1.25,1.91,3.23,1.19,1.99,2.76,4.77,4.25,7.96,.12,.26,.24,.52,.36,.77l.23,.5,.24-.5c1.44-3.03,2.48-5.86,3.13-7.92,.32-1.03,.56-1.87,.7-2.45,.14-.58,.2-.91,.17-.92-.07-.02-.47,1.24-1.2,3.26-.73,2.02-1.82,4.8-3.26,7.81h.47c-.11-.24-.23-.5-.36-.77-1.51-3.22-3.14-5.99-4.41-7.94-.64-.97-1.18-1.74-1.57-2.26-.39-.52-.62-.79-.65-.77Z"/><path class="h" d="M141.92,113.93s.17,.12,.51,.31c.4,.21,.9,.47,1.52,.79,1.38,.71,3.27,1.69,5.58,2.89,4.71,2.45,11.16,5.94,18.31,9.76,4.35,2.32,8.48,4.47,12.06,6.26l.33,.17v-.37c.05-4.65,.09-8.57,.12-11.41,0-1.33,0-2.41,0-3.21,0-.74-.03-1.14-.05-1.14-.03,0-.06,.4-.09,1.14-.03,.81-.07,1.88-.12,3.21-.07,2.83-.18,6.75-.3,11.4l.33-.2c-3.57-1.83-7.67-3.99-12.02-6.31-7.14-3.82-13.63-7.26-18.38-9.63-2.38-1.19-4.31-2.12-5.66-2.75-.64-.29-1.15-.52-1.56-.71-.36-.16-.55-.23-.56-.21Z"/><path class="h" d="M211.94,126.15c-.07,.05,.51,1.04,1.27,2.74,.76,1.69,1.63,4.11,2.14,6.89,.51,2.78,.56,5.35,.45,7.2-.1,1.85-.3,2.99-.21,3.01,.04,0,.12-.27,.23-.78,.12-.51,.25-1.26,.35-2.2,.2-1.87,.21-4.49-.3-7.33-.52-2.83-1.47-5.28-2.32-6.95-.43-.84-.81-1.5-1.1-1.93-.29-.44-.47-.67-.5-.65Z"/><path class="h" d="M183.72,139.51c.08,.12,.93-.28,1.9-.89,.97-.61,1.7-1.21,1.62-1.33-.08-.12-.93,.28-1.9,.89-.97,.61-1.7,1.21-1.62,1.33Z"/><path class="h" d="M182.12,137.32c.13,.06,1.15-1.97,2.27-4.52,1.12-2.56,1.93-4.67,1.79-4.73-.13-.06-1.15,1.97-2.27,4.52-1.12,2.56-1.93,4.67-1.79,4.73Z"/><g class="i"><path d="M160.96,216.43c.2-.82,.45-1.73,1.16-2.19,1.24-.81,2.79,.26,4.07,1.01,3.35,1.99,7.49,1.92,11.38,1.75,11.73-.51,23.47-1.38,35.05-3.33,5.67-.95,11.39-2.19,16.46-4.9,5.07-2.71,9.49-7.08,11.12-12.6l2.71-1.47c-2.1,4.48-1.88,17.17-2.64,22.07-.75,4.89-2.92,8.38-7.63,9.9-1.89,.61-3.93,.52-5.92,.42-19.31-.96-38.8-.09-58.12-1.04-2.76-.14-5.95-.51-7.44-2.84-1.25-1.96-.75-4.52-.21-6.78Z"/></g><path class="h" d="M88.39,227.46s.05-.07,.13-.23c.09-.17,.21-.4,.35-.68,.15-.31,.34-.68,.56-1.12,.28-.41,.6-.89,.95-1.42,1.46-2.13,3.99-4.95,7.5-8.14,3.49-3.21,7.92-6.82,12.9-10.95,2.48-2.08,5.12-4.27,7.76-6.7,2.64-2.43,5.35-5.04,7.79-8.1l-.38,.02c4.69,4.91,9.77,10.22,15.04,15.73,.69,.72,1.37,1.43,2.01,2.1l-.03-.33c-5.69,8.31-10.86,16.36-16.29,23.1-2.69,3.39-5.47,6.42-8.18,9.14-2.7,2.73-5.33,5.16-7.95,7.08-5.2,3.92-10.42,5.61-14.05,5.52-.45,0-.88,.02-1.28,0-.4-.04-.77-.08-1.12-.12-.35-.04-.66-.07-.96-.1-.28-.06-.54-.12-.78-.18-.45-.1-.8-.17-1.06-.23-.24-.05-.36-.07-.37-.06,0,0,.12,.05,.35,.11,.26,.07,.61,.16,1.05,.28,.24,.06,.49,.13,.78,.2l.96,.13c.35,.04,.73,.09,1.13,.14,.4,.02,.84,.01,1.29,.02,3.67,.15,8.99-1.51,14.26-5.43,2.66-1.92,5.32-4.34,8.04-7.07,2.73-2.72,5.53-5.75,8.25-9.15,5.48-6.75,10.67-14.81,16.35-23.1l.12-.17-.15-.15c-.64-.66-1.32-1.38-2.01-2.1-5.27-5.5-10.36-10.81-15.06-15.72l-.2-.21-.18,.22c-2.4,3.02-5.09,5.63-7.71,8.06-2.62,2.43-5.25,4.63-7.72,6.72-4.96,4.15-9.37,7.8-12.84,11.05-3.49,3.23-5.99,6.11-7.42,8.28-.35,.54-.66,1.03-.92,1.45-.21,.45-.38,.83-.53,1.14-.13,.29-.23,.52-.31,.7-.07,.16-.1,.24-.09,.24Z"/><g><g><path class="c" d="M128.45,192.26l23.75-25.94,14.24-2.7,16.16,2.05s.68,2.56-2.05,3.92l5.97,.34s1.19,3.07-2.22,4.44l4.26,.75s-1.88,4.37-6.65,3.52c-4.78-.85-12.62-.85-12.62-.85l-8.36,4.61,12.45-.51,9.04,1.71s1.19,2.31-.85,2.86c-2.05,.55-9.89,0-9.89,0l-11.29,3.58s-4.41,6.26-5.95,7.97c-1.54,1.71-8.87,4.87-8.87,4.87l-3.61,3.24-13.51-13.83Z"/><path class="e" d="M186.52,169.93c-.01,.13-1.79,.05-4.64-.17-2.85-.22-6.79-.6-11.13-1.06-1.45-.16-2.84-.32-4.17-.47h.17c-3.23,.9-6.04,1.65-8.04,2.15-2.01,.5-3.21,.75-3.24,.65-.03-.1,1.12-.54,3.08-1.19,1.96-.65,4.73-1.52,7.95-2.48l.08-.02h.09c1.32,.15,2.72,.29,4.17,.44,4.34,.47,8.26,.94,11.1,1.33,2.84,.39,4.58,.69,4.57,.82Z"/><path class="e" d="M187.55,174.93c-.02,.13-1.62,0-4.2-.29-2.58-.29-6.14-.76-10.05-1.34-1.36-.2-2.66-.4-3.9-.59l.23-.03c-5.61,2.19-9.74,3.65-9.82,3.46-.08-.2,3.92-1.99,9.49-4.28l.11-.04,.12,.02c1.24,.18,2.55,.36,3.91,.55,3.92,.57,7.46,1.14,10.02,1.6,2.56,.46,4.13,.81,4.11,.93Z"/></g><g><path class="h" d="M247.99,170.9l-12.04,45.48c-.67,2.52-2.97,4.26-5.58,4.21l-62.34-1.22c-3.55-.07-6.16-3.35-5.42-6.82l9.18-43.56c.55-2.62,2.86-4.49,5.53-4.49h65.73c3.35,0,5.79,3.17,4.93,6.41Z"/><path class="d" d="M207.25,182.82c-1.69,.83-2.46,2.72-1.72,4.22,.74,1.5,2.71,2.05,4.4,1.22,1.69-.83,2.46-2.72,1.72-4.22-.74-1.5-2.71-2.05-4.4-1.22Z"/><path class="c" d="M252.51,180.86c1.22-1.34,1.11-3.56,.03-5.01-1.08-1.45-2.94-2.18-4.75-2.24-1.81-.07-3.59,.45-5.28,1.1-2.09,.8-4.1,1.8-5.99,2.99-1.34,.84-2.72,1.93-2.98,3.49-.26,1.56,1.43,3.33,2.8,2.55-1.78,.75-3.58,2.64-3.87,4.61-.29,1.97,.77,3.03,2.67,3.6-1.45,.56-2.38,2.39-1.71,3.8,.7,1.48,2.74,1.89,4.27,1.3,1.53-.58,2.66-1.88,3.72-3.12-1.09,1.87-1.47,4.13-1.06,6.25,4.21-1.44,7.44-5.41,8-9.82,2.07-1.55,2.76-4.67,1.54-6.95,1.7-.53,3.62-3.12,3.49-4.9"/><path class="e" d="M235.19,191.95c.05,.05,.71-.53,1.82-1.39,1.11-.84,2.73-2.01,4.8-2.46,1.03-.22,2.05-.22,2.92,0,.88,.22,1.6,.63,2.13,1.06,1.07,.89,1.31,1.79,1.39,1.75,.02,0,0-.23-.16-.61-.16-.37-.47-.89-1.01-1.39-.54-.5-1.3-.97-2.24-1.23-.94-.26-2.04-.27-3.12-.04-2.2,.48-3.84,1.74-4.91,2.66-1.07,.94-1.65,1.6-1.62,1.65Z"/><path class="e" d="M235.65,183.92c.03,.06,.89-.27,2.21-.92,.67-.32,1.45-.7,2.35-1.03,.9-.31,1.94-.59,3.03-.78,1.09-.19,2.15-.21,3.08-.03,.93,.18,1.71,.56,2.28,.99,1.17,.87,1.41,1.82,1.49,1.78,.02,0,0-.24-.18-.63-.17-.38-.52-.91-1.11-1.4-.58-.49-1.4-.93-2.39-1.15-.99-.22-2.11-.2-3.24,0-1.13,.2-2.17,.49-3.1,.84-.93,.36-1.71,.78-2.35,1.14-1.29,.72-2.09,1.16-2.06,1.21Z"/></g></g><polygon class="g" points="114.2 244.03 111.84 254.73 216.72 254.34 216.46 238.1 119.49 238.79 114.2 244.03"/><g class="i"><path d="M139.48,212.49l1.64-.5c-1.41,8.12-11.73,35.49-15.76,42.69l-13.52,.05,2.36-10.7c4.44-5.56,25.28-31.54,25.28-31.54Z"/></g></g><g id="b"/></svg>