<?xml version="1.0" encoding="utf-8"?>
<!-- Generator: Adobe Illustrator 26.1.0, SVG Export Plug-In . SVG Version: 6.00 Build 0)  -->
<svg version="1.1" id="Ebene_1" xmlns="http://www.w3.org/2000/svg" xmlns:xlink="http://www.w3.org/1999/xlink" x="0px" y="0px"
	 viewBox="0 0 681.7 1209.2" style="enable-background:new 0 0 681.7 1209.2;" xml:space="preserve">
<style type="text/css">
	.st0{display:none;}
	.st1{display:inline;}
	.st2{fill:#F5F5F5;}
	.st3{fill:#455A64;}
	.st4{opacity:0.6;}
	.st5{fill:#FFFFFF;}
	.st6{fill:#263238;}
	.st7{fill:#FFBE9D;}
	.st8{fill:#EB996E;}
	.st9{fill:none;}
	.st10{fill:#CB515C;}
</style>
<g id="Background_Complete">
</g>
<g id="Background_Simple" class="st0">
	<g class="st1">
		<path class="st2" d="M461.2,361.8l-0.9-1.4c-7.2-11.9-20.3-19.1-34-18.2c-1.8,0.1-3.5,0.4-5.3,0.7c-12.5,2.7-23.4,12.1-27.9,24.3
			c-2.7,7.1-3.4,15.3-8.4,21c-6.6,7.4-17.7,7.6-27.5,7.3c-9.8-0.3-20.9,0-27.5,7.3c-4.1,4.6-5.4,11.2-5.1,17.4
			c0.9,16.4,12.3,31.1,26.9,38.4s31.7,8,47.6,4.7c22.3-4.5,43.5-16.8,56.3-35.9C468.2,408.4,471.5,382.4,461.2,361.8z"/>
	</g>
	<g class="st1">
		<path class="st2" d="M27.7,131.9l0.9,1.4c7.2,11.9,20.3,19.1,34,18.2c1.8-0.1,3.5-0.4,5.3-0.7c12.5-2.7,23.4-12.1,27.9-24.3
			c2.7-7.1,3.4-15.3,8.4-21c6.6-7.4,17.7-7.6,27.5-7.3c9.8,0.3,20.9,0,27.5-7.3c4.1-4.6,5.4-11.2,5.1-17.4
			c-0.9-16.4-12.3-31.1-26.9-38.4s-31.7-8-47.6-4.7c-22.3,4.5-43.5,16.8-56.3,35.9S17.5,111.3,27.7,131.9z"/>
	</g>
	<g class="st1">
		<circle class="st2" cx="46" cy="199" r="16.6"/>
	</g>
	<g class="st1">
		<circle class="st2" cx="451.1" cy="293.2" r="16.6"/>
	</g>
</g>
<g id="Floor">
</g>
<g id="Window">
</g>
<g id="Rocket">
</g>
<g id="Search_bar">
</g>
<g id="Text">
</g>
<g id="Document">
</g>
<g id="Folders">
</g>
<g id="Plant">
</g>
<g id="Character">
	<g>
		<g>
			<g>
				<g>
					<g>
						<g>
							<g>
								<g>
									<g>
										<g>
											<g>
												<g>
													<g>
														<g>
															<path class="st3" d="M294.3,1039.5l-1.8,85.6l112.6,2.7c-0.4-10.2-58.1-32-58.1-32l3.5-54.8L294.3,1039.5z"/>
														</g>
													</g>
												</g>
											</g>
										</g>
									</g>
								</g>
							</g>
						</g>
					</g>
				</g>
			</g>
			<g class="st4">
				<g>
					<g>
						<g>
							<g>
								<g>
									<g>
										<g>
											<g>
												<g>
													<g>
														<g>
															<g>
																<path class="st5" d="M312.3,1090.4c-2.2,0.5-3.8,2.8-3.3,4.9s2.9,3.6,5.1,3.1s4.2-3.2,3.5-5.2s-3.7-3.7-5.7-2.7"/>
															</g>
														</g>
													</g>
												</g>
											</g>
										</g>
									</g>
								</g>
							</g>
						</g>
					</g>
				</g>
			</g>
			<g class="st4">
				<g>
					<g>
						<g>
							<g>
								<g>
									<g>
										<g>
											<g>
												<g>
													<g>
														<g>
															<path class="st5" d="M292.5,1125.1l0.5-8.6l107.8,5.8c0,0,5,2.2,4.3,5.5L292.5,1125.1z"/>
														</g>
													</g>
												</g>
											</g>
										</g>
									</g>
								</g>
							</g>
						</g>
					</g>
				</g>
			</g>
			<g>
				<g>
					<g>
						<g>
							<g>
								<g>
									<g>
										<g>
											<g>
												<g>
													<g>
														<g>
															<g>
																<path class="st6" d="M348.9,1095.3c0,0.5-2.8,0.7-5.5,2.3c-2.8,1.5-4.2,3.8-4.7,3.5c-0.5-0.1,0.4-3.2,3.8-5.1
																	C345.7,1094.1,349,1094.8,348.9,1095.3z"/>
															</g>
														</g>
													</g>
												</g>
											</g>
										</g>
									</g>
								</g>
							</g>
						</g>
					</g>
				</g>
			</g>
			<g>
				<g>
					<g>
						<g>
							<g>
								<g>
									<g>
										<g>
											<g>
												<g>
													<g>
														<g>
															<g>
																<path class="st6" d="M360.6,1100.2c0.1,0.5-2.3,1.3-4.2,3.5c-2,2.1-2.5,4.5-3.1,4.4c-0.5,0.1-0.8-3,1.6-5.6
																	C357.4,1099.8,360.6,1099.7,360.6,1100.2z"/>
															</g>
														</g>
													</g>
												</g>
											</g>
										</g>
									</g>
								</g>
							</g>
						</g>
					</g>
				</g>
			</g>
			<g>
				<g>
					<g>
						<g>
							<g>
								<g>
									<g>
										<g>
											<g>
												<g>
													<g>
														<g>
															<g>
																<path class="st6" d="M366.9,1113.7c-0.5,0.1-1.2-2.5,0.3-5.3s4.1-3.9,4.3-3.4c0.3,0.4-1.4,1.9-2.6,4.3
																	C367.7,1111.5,367.5,1113.7,366.9,1113.7z"/>
															</g>
														</g>
													</g>
												</g>
											</g>
										</g>
									</g>
								</g>
							</g>
						</g>
					</g>
				</g>
			</g>
			<g>
				<g>
					<g>
						<g>
							<g>
								<g>
									<g>
										<g>
											<g>
												<g>
													<g>
														<g>
															<g>
																<path class="st6" d="M348.2,1082.7c-0.2,0.5-2.7-0.3-5.9-0.2c-3.1,0.1-5.6,1-5.8,0.5c-0.3-0.4,2.1-2.3,5.8-2.4
																	C346,1080.6,348.5,1082.3,348.2,1082.7z"/>
															</g>
														</g>
													</g>
												</g>
											</g>
										</g>
									</g>
								</g>
							</g>
						</g>
					</g>
				</g>
			</g>
			<g>
				<g>
					<g>
						<g>
							<g>
								<g>
									<g>
										<g>
											<g>
												<g>
													<g>
														<g>
															<g>
																<path class="st6" d="M345.9,1070c0,0.2-2.2,0.5-5.6-0.2c-1.7-0.3-3.7-0.9-5.9-1.9c-1.1-0.5-2.1-1-3.2-1.7
																	c-0.5-0.3-1.1-0.7-1.7-1.3c-0.6-0.6-0.9-1.9-0.2-2.8c0.6-0.8,1.6-1.1,2.4-1.1s1.5,0.2,2.1,0.3
																	c1.2,0.3,2.4,0.7,3.5,1.2c2.1,1,3.8,2.2,5.1,3.3c2.6,2.3,3.4,4.3,3.2,4.4c-0.3,0.2-1.5-1.5-4.1-3.4
																	c-1.3-1-3-2-5-2.8c-1-0.4-2.1-0.8-3.2-1c-1.2-0.3-2.2-0.4-2.5,0.1c-0.1,0.2-0.1,0.3,0.1,0.6
																	c0.2,0.3,0.7,0.6,1.2,0.9c1,0.6,2,1.2,2.9,1.7c1.9,1,3.8,1.6,5.4,2.1C343.8,1069.6,345.9,1069.7,345.9,1070z"/>
															</g>
														</g>
													</g>
												</g>
											</g>
										</g>
									</g>
								</g>
							</g>
						</g>
					</g>
				</g>
			</g>
			<g>
				<g>
					<g>
						<g>
							<g>
								<g>
									<g>
										<g>
											<g>
												<g>
													<g>
														<g>
															<g>
																<path class="st6" d="M345.2,1070.8c-0.2,0.1-1.2-1.8-1.4-5.2c0-1.7,0.2-3.7,0.9-5.8c0.4-1.1,0.9-2.1,1.5-3.2
																	c0.7-1,1.5-2.4,3.7-2.6c1.1,0,2,0.8,2.3,1.5c0.4,0.7,0.4,1.3,0.5,2c0.2,1.2,0.1,2.5-0.1,3.6
																	c-0.4,2.3-1.4,4.1-2.6,5.5c-2.3,2.7-4.6,3.3-4.6,3.1c-0.2-0.3,1.8-1.2,3.5-3.8c0.9-1.3,1.6-3,1.9-5
																	c0.1-1,0.1-2,0-3.1s-0.6-2.1-1-2c-0.6,0-1.5,0.8-2,1.7c-0.6,0.9-1.1,1.9-1.5,2.9c-0.8,1.9-1.1,3.7-1.2,5.3
																	C344.9,1068.7,345.5,1070.7,345.2,1070.8z"/>
															</g>
														</g>
													</g>
												</g>
											</g>
										</g>
									</g>
								</g>
							</g>
						</g>
					</g>
				</g>
			</g>
		</g>
	</g>
	<g>
		<g>
			<g>
				<g>
					<g>
						<g>
							<g>
								<g>
									<g>
										<g>
											<g>
												<g>
													<g>
														<g>
															<path class="st3" d="M209,1046.6l-10.8,84.9l-111.8-13.9c1.9-10,62.2-23.1,62.2-23.1l4.5-54.7L209,1046.6z"/>
														</g>
													</g>
												</g>
											</g>
										</g>
									</g>
								</g>
							</g>
						</g>
					</g>
				</g>
			</g>
			<g class="st4">
				<g>
					<g>
						<g>
							<g>
								<g>
									<g>
										<g>
											<g>
												<g>
													<g>
														<g>
															<g>
																<path class="st5" d="M183.7,1094.3c2.1,0.8,3.3,3.3,2.6,5.3c-0.8,2-3.4,3.2-5.5,2.4c-2.1-0.8-3.7-3.7-2.7-5.6
																	s4.2-3.1,6-1.9"/>
															</g>
														</g>
													</g>
												</g>
											</g>
										</g>
									</g>
								</g>
							</g>
						</g>
					</g>
				</g>
			</g>
			<g class="st4">
				<g>
					<g>
						<g>
							<g>
								<g>
									<g>
										<g>
											<g>
												<g>
													<g>
														<g>
															<path class="st5" d="M198.2,1131.6l0.7-8.6l-107.5-10.1c0,0-5.2,1.4-5.1,4.8L198.2,1131.6z"/>
														</g>
													</g>
												</g>
											</g>
										</g>
									</g>
								</g>
							</g>
						</g>
					</g>
				</g>
			</g>
			<g>
				<g>
					<g>
						<g>
							<g>
								<g>
									<g>
										<g>
											<g>
												<g>
													<g>
														<g>
															<g>
																<path class="st6" d="M146.8,1093.8c0,0.5,2.7,1.1,5.1,3.1c2.5,1.9,3.7,4.3,4.2,4.2c0.5,0,0.1-3.2-3-5.6
																	C150.1,1093.1,146.8,1093.3,146.8,1093.8z"/>
															</g>
														</g>
													</g>
												</g>
											</g>
										</g>
									</g>
								</g>
							</g>
						</g>
					</g>
				</g>
			</g>
			<g>
				<g>
					<g>
						<g>
							<g>
								<g>
									<g>
										<g>
											<g>
												<g>
													<g>
														<g>
															<g>
																<path class="st6" d="M134.5,1096.9c-0.2,0.5,2.1,1.7,3.7,4.1c1.7,2.4,1.8,4.8,2.4,4.8c0.5,0.1,1.2-2.8-0.8-5.8
																	C137.8,1097.1,134.6,1096.4,134.5,1096.9z"/>
															</g>
														</g>
													</g>
												</g>
											</g>
										</g>
									</g>
								</g>
							</g>
						</g>
					</g>
				</g>
			</g>
			<g>
				<g>
					<g>
						<g>
							<g>
								<g>
									<g>
										<g>
											<g>
												<g>
													<g>
														<g>
															<g>
																<path class="st6" d="M126.3,1109.4c0.5,0.2,1.6-2.3,0.5-5.3c-1-3-3.5-4.4-3.8-4c-0.4,0.4,1.1,2.1,1.9,4.6
																	C125.8,1107.1,125.7,1109.3,126.3,1109.4z"/>
															</g>
														</g>
													</g>
												</g>
											</g>
										</g>
									</g>
								</g>
							</g>
						</g>
					</g>
				</g>
			</g>
			<g>
				<g>
					<g>
						<g>
							<g>
								<g>
									<g>
										<g>
											<g>
												<g>
													<g>
														<g>
															<g>
																<path class="st6" d="M149.3,1081.5c0.2,0.5,2.8,0.1,5.8,0.7c3.1,0.5,5.4,1.8,5.7,1.4c0.4-0.3-1.8-2.5-5.4-3.2
																	C151.9,1079.7,149.1,1081,149.3,1081.5z"/>
															</g>
														</g>
													</g>
												</g>
											</g>
										</g>
									</g>
								</g>
							</g>
						</g>
					</g>
				</g>
			</g>
			<g>
				<g>
					<g>
						<g>
							<g>
								<g>
									<g>
										<g>
											<g>
												<g>
													<g>
														<g>
															<g>
																<path class="st6" d="M153.5,1069.3c0,0.2,2.1,0.8,5.6,0.7c1.7-0.1,3.8-0.3,6.1-1c1.1-0.3,2.3-0.7,3.4-1.2
																	c0.6-0.2,1.2-0.5,1.8-1c0.7-0.5,1.2-1.8,0.6-2.7c-0.5-0.9-1.4-1.4-2.2-1.5s-1.5-0.1-2.1,0c-1.3,0.1-2.5,0.4-3.6,0.7
																	c-2.2,0.7-4.1,1.6-5.6,2.6c-2.9,1.9-4,3.8-3.8,3.9c0.2,0.2,1.7-1.3,4.6-2.8c1.4-0.8,3.2-1.5,5.3-2
																	c1-0.3,2.2-0.4,3.3-0.5c1.2-0.1,2.2,0,2.5,0.5c0.1,0.2,0.1,0.3-0.2,0.6c-0.3,0.3-0.8,0.5-1.4,0.8
																	c-1.1,0.5-2.1,0.9-3.2,1.2c-2.1,0.7-4,1.1-5.7,1.3C155.7,1069.1,153.5,1069,153.5,1069.3z"/>
															</g>
														</g>
													</g>
												</g>
											</g>
										</g>
									</g>
								</g>
							</g>
						</g>
					</g>
				</g>
			</g>
			<g>
				<g>
					<g>
						<g>
							<g>
								<g>
									<g>
										<g>
											<g>
												<g>
													<g>
														<g>
															<g>
																<path class="st6" d="M154.1,1070.1c0.2,0.1,1.5-1.6,2.1-4.9c0.3-1.6,0.4-3.7-0.1-5.9c-0.2-1.1-0.6-2.2-1-3.4
																	c-0.5-1.1-1.2-2.6-3.2-3.1c-1.1-0.2-2.1,0.5-2.5,1.2c-0.5,0.7-0.6,1.3-0.8,1.9c-0.4,1.2-0.5,2.4-0.4,3.6
																	c0.1,2.3,0.8,4.3,1.7,5.8c1.9,3,4.1,3.9,4.1,3.7c0.2-0.2-1.6-1.5-2.9-4.3c-0.7-1.4-1.2-3.2-1.2-5.2c0-1,0.2-2,0.5-3
																	c0.3-1.1,0.9-2,1.3-1.8c0.6,0.1,1.4,1,1.7,2c0.5,1,0.8,2,1,3c0.5,2,0.6,3.9,0.4,5.4
																	C154.7,1068.1,153.8,1070,154.1,1070.1z"/>
															</g>
														</g>
													</g>
												</g>
											</g>
										</g>
									</g>
								</g>
							</g>
						</g>
					</g>
				</g>
			</g>
		</g>
	</g>
	<g>
		<g>
			<g>
				<g>
					<g>
						<path class="st6" d="M354.3,1088.8"/>
					</g>
				</g>
			</g>
		</g>
		<g>
			<g>
				<g>
					<g>
						<path class="st6" d="M381.7,585.4L206.3,591c0,0-41.3,276-40.2,295.2l-25.5,200.2l74.2,2.6c0,0,11.7-64.9,19.8-109.4
							c5.4-29.6,15.3-72.9,18-97.6c2.7-24.7,46.1-197.1,46.1-197.1s-3.2,200.1-3.1,208.4c0.1,8.2-8.6,195.6-8.6,195.6h73.6
							c3.8-33.8,12.8-169.1,14.8-196.5c3.5-49.4,14.6-188.9,16.2-224.5C393.2,632.2,381.7,585.4,381.7,585.4z"/>
					</g>
				</g>
			</g>
		</g>
	</g>
	<g>
		<g>
			<g>
				<g>
					<path class="st3" d="M370.2,586.7c-0.4,0-0.6-2.8-0.6-6.3s0.3-6.3,0.6-6.3c0.4,0,0.6,2.8,0.6,6.3
						C370.8,583.9,370.5,586.7,370.2,586.7z"/>
				</g>
			</g>
		</g>
	</g>
	<g>
		<g>
			<g>
				<g>
					<path class="st3" d="M377.4,590c-0.3,0.1-1.1-3.6-0.7-8.1s1.7-7.9,2-7.8c0.4,0.1-0.4,3.6-0.8,7.9
						C377.6,586.4,377.8,590,377.4,590z"/>
				</g>
			</g>
		</g>
	</g>
	<g>
		<g>
			<g>
				<g>
					<path class="st3" d="M311.9,576.9c0.1,0.2-2,0-3.7,2.1c-0.8,1-1.5,2.5-1.2,4.2c0.3,1.6,1.8,3,3.7,3.4c1.9,0.4,3.9-0.3,4.7-1.8
						c0.9-1.4,0.8-3.1,0.4-4.3c-0.9-2.6-2.8-3.1-2.7-3.3c0-0.1,0.5-0.1,1.2,0.3c0.7,0.4,1.7,1.2,2.3,2.6c0.6,1.4,0.8,3.4-0.2,5.2
						c-1,1.9-3.6,2.9-5.9,2.4c-2.3-0.4-4.4-2.2-4.6-4.4c-0.3-2.1,0.7-3.9,1.7-5c1.1-1.1,2.3-1.5,3.1-1.6
						C311.5,576.6,311.9,576.8,311.9,576.9z"/>
				</g>
			</g>
		</g>
	</g>
	<g>
		<g>
			<g>
				<g>
					<path class="st3" d="M231.1,881.4c-0.1,0.3-8.5-2.8-18.8-7c-10.2-4.2-18.4-7.9-18.3-8.2c0.1-0.3,8.5,2.8,18.8,7
						C223,877.4,231.2,881.1,231.1,881.4z"/>
				</g>
			</g>
		</g>
	</g>
	<g>
		<g>
			<g>
				<g>
					<g>
						<g>
							<g>
								<g>
									<g>
										<path class="st6" d="M221.5,170.5c0.6-10.2,6.9-16.5,15.7-21.7s20.2-5.7,29.4-1.3c6.2,2.9,11.6,8,18.4,8.8
											c11.2,1.4,21.7-8.9,32.7-6.3c6.5,1.5,11.4,8,11.2,14.7c-0.2,6.7-5.7,12.8-12.2,13.8c7.3,1.1,11.5,10.3,8.8,17.2
											s-10.4,10.9-17.8,11c-7.4,0.2-14.5-2.9-20.9-6.6c-6.4-3.7-12.4-8.2-19-11.4c-6.7-3.2-14.3-5.1-21.5-3.2
											c-9.7,2.6-16.5,11.7-19,21.4s-1.4,19.9,0.1,29.8c1.5,9.9,3.4,19.9,2.5,29.8c-0.1,1.2-0.4,2.5-1.4,3.1
											c-1.5,0.8-3.2-0.6-4.3-1.9c-12.4-14.6-21.8-31.7-27.6-50c-3.4-10.6-5.2-20.9-1.2-31.3
											C199.3,176.2,212.9,166.3,221.5,170.5"/>
									</g>
								</g>
							</g>
						</g>
					</g>
				</g>
			</g>
			<g>
				<g>
					<g>
						<g>
							<g>
								<g>
									<g>
										<g>
											<g>
												<g>
													<g>
														<g>
															<g>
																<g>
																	<g>
																		<g>
																			<g>
																				<g>
																					<g>
																						<g>
																							<path class="st7" d="M212.1,219.9l16.3,100.9c3.1,18.8,15.3,37,44.9,30.8l0,0c25.2-7.3,23.4-25.5,20.1-47.8
																								c0,0,0.1,0.9,0,0c0,0,27.8-7.2,25.3-35.5c-1.2-13.6-6-41.5-10.6-66.7c-4.9-27.1-29.9-45.8-57.2-43l-2.7,0.3
																								C219,163.5,206.7,190.8,212.1,219.9z"/>
																						</g>
																					</g>
																				</g>
																			</g>
																		</g>
																	</g>
																</g>
															</g>
														</g>
													</g>
												</g>
											</g>
										</g>
									</g>
									<g>
										<g>
											<g>
												<g>
													<g>
														<g>
															<g>
																<g>
																	<g>
																		<g>
																			<g>
																				<g>
																					<g>
																						<g>
																							<path class="st8" d="M293.4,303.7c0,0-17.7,2.8-37.8-7.2c0,0,11.1,21,39,15.6L293.4,303.7z"/>
																						</g>
																					</g>
																				</g>
																			</g>
																		</g>
																	</g>
																</g>
															</g>
														</g>
													</g>
												</g>
											</g>
										</g>
									</g>
								</g>
							</g>
						</g>
						<g>
							<g>
								<g>
									<g>
										<g>
											<g>
												<g>
													<g>
														<g>
															<g>
																<g>
																	<g>
																		<g>
																			<g>
																				<g>
																					<g>
																						<g>
																							<g>
																								<g>
																									<g>
																										<path class="st6" d="M302.6,226.2c0.3,2.1-1.3,4.1-3.5,4.5c-2.2,0.3-4.2-1.1-4.5-3.2
																											c-0.3-2.1,1.3-4.1,3.5-4.5C300.3,222.7,302.3,224.1,302.6,226.2z"/>
																									</g>
																								</g>
																							</g>
																						</g>
																					</g>
																				</g>
																			</g>
																		</g>
																	</g>
																</g>
															</g>
														</g>
													</g>
												</g>
												<g>
													<g>
														<g>
															<g>
																<g>
																	<g>
																		<g>
																			<g>
																				<g>
																					<g>
																						<g>
																							<g>
																								<g>
																									<g>
																										<g>
																											<path class="st6" d="M303.4,216c-0.4,0.6-3.7-1.4-8.1-0.9c-4.3,0.4-7.3,2.9-7.8,2.5
																												c-0.3-0.2,0.2-1.2,1.4-2.4c1.3-1.1,3.5-2.4,6.2-2.6c2.7-0.3,5.1,0.5,6.5,1.4
																												C303.1,214.8,303.7,215.7,303.4,216z"/>
																										</g>
																									</g>
																								</g>
																							</g>
																						</g>
																					</g>
																				</g>
																			</g>
																		</g>
																	</g>
																</g>
															</g>
														</g>
													</g>
												</g>
											</g>
											<g>
												<g>
													<g>
														<g>
															<g>
																<g>
																	<g>
																		<g>
																			<g>
																				<g>
																					<g>
																						<g>
																							<g>
																								<g>
																									<g>
																										<path class="st6" d="M263.1,232.5c0.3,2.1-1.3,4.1-3.5,4.5c-2.2,0.3-4.2-1.1-4.5-3.2
																											c-0.3-2.1,1.3-4.1,3.5-4.5C260.8,228.9,262.8,230.3,263.1,232.5z"/>
																									</g>
																								</g>
																							</g>
																						</g>
																					</g>
																				</g>
																			</g>
																		</g>
																	</g>
																</g>
															</g>
														</g>
													</g>
												</g>
												<g>
													<g>
														<g>
															<g>
																<g>
																	<g>
																		<g>
																			<g>
																				<g>
																					<g>
																						<g>
																							<g>
																								<g>
																									<g>
																										<g>
																											<path class="st6" d="M261.7,221.1c-0.4,0.6-3.7-1.4-8.1-0.9c-4.3,0.4-7.3,2.9-7.8,2.5
																												c-0.3-0.2,0.2-1.2,1.4-2.4c1.3-1.1,3.5-2.4,6.2-2.6c2.7-0.3,5.1,0.5,6.5,1.4
																												C261.4,219.9,262,220.8,261.7,221.1z"/>
																										</g>
																									</g>
																								</g>
																							</g>
																						</g>
																					</g>
																				</g>
																			</g>
																		</g>
																	</g>
																</g>
															</g>
														</g>
													</g>
												</g>
											</g>
											<g>
												<g>
													<g>
														<g>
															<g>
																<g>
																	<g>
																		<g>
																			<g>
																				<g>
																					<g>
																						<g>
																							<g>
																								<g>
																									<g>
																										<path class="st6" d="M279.9,251.6c0-0.2,2.6-1,6.9-2c1.1-0.2,2.1-0.6,2.2-1.3c0.2-0.8-0.4-2-1.1-3.2
																											c-1.3-2.6-2.7-5.3-4.1-8.1c-5.8-11.5-10-21.1-9.6-21.3c0.5-0.2,5.5,8.9,11.3,20.5c1.4,2.8,2.7,5.6,4,8.2
																											c0.5,1.2,1.4,2.6,1,4.3c-0.2,0.9-1,1.5-1.7,1.8s-1.3,0.4-1.9,0.5C282.6,251.6,279.9,251.9,279.9,251.6z"
																											/>
																									</g>
																								</g>
																							</g>
																						</g>
																					</g>
																				</g>
																			</g>
																		</g>
																	</g>
																</g>
															</g>
														</g>
													</g>
												</g>
											</g>
										</g>
									</g>
								</g>
								<g>
									<g>
										<g>
											<g>
												<g>
													<g>
														<g>
															<g>
																<g>
																	<g>
																		<g>
																			<g>
																				<g>
																					<g>
																						<path class="st6" d="M260.3,204c-0.3,1.2-4.7,1.1-9.7,2.2c-5,1-9,2.9-9.8,1.9c-0.4-0.5,0.3-1.7,1.8-3
																							s4-2.7,7.1-3.3c3-0.6,5.9-0.4,7.8,0.1C259.4,202.6,260.5,203.4,260.3,204z"/>
																					</g>
																				</g>
																			</g>
																		</g>
																	</g>
																</g>
															</g>
														</g>
													</g>
												</g>
											</g>
										</g>
									</g>
								</g>
								<g>
									<g>
										<g>
											<g>
												<g>
													<g>
														<g>
															<g>
																<g>
																	<g>
																		<g>
																			<g>
																				<g>
																					<g>
																						<path class="st6" d="M300.6,203.6c-0.7,1.1-3.8,0.3-7.3,0.7c-3.6,0.2-6.6,1.3-7.4,0.4c-0.4-0.5,0-1.5,1.3-2.6
																							c1.2-1.1,3.3-2,5.8-2.2s4.7,0.5,6.1,1.4C300.4,202.1,300.9,203.1,300.6,203.6z"/>
																					</g>
																				</g>
																			</g>
																		</g>
																	</g>
																</g>
															</g>
														</g>
													</g>
												</g>
											</g>
										</g>
									</g>
								</g>
							</g>
						</g>
					</g>
				</g>
			</g>
			<g>
				<g>
					<g>
						<g>
							<g>
								<g>
									<g>
										<g>
											<g>
												<g>
													<g>
														<g>
															<g>
																<g>
																	<g>
																		<path class="st7" d="M216.5,240.5c-0.5-0.2-20-3.8-17.4,15.4s21.3,12.7,21.3,12.1
																			C220.4,267.5,216.5,240.5,216.5,240.5z"/>
																	</g>
																</g>
															</g>
														</g>
													</g>
												</g>
											</g>
										</g>
									</g>
								</g>
							</g>
						</g>
					</g>
				</g>
				<g>
					<g>
						<g>
							<g>
								<g>
									<g>
										<g>
											<g>
												<g>
													<g>
														<g>
															<g>
																<g>
																	<g>
																		<g>
																			<path class="st8" d="M213.6,261.6c-0.1-0.1-0.3,0.3-0.8,0.6c-0.5,0.3-1.4,0.6-2.5,0.4c-2.1-0.5-4.3-3.5-4.8-6.9
																				c-0.3-1.7-0.1-3.5,0.3-4.9c0.4-1.5,1.2-2.6,2.2-2.9c1-0.4,1.8,0.1,2.1,0.7c0.3,0.5,0.3,0.9,0.4,0.9
																				c0.1,0,0.4-0.4,0.1-1.2c-0.1-0.4-0.4-0.8-0.9-1.1s-1.2-0.4-1.9-0.2c-1.5,0.3-2.6,1.8-3.1,3.4
																				c-0.6,1.6-0.8,3.6-0.4,5.5c0.6,3.9,3.1,7.2,6,7.7c1.4,0.2,2.5-0.4,3-0.9C213.6,262.1,213.6,261.6,213.6,261.6z"
																				/>
																		</g>
																	</g>
																</g>
															</g>
														</g>
													</g>
												</g>
											</g>
										</g>
									</g>
								</g>
							</g>
						</g>
					</g>
				</g>
			</g>
			<g>
				<g>
					<path class="st6" d="M305.8,175.2c-3.1-5.3-8-9.3-13.2-12.4c-11.3-6.9-24.6-10.5-37.7-9.4c-13.1,1.1-25.9,7.2-34.5,17.2
						c-6.9,8-10.8,18.3-12.1,28.7c-1.3,10.5,0.1,21.1,3,31.3c1.3,4.5,3,9,6.5,12c2.2,1.9,5.7,2.9,7.9,0.9c1.2-1.2,1.6-3,1.8-4.7
						c2.2-15.3,4.3-31.6-2.6-45.4c3.2-5.2,7-10.1,12.1-13.5c5-3.5,11.3-5.4,17.3-4.2c8.9,1.8,15,9.6,22.4,14.7
						c10.6,7.3,24.9,9.1,37,4.5L305.8,175.2z"/>
				</g>
			</g>
		</g>
		<g>
			<g>
				<g>
					<g>
						<g>
							<g>
								<path class="st8" d="M283.7,263.3c-0.3,1.8-0.6,3.6-1.4,5.3c-0.8,1.6-2.2,3.1-4,3.6c-1.9,0.5-4-0.3-5.4-1.6
									c-1.4-1.4-2.2-3.3-2.5-5.2c-0.3-1.7,0.1-4,1.8-4.5c0.7-0.2,1.5-0.1,2.2,0c3.3,0.6,6.5,1.2,9.8,1.8"/>
							</g>
						</g>
					</g>
				</g>
			</g>
			<g>
				<g>
					<g>
						<g>
							<g>
								<g>
									<path class="st6" d="M281.6,271.5c-0.1-0.3-1.9,0.9-4.9,0.4c-1.5-0.3-3.2-1-4.3-2.5c-1.2-1.5-1.8-3.7-1.4-5.9
										c0.1-0.5,0.3-1.1,0.5-1.5c0.3-0.5,0.2-0.4,0.6-0.4s1,0.2,1.6,0.3c0.5,0.1,1.1,0.2,1.6,0.3c2.1,0.4,4,0.7,5.6,0.9
										c3.2,0.5,5.2,0.7,5.2,0.5s-1.9-0.8-5-1.6c-1.6-0.4-3.4-0.8-5.5-1.3c-0.5-0.1-1.1-0.2-1.6-0.3c-0.6-0.1-1-0.3-1.8-0.3
										c-0.4,0-0.9,0-1.3,0.3s-0.7,0.7-0.8,1c-0.3,0.6-0.5,1.2-0.7,1.9c-0.5,2.7,0.3,5.4,1.8,7.2c1.5,1.8,3.7,2.6,5.4,2.7
										c1.7,0.2,3.1-0.3,3.9-0.7C281.3,272,281.7,271.6,281.6,271.5z"/>
								</g>
							</g>
						</g>
					</g>
				</g>
			</g>
		</g>
	</g>
	<g>
		<g>
			<path class="st7" d="M353.3,221.8l4.5-1.2l71,69l57.5,6.9c0,0-0.6-17.4-22.2-39.6c-19.3-19.8-64.5-43.4-79.8-55.5
				c-3.8-3-6.6-4-6.6-4L353.3,221.8z"/>
		</g>
		<g>
			<g>
				<path class="st7" d="M353.3,189l-7.3-2l-17.1-8.1l-19.5,7.3c0,0,0.4,6.7,5.6,4.9l-20.4,6.7c0,0,1.7,4.8,2.6,5.2
					c0.9,0.3-12,1.4-12,1.4s-0.1,6.6,12.2,6.4c12.3-0.1,17-2.2,17-2.2l9.8,2.6l-0.4,5.8l-13.3-0.2l0.6,7.5c2,0.9,17.2,2.6,17.2,2.6
					s20.6,0.3,26.2-2.4s12.7-6.6,12.7-6.6l10.7-20.4L353.3,189z"/>
			</g>
			<g>
				<g>
					<path class="st8" d="M334.9,192.5c-0.1,0.2-1.2-0.4-2.9-1.2c-1.8-0.9-4.3-1.9-6.9-3.7h0.9c-0.3,0.2-0.5,0.3-0.8,0.5
						c-2.9,1.8-5.9,2.7-8,2.9c-2.2,0.3-3.5,0.1-3.5-0.1c-0.1-0.5,5.4-0.7,10.8-4.1c0.3-0.2,0.5-0.3,0.7-0.5l0.4-0.3l0.4,0.3
						c2.4,1.7,4.9,2.9,6.5,4S335,192.3,334.9,192.5z"/>
				</g>
			</g>
			<g>
				<g>
					<path class="st8" d="M328.6,202.8c0,0.1-1.3,0.5-3.3-0.4c-2-0.7-4.2-2.8-7-4.1l0.7-0.1c-1.2,0.8-2.5,1.6-3.9,2.2
						c-4,1.9-8.1,2.6-11,2.7c-2.9,0.1-4.7-0.3-4.7-0.5c0-0.5,7.2,0.1,15-3.6c1.4-0.6,2.6-1.4,3.8-2.1l0.4-0.2l0.3,0.2
						c3.2,1.6,5,3.8,6.8,4.6C327.4,202.6,328.6,202.6,328.6,202.8z"/>
				</g>
			</g>
			<g>
				<g>
					<path class="st8" d="M346.9,209.2c-0.1,0.2-1.5-0.2-3.8-0.2s-5.5,0.6-8.5,2.6c-1.8,1.2-3.2,2.7-4.2,4.2l-0.2,0.3h-0.3
						c-4.1,0.8-6.9,1.1-7,0.8s2.6-1.1,6.7-2.2l-0.4,0.3c1-1.7,2.5-3.4,4.5-4.7c3.3-2.1,6.9-2.6,9.4-2.4
						C345.6,208.2,346.9,209.1,346.9,209.2z"/>
				</g>
			</g>
			<g>
				<g>
					<path class="st9" d="M377.8,197.5l-24.5-8.5l-7.3-2l-17.1-8.1l-19.5,7.3c0,0,0.4,6.7,5.6,4.9l-20.4,6.7c0,0,1.7,4.8,2.6,5.2
						c0.9,0.3-12,1.4-12,1.4s-0.1,6.6,12.2,6.4c12.3-0.1,17-2.2,17-2.2l9.8,2.6l-0.4,5.8l-12.7-0.6l1.3,8.2c2,0.9,15.8,2.2,15.8,2.2
						s20.6,0.3,26.2-2.4s12.7-6.6,12.7-6.6"/>
				</g>
				<g>
					<g>
						<path class="st8" d="M367.1,217.9c0,0-0.2,0.2-0.6,0.4c-0.5,0.3-1.1,0.6-1.8,1c-1.8,0.9-4.1,2.2-7.1,3.9
							c-1.6,0.8-3.2,1.9-5.4,2.4c-2.1,0.5-4.4,0.9-6.9,1.1c-5,0.5-10.7,0.7-17,0.7l0,0l0,0c-2.4-0.2-5-0.5-7.7-0.8
							c-2.7-0.4-5.4-0.5-8.4-1.4l-0.3-0.1l-0.1-0.4c-0.4-2.6-0.9-5.4-1.3-8.2l-0.1-0.8h0.8c4,0.2,8.3,0.3,12.7,0.5l-0.7,0.7
							c0.1-1.8,0.2-3.8,0.4-5.8l0.5,0.7c-3.1-0.8-6.4-1.7-9.8-2.6h0.5c-4.8,1.7-9.7,2-14.7,2.2c-2.5,0.1-5.1,0.1-7.8-0.4
							c-2.6-0.5-5.4-1.6-7-4.2c-0.4-0.8-0.7-1.5-0.8-2.5v-0.7l0.7-0.1c3-0.3,6.1-0.5,9-0.9c0.7-0.1,1.5-0.2,2.2-0.3l0.5-0.1
							c0.1,0,0,0,0,0s0.1-0.1-0.2,0.1c-0.2,0.2-0.2,0.5-0.2,0.7c-0.1,0.3,0.5,0.6,0.4,0.5c-0.2-0.1-0.4-0.2-0.5-0.3
							c-0.4-0.4-0.6-0.7-0.8-1.1c-0.7-1.4-1.3-2.8-1.8-4.2l-0.3-0.7l0.7-0.2c7.1-2.3,13.9-4.6,20.4-6.7l0.5,1.4
							c-0.8,0.2-1.6,0.5-2.6,0.3c-0.9-0.1-1.7-0.7-2.3-1.3c-1.1-1.4-1.5-2.9-1.6-4.5l-0.1-0.5l0.5-0.2c6.9-2.5,13.4-4.9,19.5-7.2
							l0.3-0.1l0.2,0.1c6.2,3,11.9,5.7,17.1,8.2H346c2.5,0.7,4.9,1.4,7.2,2.1c2.2,0.8,4.3,1.5,6.2,2.2c3.8,1.4,7.2,2.6,9.9,3.6
							c2.6,1,4.7,1.7,6.2,2.3c1.4,0.5,2.1,0.8,2.1,0.9c0,0-0.8-0.2-2.2-0.6c-1.6-0.5-3.7-1.2-6.3-2c-2.8-0.9-6.1-2-10-3.3
							c-2-0.7-4-1.4-6.3-2.1c-2.3-0.6-4.6-1.3-7.2-2l0,0l0,0c-5.2-2.4-10.9-5.1-17.2-8h0.5c-6.1,2.3-12.6,4.7-19.5,7.3l0.5-0.7
							c0.1,1.3,0.5,2.7,1.3,3.6c0.8,0.9,2,1.1,3.3,0.6l0.5,1.4c-6.5,2.2-13.4,4.4-20.4,6.8l0.5-1c0.5,1.3,1,2.7,1.7,4
							c0.2,0.3,0.4,0.6,0.5,0.7l0,0c0,0-0.1,0.2-0.2,0.3l0,0l0,0c0.3-0.8,0.1-0.2,0.2-0.4c0.1,0,0.1,0.1,0.2,0.1
							c0.1,0.1,0.2,0.3,0.3,0.4c0,0.2,0,0.5-0.2,0.7s-0.2,0.1-0.2,0.2c-0.1,0.1-0.2,0.1-0.3,0.1c-0.3,0.1-0.4,0.1-0.6,0.1
							c-0.8,0.1-1.5,0.2-2.3,0.3c-3,0.3-6,0.6-9.1,0.9l0.7-0.7c0,0.5,0.2,1.2,0.6,1.8c1.2,2,3.6,3,5.9,3.5c2.4,0.5,4.9,0.4,7.4,0.4
							c4.9-0.2,9.9-0.6,14.2-2.1l0.3-0.1l0.2,0.1c3.4,0.9,6.7,1.8,9.8,2.6l0.6,0.2v0.6c-0.1,2-0.3,4-0.4,5.8v0.7h-0.7
							c-4.4-0.2-8.7-0.4-12.7-0.6l0.7-0.8c0.4,2.9,0.9,5.7,1.3,8.2l-0.4-0.5c2.4,0.7,5.4,1,8,1.4c2.7,0.3,5.2,0.6,7.6,0.9l0,0
							c6.3,0.1,12-0.1,16.9-0.5c2.5-0.2,4.8-0.5,6.8-1c2-0.4,3.7-1.5,5.3-2.2c3.1-1.5,5.5-2.7,7.2-3.6c0.8-0.4,1.4-0.7,1.9-0.9
							C366.8,217.9,367.1,217.8,367.1,217.9z"/>
					</g>
				</g>
			</g>
			<g>
				<g>
					<path class="st8" d="M342.5,195.7c0.3,0.2-2.6,4.2-7.6,7.7c-4.9,3.5-9.6,5-9.7,4.6c-0.2-0.4,4.1-2.5,8.8-5.9
						C338.8,198.8,342.1,195.4,342.5,195.7z"/>
				</g>
			</g>
		</g>
	</g>
	<g>
		<g>
			<path class="st10" d="M485.9,294.4l-57-4.8l-67.2,25.6l-14.8,9l21,71.8c0,0,105.3-62.1,109.8-67.4
				C491.5,312.3,485.9,294.4,485.9,294.4z"/>
		</g>
		<g>
			<g>
				<g>
					<g>
						<path class="st10" d="M181.6,347.3L162,359.4l45.3,178.2L199,640.2c11.7,10.2,41.2,18.9,97.2,15.8c56-3.2,93.3-27.4,93.3-27.4
							l-5.4-105.7l-12.7-119.2L357,322.1l-43.1,3.1l-16.8-9.9l-7.5,3.8l-9.7,26.8l-25.2-18.2l-29.4-14.2l-10.7,20.1L181.6,347.3z"/>
					</g>
				</g>
			</g>
		</g>
		<g>
			<g>
				<path class="st10" d="M357,342.8c0.1,0,0.6,1.4,1.6,4c0.9,2.6,2.1,6.4,3.5,11.1c2.8,9.4,6.1,22.5,8.7,37.2s4,28.2,4.7,38
					c0.3,4.9,0.5,8.8,0.5,11.6c0,2.7,0,4.3-0.1,4.3s-0.3-1.5-0.5-4.2c-0.3-3-0.6-6.9-1-11.5c-0.9-9.7-2.5-23.1-5.1-37.8
					c-2.6-14.7-5.7-27.8-8.2-37.2c-1.2-4.5-2.2-8.3-3-11.2C357.3,344.3,356.9,342.9,357,342.8z"/>
			</g>
		</g>
	</g>
	<g>
		<g>
			<path class="st6" d="M271.9,344.3c0,0.1-1.6-0.2-4-1.5c-2.5-1.3-5.9-3.6-8.9-7.6l1.1-0.3c-0.5,7.1-1.9,16.2-5.2,25.7l-0.3,0.9
				l-0.8-0.6c-0.7-0.5-1.4-0.9-2.1-1.4c-10.1-7-19.3-13.4-25.8-18.1c-3.1-2.2-5.6-4.1-7.7-5.6c-1.8-1.4-2.8-2.1-2.7-2.2
				s1.1,0.5,3.1,1.7c2.2,1.4,4.8,3.2,8,5.2c6.7,4.5,15.9,10.7,26.1,17.7c0.7,0.5,1.4,1,2.1,1.4l-1.2,0.4c3.3-9.4,4.9-18.4,5.5-25.3
				l0.2-1.6l0.9,1.3c2.7,3.9,6,6.3,8.3,7.7C270.5,343.6,272,344.1,271.9,344.3z"/>
		</g>
	</g>
	<g>
		<g>
			<path class="st6" d="M312.2,328.5c0.2,0.2-3.7,4.7-9.6,10.9l-0.5,0.6l-0.5-0.6c-1.8-2.1-4-4.3-6.4-6.5c-1.2-1.1-2.4-2.1-3.7-3
				c-0.6-0.4-1.2-0.9-1.8-1.3c-0.3-0.2-0.4-0.2-0.4-0.2s-0.1,0.1-0.2,0.4c-1,2.5-1.9,4.8-2.8,7c-1.6,4-2.7,6.4-2.9,6.3
				c-0.2-0.1,0.5-2.6,1.9-6.7c0.8-2.2,1.6-4.6,2.5-7.1c0.1-0.3,0.3-0.9,1-1.2c0.8-0.3,1.4,0.1,1.7,0.3c0.7,0.4,1.3,0.9,1.9,1.3
				c1.3,0.9,2.5,1.9,3.8,3c2.5,2.2,4.7,4.5,6.5,6.7h-1C307.6,332.4,312,328.3,312.2,328.5z"/>
		</g>
	</g>
	<g>
		<g>
			<g>
				<g>
					<g>
						<g>
							<g>
								<g>
									<g>
										<g>
											<path class="st3" d="M379.2,539.5c15.3-19.3,36.6-34.1,62-41.3c31.3-8.9,64.2-5,92.7,10.8c28.5,15.8,49,41.9,57.9,73.1
												c18.4,64.7-19.2,132.2-83.9,150.6l0,0c-31.3,8.8-64.3,5-92.7-10.9c-28.5-15.8-49-41.9-57.9-73.1
												C346.1,609.5,355.6,569.2,379.2,539.5z M563.5,686.2c22-27.7,30.8-65.4,20.5-102c-8.3-29.2-27.5-53.4-54.1-68.2
												c-26.5-14.8-57.2-18.3-86.5-10.1c-29.3,8.4-53.5,27.4-68.2,54.1c-14.8,26.5-18.3,57.2-10.1,86.5
												c8.3,29.2,27.4,53.5,54.1,68.2c26.5,14.8,57.2,18.3,86.5,10.1C529.4,718,549.2,704.2,563.5,686.2z"/>
										</g>
										<g>
											<path class="st3" d="M558,712.2c-13.9,12-30.3,20.9-48.6,26.1c-32.9,9.4-67.3,5.3-97.2-11.3
												c-29.8-16.6-51.4-43.9-60.7-76.7c-11.2-39.5-2.7-82.3,23-114.5c16.7-21,39.2-36,65-43.3c32.9-9.4,67.3-5.3,97.2,11.3
												c29.8,16.6,51.4,43.9,60.7,76.7c9.3,32.8,5.3,67.3-11.3,97.2C578.8,690.8,569.2,702.6,558,712.2z M404,533.6
												c-9.5,8.2-17.5,18-23.7,29.2c-14,25.2-17.4,54.3-9.5,82c7.8,27.7,26.1,50.7,51.3,64.7c25.2,14,54.3,17.4,82,9.5
												c21.8-6.1,40.8-18.9,54.8-36.6l0,0c21.6-27.3,28.9-63.4,19.4-96.7c-7.8-27.7-26.1-50.7-51.3-64.7
												c-25.2-14-54.3-17.4-82-9.5C429.7,515.9,415.8,523.5,404,533.6z"/>
										</g>
									</g>
								</g>
							</g>
						</g>
					</g>
				</g>
				<g>
					<g>
						<g>
							<g>
								<g>
									<g>
										<g>
											<path class="st3" d="M172.2,719.2l-0.9-2.8c-2-5.8-0.3-11.6,3.7-13l182.3-61.6c0.9-0.3,2,0.5,2.4,1.7l6.5,19.1
												c0.5,1.3,0.1,2.6-0.8,2.9l-182.3,61.6C179.1,728.6,174.2,725,172.2,719.2z"/>
										</g>
									</g>
								</g>
							</g>
						</g>
					</g>
				</g>
			</g>
		</g>
	</g>
	<g>
		<g>
			<g>
				<g>
					<g>
						<g>
							<path class="st7" d="M192.8,443.9l-21.4,70.9l10.7,144.5l-31.6,4c0,0-36.2-123.1-32.6-145.2c3.6-22.1,18.2-87,18.2-87
								L192.8,443.9z"/>
						</g>
					</g>
				</g>
			</g>
		</g>
		<g>
			<g>
				<g>
					<g>
						<g>
							<path class="st7" d="M182.1,658.2l14.7,25.1L206,707l-13.9-5.5c0,0-5.9,28.4-8.3,29.2c-2.3,0.8-9-1.6-8.3-7
								c0,0-3.3,3.3-7.5,2.5c-4.2-0.9-5.2-3.6-4.7-8.7c0,0-4.9,4-7.8,1.5c-2.9-2.5-2.6-6.8-2.6-6.8s-6.3,0.5-7.2-2.7
								c-0.9-3.3-1.1-12.7-0.4-16.2c0.7-3.6,3.8-18.2,3.8-18.2l1.4-11.7L182.1,658.2z"/>
						</g>
					</g>
				</g>
			</g>
			<g>
				<g>
					<g>
						<g>
							<g>
								<path class="st8" d="M178.6,707.3c-0.4-0.1-1.3,3.5-2.2,8.1c-0.9,4.5-1.3,8.3-0.9,8.3c0.4,0.1,1.3-3.5,2.2-8.1
									C178.6,711.1,179,707.4,178.6,707.3z"/>
							</g>
						</g>
					</g>
				</g>
			</g>
			<g>
				<g>
					<g>
						<g>
							<g>
								<path class="st8" d="M165.7,704c-0.4-0.1-1.2,2.8-2,6.4c-0.7,3.6-1,6.6-0.7,6.7c0.4,0.1,1.2-2.8,2-6.4
									S166.1,704.1,165.7,704z"/>
							</g>
						</g>
					</g>
				</g>
			</g>
			<g>
				<g>
					<g>
						<g>
							<g>
								<path class="st8" d="M155,701c-0.4,0-0.7,2.5-1.2,5.6c-0.5,3-1.3,5.4-0.9,5.6c0.3,0.1,1.7-2.1,2.2-5.4
									C155.6,703.6,155.3,701,155,701z"/>
							</g>
						</g>
					</g>
				</g>
			</g>
			<g>
				<g>
					<g>
						<g>
							<g>
								<path class="st8" d="M193.2,693.3c-0.4-0.1-1.3,3.5-2.4,7.9c-1.1,4.4-1.9,8-1.5,8.1c0.3,0.1,1.7-3.3,2.8-7.8
									C193.2,697.1,193.5,693.4,193.2,693.3z"/>
							</g>
						</g>
					</g>
				</g>
			</g>
		</g>
	</g>
	<g>
		<path class="st10" d="M116.2,565.8c0-2.4-9.9-36.1-6.9-53.5c3-17.4,38.9-135.4,43.7-143.8s15.3-13,15.3-13s21.4,10,28.6,35.9
			c7.2,25.9,7.2,58.4,7.2,58.4l-28.9,71.6l3.4,40.7L116.2,565.8z"/>
	</g>
	<g>
		<g>
			<path class="st6" d="M202.3,447.3c-0.3,0,0.3-5.3,0-13.8c-0.1-4.2-0.6-9.3-1.4-14.8c-0.9-5.5-2.3-11.5-4.2-17.7
				c-2-6.2-4.4-11.8-6.8-16.9c-2.5-5-5-9.4-7.4-12.9c-4.6-7.1-8.1-11.1-7.9-11.3c0.1-0.1,1,0.9,2.6,2.7c1.6,1.8,3.8,4.5,6.2,8
				c2.5,3.5,5.1,7.9,7.7,12.9c2.5,5.1,5,10.8,7,17.1c1.9,6.2,3.3,12.4,4.1,18s1.1,10.7,1.1,15s-0.2,7.7-0.5,10.1
				C202.6,446,202.4,447.3,202.3,447.3z"/>
		</g>
	</g>
	<g>
		<g>
			<path class="st6" d="M200.5,462.3c0.2,0.1-0.9,3.5-3,8.9s-5.2,12.8-8.9,20.9c-3.5,7.9-6.7,15-9.3,20.7c-2.3,5.3-3.8,8.6-4,8.5
				s0.9-3.5,3-8.9c2.1-5.4,5.2-12.8,8.9-20.9c3.5-7.9,6.7-15,9.3-20.7C198.8,465.5,200.3,462.2,200.5,462.3z"/>
		</g>
	</g>
	<g>
		<g>
			<path class="st6" d="M177,524c-0.3,0.4-8.3-5.2-19.8-8.6c-11.4-3.5-21.3-3.2-21.2-3.7c0-0.2,2.4-0.5,6.4-0.3
				c4,0.1,9.5,0.9,15.3,2.6c5.8,1.8,10.8,4.2,14.2,6.3C175.2,522.3,177.1,523.9,177,524z"/>
		</g>
	</g>
	<g>
		<g>
			<path class="st6" d="M562.1,539.8c0,0-0.5-0.4-1.4-1.3c-0.9-0.9-2.2-2.2-3.9-3.9c-0.9-0.8-1.9-1.8-2.8-2.9c-1.1-1-2.4-2-3.7-3.2
				c-1.3-1.1-2.8-2.3-4.3-3.6c-1.5-1.4-3.4-2.4-5.3-3.8c-7.3-5.4-17.4-10.7-29.8-14.9c-12.3-4.1-27.2-6.7-43.6-5.6
				c-2,0.1-4.1,0.3-6.2,0.5c-2,0.3-4.2,0.7-6.2,1c-2.2,0.4-4.2,0.6-6.3,1.2c-2.1,0.6-4.3,1.2-6.4,1.7c-1.1,0.3-2.2,0.6-3.2,0.9
				c-1.1,0.4-2.1,0.8-3.2,1.2c-2.1,0.8-4.3,1.6-6.5,2.4c-2.1,0.9-4.2,2-6.3,3.1c-2.1,1.1-4.3,2-6.3,3.4c-4.1,2.6-8.4,5-12.1,8.2
				c-2,1.6-4,3-5.9,4.7c-1.8,1.7-3.7,3.6-5.5,5.3c-0.9,0.9-1.9,1.8-2.7,2.6l-2.5,2.9c-1.7,2-3.5,3.9-5,6c-2.9,4.4-6.2,8.6-8.6,13.4
				c-2.8,4.7-4.8,9.7-7,14.8c-1,2.6-1.7,5.3-2.6,8c-0.4,1.4-0.9,2.6-1.3,4l-0.9,4.1c-1.5,5.5-1.9,11.2-2.6,16.9
				c-0.1,5.8-0.4,11.6,0.1,17.5l0.3,4.3l0.7,4.4l0.7,4.4c0.2,1.5,0.5,2.9,1,4.3c0.8,2.9,1.6,5.8,2.3,8.7c1.1,2.8,2.1,5.7,3.2,8.5
				c4.7,11.1,11.2,21.8,19.3,31.3c8.3,9.3,17.8,17.2,28.2,23.6c2.6,1.5,5.3,2.9,7.9,4.4c2.7,1.2,5.5,2.4,8.2,3.6l2.1,0.9l2.2,0.7
				l4.2,1.4l4.2,1.4l4.3,0.9c5.7,1.5,11.5,2,17.2,2.7c5.8,0.1,11.5,0.5,17.1-0.1l4.2-0.3c1.4,0,2.8-0.4,4.2-0.7
				c2.7-0.5,5.5-0.8,8.3-1.5c5.4-1.5,10.6-2.7,15.7-4.8c5.2-1.7,9.8-4.4,14.5-6.6c2.3-1.3,4.5-2.8,6.7-4.1l3.3-2
				c1.1-0.7,2.1-1.5,3-2.3c2-1.6,4.1-3.1,6-4.7c1.9-1.6,3.7-3.4,5.5-5.1c3.8-3.3,6.8-7.2,9.9-10.8c1.7-1.7,2.8-3.9,4.2-5.8
				c1.3-2,2.8-3.8,4-5.8c1.1-2,2.2-4,3.3-6.1c0.6-1,1.1-2,1.6-3c0.4-1,0.9-2.1,1.4-3c0.9-2.1,1.8-4.1,2.6-6.1c0.9-2,1.4-4.1,2.1-6.1
				c0.6-2,1.4-4.1,1.9-6c0.4-2.1,0.9-4,1.4-6.1c3.4-16.1,3-31,0.8-43.9c-2.3-12.8-6-23.5-10.4-31.6c-1.1-2-1.8-4.1-3-5.7
				c-1.1-1.7-2.1-3.3-3-4.8c-0.9-1.5-1.7-2.9-2.6-4.1s-1.7-2.2-2.5-3.2c-1.4-1.9-2.5-3.4-3.3-4.4
				C562.4,540.3,562.1,539.8,562.1,539.8s0.4,0.5,1.2,1.4c0.9,1,2,2.4,3.4,4.3c0.7,1,1.6,2,2.5,3.2s1.7,2.6,2.7,4.2
				c1,1.6,2,3.1,3.1,4.8c1.2,1.6,2,3.7,3.1,5.8c4.4,8.1,8.3,18.9,10.7,31.8c2.4,12.9,2.8,28.1-0.6,44.3c-0.5,2-0.9,4-1.3,6.1
				c-0.6,2.1-1.3,4-1.9,6.2c-0.7,2.1-1.2,4.2-2.2,6.2c-0.9,2.1-1.8,4.1-2.6,6.1c-0.4,1-0.9,2.1-1.4,3.2c-0.6,1-1.1,2-1.6,3
				c-1.1,2-2.2,4-3.3,6.1c-1.2,2-2.6,3.9-3.9,5.9c-1.4,1.9-2.6,4.1-4.2,5.8c-3.2,3.7-6.2,7.6-10,10.9c-1.8,1.7-3.6,3.5-5.6,5.2
				c-2,1.6-4.1,3.1-6.1,4.7c-1,0.8-2,1.6-3.1,2.4l-3.3,2.1c-2.2,1.4-4.4,2.9-6.8,4.1c-4.8,2.3-9.5,5.1-14.7,6.7
				c-5,2.1-10.4,3.4-15.8,4.9c-2.7,0.7-5.5,0.9-8.3,1.5c-1.4,0.2-2.8,0.6-4.2,0.6l-4.3,0.3c-5.6,0.7-11.5,0.3-17.3,0.2
				c-5.8-0.7-11.7-1.3-17.5-2.8l-4.4-1l-4.2-1.4l-4.3-1.4l-2.2-0.7l-2.1-0.9c-2.7-1.2-5.6-2.5-8.4-3.6c-2.7-1.5-5.3-2.9-8-4.4
				c-10.5-6.4-20.1-14.4-28.5-23.8c-8.1-9.7-14.7-20.4-19.5-31.7c-1.1-2.9-2.2-5.8-3.2-8.6c-0.8-2.9-1.6-5.9-2.3-8.8
				c-0.5-1.5-0.7-3-1-4.5l-0.8-4.5l-0.7-4.4l-0.3-4.5c-0.6-5.9-0.3-11.9-0.2-17.7c0.7-5.8,1.2-11.6,2.7-17.1l0.9-4.2
				c0.2-1.4,0.8-2.7,1.2-4.1c0.9-2.6,1.7-5.4,2.7-8c2.3-5.2,4.3-10.3,7.2-14.9c2.5-4.9,5.8-9.1,8.8-13.5c1.6-2.1,3.4-4,5.1-6.1
				l2.6-3c0.9-1,1.8-1.9,2.8-2.7c1.9-1.8,3.7-3.6,5.6-5.3c1.9-1.6,4-3.2,5.9-4.7c3.8-3.3,8.1-5.7,12.2-8.3c2-1.3,4.3-2.2,6.3-3.4
				c2.1-1.1,4.2-2.2,6.4-3c2.2-0.8,4.4-1.7,6.5-2.4c1.1-0.4,2.2-0.8,3.2-1.2c1.1-0.3,2.2-0.6,3.3-0.9c2.2-0.6,4.3-1.1,6.4-1.7
				c2.1-0.6,4.3-0.8,6.5-1.2c2.1-0.3,4.2-0.8,6.4-1c2.1-0.1,4.2-0.3,6.3-0.4c16.5-1,31.5,1.6,43.9,5.8s22.5,9.6,29.9,15.1
				c1.8,1.3,3.7,2.5,5.3,3.9c1.5,1.3,3,2.6,4.3,3.8c1.3,1.2,2.6,2.2,3.7,3.2c1.1,1.1,1.9,2.1,2.8,3c1.6,1.8,2.9,3,3.7,4
				C561.6,539.2,562.1,539.8,562.1,539.8z"/>
		</g>
	</g>
	<g>
		<g>
			<path class="st6" d="M570,614.1c-0.1,0-0.2-1.7-0.4-4.8c-0.2-3.1-0.6-7.6-1.6-13.2c-2-11-6.8-25.9-16.7-40.1
				c-9.8-14-22.2-23.8-31.8-29.5c-4.8-2.8-8.9-4.8-11.8-6.1c-2.8-1.3-4.5-2-4.5-2.1c0,0,0.4,0,1.2,0.3c0.8,0.3,1.9,0.6,3.4,1.2
				c3,1.1,7.2,2.9,12.1,5.7c9.9,5.5,22.6,15.3,32.5,29.5c10,14.3,14.7,29.6,16.4,40.7c0.9,5.6,1.2,10.2,1.2,13.3
				c0,1.6-0.1,2.8-0.1,3.6C570.1,613.6,570,614.1,570,614.1z"/>
		</g>
	</g>
	<g>
		<g>
			<path class="st6" d="M389.9,840.2c0.2,0.4-0.7,1.3-2,2c-1.3,0.8-2.6,1.1-2.8,0.7c-0.2-0.4,0.7-1.3,2-2
				C388.4,840.1,389.7,839.8,389.9,840.2z"/>
		</g>
	</g>
</g>
</svg>
