<?xml version="1.0" encoding="utf-8"?>
<!-- Generator: Adobe Illustrator 26.1.0, SVG Export Plug-In . SVG Version: 6.00 Build 0)  -->
<svg version="1.1" id="Ebene_1" xmlns="http://www.w3.org/2000/svg" xmlns:xlink="http://www.w3.org/1999/xlink" x="0px" y="0px"
	 viewBox="0 0 354.3 297.6" style="enable-background:new 0 0 354.3 297.6;" xml:space="preserve">
<style type="text/css">
	.st0{fill:#F8BC9E;}
	.st1{fill:#263239;}
	.st2{fill:#EC9A6E;}
	.st3{fill:#455A64;}
	.st4{fill:#8E3039;}
	.st5{opacity:0.3;}
	.st6{fill:#E0E0E0;}
	.st7{fill:#FFFFFF;}
</style>
<g id="a">
	<path class="st0" d="M189.6,128.4c0,0-9.3,34.9-9.4,35.4c-0.1,0.5-1.9-7.7-2.9-11.8c-1-4.1-2.1-7.6,1.9-14.6
		C183.1,130.5,189.6,128.4,189.6,128.4L189.6,128.4z"/>
	<g>
		<path class="st1" d="M198.8,38.7c-1.2,4.4-1.1,9.3,0.9,13.4c2.5,5.1,7.9,8.5,13.5,9.3s11.4-0.6,16.4-3.3s9.3-6.6,13.1-10.8
			l19.2-5.8c-1-4.2-4.4-9.1-8.5-10.6c-4.1-1.5-10.1-2.6-13.5,0c-2.3-4.5-6.5-7.9-11.4-9.1s-10.2-0.3-14.3,2.6
			c-1.7,1.1-3.2,2.6-4.9,3.6c-1.5,0.8-3.1,1.3-4.6,2.1C201.6,31.9,199.8,35.3,198.8,38.7L198.8,38.7z"/>
		<path class="st1" d="M185.2,102.2c-4.2,6.4-7.3,14.6-4.3,21.6c2,4.6,6.3,7.8,11,9.4c4.7,1.6,9.8,1.9,14.7,1.7
			c5.2-0.1,11.1-1,13.9-5.4c2-3.1,1.9-7,1.7-10.7C221.1,95,221,71.1,222,47.3l-22.7-3.2c-5,3.2-7.2,11.5-7.3,15.4
			c-5.8,4.3-8.7,12.2-7,19.3c0.3,1.1,0.6,2.1,0.5,3.2c-0.2,1.8-1.7,3-2.8,4.4C179.2,91.1,180.3,98.8,185.2,102.2L185.2,102.2z"/>
		<path class="st0" d="M254.3,53.9l-8.7,65.9c-1.3,9.6-10.1,16.4-19.7,15.2l0,0c-9.6-1.2-16.4-10-15.2-19.7l1.2-9.5
			c0,0-11.9-3.4-12.6-19.5c-0.3-8,1.5-20.8,3.4-31.2c1.7-9.4,13-17.7,22.3-15.6l29.9,9.3L254.3,53.9L254.3,53.9z"/>
		<path class="st1" d="M204.9,66.9c0.2-1.1,1.2-1.8,2.3-1.6c1.1,0.2,1.9,1.2,1.7,2.3c-0.2,1.1-1.2,1.8-2.3,1.6
			C205.5,69,204.7,67.9,204.9,66.9L204.9,66.9z"/>
		<path class="st1" d="M205.4,62.2c-0.1-0.1,0.2-0.6,0.9-1c0.7-0.4,1.9-0.8,3.3-0.7c1.3,0.2,2.5,0.8,3.1,1.4
			c0.6,0.6,0.8,1.1,0.7,1.2c-0.3,0.2-1.7-1.1-3.9-1.3C207.3,61.5,205.6,62.5,205.4,62.2L205.4,62.2z"/>
		<path class="st1" d="M225.2,69.6c0.2-1.1,1.2-1.8,2.3-1.6c1.1,0.2,1.9,1.2,1.7,2.3c-0.2,1.1-1.2,1.8-2.3,1.6
			C225.8,71.7,225,70.7,225.2,69.6L225.2,69.6z"/>
		<path class="st1" d="M226.7,65c-0.1-0.1,0.2-0.6,0.9-1c0.7-0.4,1.9-0.8,3.3-0.7c1.3,0.2,2.5,0.8,3.1,1.4c0.6,0.6,0.8,1.1,0.7,1.2
			c-0.3,0.2-1.7-1.1-3.9-1.3C228.6,64.4,227,65.3,226.7,65L226.7,65z"/>
		<path class="st1" d="M217,80.3c0,0.1-1.4,0-3.6-0.4c-0.3,0-0.6-0.1-0.9-0.2c-0.3-0.1-0.7-0.5-0.8-0.9c-0.2-0.9,0.3-1.5,0.5-2.2
			c0.6-1.3,1.3-2.7,2.1-4.1c3-5.8,5.6-10.3,5.8-10.2c0.2,0.1-2,4.9-5,10.6c-0.7,1.4-1.5,2.8-2.1,4c-0.3,0.6-0.6,1.2-0.6,1.6
			c0.1,0.4,0.6,0.6,1.1,0.7C215.7,79.8,217,80.1,217,80.3L217,80.3z"/>
		<path class="st2" d="M212,105.8l-0.4,3.9c16.1,3.3,22.8-7.1,22.8-7.1C223.1,107.7,212,105.8,212,105.8L212,105.8z"/>
		<path class="st2" d="M217.2,85.7c-0.2,0.2-0.2,0.5-0.1,0.8c0.1,0.3,0.3,0.5,0.6,0.7c0.8,0.8,1.6,1.6,2.6,2c1,0.4,2.3,0.4,2.9-0.4
			c0.6-0.7,0.6-1.8,0.1-2.6s-1.4-1.4-2.3-1.6c-1.3-0.3-2.8,0.1-3.7,1.1"/>
		<path class="st1" d="M223.2,82.5c0.2,0,0.4,0.6,0.2,1.6c-0.2,1-0.9,2.3-2.2,3.2c-1.3,0.9-2.9,1.1-3.9,0.9
			c-1.1-0.2-1.6-0.5-1.6-0.7c0.1-0.3,2.5,0.2,4.8-1.2C222.6,84.8,222.9,82.4,223.2,82.5L223.2,82.5z"/>
		<path class="st1" d="M227.2,56.4c-0.1-0.3,0.5-0.7,1.4-1c1-0.3,2.4-0.3,3.9,0c1.5,0.3,2.8,1,3.5,1.7c0.8,0.7,1.1,1.3,0.9,1.5
			c-0.4,0.5-2.4-0.5-4.9-1C229.5,57,227.3,57.1,227.2,56.4L227.2,56.4z"/>
		<path class="st1" d="M206.9,56c-0.1-0.3,0.1-0.8,0.8-1.2c0.7-0.4,1.8-0.8,3.1-0.7c1.2,0.1,2.3,0.6,2.9,1.2
			c0.6,0.5,0.8,1.1,0.6,1.3c-0.4,0.5-1.9-0.1-3.7-0.2C208.8,56.2,207.3,56.5,206.9,56L206.9,56z"/>
		<path class="st1" d="M250.9,38.1l-49.2-2.6c1.7,5.9,6.1,14.9,12,16.5s12.6-0.3,16.9-4.6c0.3,4.6,5,7.7,9.4,9
			c3.1,1,6.5,1.4,9.6,0.6s6.1-3.1,7-6.2S254,39.1,250.9,38.1L250.9,38.1z"/>
		<path class="st3" d="M220.3,69.7c0,0,0-0.2,0-0.6s0-0.9,0.2-1.6c0.3-1.4,1.2-3.5,3.2-5.1c1-0.8,2.3-1.5,3.9-1.8
			c1.5-0.3,3.2-0.2,4.8,0.4c1.6,0.6,3.2,1.7,4.3,3.2c1.1,1.5,1.8,3.5,1.8,5.5c0,2-0.7,4-1.8,5.5c-1.1,1.5-2.7,2.6-4.3,3.2
			c-1.6,0.6-3.3,0.6-4.8,0.4c-1.5-0.3-2.8-1-3.9-1.8c-2.1-1.6-2.9-3.7-3.2-5.1c-0.2-0.7-0.2-1.3-0.2-1.6
			C220.3,69.9,220.3,69.7,220.3,69.7c0.1,0,0,0.8,0.4,2.2c0.4,1.3,1.3,3.3,3.3,4.8c1,0.7,2.2,1.4,3.7,1.6c1.4,0.2,3,0.2,4.6-0.4
			c1.5-0.5,3-1.6,4-3c1.1-1.4,1.6-3.2,1.7-5.1c0-1.9-0.6-3.7-1.7-5.1c-1-1.4-2.5-2.5-4-3c-1.5-0.6-3.1-0.6-4.6-0.4
			c-1.4,0.2-2.7,0.9-3.7,1.6c-2,1.5-2.9,3.4-3.3,4.8C220.4,68.9,220.4,69.7,220.3,69.7L220.3,69.7z"/>
		<path class="st3" d="M197.9,65.7c0,0,0-0.2,0-0.6c0-0.4,0-0.9,0.2-1.6c0.3-1.4,1.2-3.5,3.2-5.1c1-0.8,2.3-1.5,3.9-1.8
			c1.5-0.3,3.2-0.2,4.8,0.4c1.6,0.6,3.2,1.7,4.3,3.2c1.1,1.5,1.8,3.5,1.8,5.5c0,2-0.7,4-1.8,5.5c-1.1,1.5-2.7,2.6-4.3,3.2
			c-1.6,0.6-3.3,0.6-4.8,0.4c-1.5-0.3-2.8-1-3.9-1.8c-2.1-1.6-2.9-3.7-3.2-5.1c-0.2-0.7-0.2-1.3-0.2-1.6
			C197.9,65.9,197.9,65.7,197.9,65.7c0.1,0,0,0.8,0.4,2.2c0.4,1.3,1.3,3.3,3.3,4.8c1,0.7,2.2,1.4,3.7,1.6c1.4,0.2,3,0.2,4.6-0.4
			c1.5-0.5,3-1.6,4-3c1.1-1.4,1.6-3.2,1.7-5.1c0-1.9-0.6-3.7-1.7-5.1c-1-1.4-2.5-2.5-4-3c-1.5-0.6-3.1-0.6-4.6-0.4
			c-1.4,0.2-2.7,0.9-3.7,1.6c-2,1.5-2.9,3.4-3.3,4.8C198,64.9,198,65.7,197.9,65.7L197.9,65.7z"/>
		<path class="st3" d="M221.7,64.8c-0.1,0-0.2-0.3-0.6-0.8c-0.3-0.4-0.9-1-1.7-1.2s-1.6-0.1-2.1,0s-0.9,0.4-0.9,0.3
			c-0.1,0,0.2-0.4,0.8-0.7c0.6-0.3,1.5-0.5,2.5-0.2c1,0.3,1.6,1,1.9,1.6C221.8,64.4,221.7,64.8,221.7,64.8L221.7,64.8z"/>
		<path class="st3" d="M242.2,72.7c1.9,0.7,3.5,1.3,3.4,1.5c0,0.2-1.7-0.2-3.6-0.9c-2-0.7-3.5-1.3-3.4-1.5S240.2,72.1,242.2,72.7z"
			/>
	</g>
	<g>
		<path class="st0" d="M83.5,99.1c2.5,1,8,3.1,8,3.1l1,0.7l-9.7-1.5c0,0-0.6,0.7,0.4,2.2c0.6,0.9,7.7,3.3,8.8,3.7l-7.7-1.5
			c0,0,0.7,1.4,2.1,2.3c1.2,0.8,5.6,2.1,7,2.5c0.8,3.1,2.6,9.2,6.1,12c2,1.6,13-3.9,13-3.9L98.2,97.2l-5.7-3.3l-10-3.9
			c0,0-1.3,1.9,1.3,4.1c2.6,2.2,7.8,4.2,7.8,4.2L82,95.4C82,95.4,80.9,98.1,83.5,99.1L83.5,99.1z"/>
		<path class="st0" d="M119.2,121.6l-14,4.2c0,0,23.8,35.6,34.9,50c2.4,3,6.1,3.3,8.4,3.8c14,2.8,64.8-20.5,64.8-20.5l-7.9-38.2
			c0,0-49.7,29.7-53.7,30.6L119.2,121.6L119.2,121.6z"/>
		<path class="st0" d="M97.1,120.2c0,0,2.4,4.3,6.2,5.2l3.8,0.9l6.5,10.2l5.5-14.9l-5.8-5.9l-13-17.9c-0.6-0.8-1.5-1.4-2.4-1.8
			l-7.9-3l5.2,9.6l3.3,7.1l4.2,7.7L97.1,120.2L97.1,120.2z"/>
		<g>
			<path class="st0" d="M109.2,120.9c-3.4-0.7-6.4-3.2-7.5-6.4c-0.4-1-0.6-2.1-1.2-2.9c-0.7-0.9-1.9-1.3-2.9-1.6
				c-1.1-0.3-2.2-0.5-3.2-1.1c-0.9-0.6-1.6-1.8-1.4-2.8c0.3-1,1.2-1.6,2.2-1.7s2,0.1,2.9,0.4c2.9,0.8,5.7,1.9,8.5,3.3"/>
			<path class="st2" d="M109.1,120.9c0,0-0.1,0-0.4,0s-0.6-0.1-1.1-0.3c-0.9-0.3-2.3-0.9-3.6-2.1c-0.7-0.6-1.3-1.3-1.9-2.2
				c-0.6-0.9-0.9-2-1.3-3.1c-0.2-0.5-0.4-1-0.8-1.5c-0.4-0.4-0.9-0.7-1.4-1c-1.1-0.5-2.4-0.6-3.7-1.1c-1.3-0.5-2.5-1.7-2.4-3.2
				c0-0.7,0.5-1.4,1-1.8c0.5-0.4,1.2-0.6,1.8-0.6c1.2-0.1,2.3,0.3,3.3,0.6c1,0.3,1.9,0.6,2.7,0.9c1.6,0.6,2.9,1.2,3.8,1.7
				s1.3,0.7,1.3,0.8c0,0-0.5-0.2-1.4-0.6s-2.2-0.9-3.9-1.5c-0.8-0.3-1.7-0.6-2.7-0.9c-1-0.3-2-0.6-3.1-0.5c-1,0.1-2.2,0.8-2.3,1.9
				c0,0.5,0.2,1.1,0.6,1.6c0.4,0.5,0.9,0.8,1.5,1c1.2,0.5,2.5,0.6,3.7,1.2c0.6,0.3,1.2,0.6,1.6,1.1c0.4,0.5,0.7,1.1,0.9,1.6
				c0.4,1.1,0.7,2.1,1.2,3c0.5,0.9,1.1,1.6,1.7,2.2c1.2,1.2,2.5,1.8,3.4,2.2C108.6,120.8,109.2,120.9,109.1,120.9L109.1,120.9z"/>
		</g>
	</g>
	<path class="st1" d="M209.3,228.4c0,0-13.9,22.7-12.1,25.8l95.3-0.4c-6.5-12.9-16.4-25.4-16.4-25.4L209.3,228.4L209.3,228.4z"/>
	<path class="st4" d="M189.5,167.6c-0.7,9.8,12.1,34.5,11.6,40.1c-0.5,5.5,1.5,20.8,8.2,20.8h66.9c0,0,7-9.1,7.6-18.2
		s-11.4-65.7-11.4-65.7s0.4-21.7-4.4-24.6c-5.6-3.4-4.3-5.4-28.4-1.7l-7.5,3.9c-7.1,3.3-19.6,0.8-21.3-6.8l0,0l-11.6,3.6
		C199.2,118.9,191.8,137.7,189.5,167.6L189.5,167.6z"/>
	<path class="st1" d="M253,186.4c-0.1-0.1-1.7,1.2-4.8,2.5c-3,1.3-7.7,2.4-12.6,1.2c-4.9-1.1-8.8-4-11.2-6.3c-2.4-2.3-3.6-4-3.7-3.9
		c0,0,0.2,0.5,0.8,1.2c0.6,0.8,1.4,1.8,2.6,3c2.4,2.4,6.2,5.4,11.4,6.6c2.5,0.6,5.1,0.6,7.3,0.3c2.2-0.3,4.2-1,5.7-1.7
		c1.5-0.7,2.7-1.5,3.5-2S253,186.4,253,186.4L253,186.4z"/>
	<g class="st5">
		<path d="M222,181.7c-0.2-0.2-0.4-0.4-0.5-0.6c4.1,6.9,12.6,10.9,20.6,9.7c3.7-0.6,7.2-2.1,10.7-3.7c-0.8,5-4.9,9.2-9.8,10.6
			c-4.9,1.4-10.4,0.1-14.3-3.1s-6.4-8.1-6.9-13.1"/>
	</g>
	<path class="st4" d="M298.1,166.2c0,0-17.5-38-30.1-46.3c-5.6-3.7-15.8-0.5-19.6,8.2s-0.1,15.2,1.1,19.4s14.9,34.5,14.9,34.5
		L298.1,166.2L298.1,166.2z"/>
	<path class="st4" d="M192.1,167.8l2.3-20.8l4.7-28.2c-9,2.4-21.6,14.1-37,24.3l10.3,34.1C172.5,177.3,190.6,167.8,192.1,167.8
		L192.1,167.8z"/>
	<path class="st1" d="M298.1,166.2c0,0-0.2,0.1-0.6,0.4c-0.5,0.2-1.1,0.5-1.8,0.9c-1.7,0.8-3.9,1.9-6.7,3.2
		c-5.8,2.7-13.6,6.3-22.3,10.4c-0.9,0.4-1.9,0.9-2.7,1.3l-0.3,0.1l-0.1-0.3c-3.9-8-7.2-15.2-9.5-20.5c-1.1-2.6-2.1-4.7-2.6-6.2
		c-0.3-0.7-0.5-1.3-0.6-1.7c-0.2-0.4-0.2-0.6-0.2-0.6c0,0,0.1,0.2,0.3,0.6c0.2,0.4,0.4,1,0.8,1.7c0.7,1.5,1.7,3.6,2.8,6.1
		c2.4,5.2,5.8,12.4,9.7,20.4l-0.4-0.1c0.9-0.4,1.8-0.8,2.7-1.3c8.7-4,16.6-7.6,22.4-10.2c2.8-1.2,5.1-2.3,6.8-3
		c0.8-0.3,1.4-0.6,1.9-0.8C297.9,166.3,298.1,166.2,298.1,166.2L298.1,166.2z"/>
	<path class="st1" d="M195.3,139.9c0,0,0,0.2-0.1,0.6c-0.1,0.4-0.2,0.9-0.4,1.6c-0.3,1.4-0.9,3.4-1.6,5.8
		c-1.3,4.9-3.4,11.7-3.5,19.4c0.1,3.9,0.8,7.5,1.7,10.7s1.9,6.1,2.8,8.4c0.9,2.3,1.6,4.2,2.1,5.6c0.2,0.6,0.4,1.1,0.5,1.6
		c0.1,0.4,0.2,0.6,0.1,0.6c-0.1,0-0.4-0.7-0.9-2c-0.6-1.3-1.4-3.2-2.3-5.6s-2-5.2-2.9-8.4c-0.9-3.2-1.7-6.9-1.8-10.8
		c0.1-7.9,2.2-14.7,3.7-19.5c0.7-2.4,1.3-4.3,1.8-5.8C195,140.6,195.3,139.9,195.3,139.9L195.3,139.9z"/>
	<path class="st1" d="M223.7,133.1c-0.5,5,1.3,10.3,5.1,13.4s9.9,3.7,13.9,0.7c4-2.9,5.4-8.3,8.8-11.8c4.8-5,13.7-5.2,18.8-0.5
		c3.3,3.1,5.8,8.1,10.3,7.9c3.1-0.2,5.4-3.1,6.4-6.1c2.4-7-0.5-15.5-6.6-19.6c4.4-4.6,4.8-12.4,0.9-17.5c-2.5-3.2-6.4-5.3-7.9-9.1
		c-2.5-6.4,3.3-13.7,1.2-20.2c-1.5-4.6-6.3-7.2-8.4-11.5c-1.5-3.1,0.3-6.5,0.2-10c-0.1-7.3-5.4-14.2-11.8-17.3l-5.6,7.7
		c-9.7,5.8-8.6,13.5-6.6,23.5c0.9,4.4,4.8,7.4,4.3,9.5c-0.7,3.2-4.4,4.7-5.9,7.5c-2.6,4.7,1.6,11-0.8,15.8c-1.8,3.6-6.7,5.3-7.3,9.3
		c-0.4,3.2,2.3,6.2,1.9,9.3c-0.3,2.4-2.4,4.2-4.2,5.9C226.9,123.5,224.3,128.1,223.7,133.1L223.7,133.1z"/>
	<g>
		<path class="st0" d="M295.1,167.6l11.8,32.7c2.6,8.4-4.7,15.9-4.7,15.9L228,246.7l-6.7-15.5l57.2-34.8c0,0-4.4-6-10.8-16.5
			C267.7,179.9,295.1,167.6,295.1,167.6z"/>
		<path class="st2" d="M285.9,197.5c-4.1-1.6-7.8-1.3-7.8-1.1c0,0.2,3.5,0.3,7.5,1.8c4,1.5,6.7,3.7,6.9,3.6
			C292.6,201.6,290,199,285.9,197.5z"/>
	</g>
	<path class="st0" d="M176.9,241.8l4.3,9.3l12.2-1.3l23.4,0.7c3.8-0.3,11.1-3.8,11.1-3.8l-6.7-15.5l-2.3,1.6l-27.9,2.2L176.9,241.8
		L176.9,241.8z"/>
	<g>
		<g>
			<path class="st6" d="M91.4,192.9l9,61.8h132.1c1.3,0,2.4-1.1,2.4-2.4s-1.1-2.4-2.4-2.4h-41.4l-8.8-58.5c-0.4-2.6-2.9-3.8-5.5-3.8
				l-80.3-0.6C93.4,186.9,90.9,189.8,91.4,192.9z"/>
			<path class="st1" d="M96.6,186.9c0,0-0.4,0-1.2,0.2c-0.8,0.2-2,0.7-3,2.1c-0.5,0.6-0.8,1.5-0.9,2.5c-0.1,1,0.2,2.1,0.3,3.2
				c0.4,2.4,0.8,5.1,1.2,8.1c1.8,12.3,4.4,29.9,7.7,51.7l-0.2-0.2c34.2,0,79.1-0.1,128.2-0.1c1.1,0,2.3,0,3.4,0c0.6,0,1.1,0,1.5-0.3
				c0.4-0.2,0.8-0.6,0.9-1.1c0.4-0.9-0.1-2.1-0.9-2.6c-0.4-0.3-0.9-0.3-1.5-0.3h-1.7c-4.5,0-9,0-13.4,0c-8.8,0-17.4,0-25.8,0h-0.3
				l0-0.3c-3.1-21-6-40.5-8.7-58.1c-0.1-1.1-0.5-2.1-1.3-2.7c-0.8-0.7-1.8-1.1-2.8-1.2c-1-0.2-2.1-0.1-3.2-0.1c-1.1,0-2.1,0-3.1,0
				c-4.2,0-8.2-0.1-12.1-0.1c-7.8-0.1-15-0.2-21.5-0.2c-13-0.1-23.4-0.3-30.6-0.3c-3.5,0-6.3-0.1-8.2-0.1c-0.9,0-1.6,0-2.1,0
				C96.9,186.9,96.6,186.9,96.6,186.9c0,0,0.2,0,0.7,0c0.5,0,1.2,0,2.1,0c1.9,0,4.6,0,8.2,0c7.2,0,17.6,0.1,30.6,0.2
				c6.5,0.1,13.7,0.1,21.5,0.1c3.9,0,7.9,0.1,12.1,0.1c1,0,2.1,0,3.1,0c1.1,0,2.1-0.1,3.2,0.1c1.1,0.2,2.2,0.6,3.1,1.4
				c0.9,0.8,1.4,1.9,1.5,3.1c2.6,17.5,5.6,37.1,8.8,58.1l-0.3-0.3c8.3,0,16.9,0,25.8,0c4.4,0,8.9,0,13.4,0h1.7c0.5,0,1.3,0,1.8,0.3
				c1.2,0.6,1.7,2.1,1.2,3.3c-0.2,0.6-0.7,1.1-1.2,1.4c-0.6,0.4-1.3,0.4-1.8,0.4h-3.4c-49.1,0-94-0.1-128.2-0.1h-0.2l0-0.2
				c-3.1-21.7-5.7-39.4-7.5-51.7c-0.4-3.1-0.8-5.8-1.2-8.1c-0.1-1.2-0.4-2.3-0.3-3.3c0.1-1,0.5-1.9,1-2.6c1-1.4,2.3-1.8,3.1-2
				C96.2,186.8,96.6,186.9,96.6,186.9L96.6,186.9z"/>
		</g>
		<circle class="st7" cx="140.2" cy="220.1" r="5"/>
		<path class="st1" d="M187.9,254.2c0.1,0-2.3-15-5.3-33.4c-3-18.4-5.6-33.3-5.7-33.3s2.3,14.9,5.3,33.4
			C185.3,239.3,187.8,254.2,187.9,254.2L187.9,254.2z"/>
	</g>
</g>
<g id="b">
</g>
</svg>
