<?xml version="1.0" encoding="UTF-8"?><svg xmlns="http://www.w3.org/2000/svg" viewBox="0 0 354.33 297.64"><defs><style>.c{fill:#f8bc9e;}.d{fill:#ebebeb;}.e{fill:#fbfbfb;}.f{fill:#ec9a6e;}.g{fill:#ee7160;}.h{fill:#8e3039;}.i{fill:#e0e0e0;}.j{fill:#455a64;}.k{fill:#263239;}.l{opacity:.3;}</style></defs><g id="a"><g><g><path class="c" d="M122.7,45.94l-.78,62.56c-.13,10.64,1.85,26.29,18.68,25.73h0c14.57-1.59,18.43-15.37,18.54-25.3,.05-4.71,.11-8.64,.15-9.12,0,0,15.94-1.3,17.29-17.05,.65-7.61,.71-23.39,.61-37.67-.12-15.34-12.01-28.01-27.3-29.12l-1.52-.11c-16.47-.24-25.87,13.61-25.66,30.08Z"/><path class="f" d="M159.29,99.82s-9.98-.14-20.08-7.57c0,0,4.17,11.88,20,11.61l.08-4.04Z"/></g><g><g><path class="k" d="M150.26,51.55c-.31,.32-2.13-1.15-4.77-1.22-2.63-.11-4.61,1.22-4.89,.88-.14-.15,.19-.73,1.05-1.34,.85-.6,2.28-1.17,3.92-1.11,1.64,.06,3.01,.72,3.79,1.38,.79,.66,1.05,1.26,.9,1.4Z"/><path class="k" d="M149.7,57c-.04,1.13-1.03,2.02-2.21,2-1.18-.02-2.1-.95-2.05-2.08,.04-1.13,1.03-2.02,2.21-2,1.18,.02,2.1,.95,2.06,2.08Z"/><path class="k" d="M156.87,69.9c0-.14,1.52-.29,3.99-.42,.62-.02,1.22-.1,1.35-.51,.18-.44-.03-1.12-.28-1.86-.47-1.54-.97-3.15-1.49-4.84-2.05-6.89-3.49-12.54-3.21-12.62,.28-.08,2.17,5.44,4.22,12.33,.49,1.7,.96,3.32,1.41,4.87,.18,.72,.53,1.55,.14,2.45-.2,.45-.68,.75-1.08,.83-.41,.09-.75,.07-1.06,.07-2.46-.05-3.99-.15-3.99-.29Z"/></g><path class="k" d="M149.14,41.63c-.25,.59-2.37,.14-4.9,.27-2.53,.08-4.61,.69-4.9,.12-.13-.27,.26-.81,1.12-1.33,.85-.52,2.19-.98,3.7-1.04,1.52-.06,2.88,.29,3.76,.74,.89,.45,1.32,.96,1.21,1.23Z"/><path class="k" d="M174.2,46.52c-.28,.48-2.34-.05-4.83-.13-2.5-.12-4.57,.24-4.83-.26-.12-.24,.3-.67,1.17-1.04,.86-.38,2.19-.67,3.69-.61,1.5,.06,2.82,.46,3.67,.9,.86,.45,1.26,.91,1.14,1.14Z"/></g><path class="c" d="M123.14,57.71c-.26-.14-10.6-3.99-11.04,6.81-.44,10.8,10.49,9.02,10.52,8.71,.03-.31,.51-15.52,.51-15.52Z"/><path class="f" d="M119.49,69s-.19,.12-.52,.26c-.32,.13-.85,.21-1.41-.03-1.12-.47-2.01-2.32-1.98-4.27,.01-.98,.26-1.91,.64-2.67,.36-.78,.9-1.31,1.47-1.39,.58-.11,.97,.25,1.09,.56,.13,.31,.05,.52,.11,.54,.03,.03,.24-.17,.17-.62-.04-.22-.15-.48-.4-.69-.25-.22-.63-.34-1.03-.32-.84,.02-1.62,.76-2.03,1.59-.46,.84-.76,1.88-.78,2.98-.02,2.18,1.01,4.26,2.55,4.78,.75,.23,1.39,.03,1.73-.22,.35-.25,.41-.49,.38-.51Z"/><path class="k" d="M154.32,77.38c.12-.27-2-.91-3.49-2.89-.74-.98-1.17-2.04-1.49-2.82-.32-.78-.55-1.28-.67-1.24-.11,.03-.08,.57,.09,1.42,.18,.84,.55,2.05,1.39,3.16,.83,1.12,1.94,1.79,2.76,2.11,.82,.33,1.38,.36,1.41,.26Z"/><path class="k" d="M198.1,30.96c-.17-.63-.63-1.16-1.2-1.49-1.23-.73-2.65-.63-4.03-.65-4.18-.07-8.33-1.34-11.84-3.6-1.65-2.37-3.5-4.6-5.51-6.68-4.77-4.92-8.7-8.27-12.76-9.91-5.26-2.12-14.04-2.97-19.52-1.54-5.48,1.44-10.4,5.88-11.16,11.5-3.07-2.6-7.69-2.58-11.43-1.07l-.09-.04c-4.17,1.49-6.54,5.89-7.77,10.14-1.23,4.25-1.75,8.8-4.01,12.61-.47,.8-1.03,1.75-.62,2.58,.32,.64,1.13,.91,1.84,.8,.71-.1,1.34-.5,1.94-.88-.47,1.11-.93,2.23-1.39,3.34,1.51,.26,3.07,.14,4.53-.3,.89,3.98,1.94,8.51,2.96,11.21,1.74,0,3.34,.12,4.41,1.09,1.46,1.31,2.11,3.78,4.54,2.84,1.23-.48,2.36-3.07,2.77-4.33,2.74-8.35,3.65-17.29,2.66-26.02,1.73-1.84,3.81-3.34,6.1-4.4l-.19,.17c4.4-1.53,9.38-3.03,13.56-.97,3.24,1.6,5.14,4.96,7.56,7.65,4.59,5.08,10.78,7.85,17.62,8.14,.23,4.43-.14,10.7,.09,15.14l3.73-7.1v.04c.31-.52,.56-1.04,.81-1.57l.08-.16v-.02c.39-.84,.76-1.69,1.25-2.52l.04,.04c2.4,2.12,5.94-1.12,4.05-3.7-.38-.51-.83-.97-1.34-1.35,1.1,1.03,2.74,1.53,4.18,1.08,1.44-.44,2.56-1.9,2.43-3.4-.09-1.02-.82-1.94-1.74-2.35,1.94,.15,3.93-.27,5.62-1.24,1.11-.63,2.2-1.67,1.82-3.07Z"/><path class="j" d="M137.03,20.4s-.66,.42-1.58,1.45c-.91,1.02-1.93,2.81-2.42,5.23-.25,1.21-.4,2.55-.4,4,0,1.45,.11,3,.22,4.64,.11,1.64,.22,3.37,.12,5.17-.05,.9-.16,1.81-.36,2.73-.2,.9-.43,1.87-1.11,2.64-.54,.63-1.44,.91-2.22,.75-.79-.14-1.49-.56-2-1.13-1.01-1.18-1.27-2.68-1.52-4.01l.33,.04c-.54,1.19-1.09,2.36-1.92,3.3-.81,.94-1.93,1.57-3.06,1.67-.57,.05-1.14-.04-1.62-.28-.5-.24-.86-.65-1.1-1.09-.24-.44-.36-.93-.33-1.4,.03-.47,.21-.91,.51-1.23l.17,.15c-1.21,1.38-2.5,2.13-3.38,2.54-.45,.21-.81,.33-1.05,.41-.24,.07-.37,.1-.38,.09,0-.01,.12-.06,.36-.15,.23-.1,.58-.24,1.02-.46,.86-.44,2.1-1.2,3.27-2.58l.17,.15c-.53,.56-.56,1.55-.1,2.34,.23,.39,.56,.76,1,.96,.43,.21,.95,.29,1.47,.24,1.04-.1,2.09-.69,2.84-1.59,.78-.9,1.31-2.04,1.85-3.23l.23-.51,.1,.55c.25,1.32,.52,2.76,1.45,3.83,.46,.51,1.1,.89,1.79,1.01,.69,.13,1.42-.09,1.89-.63,.59-.67,.83-1.59,1.03-2.47,.19-.89,.3-1.79,.35-2.67,.11-1.77,0-3.49-.1-5.12-.1-1.64-.21-3.2-.19-4.67,.01-1.47,.19-2.83,.45-4.06,.52-2.46,1.61-4.26,2.57-5.27,.97-1.02,1.69-1.35,1.69-1.35Z"/><path class="j" d="M185.76,35.73s-.04,.04-.13,.11c-.11,.08-.24,.17-.39,.29-.17,.13-.39,.28-.67,.43-.27,.16-.58,.35-.96,.5-1.46,.7-3.81,1.39-6.74,1.21-2.91-.16-6.39-1.19-9.51-3.51-3.15-2.26-5.91-5.6-8.17-9.41-1.15-1.91-2.08-3.86-3.11-5.67-1.02-1.81-2.15-3.48-3.52-4.8-1.35-1.33-2.92-2.31-4.54-2.76-.81-.24-1.62-.29-2.39-.28-.78,.04-1.51,.2-2.19,.42-1.36,.46-2.45,1.21-3.28,1.98-.83,.78-1.39,1.6-1.78,2.31-.72,1.45-.76,2.38-.81,2.36,0,0,0-.06,.01-.17,.02-.13,.04-.29,.07-.48,.08-.42,.26-1.03,.6-1.78,.37-.73,.92-1.58,1.76-2.39,.84-.8,1.95-1.59,3.34-2.07,.7-.24,1.46-.41,2.26-.46,.8-.03,1.66,.02,2.49,.26,1.68,.45,3.3,1.46,4.69,2.81,1.41,1.34,2.56,3.04,3.6,4.86,1.04,1.82,1.98,3.77,3.11,5.66,2.24,3.79,4.96,7.09,8.05,9.33,3.06,2.3,6.46,3.33,9.32,3.53,2.88,.2,5.2-.44,6.67-1.08,1.48-.66,2.18-1.24,2.2-1.2Z"/><path class="j" d="M187.19,28.8s-.19,.16-.56,.39c-.37,.24-.94,.54-1.67,.85-.73,.32-1.63,.62-2.65,.87-1.03,.23-2.17,.4-3.39,.45-1.21,.03-2.37-.07-3.41-.23-1.04-.18-1.95-.43-2.7-.7-.75-.27-1.34-.53-1.72-.74-.39-.21-.6-.33-.59-.36,.03-.06,.9,.39,2.39,.85,.74,.24,1.65,.45,2.67,.61,1.02,.14,2.15,.23,3.34,.2,1.19-.04,2.31-.2,3.32-.41,1.01-.23,1.9-.5,2.63-.78,1.46-.56,2.3-1.06,2.34-1Z"/><path class="k" d="M174.31,52.54c-.31,.32-2.13-1.15-4.77-1.22-2.63-.11-4.61,1.22-4.89,.88-.14-.15,.19-.73,1.05-1.34,.85-.6,2.28-1.17,3.92-1.11,1.64,.06,3.01,.72,3.79,1.38,.79,.66,1.05,1.26,.9,1.4Z"/><path class="k" d="M171.62,57.77c-.04,1.13-1.03,2.02-2.21,2-1.18-.02-2.1-.95-2.05-2.08,.04-1.13,1.03-2.02,2.21-2,1.18,.02,2.1,.95,2.06,2.08Z"/></g><path class="c" d="M270.04,115.37c0-4.58-4.37-4.58-4.37-4.58-1.67-2.19-3.54-1.39-3.54-1.39l-7.08,4.78c-1.04,1.79-7.91,8.56-7.91,8.56-1.87-1.39-1.87-4.18-4.12-7.56-2.25-3.38-7.33-2.98-7.33-2.98,0,0,3.96,8.95,4.37,14.52,.42,5.57-3.04,21.11-3.04,21.11l20.02,5.63s1.26-8.53,3.51-9.21c2.7-.83,4.2-4.81,4.2-4.81,2.92-5.91,8.84-14.5,9.68-18.88,.83-4.38-4.37-5.17-4.37-5.17Z"/><g><g><path class="j" d="M121.19,105.47c12.75,8.01,25.6,11.03,38.61,5.84l19.56,5,19.25,128.58-112.84,.98,5.56-29.86,13.99-107.3,15.87-3.23Z"/><path class="j" d="M179.36,116.31s15.21,6.32,21.02,17.38c5.81,11.07,15.14,42.13,15.14,42.13l17.19-31.57,31.91,8.16s-23.75,65.51-29.71,71.47c-6.53,6.53-24.32,13.11-33.03,8.03-8.71-5.08-10.48-24.37-10.48-24.37l-12.04-91.24Z"/><path class="k" d="M180.41,170.09c-.09,0-.16-5.71-.16-12.75s.07-12.76,.16-12.76,.16,5.71,.16,12.76-.07,12.75-.16,12.75Z"/><path class="k" d="M186.36,123.65s-.26,.81-.74,2.11c-.48,1.29-1.12,3.08-1.74,5.09-.62,2.01-1.11,3.85-1.44,5.18-.34,1.34-.53,2.17-.58,2.16-.02,0,0-.22,.06-.6,.06-.38,.16-.93,.3-1.61,.28-1.35,.73-3.21,1.36-5.22,.62-2.01,1.3-3.8,1.83-5.08,.27-.64,.49-1.15,.66-1.5,.17-.35,.27-.54,.29-.53Z"/></g><g><path class="j" d="M103.25,156.85l3.53-48.45s-26.56,2.46-35.35,21.2c-7.41,15.79-27.85,63.3-30.04,69.8-6.42,19.07,3.61,45.29,44.97,43.77l4.71-25.93,12.18-60.4Z"/><path class="k" d="M73.51,222.65s.07-.17,.22-.46c.17-.32,.39-.76,.67-1.3,.61-1.15,1.47-2.77,2.53-4.77,.27-.5,.55-1.03,.85-1.58,.3-.54,.65-1.13,1.21-1.56,.57-.43,1.31-.6,2.04-.59,.74,0,1.47,.17,2.2,.36,1.47,.39,2.97,.93,4.44,1.68,.74,.38,1.46,.81,2.13,1.36l.25,.21c.1,.09,.17,.22,.21,.33,.08,.23,.11,.45,.13,.67,.04,.44,.04,.88,.03,1.32-.06,1.75-.28,3.44-.5,5.07-.22,1.63-.47,3.19-.72,4.68-.5,2.97-1,5.64-1.43,7.88-.43,2.21-.79,4.02-1.04,5.3-.12,.6-.21,1.08-.28,1.44-.07,.33-.1,.5-.11,.5-.01,0,0-.18,.04-.51,.04-.33,.12-.82,.23-1.45,.23-1.29,.55-3.09,.94-5.32,.4-2.24,.88-4.91,1.36-7.89,.24-1.49,.48-3.05,.7-4.67,.21-1.62,.43-3.31,.49-5.03,.01-.43,.01-.86-.03-1.27-.02-.21-.05-.41-.12-.59-.03-.09-.07-.15-.13-.21l-.23-.2c-.64-.53-1.35-.96-2.07-1.33-1.45-.74-2.93-1.29-4.38-1.67-.72-.19-1.44-.35-2.13-.36-.69-.02-1.37,.14-1.88,.52-.52,.38-.85,.93-1.16,1.47-.3,.54-.59,1.07-.86,1.57-1.1,1.97-1.99,3.58-2.62,4.72-.3,.53-.55,.96-.73,1.28-.17,.29-.26,.44-.27,.43Z"/><path class="k" d="M54.3,199.64s.11-.01,.31,0c.24,0,.53,.02,.89,.03,.77,.04,1.89,.1,3.27,.23,1.38,.13,3.02,.32,4.82,.7,1.8,.37,3.75,.96,5.67,1.88,1.91,.93,3.61,2.07,4.99,3.29,1.36,1.24,2.42,2.57,3.03,3.83,.62,1.26,.88,2.38,.92,3.16,.06,.39,.01,.69,.02,.9,0,.2-.01,.31-.03,.31-.03,0-.02-.43-.11-1.19-.08-.76-.36-1.86-1-3.07-.63-1.22-1.67-2.5-3.02-3.71-1.37-1.2-3.05-2.3-4.93-3.23-1.89-.91-3.82-1.49-5.6-1.88-1.78-.39-3.41-.61-4.79-.76-1.37-.16-2.49-.26-3.26-.33l-.89-.09c-.2-.02-.31-.04-.31-.05Z"/><path class="k" d="M82.72,197.19s-.2,.75-.66,1.91c-.45,1.16-1.13,2.74-1.91,4.47-.76,1.69-1.45,3.21-1.99,4.43-.51,1.13-.83,1.84-.87,1.82-.04-.02,.2-.75,.66-1.91,.45-1.16,1.13-2.74,1.91-4.47,.76-1.69,1.45-3.21,1.99-4.43,.51-1.13,.83-1.84,.87-1.82Z"/><path class="k" d="M97.42,159.06c-.09,0-.16-3.07-.16-6.86s.07-6.86,.16-6.86,.16,3.07,.16,6.86-.07,6.86-.16,6.86Z"/><g class="l"><path d="M78.21,213.96c-6.99,2.44-11.71,8.78-13.62,15.93-.2,.75-.33,1.64,.17,2.23,.52,.61,1.51,.59,2.19,.18,.68-.41,1.13-1.11,1.56-1.79,3.37-5.39,6.65-10.38,9.7-16.54h0Z"/></g><g class="l"><path d="M69.54,200.14c-3.65-2.03-7.86-2.9-12.03-3.15-1.63-.1-3.26,.09-4.86,.43-2.18,.46-4.69,1.56-5.17,3.13,5.02-1.57,12.4-.54,17.53,.59,5.18,1.13,9.39,4.07,12.27,8.7-1.24-3.9-4.17-7.69-7.75-9.68Z"/></g><path class="k" d="M93.51,138.43s-.11-.27-.24-.76c-.13-.5-.34-1.21-.63-2.08-.57-1.74-1.53-4.1-2.95-6.52-1.42-2.41-3.02-4.4-4.27-5.75-.62-.68-1.14-1.21-1.51-1.56-.37-.36-.56-.57-.55-.58,.01-.02,.24,.16,.63,.49,.4,.33,.95,.84,1.59,1.5,1.3,1.32,2.94,3.3,4.38,5.74,1.43,2.44,2.37,4.84,2.89,6.61,.26,.89,.44,1.61,.54,2.12,.1,.51,.14,.79,.12,.79Z"/></g></g><path class="g" d="M103.27,245.85l-29.6-71.41c-1.35-3.26,.34-5.9,3.78-5.9h5.95c2.43,0,4.09-1.34,4.24-3.43l.2-2.63c.16-2.09,1.82-3.43,4.25-3.43h28.29c2.21,0,4.7,1.1,6.55,2.9l2.3,2.23c1.85,1.8,4.34,2.9,6.55,2.9h36.04c3.44,0,7.29,2.64,8.61,5.9l29.34,72.86H103.27Z"/><path class="h" d="M103.27,245.85l-29.6-71.41c-1.35-3.26,.34-5.9,3.78-5.9h5.95c2.43,0,4.09-1.34,4.24-3.43l.2-2.63c.16-2.09,1.82-3.43,4.25-3.43h28.29c2.21,0,4.7,1.1,6.55,2.9l2.3,2.23c1.85,1.8,4.34,2.9,6.55,2.9h36.04c3.44,0,7.29,2.64,8.61,5.9l29.34,72.86H103.27Z"/><path class="i" d="M98.38,221.6l-11.16-43.16c-.73-2.84,1.13-5.69,3.72-5.69h87.49c1.73,0,3.25,1.31,3.73,3.21l16.25,64.96c.71,2.85-.43,4.56-3.02,4.53l-88.03,.03c-1.71-.02-3.2-1.32-3.68-3.19l-5.29-20.69Z"/><g><path class="d" d="M104.42,243.89l-4.75-67.96c-.17-2.41,1.74-4.46,4.16-4.46h90.65v72.42H104.42Z"/><path class="e" d="M103.41,245.45l10.78-70.06c.5-2.28,2.55-3.91,4.93-3.91h91.7c3.62,0,6.06,3.64,4.63,6.91l-19.8,64.12-92.25,2.95Z"/></g><path class="h" d="M103.27,245.82l22.24-65.62c.93-2.73,3.41-4.56,6.19-4.56h94.54c3.05,0,5.19,3.12,4.22,6.13l-20.69,64.08-106.5-.03Z"/><g class="l"><path d="M148.98,234.83s-3.57,.16-5.22,.28c-7.84,.53-15.8-.88-22.97-4.07-2.22-.99-4.58-2.39-5.25-4.73-.75-2.62,.94-5.35,3.01-7.13,2.07-1.78,4.59-3.04,6.38-5.09,1.8-2.05,2.65-5.37,.88-7.45l-.49,.36c-1.28,3.24-4.84,4.8-7.79,6.66-5.48,3.44-9.65,8.9-11.54,15.09-1.04,3.4-1.32,7.36,.74,10.25,1.46,2.05,3.85,3.22,6.22,4.1,7.15,2.65,14.8,2.75,22.42,2.76,2.41,0,9.81-.1,9.81-.1,2.33-.63,3.09-1.84,4.49-3.81,1.29-1.8,1-5.7-.7-7.11Z"/></g><g><path class="c" d="M148.98,234.83l-24.66-3.71-9.57-5.51c-1.26-.73-2.12-2.02-2.2-3.48v-.08c-.08-1.82,1.03-3.47,2.71-4.17,3.04-1.28,7.85-2.98,9.9-6.58,2.95-5.17,0-6.24,0-6.24l-20.59,8.23-14.58,9.92-2.93,16.54,20.34,6.64s22.66,1.28,28.92,.58c6.25-.7,6.25-3.61,6.25-3.61,1.16-.36,3.51-2.42,3.51-4.35,3.03-2.85,2.91-4.19,2.91-4.19"/><path class="f" d="M117.44,241.95s.37,.04,1.02,.19c.64,.16,1.58,.36,2.74,.6,2.32,.47,5.56,.95,9.17,1.09,3.61,.14,6.88-.09,9.23-.38,1.18-.14,2.13-.27,2.78-.38,.66-.1,1.02-.14,1.03-.11s-.35,.12-1,.27c-.65,.16-1.59,.33-2.77,.51-2.35,.36-5.65,.64-9.29,.5-3.64-.15-6.9-.68-9.22-1.22-1.16-.27-2.09-.52-2.72-.73-.63-.2-.98-.32-.97-.35Z"/><path class="f" d="M119.69,238.14s.38,.04,1.03,.2c.65,.16,1.61,.37,2.79,.59,2.36,.46,5.66,.91,9.32,1.03,3.67,.11,6.99-.14,9.37-.43,1.19-.14,2.16-.28,2.82-.39,.67-.1,1.04-.15,1.04-.12,0,.03-.35,.13-1.01,.28-.66,.16-1.62,.34-2.81,.52-2.39,.37-5.73,.66-9.42,.56-3.69-.12-7.01-.62-9.37-1.16-1.18-.27-2.13-.52-2.77-.72-.65-.2-1-.33-.99-.35Z"/></g><polygon class="j" points="83.36 297.64 85.77 245.87 209.77 245.85 212.98 297.64 83.36 297.64"/></g><g id="b"/></svg>