<?xml version="1.0" encoding="UTF-8"?><svg xmlns="http://www.w3.org/2000/svg" viewBox="0 0 354.33 297.64"><defs><style>.c{fill:#f8bc9e;}.d{fill:#e9505b;}.e{fill:#f5f4f5;}.f{fill:#fbfbfb;}.g{fill:#ec9a6e;}.h{fill:#e0e0e0;}.i{fill:#455a64;}.j{fill:#263239;}.k{opacity:.4;}</style></defs><g id="a"><g><g><g><path class="j" d="M181.82,42.02c-1.13,2.92,.81,6.12,2.99,8.37,2.18,2.26,4.81,4.4,5.5,7.46,.57,2.57-.38,5.24-.15,7.86,.24,2.68,1.68,5.09,2.5,7.65,1.49,4.64,.89,9.71-.44,14.4-1.09,3.85-2.7,7.63-5.36,10.61-2.66,2.98-6.49,5.09-10.48,5.02-1.13-.02-2.36-.27-3.1-1.12-.64-.74-.78-1.78-.9-2.75-2.29-20.11-2.29-40.48,0-60.59"/><path class="j" d="M179.71,106.91c8.7-.38,16.74,7.95,16.05,16.63,8.81,2.14,15.03,11.84,13.31,20.74-.57,2.94-1.87,5.74-2.05,8.72-.2,3.26,.96,6.42,1.59,9.63,1.14,5.79,.52,11.91-1.74,17.36-1.37,3.31-3.93,6.73-7.51,6.83-2.43,.07-4.68-1.51-6.04-3.53-1.35-2.02-1.95-4.45-2.43-6.83-1.55-7.81-2.02-15.84-4.16-23.51-2.14-7.67-6.31-15.23-13.25-19.14-3.83-2.16-8.43-3.18-11.48-6.36-3.19-3.33-3.92-8.6-2.25-12.9,1.67-4.3,5.47-7.58,9.8-9.15"/><g><path class="j" d="M119.49,49.18c-.11-3.72,3.33-6.59,6.79-7.95,3.46-1.36,7.31-1.88,10.39-3.95,2.73-1.84,4.57-4.71,6.88-7.05,5.67-5.75,14.53-8.13,22.32-6.01,7.79,2.13,14.21,8.68,16.18,16.51,1.33,5.29,.42,11.55-3.75,15.07-4.84,4.08-12.02,3.18-18.23,1.91-6.21-1.27-13.23-2.52-18.41,1.12-3.12,2.2-4.92,5.77-6.83,9.08-1.91,3.31-4.31,6.69-7.92,7.93-3.61,1.24-8.52-.9-8.66-4.72"/><g><g><path class="c" d="M134.15,49.95c-3.21,.35-5.62,3.09-5.55,6.32h0l3.71,84c.16,9.92,14.66,15.5,25.28,15.25h0c10.73-.25,11.07-5.51,11.21-14.95,.22-15.77,.21-21.69,.21-21.6,0,0,13.55-2.28,16.32-19.97,1.38-8.8,.9-23.22,.13-35-.69-10.61-7.75-23.61-18.32-22.47l-32.99,8.42Z"/><g><path class="j" d="M182.41,75.1c.05,1.2-.93,2.22-2.18,2.29-1.25,.07-2.3-.84-2.34-2.04-.04-1.2,.93-2.22,2.18-2.29,1.25-.07,2.3,.84,2.35,2.04Z"/><path class="j" d="M182.35,71.51c-.28,.3-2-.97-4.44-.96-2.44-.02-4.23,1.24-4.49,.94-.13-.13,.16-.67,.93-1.24,.77-.57,2.07-1.12,3.59-1.12,1.52,0,2.8,.56,3.54,1.13,.75,.57,1.01,1.11,.87,1.24Z"/></g><g><path class="j" d="M158.96,75.1c.05,1.2-.93,2.22-2.18,2.29-1.25,.07-2.3-.84-2.34-2.04-.04-1.2,.93-2.22,2.18-2.29,1.25-.07,2.3,.84,2.34,2.04Z"/><path class="j" d="M158.36,72.02c-.28,.3-2-.97-4.44-.96-2.44-.02-4.23,1.24-4.49,.94-.13-.13,.15-.67,.93-1.24,.77-.57,2.07-1.12,3.59-1.12,1.52,0,2.8,.56,3.54,1.13,.75,.57,1.01,1.11,.87,1.24Z"/></g><path class="j" d="M167.25,90.1c-.01-.14,1.5-.4,3.96-.72,.62-.07,1.21-.19,1.32-.62,.15-.45-.12-1.12-.42-1.85-.59-1.51-1.21-3.09-1.85-4.74-2.57-6.75-4.44-12.3-4.17-12.4,.27-.1,2.58,5.29,5.16,12.04,.62,1.66,1.21,3.25,1.78,4.77,.24,.71,.64,1.51,.33,2.45-.17,.47-.62,.8-1.02,.91-.4,.12-.75,.13-1.06,.15-2.47,.14-4.01,.15-4.02,.01Z"/><path class="g" d="M169,118.97s-11.9,.79-23.7-6.27c0,0,5.77,12.14,23.47,10.44l.23-4.18Z"/><path class="g" d="M166.24,95.98c-.88-1.16-2.42-1.79-3.95-1.62-1.06,.12-2.13,.63-2.77,1.49-.64,.86-.77,2.09-.19,2.91,.66,.92,2.04,1.14,3.2,.8,1.16-.33,2.16-1.1,3.12-1.87,.26-.21,.53-.43,.7-.72,.16-.29,.2-.67,0-.91"/><path class="j" d="M160.08,91.8c.4-.02,.41,2.63,2.68,4.5,2.27,1.88,5.09,1.58,5.11,1.95,.04,.17-.63,.52-1.82,.55-1.17,.04-2.88-.33-4.27-1.48-1.39-1.15-1.98-2.69-2.08-3.77-.1-1.11,.19-1.76,.37-1.75Z"/></g><path class="j" d="M159.45,67.74c-.24,.66-2.68,.35-5.54,.71-2.87,.29-5.18,1.14-5.56,.54-.17-.28,.23-.91,1.16-1.55,.92-.64,2.4-1.26,4.12-1.45,1.72-.19,3.29,.08,4.34,.5,1.05,.42,1.58,.94,1.48,1.26Z"/><path class="j" d="M181.43,64.45c-.43,.56-2.11-.02-4.13-.04-2.02-.09-3.73,.38-4.13-.2-.17-.28,.1-.84,.84-1.36,.74-.52,1.97-.95,3.36-.92,1.39,.04,2.59,.54,3.3,1.11,.72,.57,.95,1.14,.76,1.41Z"/></g><path class="j" d="M121.8,108.13c4.86,.98,10.16-.51,13.79-3.89,3.63-3.38,5.51-8.55,4.89-13.47-.55-4.34-2.89-8.76-1.39-12.87,1.99-5.44,9.61-7.11,11.63-12.53,1.18-3.15,.12-6.84,1.45-9.93,1.25-2.91,4.31-4.58,7.28-5.65,2.97-1.08,6.16-1.82,8.66-3.76s4.06-5.61,2.44-8.33c-13.19,1.58-26.2,4.74-38.64,9.39-2.89,1.08-5.92,2.37-7.62,4.94-1.81,2.71-1.72,6.22-1.57,9.48,.74,15.88-1.68,30.75-.93,46.63"/></g><path class="i" d="M117.58,103.15s-.1-.02-.29-.09c-.19-.06-.46-.19-.81-.39-.67-.4-1.57-1.23-2.21-2.61-.63-1.36-1-3.26-.58-5.37,.42-2.11,1.64-4.28,3.21-6.42,1.55-2.16,3.51-4.35,4.85-7.14,.66-1.39,1.15-2.93,1.17-4.56,.03-1.63-.49-3.26-1.04-4.92-.56-1.65-1.11-3.45-1.04-5.35,.08-1.88,.62-3.78,1.61-5.46,.98-1.68,2.39-3.18,4.13-4.2,1.74-1.08,3.82-1.45,5.83-1.66,2.02-.23,4.03-.34,5.83-1.02,1.82-.65,3.23-2.04,4.1-3.69,.89-1.65,1.4-3.46,1.94-5.22,.53-1.76,1.16-3.48,1.99-5.05,1.63-3.15,3.93-5.78,6.63-7.45,2.7-1.67,5.71-2.35,8.4-2.18,2.7,.17,5.04,1.25,6.61,2.71,1.58,1.45,2.51,3.11,2.96,4.54,.46,1.43,.48,2.62,.41,3.4-.07,.78-.21,1.18-.21,1.18-.03,0,.07-.41,.1-1.18,.04-.77-.02-1.94-.5-3.33-.47-1.39-1.4-2.99-2.96-4.38-1.54-1.4-3.81-2.41-6.43-2.56-2.61-.15-5.53,.54-8.14,2.18-2.61,1.64-4.85,4.22-6.43,7.31-.81,1.54-1.42,3.22-1.94,4.98-.54,1.75-1.04,3.59-1.97,5.31-.46,.86-1.05,1.68-1.79,2.36-.73,.69-1.63,1.21-2.58,1.57-1.91,.71-3.96,.82-5.96,1.05-2,.21-3.97,.57-5.62,1.59-1.66,.97-3.01,2.4-3.96,4.01-.95,1.61-1.48,3.42-1.56,5.22-.06,1.8,.44,3.52,1,5.18,.55,1.66,1.08,3.35,1.04,5.08-.03,1.71-.55,3.32-1.24,4.74-1.39,2.86-3.39,5.04-4.95,7.17-1.58,2.11-2.79,4.22-3.23,6.27-.44,2.04-.11,3.9,.48,5.23,.59,1.35,1.44,2.18,2.08,2.6,.64,.43,1.05,.53,1.04,.57Z"/><path class="i" d="M168.98,26.04s.26,.03,.69,.21c.43,.18,1.02,.5,1.67,1.01,1.3,1,2.83,2.94,3.22,5.5,.38,2.57-.52,4.87-1.47,6.2-.48,.68-.95,1.16-1.3,1.46-.36,.29-.58,.42-.6,.4-.07-.07,.75-.69,1.59-2.06,.84-1.33,1.62-3.52,1.26-5.93-.36-2.4-1.75-4.27-2.94-5.3-1.2-1.06-2.16-1.41-2.12-1.5Z"/><path class="i" d="M208.16,147.4c-.06-.02,.31-.64,.51-1.87,.21-1.22,.11-3.09-.87-5.09-.95-2.01-2.94-3.92-5.58-5.2-1.32-.65-2.79-1.16-4.34-1.55-1.56-.4-3.21-.74-4.87-1.27-1.65-.53-3.26-1.25-4.47-2.44-1.25-1.15-1.85-2.78-2.11-4.25-.27-1.49-.36-2.9-.69-4.16-.32-1.26-.91-2.33-1.61-3.18-1.41-1.72-3.11-2.53-4.28-2.91-1.2-.36-1.9-.36-1.9-.41,0-.02,.18-.02,.51-.01,.33,.01,.82,.08,1.44,.23,1.21,.33,3,1.11,4.5,2.87,.74,.87,1.39,2,1.74,3.31,.36,1.31,.47,2.73,.75,4.17,.27,1.43,.82,2.9,1.99,3.97,1.12,1.1,2.66,1.8,4.27,2.31,1.62,.52,3.26,.86,4.84,1.27,1.58,.41,3.08,.94,4.43,1.61,2.71,1.33,4.76,3.36,5.7,5.47,.97,2.1,1.01,4.05,.73,5.29-.13,.63-.31,1.09-.45,1.39-.15,.3-.24,.45-.25,.44Z"/></g><path class="j" d="M131.24,116.09c-8.96-2.4-16.7-11.17-19.84-19.9-3.14-8.72-3.14-18.26-2.34-27.5,.58-6.7,1.76-13.77,6.2-18.82,6.7-7.6,13.95-11.48,24.08-11.16"/></g><g><path class="e" d="M183.54,135.59l-8.35-2.1c1.96-1.56,2.51-3.55,1.66-5.82-1-2.66-3.56-4.41-6.38-4.73l-38.08-4.3c-1.36-.15-2.69,.6-3.19,1.88-1.69,4.29-1.75,7.82-.17,10.6h-.18l-7.33,1.46-12.41,109.74,81.48-3.81-7.03-102.92Z"/><g><path class="j" d="M171.56,133.91s-.54,.14-1.53,.29c-.99,.16-2.43,.34-4.21,.51-3.57,.35-8.53,.57-13.99,.3-5.47-.28-10.38-.99-13.9-1.69-1.76-.35-3.17-.67-4.14-.93-.97-.25-1.5-.41-1.49-.44,0-.03,.56,.05,1.54,.25,.98,.2,2.4,.46,4.16,.76,3.52,.6,8.41,1.26,13.86,1.53,5.44,.27,10.38,.1,13.94-.15,1.78-.12,3.22-.25,4.22-.35,1-.09,1.55-.13,1.55-.09Z"/><path class="h" d="M134.73,151.35c-.12-.08,1.16-2.2,2.85-4.74,1.7-2.54,3.17-4.53,3.29-4.45,.12,.08-1.16,2.2-2.85,4.74-1.69,2.54-3.17,4.53-3.29,4.45Z"/><path class="h" d="M160.99,153.21c-.11,.09-1.73-1.74-3.62-4.09-1.89-2.35-3.32-4.32-3.21-4.41,.11-.09,1.73,1.74,3.62,4.09,1.89,2.35,3.32,4.32,3.21,4.41Z"/><path class="h" d="M148.79,167.15c-.14,.03-.69-2.42-1.23-5.46-.54-3.04-.86-5.52-.72-5.55,.14-.03,.69,2.42,1.23,5.46,.54,3.04,.86,5.52,.72,5.55Z"/><path class="h" d="M168.84,168.02c.1,.1-1.97,2.31-4.63,4.92-2.66,2.62-4.89,4.65-4.99,4.55-.1-.1,1.97-2.31,4.63-4.92,2.65-2.61,4.89-4.65,4.99-4.55Z"/><path class="h" d="M141.95,186.72c-.06,.11-2.55-1.4-4.98-3.99-2.45-2.58-3.81-5.14-3.69-5.2,.13-.09,1.67,2.31,4.07,4.84,2.39,2.54,4.69,4.22,4.6,4.35Z"/><path class="h" d="M150.59,201.15c.04,.15-2.28,.89-4.92,2.29-2.65,1.39-4.57,2.89-4.67,2.77-.09-.09,1.72-1.81,4.42-3.23,2.7-1.43,5.14-1.96,5.16-1.83Z"/><path class="h" d="M164.64,202.09c-.05,.04-.67-.6-1.59-1.71-.92-1.11-2.15-2.68-3.43-4.47-1.28-1.79-2.36-3.46-3.11-4.69-.75-1.23-1.16-2.02-1.1-2.06,.06-.04,.59,.68,1.41,1.86,.94,1.34,2.03,2.88,3.23,4.59,1.23,1.69,2.34,3.22,3.3,4.54,.85,1.16,1.36,1.89,1.3,1.94Z"/><path class="h" d="M166.05,214.41c.03,.14-2.65,.85-6.02,1.4-3.37,.56-6.13,.75-6.15,.61-.02-.15,2.71-.56,6.06-1.12,3.35-.55,6.07-1.03,6.1-.89Z"/><path class="h" d="M143.3,132.36c-.07-.06,.41-.6,.82-1.66,.42-1.05,.68-2.63,.43-4.34-.25-1.72-.85-3.2-1.29-4.26-.45-1.06-.74-1.72-.67-1.76,.06-.03,.47,.57,1.01,1.6,.53,1.04,1.21,2.54,1.47,4.35,.26,1.81-.08,3.49-.61,4.56-.53,1.08-1.12,1.56-1.16,1.52Z"/><path class="h" d="M158.52,124.14c.11-.07,1.05,1.3,1.5,3.28,.47,1.97,.24,3.62,.11,3.6-.15,0-.17-1.6-.62-3.48-.43-1.89-1.13-3.32-.99-3.39Z"/></g></g><g><path class="c" d="M227.16,202.33l37.91-66.57,4.57-11.55s11.81-25.41,12.64-27.99c.95-2.99,2.62-3.25,3.7-2.82,1.68,.66,2.22,3.17,1.48,5.75-.26,.89-4.85,14.85-4.85,14.85,0,0,1.01-.95,3.92-2.91,2.91-1.96,8.25-1.9,13.18-.14,4.93,1.76,6.16,2.69,5.57,4.63-.24,.78-.88,1.27-1.58,1.57-1.15,.49-2.47,.48-3.65,.08-7.94-2.71-11.46,.87-11.46,.87l-.6,1.51s5.97-1.91,9.36,.79c.55,.44,.95,.93,1.24,1.45,2.11,.7,3.83,2.53,4.35,4.7,.54,2.26-.22,4.78-1.92,6.36-.81,.75-2.04,1.3-3.01,.76-.51-.29-.83-.81-1.14-1.31-.16-.26-.34-.53-.54-.75l-2.27,4s-5.57,8.71-7.57,12.77l-26.09,69.52c-3.62,9.64-14.43,14.44-24.01,10.65h0c-10.41-4.12-14.77-16.5-9.23-26.23Z"/><g><path class="c" d="M267.68,135.53c1.34,.87,3.19,.28,4.39-.77,1.21-1.04,2.02-2.47,3.15-3.59,3.38-3.37,9.03-3.69,12.24-7.22,.45-.49,.85-1.24,.46-1.78-.36-.5-1.11-.44-1.71-.32-5.17,1.02-10.34,2.05-15.51,3.07"/><path class="g" d="M270.7,124.92c-.01-.06,.57-.24,1.64-.5,1.07-.27,2.62-.62,4.55-1.05,2-.43,4.28-.91,6.76-1.44,.64-.13,1.29-.27,1.96-.4,.63-.08,1.42-.47,2.37,.08,.46,.29,.64,.95,.51,1.41-.11,.47-.34,.82-.61,1.14-.53,.58-1.1,1.1-1.75,1.54-2.58,1.79-5.41,2.52-7.67,3.7-1.14,.57-2.15,1.23-2.94,2.01-.8,.77-1.43,1.65-2.09,2.4-1.26,1.58-2.95,2.36-4.11,2.31-1.19-.02-1.68-.58-1.64-.59,.04-.08,.56,.33,1.62,.24,1.06-.08,2.48-.81,3.64-2.37,.61-.75,1.21-1.66,2.05-2.52,.84-.87,1.91-1.6,3.09-2.21,2.33-1.26,5.15-2.04,7.53-3.7,.59-.4,1.12-.9,1.58-1.39,.43-.49,.59-1.09,.27-1.25-.31-.23-1.03-.09-1.69,.05-.67,.13-1.32,.25-1.96,.37-2.5,.46-4.79,.88-6.8,1.25-1.94,.34-3.51,.6-4.6,.77-1.09,.16-1.7,.22-1.71,.16Z"/></g><path class="g" d="M287.77,119.64c.1,.06,.31-1.24,1.78-2.4,.72-.57,1.78-.96,3-.98,1.22-.04,2.56,.25,3.95,.67,1.39,.41,2.76,.82,4.06,.92,1.3,.1,2.5-.07,3.41-.53,.93-.45,1.37-1.27,1.45-1.82,.09-.55,0-.85-.02-.85-.06,0-.05,.3-.2,.8-.15,.49-.57,1.14-1.41,1.5-.83,.36-1.96,.48-3.18,.36-1.23-.12-2.54-.53-3.95-.95-1.4-.42-2.82-.71-4.14-.64-1.31,.05-2.49,.54-3.23,1.2-.76,.65-1.16,1.38-1.35,1.89-.19,.52-.2,.82-.17,.83Z"/><path class="g" d="M287.72,98.15c-.08-.02-.41,1.05-.93,2.77-.59,1.91-1.29,4.2-2.07,6.72-.82,2.51-1.55,4.78-2.17,6.69-.56,1.71-.91,2.77-.83,2.8,.07,.03,.55-.98,1.22-2.66,.67-1.68,1.51-4.03,2.34-6.65,.83-2.62,1.49-5.03,1.91-6.78,.42-1.76,.61-2.86,.53-2.88Z"/><path class="g" d="M289.92,123.8s.34,0,.91-.06c.55-.04,1.48-.09,2.18,.59,.34,.32,.47,.83,.35,1.39-.1,.56-.41,1.13-.71,1.77-.3,.62-.61,1.43-.37,2.3,.25,.83,.94,1.5,1.78,1.79,.86,.3,1.78,.13,2.49-.25,.72-.39,1.3-.94,1.66-1.61,.64-1.3,.91-2.54,1.09-3.6,.16-1.06,.15-1.94,.03-2.53-.13-.6-.33-.88-.35-.86-.05,.02,.07,.32,.13,.89,.05,.57,0,1.41-.21,2.43-.22,1-.55,2.23-1.16,3.41-.6,1.08-2.1,2.03-3.49,1.57-.68-.23-1.23-.78-1.42-1.4-.19-.63,.03-1.3,.31-1.91,.27-.62,.6-1.24,.7-1.91,.13-.65-.08-1.39-.54-1.77-.92-.78-1.95-.61-2.5-.51-.59,.12-.89,.24-.88,.28Z"/><path class="g" d="M296.46,130.83s-.2,.26-.18,.81c.02,.53,.3,1.39,1.16,1.96,.84,.56,2.19,.66,3.37,.04,1.18-.62,2.09-1.83,2.55-3.24,.46-1.42,.41-2.9,0-4.12-.4-1.23-1.14-2.17-1.85-2.8-.72-.64-1.43-.98-1.93-1.16-.5-.18-.8-.21-.81-.17-.05,.1,1.14,.36,2.45,1.64,.64,.63,1.29,1.53,1.62,2.66,.35,1.12,.37,2.48-.04,3.78-.41,1.29-1.24,2.39-2.25,2.95-1,.56-2.16,.52-2.9,.09-.75-.43-1.07-1.16-1.15-1.63-.09-.49,0-.78-.05-.79Z"/><path class="g" d="M283.84,137.09s-.45-.31-1.34-.41c-.88-.1-2.21,.03-3.48,.83l.43,.29c.13-.61,.23-1.27,.29-1.96,.34-3.86-.89-6.84-1.01-6.76-.17,.04,.77,3,.43,6.71-.06,.67-.15,1.31-.25,1.9l-.12,.65,.55-.36c1.12-.75,2.33-.94,3.15-.95,.84,0,1.34,.13,1.36,.06Z"/><path class="g" d="M291.72,113.37c-.15,.02,.07,1.2,1.13,2.12,1.05,.93,2.25,.99,2.25,.84,.03-.17-.95-.46-1.87-1.27-.93-.79-1.35-1.74-1.51-1.68Z"/></g><g><g><path class="d" d="M173.38,257.57l39.64,.39-6.67-28.77,2.23,5.43c4.21,10.25,14.19,16.95,25.28,16.95h0c12.54,0,21.2-9.33,26.51-20.69,12.4-26.56,24.35-69.33,24.35-69.33l-24.18-21.24c-17.49,33.09-33.94,61.84-33.94,61.84,0,0-4.75-14.43-8.41-27.31-3.67-12.87-3.64-19.64-9.28-26.07-8.66-9.87-21.01-12.33-32.48-15.28l-.43,53.44-2.62,70.64"/><path class="d" d="M128.04,217.76l72.2,14.06,3.52,27.74H93.05c-12.84,.17-23.05-10.73-22.04-23.53,1.59-20.22,3.32-45.12,4.64-55.65,1.02-8.21,4.3-16.7,8.18-24.01,5.59-10.52,24.21-24.04,40.54-24.7l3.09,68.77"/></g><g class="k"><g><path d="M173.38,257.57l39.64,.39-6.67-28.77,2.23,5.43c4.21,10.25,14.19,16.95,25.28,16.95h0c12.54,0,21.2-9.33,26.51-20.69,12.4-26.56,24.35-69.33,24.35-69.33l-24.18-21.24c-17.49,33.09-33.94,61.84-33.94,61.84,0,0-4.75-14.43-8.41-27.31-3.67-12.87-3.64-19.64-9.28-26.07-8.66-9.87-21.01-12.33-32.48-15.28l-.43,53.44-2.62,70.64"/><path d="M128.04,217.76l65.12,11.95c2.71,.5,4.86,2.59,5.43,5.29l5.17,24.57H93.05c-12.84,.17-23.05-10.73-22.04-23.53,1.59-20.22,3.32-45.12,4.64-55.65,1.02-8.21,4.3-16.7,8.18-24.01,5.59-10.52,24.21-24.04,40.54-24.7l3.09,68.77"/></g></g><path class="j" d="M114.29,215.75s-.03-.23-.03-.66c0-.49,0-1.11,0-1.89,0-1.71,.02-4.07,.04-6.96,0-5.87-.1-13.98-.56-22.93-.22-4.47-.52-8.73-.83-12.6-.29-3.87-.63-7.35-1.45-10.16-.79-2.81-2.06-4.87-3.18-6.03-1.12-1.18-1.95-1.61-1.9-1.67,0,0,.86,.37,2.05,1.53,1.19,1.15,2.55,3.23,3.39,6.07,.88,2.84,1.26,6.36,1.58,10.22,.34,3.87,.64,8.14,.87,12.62,.46,8.96,.51,17.08,.41,22.96-.05,2.94-.13,5.32-.21,6.96l-.1,1.89c-.03,.43-.05,.66-.07,.66Z"/><path class="j" d="M198.84,233.79c-.06,.06-.72-1.03-2.63-2.13-.95-.54-2.19-1.05-3.69-1.47-1.5-.43-3.24-.76-5.17-1.15-7.71-1.57-18.37-3.76-30.17-5.97-11.81-2.21-22.54-3.99-30.31-5.23-3.85-.62-6.98-1.12-9.21-1.48-1.05-.18-1.88-.32-2.5-.42-.57-.1-.87-.16-.87-.18,0-.02,.31,0,.88,.08,.62,.08,1.46,.19,2.51,.32,2.18,.29,5.34,.73,9.23,1.31,7.79,1.15,18.53,2.87,30.35,5.09,11.81,2.21,22.46,4.45,30.15,6.12,1.92,.42,3.67,.78,5.18,1.23,1.51,.45,2.76,1,3.71,1.58,.95,.57,1.59,1.17,1.98,1.6,.21,.21,.33,.4,.42,.51,.09,.12,.13,.18,.12,.19Z"/><path class="j" d="M114.5,215.75c.02,.09-1.33,.41-3.39,1.24-1.03,.41-2.22,.99-3.49,1.72-1.26,.75-2.59,1.66-3.89,2.74-1.29,1.1-2.41,2.25-3.37,3.37-.94,1.13-1.72,2.2-2.3,3.14-1.18,1.88-1.72,3.16-1.81,3.12-.03-.01,.08-.34,.31-.93,.22-.59,.62-1.41,1.18-2.39,.55-.98,1.31-2.1,2.24-3.26,.95-1.15,2.09-2.34,3.4-3.46,1.33-1.1,2.7-2.02,3.99-2.76,1.31-.72,2.53-1.28,3.6-1.65,1.06-.38,1.94-.63,2.56-.75,.62-.13,.96-.18,.97-.15Z"/><path class="j" d="M207.74,233.04s-.07-.23-.15-.69c-.08-.51-.19-1.17-.33-1.99-.28-1.73-.64-4.23-1.06-7.33-.84-6.19-1.86-14.77-2.72-24.27-.85-9.5-1.38-18.13-1.65-24.37-.14-3.12-.23-5.65-.26-7.4-.01-.83-.02-1.5-.03-2.01,0-.46,0-.7,.02-.7,.02,0,.05,.24,.08,.7l.13,2.01c.1,1.8,.25,4.31,.43,7.39,.37,6.24,.95,14.85,1.8,24.34,.86,9.49,1.82,18.07,2.57,24.27,.37,3.06,.68,5.55,.9,7.34,.1,.83,.17,1.49,.23,2,.05,.46,.06,.7,.05,.7Z"/><path class="j" d="M231.68,222.28s-.23-.21-.58-.66c-.35-.44-.81-1.12-1.33-1.98-1.04-1.73-2.21-4.3-2.92-7.31-.7-3.02-.79-5.84-.63-7.85,.08-1.01,.19-1.82,.31-2.37,.11-.55,.19-.85,.23-.85,.09,.01-.11,1.24-.17,3.23-.07,1.99,.08,4.75,.76,7.71,.7,2.96,1.79,5.5,2.74,7.25,.94,1.76,1.66,2.77,1.59,2.82Z"/><path class="f" d="M114,178.6s-.13,.04-.37,.08c-.25,.02-.61,.1-1.09,.1-.95,.06-2.33,0-4.01-.31-1.68-.31-3.62-.92-5.69-1.78-2.07-.86-4.27-1.96-6.58-3.11-2.3-1.14-4.55-2.11-6.66-2.79-2.11-.67-4.08-1.06-5.75-1.12-3.36-.17-5.34,.74-5.36,.61,0-.02,.11-.07,.34-.16,.24-.08,.57-.24,1.04-.35,.91-.27,2.29-.49,4-.46,1.71,.02,3.73,.38,5.88,1.03,2.15,.66,4.43,1.63,6.74,2.78,2.31,1.15,4.49,2.26,6.53,3.13,2.04,.87,3.94,1.52,5.57,1.86,3.28,.73,5.4,.37,5.4,.49Z"/><path class="f" d="M126.36,176.16c.02,.14-2.61,.71-5.88,1.27-3.27,.56-5.95,.89-5.97,.75-.02-.14,2.61-.71,5.88-1.27,3.27-.56,5.95-.89,5.97-.75Z"/><path class="f" d="M113.55,197.63s-.51,.26-1.45,.63c-.95,.37-2.34,.87-4.07,1.43-3.46,1.13-8.34,2.45-13.82,3.42-2.74,.48-5.37,.83-7.77,1.07-2.39,.25-4.59,.38-6.42,.17-1.83-.18-3.27-.69-4.17-1.19-.45-.25-.78-.47-.99-.64-.21-.17-.31-.26-.3-.28,.03-.04,.48,.31,1.39,.74,.91,.43,2.31,.88,4.11,1,1.8,.15,3.95,0,6.33-.29,2.39-.26,5-.63,7.73-1.1,5.46-.96,10.32-2.22,13.8-3.26,1.74-.51,3.14-.96,4.11-1.27,.97-.31,1.51-.47,1.52-.44Z"/><path class="f" d="M126.08,202.9c0,.14-2.44,.3-5.45,.35-3.01,.05-5.45-.03-5.45-.17,0-.14,2.44-.3,5.45-.35,3.01-.05,5.45,.03,5.45,.17Z"/><path class="f" d="M74.62,248.45s.02-.19,.11-.53c.11-.4,.24-.9,.4-1.5,.09-.33,.19-.69,.3-1.08,.13-.39,.29-.8,.46-1.25,.35-.89,.68-1.94,1.24-3.01,.26-.55,.53-1.12,.81-1.71,.29-.59,.66-1.17,1.01-1.79,.67-1.26,1.56-2.49,2.46-3.82,1.9-2.57,4.24-5.22,7.01-7.67,2.81-2.41,5.76-4.35,8.56-5.88,1.43-.71,2.78-1.42,4.12-1.91,.66-.26,1.29-.54,1.92-.75,.63-.2,1.23-.39,1.81-.57,1.14-.4,2.22-.59,3.16-.81,.47-.1,.9-.21,1.31-.28,.4-.05,.77-.1,1.11-.15,.62-.08,1.13-.14,1.54-.19,.35-.04,.54-.05,.54-.03,0,.02-.18,.06-.53,.14-.41,.08-.91,.17-1.52,.29-.34,.06-.7,.12-1.1,.19-.4,.08-.83,.21-1.29,.32-.92,.25-1.99,.46-3.11,.88-.57,.19-1.16,.39-1.78,.6-.62,.21-1.23,.51-1.89,.77-1.32,.5-2.64,1.22-4.06,1.93-2.77,1.54-5.67,3.47-8.45,5.85-2.74,2.42-5.06,5.03-6.97,7.56-.9,1.3-1.79,2.51-2.47,3.75-.35,.61-.73,1.18-1.02,1.76l-.84,1.68c-.57,1.06-.93,2.08-1.3,2.96-.18,.44-.36,.85-.5,1.23-.12,.38-.24,.74-.34,1.06-.2,.59-.36,1.08-.49,1.47-.12,.33-.19,.51-.21,.5Z"/><path class="f" d="M124.77,217.74c.11,.09-2.19,1.5-4.11,5.16-.95,1.81-1.78,4.13-2.3,6.79-.53,2.66-.74,5.65-.95,8.79-.21,3.14-.44,6.16-1.02,8.85-.57,2.69-1.47,5.03-2.51,6.85-1.04,1.81-2.18,3.09-3.05,3.86-.44,.38-.79,.66-1.05,.83-.25,.17-.39,.26-.4,.24-.11-.09,2.22-1.46,4.18-5.1,.97-1.8,1.82-4.11,2.36-6.77,.55-2.66,.77-5.65,.97-8.79,.21-3.14,.43-6.16,1-8.85,.56-2.69,1.43-5.04,2.44-6.87,1.02-1.82,2.14-3.12,3-3.9,.43-.39,.78-.67,1.04-.84,.25-.18,.38-.26,.4-.25Z"/><path class="f" d="M141.84,259.73c-.14,0,.02-8.62,.37-19.24,.35-10.63,.75-19.23,.89-19.23,.14,0-.02,8.62-.37,19.25-.35,10.62-.75,19.23-.89,19.23Z"/><path class="f" d="M168.98,258.25s-.19-.43-.44-1.25c-.13-.41-.28-.91-.41-1.5-.13-.59-.31-1.26-.42-2.02-.28-1.5-.47-3.32-.53-5.34-.03-2.02,.08-4.25,.42-6.56,.37-2.31,.93-4.47,1.57-6.39,.67-1.91,1.39-3.59,2.11-4.94,.33-.69,.7-1.27,1.01-1.8,.3-.53,.59-.96,.84-1.31,.49-.7,.77-1.08,.8-1.06,.09,.06-.99,1.61-2.31,4.33-.67,1.36-1.35,3.03-1.98,4.92-.6,1.9-1.15,4.04-1.51,6.31-.34,2.28-.46,4.48-.45,6.47,.04,2,.18,3.79,.42,5.29,.44,2.99,1.01,4.8,.91,4.82Z"/><path class="f" d="M122.89,147.72c-.04,.09-1.58-.61-4.18-1.45-2.59-.84-6.26-1.74-10.4-2.11-4.14-.36-7.91-.12-10.61,.26-2.7,.37-4.34,.78-4.37,.69,0-.03,.39-.16,1.13-.37,.74-.21,1.82-.45,3.18-.69,2.7-.47,6.52-.78,10.71-.41,4.19,.38,7.89,1.35,10.47,2.28,1.29,.47,2.32,.89,3.01,1.23,.69,.33,1.07,.53,1.05,.56Z"/><path class="f" d="M201.88,189.77c0,.07-1.42,.03-3.71-.06-2.29-.09-5.45-.21-8.94-.3-3.49-.09-6.65-.12-8.94-.15-2.29-.03-3.71-.05-3.71-.13,0-.04,.35-.08,.99-.12,.64-.05,1.57-.09,2.71-.12,2.29-.07,5.46-.09,8.96,0,3.5,.09,6.66,.27,8.94,.45,1.14,.09,2.07,.18,2.7,.26,.64,.08,.99,.13,.99,.17Z"/><path class="f" d="M221.63,186.03c.03,.09-1.25,.52-3.2,1.48-1.95,.96-4.53,2.52-7,4.72-2.47,2.21-4.32,4.59-5.49,6.42-1.18,1.83-1.75,3.05-1.84,3.01-.03-.01,.09-.33,.33-.9,.23-.57,.64-1.36,1.2-2.31,1.11-1.9,2.95-4.37,5.46-6.61,2.52-2.24,5.18-3.78,7.19-4.66,1.01-.44,1.84-.76,2.43-.92,.59-.18,.92-.26,.93-.22Z"/><path class="f" d="M211.89,153.97c0,.13-2.04-.32-5.08,.71-1.52,.48-3.24,1.31-5.13,2.28-1.89,.96-3.97,2.09-6.34,2.85-4.74,1.55-9.37,1.42-12.53,.82-1.59-.3-2.85-.69-3.7-1-.84-.32-1.3-.54-1.28-.57,.03-.1,1.88,.7,5.04,1.2,3.14,.5,7.67,.57,12.31-.95,2.32-.74,4.38-1.84,6.28-2.78,1.9-.95,3.67-1.75,5.23-2.2,1.56-.47,2.89-.59,3.8-.54,.45,0,.8,.07,1.04,.1,.24,.04,.36,.07,.35,.08Z"/><path class="f" d="M206.9,221s-.4,.22-1.16,.54c-.38,.16-.85,.35-1.41,.53-.56,.18-1.19,.42-1.9,.6-1.42,.42-3.15,.78-5.09,1.06-1.94,.25-4.1,.39-6.36,.34-2.26-.08-4.41-.35-6.33-.72-1.92-.39-3.63-.86-5.02-1.36-.71-.22-1.32-.5-1.87-.71-.55-.21-1.01-.43-1.38-.61-.74-.36-1.14-.58-1.13-.61,.04-.09,1.69,.7,4.49,1.59,1.4,.45,3.09,.88,4.99,1.24,1.91,.33,4.02,.59,6.26,.67,2.23,.06,4.36-.07,6.29-.29,1.92-.25,3.64-.57,5.06-.94,2.84-.72,4.54-1.41,4.57-1.32Z"/><path class="f" d="M229.88,250.59s-.15-.1-.39-.32c-.23-.23-.61-.54-1.03-1.01-.87-.9-2.01-2.32-3.16-4.24-2.34-3.82-4.33-9.89-4.46-16.75-.12-6.85,1.22-12.95,2.27-17.26,.54-2.16,1.02-3.9,1.37-5.1,.17-.55,.3-1,.42-1.37,.1-.31,.16-.47,.18-.47,.02,0-.01,.18-.08,.5-.09,.38-.19,.84-.32,1.4-.3,1.29-.71,3.02-1.21,5.13-.96,4.33-2.23,10.39-2.11,17.17,.13,6.77,2.03,12.76,4.25,16.57,1.1,1.92,2.18,3.36,3,4.29,.81,.94,1.3,1.43,1.26,1.46Z"/><path class="f" d="M266.27,216.64c-.08,.12-1.72-1.69-5.29-2.97-1.77-.65-3.95-1.19-6.4-1.66-2.45-.5-5.18-.95-7.97-1.84-5.58-1.78-9.96-4.97-12.67-7.62-1.37-1.33-2.35-2.52-2.99-3.37-.33-.42-.55-.77-.71-1-.15-.23-.23-.36-.21-.37,.03-.02,.4,.43,1.08,1.24,.68,.8,1.71,1.94,3.09,3.23,2.74,2.56,7.09,5.64,12.58,7.39,2.73,.87,5.45,1.34,7.9,1.86,2.46,.5,4.66,1.09,6.44,1.79,1.78,.7,3.11,1.53,3.94,2.2,.44,.31,.72,.62,.93,.81,.2,.19,.3,.3,.29,.32Z"/><path class="f" d="M277.71,183.27s-.41-.31-1.07-.93c-.33-.31-.73-.69-1.23-1.11-.49-.42-1.03-.92-1.68-1.41-1.26-1.03-2.83-2.15-4.64-3.29-1.83-1.11-3.91-2.23-6.17-3.21-2.28-.96-4.52-1.69-6.59-2.25-2.08-.52-3.97-.89-5.58-1.09-.8-.13-1.53-.17-2.18-.24-.64-.07-1.2-.1-1.65-.12-.91-.05-1.41-.1-1.41-.13,0-.04,.5-.06,1.42-.07,.46-.01,1.02,0,1.66,.04,.65,.04,1.39,.06,2.2,.17,1.63,.16,3.55,.49,5.66,.99,2.1,.53,4.37,1.26,6.67,2.24,2.29,.99,4.39,2.14,6.22,3.28,1.82,1.17,3.39,2.34,4.62,3.41,.64,.51,1.16,1.03,1.64,1.48,.48,.44,.87,.84,1.18,1.18,.62,.67,.95,1.05,.93,1.07Z"/><path class="f" d="M190.21,137.36c.03,.06-.69,.44-1.9,.91-1.21,.48-2.92,1.05-4.85,1.5-1.94,.45-3.72,.7-5.02,.8-1.3,.1-2.1,.09-2.11,.02-.01-.16,3.18-.43,7.01-1.33,3.83-.88,6.81-2.05,6.87-1.91Z"/></g><g><path class="c" d="M225.68,278.21c.56,1.94-1.06,3.8-3.06,3.53h0c-1.08-.15-1.97-.91-2.29-1.96l-.84-3.15,.12,.04c.53,1.89-1.29,3.62-3.24,3.43h0c-1.32-.03-2.45-1.91-2.82-2.92h0c-2.18,.26-4.24-1.02-5.08-2.44l-5.87-9.16-10.87-7.95,6.57-23.49,23.4,15.14c.92,.71,1.06,1.02,2.52,2.37l15.1,13.88c-1.71,1.03-3.17,.95-5.54,0-2.37-.95-12.81-7.99-12.81-7.99l4.7,20.65"/><path class="g" d="M205.66,258.88s.27,.12,.7,.41c.24,.17,.5,.35,.77,.54,.3,.2,.66,.48,.97,.84,.31,.36,.6,.82,.79,1.36,.18,.52,.37,1.07,.57,1.64,.4,1.17,.83,2.44,1.28,3.76,.89,2.67,1.67,5.1,2.21,6.87,.54,1.77,.84,2.87,.77,2.89-.07,.02-.49-1.04-1.12-2.78-.63-1.74-1.46-4.14-2.36-6.81-.44-1.33-.85-2.59-1.24-3.77-.18-.57-.36-1.12-.53-1.65-.16-.49-.4-.92-.67-1.27-.27-.36-.57-.61-.86-.84l-.72-.61c-.39-.34-.59-.54-.57-.57Z"/><path class="g" d="M219.74,277.13s-.15-.34-.33-.97c-.21-.74-.46-1.64-.75-2.68-.63-2.26-1.49-5.39-2.58-8.8-1.1-3.4-2.23-6.46-3.6-8.33-.67-.94-1.37-1.57-1.92-1.91-.55-.34-.9-.44-.88-.49,0-.02,.1,0,.27,.04,.17,.03,.41,.13,.72,.28,.6,.3,1.38,.92,2.11,1.87,1.49,1.9,2.69,4.98,3.8,8.39,1.09,3.42,1.9,6.57,2.44,8.86,.27,1.15,.47,2.08,.59,2.72,.12,.65,.17,1.01,.14,1.02Z"/><path class="g" d="M225.78,278.55s-.18-.36-.41-1.05c-.25-.8-.56-1.77-.93-2.92-.76-2.47-1.78-5.89-2.87-9.67-1.05-3.73-2.01-7.1-2.74-9.7-.39-1.21-1.02-2.04-1.6-2.44-.57-.41-.98-.47-.97-.52,0-.01,.11-.02,.3,.02,.19,.04,.47,.13,.79,.33,.65,.37,1.39,1.24,1.83,2.49,.82,2.47,1.79,5.89,2.9,9.68,1.09,3.79,2.05,7.22,2.72,9.72,.3,1.16,.56,2.15,.77,2.96,.17,.7,.25,1.1,.21,1.11Z"/></g></g></g><g id="b"/></svg>