<?xml version="1.0" encoding="UTF-8"?><svg xmlns="http://www.w3.org/2000/svg" viewBox="0 0 354.33 297.64"><defs><style>.c{fill:#f8bc9e;}.d{fill:#ebebeb;}.e{fill:#fff;}.f{fill:#fbfbfb;}.g{fill:#ec9a6e;}.h{fill:#ee7160;}.i{fill:#8e3039;}.j{fill:#e0e0e0;}.k{fill:#455a64;}.l{fill:#263239;}.m{opacity:.3;}</style></defs><g id="a"><g><path class="c" d="M259.35,140.24l-1.62-1.03c-2.98-1.9-6.93-.87-8.63,2.23-2.61,4.76-5.85,11.4-5.85,11.4l6.86,10.86,2.3,.07c2.49,1.59,8.32-1.62,12.27-4.01,3.94-2.39,2-4.8,2-4.8,2.47-3.41-.94-4.81-.94-4.81,2.1-3.1-1-5.2-1-5.2"/><g><rect class="e" x="245.56" y="120.14" width="70.68" height="50.48" transform="translate(85.25 393.9) rotate(-79.15)"/><path class="l" d="M299.04,184.85s.03-.1,.08-.31c.05-.23,.11-.55,.2-.95,.17-.87,.43-2.13,.75-3.74,.65-3.32,1.6-8.13,2.79-14.2,2.38-12.26,5.76-29.63,9.75-50.16l.05-.26-.26-.05c-14.98-2.88-31.82-6.12-49.57-9.53h0l-.29-.06-.06,.29c-4.96,26-9.55,50.04-13.25,69.43l-.04,.24,.23,.04c15.08,2.84,27.5,5.17,36.18,6.81,4.29,.8,7.65,1.42,9.97,1.85,1.12,.2,1.99,.36,2.6,.47,.58,.1,.88,.14,.88,.14,0,0-.32-.08-.92-.2-.62-.12-1.5-.3-2.63-.53-2.32-.46-5.7-1.13-10-1.98-8.63-1.68-20.98-4.1-35.98-7.02l.19,.28c3.73-19.39,8.36-43.42,13.36-69.41l-.34,.23h0c17.75,3.39,34.6,6.61,49.58,9.47l-.21-.31c-3.87,20.48-7.14,37.81-9.45,50.04-1.14,6.11-2.04,10.95-2.67,14.29-.3,1.65-.53,2.92-.7,3.81-.07,.42-.13,.75-.17,.99-.04,.22-.05,.34-.05,.35Z"/></g><path class="l" d="M304.07,131.33c.03-.16-8.15-1.86-18.28-3.8-10.13-1.94-18.36-3.38-18.39-3.22-.03,.16,8.15,1.86,18.28,3.8,10.12,1.94,18.36,3.38,18.39,3.22Z"/><path class="l" d="M303.13,136.23c.03-.16-8.15-1.86-18.28-3.8-10.13-1.94-18.36-3.38-18.39-3.22-.03,.16,8.15,1.86,18.28,3.8,10.12,1.94,18.36,3.38,18.39,3.22Z"/><path class="l" d="M302.19,141.13c.03-.16-8.15-1.86-18.28-3.8-10.13-1.94-18.36-3.38-18.39-3.22-.03,.16,8.15,1.86,18.28,3.8,10.12,1.94,18.36,3.38,18.39,3.22Z"/><path class="l" d="M301.25,146.03c.03-.16-8.15-1.86-18.28-3.8-10.13-1.94-18.36-3.38-18.39-3.22-.03,.16,8.15,1.86,18.28,3.8,10.12,1.94,18.36,3.38,18.39,3.22Z"/><path class="l" d="M300.31,150.94c.03-.16-8.15-1.86-18.28-3.8-10.13-1.94-18.36-3.38-18.39-3.22-.03,.16,8.15,1.86,18.28,3.8,10.12,1.94,18.36,3.38,18.39,3.22Z"/><path class="l" d="M299.37,155.84c.03-.16-8.15-1.86-18.28-3.8-10.13-1.94-18.36-3.38-18.39-3.22-.03,.16,8.15,1.86,18.28,3.8,10.12,1.94,18.36,3.38,18.39,3.22Z"/><path class="l" d="M298.43,160.74c.03-.16-8.15-1.86-18.28-3.8-10.13-1.94-18.36-3.38-18.39-3.22-.03,.16,8.15,1.86,18.28,3.8,10.12,1.94,18.36,3.38,18.39,3.22Z"/><path class="l" d="M297.49,165.64c.03-.16-8.15-1.86-18.28-3.8-10.13-1.94-18.36-3.38-18.39-3.22-.03,.16,8.15,1.86,18.28,3.8,10.12,1.94,18.36,3.38,18.39,3.22Z"/><path class="l" d="M296.55,170.54c.03-.16-8.15-1.86-18.28-3.8-10.13-1.94-18.36-3.38-18.39-3.22-.03,.16,8.15,1.86,18.28,3.8,10.12,1.94,18.36,3.38,18.39,3.22Z"/><path class="l" d="M269.59,109.79s-.16,.43-.35,1.24c-.2,.93-.45,2.07-.75,3.41-.08,.36-.15,.74-.24,1.13-.08,.43-.07,.9,.07,1.36,.27,.91,1.11,1.73,2.19,1.9,1.06,.2,2.3-.32,2.88-1.36,.14-.26,.26-.54,.32-.83l.16-.8c.1-.54,.21-1.08,.31-1.63,.21-1.1,.41-2.18,.61-3.22,.1-.52,.19-1.03,.29-1.53,.09-.48,.21-1.02,.16-1.55-.08-1.05-.62-1.98-1.34-2.56-.72-.59-1.61-.83-2.38-.81-1.61,.05-2.62,1.08-3,1.8-.21,.37-.29,.69-.33,.91-.04,.22-.04,.33-.02,.34,.06,.02,.11-.46,.55-1.13,.41-.65,1.39-1.52,2.81-1.51,.69,.01,1.45,.25,2.07,.77,.61,.52,1.06,1.33,1.11,2.23,.04,.45-.06,.89-.17,1.41-.1,.5-.2,1.01-.3,1.53-.2,1.04-.41,2.12-.62,3.22-.11,.55-.21,1.1-.31,1.63-.05,.27-.1,.53-.15,.8-.05,.23-.13,.46-.25,.66-.46,.83-1.44,1.26-2.3,1.11-.87-.13-1.56-.77-1.81-1.52-.12-.37-.15-.76-.09-1.12,.07-.39,.13-.77,.2-1.14,.22-1.36,.41-2.51,.56-3.44,.12-.82,.17-1.27,.13-1.28Z"/><path class="c" d="M254.84,138.27c.37,.04,15.06,2.32,15.06,2.32,.26,1.35-.53,3.27-3.99,3.32-3.28,.05-6.24-.22-6.24-.22,0,0-3.63,7.58-7.21,8.42s-1.82-7.28-1.82-7.28h0l4.2-6.56Z"/></g><g><path class="l" d="M86.5,90.44c-1.27-2.97-2.56-6.03-2.68-9.27-.12-3.24,1.21-6.75,4.01-8.22,2.59-1.36,5.76-.72,8.51-1.7,3.39-1.2,5.52-4.62,7.03-7.97,1.5-3.35-.59-4.58,1.95-7.18,3.37-3.45,5.56-3.95,9.83-1.84,3.07-2.17,13.73-6.11,16.8-6.21,4.56-.14,9.75,.22,12.94,3.49,2.47,2.54,4.04,5.76,7.07,7.59,4.17,2.51,9.49,.38,14.36,.55,.99,.04,2.15,.29,2.56,1.19,.35,.78-.02,1.69-.39,2.46-1.25,2.62-2.51,5.23-3.76,7.85,2.04,.95,4.52,.89,6.51-.16-.22,5.12-2.3,10.15-5.78,13.92,.86-.61,2.16,.02,2.59,.99,.43,.97,.23,2.09-.04,3.11-1.69,6.27-6.21,11.72-12.05,14.55-5.84,2.83-12.91,3-18.88,.45l-26.82,2.02c-.74,2.09-2.53,3.75-4.62,4.3-3-2.22-3.48-3.47-3.48-3.47-1.85,1.38-.4,.68-1.85,1.38-3.33,1.59-8.24-.3-8.99-4-.31-1.55-.74-3.04-1.78-4.09-1.06-1.08-2.58-1.49-3.92-2.17-2.11-1.06-3.87-2.86-4.91-5.03,2.17,.02,4.34-.92,5.84-2.54Z"/><g><path class="c" d="M105.48,78.94l-.69,55.37c-.12,9.42,1.63,23.27,16.53,22.78h0c12.89-1.4,16.31-13.61,16.41-22.39,.05-4.17,.1-7.64,.13-8.07,0,0,14.11-1.15,15.3-15.09,.58-6.74,.63-20.71,.54-33.34-.1-13.57-10.63-24.79-24.17-25.77l-1.35-.1c-14.58-.21-22.9,12.05-22.71,26.63Z"/><path class="g" d="M137.86,126.62s-8.83-.13-17.77-6.7c0,0,3.69,10.51,17.7,10.27l.07-3.58Z"/></g><g><g><path class="l" d="M129.87,83.9c-.28,.28-1.89-1.01-4.22-1.08-2.33-.1-4.08,1.08-4.32,.78-.12-.13,.17-.65,.93-1.18,.75-.53,2.02-1.03,3.47-.98,1.45,.05,2.66,.64,3.35,1.22,.7,.59,.93,1.12,.8,1.24Z"/><path class="l" d="M130.29,89.09c-.04,1-.91,1.79-1.96,1.77-1.04-.02-1.86-.84-1.82-1.84,.04-1,.91-1.79,1.95-1.77,1.04,.02,1.86,.84,1.82,1.84Z"/><path class="l" d="M135.72,100.14c0-.12,1.35-.26,3.53-.37,.55-.02,1.08-.09,1.2-.45,.16-.39-.03-.99-.25-1.65-.42-1.36-.86-2.79-1.31-4.29-1.81-6.1-3.09-11.1-2.84-11.17,.25-.07,1.92,4.82,3.73,10.91,.43,1.5,.85,2.94,1.24,4.31,.16,.64,.47,1.37,.13,2.17-.18,.4-.6,.67-.96,.73-.36,.08-.67,.07-.94,.06-2.18-.04-3.53-.13-3.53-.25Z"/></g><path class="l" d="M128.88,75.12c-.23,.52-2.1,.13-4.33,.24-2.24,.07-4.08,.61-4.34,.11-.11-.24,.23-.72,.99-1.18,.75-.46,1.93-.87,3.28-.92,1.34-.05,2.55,.25,3.33,.65,.79,.4,1.17,.85,1.07,1.09Z"/><path class="l" d="M151.06,79.44c-.24,.42-2.07-.05-4.28-.11-2.21-.11-4.04,.21-4.27-.23-.1-.21,.26-.59,1.03-.92,.76-.34,1.94-.59,3.27-.54,1.32,.05,2.49,.4,3.25,.8,.76,.4,1.11,.8,1,1.01Z"/></g><path class="c" d="M105.87,89.35c-.23-.12-9.38-3.53-9.77,6.02-.39,9.56,9.29,7.98,9.31,7.71s.46-13.73,.46-13.73Z"/><path class="g" d="M102.64,99.34s-.17,.11-.46,.23c-.28,.11-.76,.18-1.25-.03-.99-.41-1.78-2.05-1.76-3.78,.01-.87,.23-1.69,.56-2.37,.32-.69,.79-1.16,1.31-1.23,.51-.1,.86,.22,.96,.5,.12,.27,.05,.46,.1,.48,.03,.02,.21-.15,.15-.55-.03-.19-.13-.42-.35-.61-.22-.2-.56-.3-.91-.28-.74,.02-1.43,.67-1.8,1.41-.41,.74-.67,1.66-.69,2.64-.02,1.93,.89,3.77,2.26,4.23,.67,.2,1.23,.02,1.53-.19,.31-.22,.36-.44,.33-.45Z"/><path class="l" d="M133.46,106.76c.1-.24-1.77-.8-3.09-2.56-.66-.86-1.04-1.81-1.32-2.5-.28-.69-.49-1.13-.59-1.1-.1,.03-.07,.5,.08,1.26,.16,.75,.49,1.81,1.23,2.8,.73,.99,1.72,1.58,2.44,1.87,.73,.3,1.22,.31,1.25,.23Z"/><path class="l" d="M93.15,73.87c1.99-3.37,2.46-7.39,3.54-11.16,1.09-3.76,3.18-7.66,6.87-8.97l.08,.04c3.31-1.33,7.4-1.35,10.12,.95,.67-4.97,5.03-8.9,9.88-10.18,4.85-1.27,12.63-.51,17.28,1.36,3.6,1.45,7.07,4.41,11.3,8.77,1.78,1.84,3.42,3.81,4.88,5.91l4.22,13.02c.46,.33,.85,.74,1.19,1.19,1.68,2.29-1.46,5.16-3.58,3.28l-.04-.03c-.43,.74-.76,1.49-1.1,2.23v.02l-.07,.14c-.22,.46-.44,.93-.71,1.39v-.03l-3.26,14.39c-.21-3.92,.08-17.58-.13-21.5-6.06-.26-11.54-2.71-15.6-7.2-2.14-2.37-3.83-5.35-6.7-6.77-3.7-1.83-8.1-.5-12,.86l.17-.15c-2.03,.94-3.87,2.27-5.4,3.9,.88,7.73,.07,15.64-2.36,23.03-.37,1.11-1.36,3.41-2.46,3.83-2.15,.83-2.72-1.36-4.02-2.52-.95-.85-2.36-.97-3.9-.96-.91-2.38-1.84-6.4-2.62-9.92-1.3,.39-2.68,.5-4.01,.27,.41-.99,.82-1.97,1.23-2.96-.54,.34-1.09,.69-1.72,.78-.63,.09-1.35-.14-1.63-.71-.36-.73,.13-1.58,.55-2.28Z"/><path class="k" d="M118.16,56.33s-.58,.37-1.4,1.28c-.81,.91-1.71,2.48-2.14,4.63-.22,1.07-.36,2.26-.36,3.54,0,1.28,.1,2.66,.2,4.11,.09,1.45,.2,2.98,.1,4.57-.05,.79-.14,1.6-.31,2.41-.18,.79-.38,1.66-.98,2.34-.48,.56-1.28,.8-1.97,.66-.7-.12-1.32-.49-1.77-1-.9-1.05-1.12-2.38-1.34-3.55l.29,.04c-.48,1.05-.97,2.09-1.7,2.92-.72,.83-1.71,1.39-2.71,1.48-.5,.05-1.01-.04-1.44-.25-.44-.21-.76-.58-.98-.96-.21-.39-.32-.82-.3-1.24,.02-.41,.19-.81,.45-1.08l.15,.13c-1.08,1.22-2.21,1.88-3,2.25-.4,.18-.71,.29-.93,.36-.22,.06-.33,.09-.33,.08,0,0,.11-.05,.31-.13,.21-.09,.52-.21,.9-.4,.76-.39,1.86-1.07,2.89-2.28l.15,.13c-.47,.5-.5,1.37-.09,2.07,.2,.35,.5,.67,.88,.85,.38,.19,.84,.26,1.3,.21,.92-.09,1.85-.61,2.52-1.4,.69-.79,1.16-1.8,1.63-2.86l.2-.45,.09,.48c.22,1.17,.46,2.44,1.28,3.39,.41,.45,.97,.79,1.58,.89,.61,.12,1.26-.08,1.67-.56,.52-.59,.74-1.41,.91-2.19,.17-.79,.26-1.58,.31-2.36,.1-1.57,0-3.09-.09-4.53-.09-1.45-.18-2.83-.17-4.13,.01-1.3,.16-2.51,.4-3.59,.46-2.17,1.42-3.77,2.27-4.67,.86-.9,1.49-1.19,1.49-1.19Z"/><path class="k" d="M161.29,69.89s-.03,.04-.11,.1c-.09,.07-.21,.15-.35,.25-.15,.11-.35,.25-.59,.38-.24,.14-.52,.31-.85,.45-1.29,.62-3.37,1.23-5.97,1.07-2.57-.14-5.66-1.06-8.41-3.11-2.79-2-5.23-4.95-7.23-8.33-1.01-1.69-1.84-3.42-2.75-5.02-.91-1.6-1.9-3.08-3.12-4.24-1.2-1.17-2.59-2.04-4.02-2.44-.71-.21-1.43-.26-2.12-.24-.69,.04-1.34,.18-1.94,.37-1.2,.4-2.17,1.07-2.91,1.75-.74,.69-1.23,1.42-1.57,2.04-.63,1.28-.67,2.1-.72,2.09,0,0,0-.05,.01-.15,.02-.12,.04-.26,.07-.43,.07-.37,.23-.91,.53-1.57,.33-.64,.82-1.4,1.56-2.12,.74-.71,1.72-1.41,2.96-1.84,.62-.21,1.29-.36,2-.41,.71-.02,1.46,.02,2.2,.23,1.49,.4,2.92,1.29,4.15,2.48,1.25,1.19,2.27,2.69,3.18,4.3,.92,1.61,1.75,3.34,2.75,5.01,1.98,3.35,4.39,6.27,7.13,8.26,2.71,2.03,5.72,2.95,8.25,3.12,2.55,.18,4.6-.39,5.9-.96,1.31-.58,1.93-1.1,1.95-1.06Z"/><path class="k" d="M162.56,63.77s-.17,.14-.5,.35c-.33,.21-.84,.47-1.48,.75-.64,.28-1.44,.55-2.34,.77-.91,.21-1.92,.36-3,.4-1.08,.03-2.1-.06-3.02-.2-.92-.16-1.73-.38-2.39-.62-.66-.24-1.18-.46-1.53-.66-.35-.18-.53-.3-.52-.32,.03-.06,.8,.34,2.12,.75,.66,.21,1.46,.4,2.36,.54,.9,.13,1.91,.2,2.96,.18,1.05-.04,2.05-.18,2.94-.36,.89-.2,1.68-.44,2.32-.69,1.29-.49,2.04-.94,2.07-.89Z"/><path class="l" d="M151.16,84.78c-.28,.28-1.89-1.01-4.22-1.08-2.33-.1-4.08,1.08-4.32,.78-.12-.13,.17-.65,.93-1.18,.75-.53,2.02-1.03,3.47-.99,1.45,.05,2.66,.64,3.35,1.22,.7,.59,.93,1.12,.8,1.24Z"/><path class="l" d="M149.84,89.4c-.04,1-.91,1.79-1.96,1.77-1.04-.02-1.86-.84-1.82-1.84,.04-1,.91-1.79,1.95-1.77,1.04,.02,1.86,.84,1.82,1.84Z"/></g><g><path class="k" d="M160.43,141.19l50.43,33,30.73-23.96,9.57,15.16s-17.89,20.7-24.52,27.73c-6.63,7.03-11.05,10.79-16.27,10.11-5.22-.67-48.89-17.64-48.89-17.64l-6.62-46.3,2.78,.67c1,.24,1.94,.65,2.8,1.21Z"/><path class="k" d="M104.14,129.91c11.28,7.09,22.66,9.76,34.17,5.17l17.31,4.42,8.42,14.63c1.32,2.3,1.93,4.95,1.73,7.59l-3.31,56,10.2,35.57-99.87,.87,4.92-26.43,12.38-94.97,14.05-2.86Z"/><g><path class="k" d="M88.87,175.39l3.12-42.88s-23.51,2.18-31.29,18.76c-6.56,13.98-26.23,54.6-28.17,60.35-5.68,16.88,4.77,41.51,41.38,40.16l4.17-22.95,10.78-53.46Z"/><path class="l" d="M70.1,211.09s-.18,.66-.58,1.69c-.4,1.03-1,2.43-1.69,3.96l-1.76,3.92c-.45,1-.73,1.63-.77,1.61-.03-.01,.18-.66,.58-1.69,.4-1.03,1-2.43,1.69-3.96,.67-1.49,1.28-2.84,1.76-3.92,.45-1,.73-1.63,.77-1.61Z"/><path class="l" d="M83.11,177.34c-.08,0-.14-2.72-.14-6.07s.06-6.07,.14-6.07,.14,2.72,.14,6.07-.06,6.07-.14,6.07Z"/><path class="l" d="M79.65,159.08s-.09-.24-.22-.68c-.12-.44-.3-1.07-.56-1.84-.51-1.54-1.36-3.63-2.61-5.77-1.26-2.14-2.67-3.89-3.78-5.09-.55-.6-1.01-1.07-1.34-1.38-.33-.32-.5-.5-.49-.52,.01-.01,.21,.14,.56,.44,.35,.29,.84,.74,1.41,1.33,1.15,1.17,2.6,2.92,3.87,5.08,1.27,2.16,2.1,4.28,2.56,5.85,.23,.78,.39,1.43,.48,1.88,.09,.45,.13,.7,.11,.7Z"/></g><path class="l" d="M162.58,156.43s-.09,.5-.13,1.4c-.06,.9-.07,2.21-.04,3.83,.04,3.24,.38,7.69,.77,12.6,.39,4.91,.58,9.35,.5,12.57-.04,1.61-.09,2.91-.17,3.81-.06,.9-.08,1.4-.04,1.41,.04,0,.13-.49,.26-1.38,.14-.89,.27-2.2,.36-3.82,.19-3.23,.07-7.72-.33-12.63-.39-4.91-.79-9.35-.94-12.57-.08-1.61-.13-2.91-.14-3.81-.02-.9-.06-1.4-.1-1.4Z"/><path class="l" d="M55.12,218.97s.56,.35,1.61,.9c1.05,.55,2.55,1.39,4.36,2.47,1.82,1.08,3.97,2.43,6.47,3.72,1.25,.65,2.58,1.29,3.99,1.9,1.41,.58,2.87,1.19,4.37,1.81,.46,.19,.92,.38,1.34,.55l-.18-.32c-.96,6.07-1.79,11.51-2.36,15.43l-.64,4.64c-.14,1.09-.2,1.7-.16,1.7,.04,0,.17-.59,.38-1.67,.21-1.18,.49-2.73,.83-4.61,.67-3.91,1.57-9.33,2.54-15.4l.04-.23-.22-.09c-.43-.17-.88-.36-1.34-.55-1.49-.61-2.95-1.21-4.37-1.79-1.4-.6-2.72-1.23-3.97-1.85-2.5-1.26-4.66-2.56-6.51-3.6-1.85-1.05-3.39-1.83-4.47-2.32-.54-.25-.97-.43-1.26-.55-.29-.12-.45-.17-.46-.15Z"/><path class="l" d="M49.79,211.63c-.02,.1,1.18,.33,3.02,1.01,1.83,.67,4.26,1.9,6.56,3.79,2.29,1.9,3.96,4.05,4.97,5.72,1.02,1.67,1.47,2.81,1.57,2.77,.04-.01-.05-.31-.23-.83-.17-.53-.5-1.27-.98-2.14-.94-1.76-2.6-4.02-4.96-5.97-2.36-1.94-4.9-3.14-6.8-3.73-.95-.3-1.74-.48-2.29-.55-.55-.08-.86-.11-.86-.07Z"/></g><g><g><path class="h" d="M87.84,253.71l-24.54-59.21c-1.12-2.7,.28-4.89,3.14-4.89h4.94c2.01,0,3.39-1.11,3.52-2.84l.16-2.18c.13-1.73,1.51-2.84,3.52-2.84h23.46c1.83,0,3.89,.91,5.43,2.4l1.9,1.84c1.54,1.49,3.6,2.4,5.43,2.4h29.88c2.85,0,6.05,2.19,7.14,4.89l24.33,60.42H87.84Z"/><path class="i" d="M87.84,253.71l-24.54-59.21c-1.12-2.7,.28-4.89,3.14-4.89h4.94c2.01,0,3.39-1.11,3.52-2.84l.16-2.18c.13-1.73,1.51-2.84,3.52-2.84h23.46c1.83,0,3.89,.91,5.43,2.4l1.9,1.84c1.54,1.49,3.6,2.4,5.43,2.4h29.88c2.85,0,6.05,2.19,7.14,4.89l24.33,60.42H87.84Z"/><path class="j" d="M83.78,233.6l-9.26-35.78c-.61-2.36,.93-4.72,3.08-4.72h72.54c1.43,0,2.69,1.09,3.09,2.67l13.47,53.86c.59,2.37-.35,3.78-2.5,3.76l-72.99,.02c-1.41-.02-2.65-1.09-3.05-2.64l-4.39-17.16Z"/><g><path class="d" d="M88.8,252.09l-3.94-56.35c-.14-2,1.44-3.7,3.45-3.7h75.16v60.05H88.8Z"/><path class="f" d="M87.96,253.38l8.94-58.09c.41-1.89,2.12-3.24,4.09-3.24h76.04c3,0,5.03,3.02,3.84,5.73l-16.42,53.16-76.49,2.45Z"/></g><path class="i" d="M87.84,253.68l18.44-54.41c.77-2.27,2.82-3.78,5.13-3.78h78.39c2.53,0,4.31,2.59,3.5,5.08l-17.15,53.13-88.31-.03Z"/></g><g class="m"><path d="M125.74,244.57s-2.96,.14-4.32,.23c-6.5,.44-13.1-.73-19.05-3.38-1.84-.82-3.8-1.98-4.35-3.92-.62-2.17,.78-4.44,2.5-5.91,1.72-1.47,3.8-2.52,5.29-4.22,1.49-1.7,2.2-4.45,.73-6.18l-.41,.3c-1.06,2.69-4.01,3.98-6.46,5.52-4.54,2.85-8,7.38-9.57,12.51-.86,2.82-1.09,6.1,.62,8.5,1.21,1.7,3.2,2.67,5.15,3.4,5.93,2.2,12.27,2.28,18.59,2.29,2,0,8.13-.08,8.13-.08,1.93-.52,2.56-1.53,3.73-3.16,1.07-1.49,.83-4.73-.58-5.9Z"/></g><g><path class="c" d="M125.74,244.57l-20.44-3.07-7.94-4.57c-1.05-.6-1.76-1.68-1.82-2.88v-.07c-.07-1.51,.85-2.88,2.24-3.46,2.52-1.06,6.51-2.47,8.21-5.45,2.45-4.28,0-5.17,0-5.17l-17.07,6.83-12.09,8.23-2.43,13.72,16.86,5.51s18.79,1.06,23.98,.48c5.19-.58,5.19-3,5.19-3,.96-.3,2.91-2.01,2.91-3.6,2.52-2.36,2.41-3.47,2.41-3.47"/><path class="g" d="M99.59,250.48s.31,.04,.84,.16c.53,.13,1.31,.3,2.27,.49,1.92,.39,4.61,.79,7.61,.91,2.99,.11,5.7-.08,7.65-.31,.97-.12,1.76-.23,2.31-.32,.54-.08,.85-.12,.85-.09,0,.02-.29,.1-.83,.23-.54,.13-1.32,.28-2.3,.43-1.95,.3-4.68,.53-7.7,.42-3.02-.12-5.72-.56-7.64-1.01-.96-.22-1.73-.43-2.26-.6-.53-.17-.81-.27-.81-.29Z"/><path class="g" d="M101.46,247.32s.31,.04,.86,.16c.54,.13,1.33,.3,2.31,.49,1.96,.38,4.69,.76,7.73,.85,3.04,.09,5.79-.11,7.77-.36,.99-.12,1.79-.23,2.34-.32,.55-.09,.86-.12,.86-.1,0,.02-.29,.1-.84,.23-.54,.13-1.34,.28-2.33,.43-1.98,.31-4.75,.55-7.81,.46-3.06-.1-5.81-.52-7.77-.96-.98-.22-1.76-.43-2.3-.6-.53-.17-.83-.27-.82-.29Z"/></g></g></g><g id="b"/></svg>