<?xml version="1.0" encoding="UTF-8"?><svg xmlns="http://www.w3.org/2000/svg" viewBox="0 0 354.33 297.64"><defs><style>.c{fill:#a56a5f;}.d{fill:#455a64;}.e{fill:#263239;}.f{fill:#83544c;}</style></defs><g id="a"><g><path class="c" d="M292.39,212.53s6.72-8.8,9.88-9.14c3.16-.35,22.95,.35,25.73,0,2.78-.35,18.43-6.95,18.43-6.95,0,0,2.78,.94,2.43,3.42-.35,2.49-17.73,11.87-19.82,12.22-2.09,.35-18.77,1.57-18.77,1.57l-4.19,7.56-13.69-8.69Z"/><g><path class="e" d="M234.79,101.73c3.39-1.52,5.84-4.95,6.18-8.65,.34-3.7-1.45-7.52-4.5-9.63l-12.2-4.1c-1.76,15.75-3.64,31.5-5.61,47.22,3.28-.17,6.68-.72,9.37-2.59,2.7-1.88,4.48-5.39,3.47-8.52,2.66-.9,4.79-3.23,5.44-5.96,.65-2.73-.18-5.77-2.15-7.78Z"/><g><g><path class="c" d="M174.95,92.49l.46-5.61,34.27-2.96c10.48-.04,20.63,11.5,20.22,21.97-.45,11.63-1.46,25.82-3.71,34.3-4.52,17.06-18.04,17.91-18.04,17.91l-1.21,17.19c-.91,10.02-9.56,11.36-19.58,10.47h0c-9.8-.88-17.13-9.36-16.58-19.18l4.17-74.08Z"/><g><path class="e" d="M224.47,118.22c-.08,1.18-1.14,2.08-2.37,2.02-1.23-.06-2.17-1.06-2.09-2.24,.08-1.18,1.14-2.09,2.37-2.03,1.23,.06,2.17,1.06,2.09,2.24Z"/><path class="e" d="M225.48,112.88c-.3,.26-1.86-1.16-4.26-1.4-2.39-.27-4.27,.78-4.5,.46-.11-.14,.22-.64,1.04-1.12,.81-.48,2.15-.89,3.64-.73,1.49,.16,2.69,.84,3.35,1.47,.68,.64,.87,1.19,.72,1.31Z"/></g><g><path class="e" d="M202.11,116.81c-.08,1.18-1.14,2.08-2.37,2.02-1.23-.06-2.17-1.06-2.09-2.24,.08-1.18,1.14-2.09,2.37-2.03,1.23,.06,2.17,1.06,2.09,2.24Z"/><path class="e" d="M201.91,110.92c-.31,.26-1.87-1.16-4.26-1.39-2.39-.27-4.27,.78-4.5,.46-.11-.14,.22-.64,1.04-1.12,.81-.48,2.15-.89,3.64-.73,1.49,.16,2.69,.84,3.35,1.47,.68,.64,.87,1.19,.73,1.31Z"/></g><path class="e" d="M208.79,129.56c0-.14,1.52-.24,3.96-.3,.62,0,1.21-.06,1.35-.47,.19-.43,0-1.11-.22-1.85-.42-1.54-.87-3.15-1.33-4.84-1.83-6.88-3.09-12.52-2.82-12.59,.28-.07,1.99,5.45,3.82,12.33,.44,1.7,.86,3.31,1.25,4.86,.16,.72,.48,1.55,.07,2.43-.21,.44-.69,.73-1.1,.79-.4,.08-.75,.05-1.05,.04-2.44-.12-3.95-.26-3.94-.4Z"/><path class="f" d="M208.14,158.14s-12.33-.53-23.18-8.66c0,0,4.62,12.74,22.73,12.98l.45-4.32Z"/></g><path class="e" d="M203.14,104.22c-.3,.63-2.66,.07-5.5,.13-2.84,0-5.19,.59-5.5-.04-.14-.3,.32-.87,1.3-1.4,.97-.54,2.48-.99,4.19-1,1.7-.01,3.22,.41,4.2,.93,.99,.52,1.46,1.08,1.32,1.38Z"/><path class="e" d="M226.25,104.66c-.48,.5-2.07-.23-4.05-.46-1.97-.3-3.7,0-4.03-.62-.14-.29,.18-.81,.97-1.25,.77-.44,2.03-.73,3.39-.55,1.36,.18,2.49,.8,3.12,1.42,.64,.63,.82,1.21,.6,1.46Z"/></g><path class="e" d="M237.58,90.98c3.73-2.01,5.86-6.49,5.33-10.69-.53-4.2-3.56-7.92-7.47-9.55-.79-.33-1.62-.56-2.46-.73-1.54-1.12-3.34-1.87-5.23-2.09-.04-2.26-1.86-4.2-3.97-5-2.11-.81-4.46-.7-6.7-.42-1.93-2.98-5.33-4.96-8.88-5.16-3.55-.21-7.15,1.37-9.42,4.1-2.32-1.72-5.46-2.26-8.22-1.43-2.76,.83-5.08,3.02-6.06,5.73-2.51-.19-5.09,.71-6.93,2.43-.69,.65-1.28,1.4-1.74,2.23-.89,.93-1.58,2.04-1.99,3.26-4.25,.03-8.34,2.93-9.78,6.93-1.44,4-.13,8.84,3.12,11.57-2.31,1.86-3.68,4.84-3.58,7.8,.1,2.96,1.67,5.84,4.11,7.53-1.33,3.03-1.34,6.6-.04,9.64,.56,1.31,1.5,2.59,2.76,3.15,.04,.23,.09,.46,.2,.68,.87,1.73,3.49,1.28,5.12,.24,3.96-2.54,6.4-6.91,7.9-11.37,1.51-4.46,2.24-9.14,3.71-13.62,.03-.1,.07-.21,.1-.32,.62-1.87,1.66-3.55,3.02-4.94,1.26,1.08,2.48,2.21,3.88,3.09,4.99,3.15,12.07,2.48,16.39-1.55,3.27,3.37,7.74,5.54,12.4,6.02,4.66,.48,9.37,.08,13.26-2.54,.73-.5,1.76-1.4,2.33-2.71,.35-.81-.36-1.95-1.17-2.29Z"/><path class="c" d="M175.4,115.7c-.22-.14-8.95-4.52-10.36,4.95-1.41,9.46,8.38,8.93,8.44,8.66,.06-.27,1.92-13.6,1.92-13.6Z"/><path class="f" d="M171.12,125.29s-.18,.09-.48,.18c-.29,.08-.77,.1-1.24-.16-.95-.52-1.55-2.23-1.34-3.94,.1-.86,.41-1.66,.81-2.29,.39-.65,.91-1.07,1.43-1.08,.52-.04,.83,.31,.91,.6,.09,.28,0,.46,.05,.49,.02,.03,.23-.13,.21-.53-.01-.19-.09-.43-.28-.65-.2-.22-.52-.36-.88-.38-.74-.06-1.49,.52-1.94,1.21-.49,.69-.85,1.58-.96,2.55-.22,1.92,.49,3.85,1.79,4.45,.64,.27,1.23,.16,1.55-.03,.33-.19,.41-.39,.38-.42Z"/><path class="d" d="M242.58,78.66s.03,.08,.06,.23c.03,.16,.06,.39,.08,.7,.03,.62,0,1.55-.37,2.68-.37,1.11-1.1,2.43-2.44,3.45-1.31,1.02-3.21,1.73-5.31,1.51l.19-.13c-.74,2.68-2.36,5.52-4.9,7.79-1.28,1.12-2.79,2.11-4.55,2.66-1.74,.59-3.71,.57-5.56,.17-1.84-.39-3.56-1.09-5.12-1.95-1.55-.87-2.99-1.87-4.07-3.16l.29,.04c-2.7,1.99-5.68,3.24-8.48,3.49-2.82,.21-5.26-.54-7.07-1.44-1.83-.91-3.06-2.01-3.83-2.8-.38-.4-.66-.72-.84-.95-.18-.23-.26-.35-.25-.35,.03-.02,.4,.45,1.19,1.21,.79,.75,2.03,1.8,3.84,2.66,1.79,.85,4.21,1.56,6.93,1.33,2.71-.27,5.63-1.51,8.26-3.47l.16-.12,.13,.15c1.03,1.21,2.44,2.2,3.96,3.04,1.53,.84,3.21,1.52,5,1.9,1.81,.39,3.67,.41,5.34-.15,1.68-.52,3.16-1.47,4.4-2.56,2.49-2.2,4.1-4.97,4.84-7.57l.04-.14,.15,.02c1.99,.22,3.83-.43,5.1-1.39,1.3-.96,2.04-2.22,2.42-3.29,.39-1.08,.45-2,.45-2.61,0-.61-.06-.94-.04-.94Z"/><path class="d" d="M175.23,73.28c.07,.03-.66,1.08-1.25,3.15-.57,2.04-.89,5.25,.46,8.64l.06,.15-.13,.09c-1.22,.81-2.3,2.03-3.01,3.53-.71,1.5-1.02,3.28-.7,5.04,.4,2.31,1.73,4.34,3.4,5.55l.16,.12-.11,.17c-1.24,1.85-1.8,3.93-1.85,5.78-.08,1.86,.3,3.5,.79,4.77,1.01,2.57,2.36,3.64,2.27,3.7,0,0-.09-.06-.23-.19-.14-.14-.36-.33-.6-.63-.49-.57-1.14-1.49-1.68-2.79-.53-1.29-.96-2.96-.9-4.88,.03-1.91,.58-4.07,1.86-6l.05,.28c-1.77-1.27-3.17-3.38-3.59-5.81-.33-1.85,0-3.73,.75-5.3,.75-1.57,1.89-2.84,3.18-3.68l-.07,.23c-1.36-3.51-.96-6.79-.32-8.84,.32-1.04,.7-1.82,.98-2.33,.14-.26,.27-.44,.35-.57,.08-.13,.13-.19,.14-.18Z"/><path class="e" d="M168.48,128.32c.08,.03-.34,.62-.41,1.68-.02,.51,.07,1.17,.48,1.69,.39,.52,1.13,.91,1.87,.81,.75-.09,1.24-.76,1.39-1.41,.17-.66,.05-1.29-.1-1.8-.33-1.02-.67-1.62-.6-1.66,.04-.02,.47,.51,.89,1.56,.2,.52,.37,1.22,.2,1.99-.09,.38-.25,.77-.54,1.1-.28,.33-.71,.58-1.18,.64-.94,.12-1.79-.36-2.25-1-.47-.65-.53-1.4-.46-1.96,.16-1.15,.7-1.68,.72-1.65Z"/><g><path class="f" d="M202.57,132.39c-1.07,.92-1.65,2.37-1.52,3.77,.14,1.4,1,2.71,2.23,3.4,.49,.27,1.06,.46,1.61,.37,.98-.15,1.65-1.05,2.2-1.87,.46-.69,.92-1.37,1.38-2.06,.15-.23,.32-.5,.25-.77-.07-.29-.37-.45-.64-.58-1.76-.84-3.52-1.69-5.28-2.53"/><path class="e" d="M204.83,139.64c-.02,.05-1.02-.04-2.46-.86-.7-.42-1.5-1.16-1.83-2.28-.18-.54-.16-1.23,.03-1.8,.17-.58,.43-1.17,.82-1.69,.38-.5,.85-.92,1.36-1.23l.18-.1,.17,.1c3.41,2.09,6.16,3.36,6.09,3.52-.06,.16-2.95-.88-6.44-2.94h.35c-.43,.27-.83,.63-1.16,1.06-.64,.91-1.05,2.02-.79,2.91,.24,.93,.88,1.61,1.49,2.04,1.26,.86,2.25,1.14,2.2,1.26Z"/></g></g><g><path class="d" d="M78.22,253.77s34.44-61.75,40.17-71.73c6.74-11.74,12.61-16.01,17.9-18.57,5.54-2.68,11.66-3.94,17.81-3.99l17.08-.13s6.49,9.71,15.29,11.61c12.13,2.62,21.22-6.38,21.22-6.38l24.53,10.06-4.93,45.35c-1.24,11.42-5.41,22.33-12.1,31.67l-1.62,2.11-90.44-.08,10.49-32.63-19.38,32.71h-36.02Z"/><path class="d" d="M232.23,174.65s7.13,4.18,12.5,21.54c5.37,17.37,16.96,48.25,16.96,48.25l29.04-32.97,17.24,10.94s-27.81,48.28-32.23,53.99c-6.59,8.52-23.23,13.39-33,2.07-7.1-8.23-24.08-48.06-24.08-48.06l13.57-55.76Z"/><path class="e" d="M221.77,199.82s.11,.17,.27,.52c.15,.35,.4,.86,.65,1.54,.54,1.35,1.22,3.35,1.84,5.88,1.27,5.03,2.12,12.33,.92,20.22-1.2,7.9-4.17,14.61-6.88,19.04-1.35,2.23-2.59,3.93-3.51,5.06-.44,.58-.83,.99-1.08,1.28-.25,.29-.4,.43-.41,.41-.04-.03,.45-.67,1.29-1.84,.85-1.17,2.03-2.9,3.32-5.14,2.59-4.45,5.46-11.11,6.64-18.91,1.19-7.8,.42-15.01-.73-20.02-.57-2.52-1.18-4.52-1.64-5.89-.46-1.37-.74-2.13-.69-2.14Z"/><path class="e" d="M139.24,194.27s0,.22-.04,.63c-.07,.48-.15,1.07-.24,1.79-.22,1.56-.59,3.8-1.1,6.56-1.01,5.52-2.65,13.12-4.92,21.38-2.28,8.27-4.76,15.63-6.72,20.89-.98,2.63-1.8,4.75-2.41,6.2-.28,.67-.52,1.22-.71,1.66-.17,.38-.27,.57-.29,.56-.02,0,.04-.22,.17-.61,.16-.46,.36-1.02,.6-1.71,.56-1.57,1.31-3.68,2.22-6.26,1.85-5.29,4.25-12.66,6.53-20.91,2.27-8.25,3.97-15.81,5.1-21.3,.53-2.68,.97-4.88,1.3-6.51,.14-.71,.26-1.3,.36-1.77,.09-.4,.15-.61,.17-.61Z"/></g><g><g><path class="c" d="M95.99,253.72s3.29-4.47,4.91-5.32c1.62-.85,3.85-.82,4.83,.06l.98,.88s5.1-2.29,7.56-.53c0,0,4.86-2.3,7.18,.33,0,0,3.74-2.43,5.33-.31,1.58,2.12,1.42,5.71,.65,7.56-.77,1.85-2.2,8.15-3.32,8.26,0,0-2.98,.32-3.38-1.3-.4-1.61-.57-2.39-.57-2.39,0,0-1.14,5.71-2.51,5.99-1.37,.28-4,.13-4.08-2.37,0,0-1.27,1.89-2.52,1.34-1.25-.55-2.78-1.46-2.65-3.01,.14-1.55,.16-3.1,.16-3.1,0,0-.68,2.26-1.81,1.77-1.13-.49-2.26-.38-2.89-2.3-.63-1.91-2.2-5.56-2.2-5.56h-5.66Z"/><path class="f" d="M108.46,259.69c-.07-.04,.23-.62,.49-1.61,.27-.99,.45-2.42,.16-3.95-.28-1.53-.97-2.81-1.57-3.63-.6-.84-1.09-1.27-1.03-1.33,.03-.05,.61,.3,1.31,1.12,.7,.8,1.48,2.13,1.78,3.76,.3,1.63,.05,3.15-.32,4.15-.36,1.01-.77,1.54-.82,1.51Z"/><path class="f" d="M114.58,248.84c.06-.02,.37,.83,.65,2.25,.28,1.42,.49,3.43,.34,5.64-.15,2.21-.62,4.18-1.09,5.55-.47,1.37-.9,2.16-.95,2.14-.16-.05,1.28-3.36,1.55-7.72,.32-4.36-.66-7.83-.5-7.86Z"/><path class="f" d="M121.57,249.21c.12-.02,.46,2.7,.07,6.04-.37,3.34-1.32,5.91-1.44,5.86-.14-.04,.58-2.64,.95-5.92,.39-3.28,.27-5.97,.42-5.98Z"/></g><path class="c" d="M140.67,250.51c-.21-.53-.74-.88-1.28-1.04-1.28-.37-2.68,.14-3.7,.99-1.02,.85-2.01,2.2-2.7,3.33l7.24-.02c-.07-1.11,.86-2.24,.46-3.27Z"/></g></g></g><g id="b"/></svg>